<?xml version="1.0" encoding="UTF-8"?>
<svg xmlns="http://www.w3.org/2000/svg" viewBox="0 0 0.533968 0.445545" width="800" height="800">
  <style>
    .boundary {
      fill: none;
      stroke: #222222;
      stroke-width: 1;
      vector-effect: non-scaling-stroke;
    }
  </style>
  <path class="boundary" d="M0.337663,0.245282 L0.337669,0.245586 L0.337683,0.245842 L0.338230,0.246557 L0.338357,0.246591 L0.338601,0.246665 L0.339167,0.246821 L0.339235,0.246902 L0.339451,0.247185 L0.339458,0.247199 L0.339842,0.247529 L0.340510,0.248677 L0.341144,0.250499 L0.341616,0.252207 L0.342318,0.253152 L0.342534,0.253638 L0.342581,0.253753 L0.342568,0.253766 L0.342446,0.254057 L0.342345,0.254313 L0.341677,0.254860 L0.341252,0.255481 L0.340530,0.255785 L0.339902,0.256318 L0.339741,0.257142 L0.339653,0.257607 L0.339868,0.258127 L0.340179,0.258303 L0.340449,0.258613 L0.340544,0.258728 L0.340746,0.258971 L0.340915,0.259356 L0.341124,0.259545 L0.341462,0.259626 L0.341765,0.259639 L0.342163,0.259984 L0.342608,0.260321 L0.342716,0.260503 L0.342892,0.260834 L0.343229,0.260854 L0.343303,0.260598 L0.343459,0.260247 L0.343701,0.260301 L0.343978,0.260544 L0.344201,0.260564 L0.344484,0.260389 L0.344794,0.260537 L0.345233,0.260719 L0.345556,0.260929 L0.345692,0.261023 L0.346130,0.261259 L0.346562,0.261354 L0.346778,0.261543 L0.346670,0.261779 L0.346663,0.261779 L0.346542,0.262036 L0.346521,0.262259 L0.346603,0.262454 L0.346751,0.262657 L0.346872,0.262873 L0.347169,0.263575 L0.347169,0.263589 L0.347223,0.264048 L0.347345,0.264392 L0.347378,0.264622 L0.347345,0.264804 L0.347392,0.264939 L0.347486,0.265141 L0.347540,0.265276 L0.347729,0.265445 L0.347972,0.265655 L0.348195,0.265844 L0.348302,0.265979 L0.348329,0.266006 L0.348424,0.266269 L0.348451,0.266343 L0.348519,0.266505 L0.348532,0.266546 L0.348573,0.266877 L0.348579,0.266917 L0.348579,0.266991 L0.348579,0.267059 L0.348566,0.267140 L0.348519,0.267255 L0.348505,0.267282 L0.348471,0.267403 L0.348485,0.267511 L0.348546,0.267633 L0.348593,0.267835 L0.348593,0.267970 L0.348593,0.268018 L0.348600,0.268072 L0.348606,0.268105 L0.348647,0.268274 L0.348748,0.268537 L0.348754,0.268571 L0.348781,0.268645 L0.348883,0.268693 L0.348991,0.268699 L0.349065,0.268666 L0.349078,0.268666 L0.349078,0.268659 L0.349152,0.268578 L0.349213,0.268564 L0.349281,0.268585 L0.349349,0.268639 L0.349490,0.268747 L0.349611,0.268801 L0.349659,0.268828 L0.349672,0.268828 L0.349686,0.268828 L0.349821,0.268848 L0.349996,0.268787 L0.350070,0.268781 L0.350104,0.268787 L0.350138,0.268781 L0.350286,0.268855 L0.350293,0.268875 L0.350340,0.268943 L0.350347,0.269057 L0.350340,0.269071 L0.350306,0.269138 L0.350306,0.269159 L0.350286,0.269186 L0.350239,0.269267 L0.350253,0.269361 L0.350273,0.269429 L0.350353,0.269557 L0.350380,0.269699 L0.350320,0.269861 L0.350299,0.270043 L0.350306,0.270273 L0.350299,0.270300 L0.350286,0.270421 L0.350360,0.270577 L0.350455,0.270651 L0.350536,0.270671 L0.350590,0.270793 L0.350671,0.270813 L0.350799,0.270779 L0.350927,0.270799 L0.351042,0.270860 L0.351332,0.270928 L0.351413,0.270948 L0.351568,0.270651 L0.351683,0.270502 L0.351892,0.270192 L0.352013,0.270097 L0.352101,0.270084 L0.352176,0.270070 L0.352351,0.269955 L0.352425,0.269868 L0.352493,0.269685 L0.352520,0.269570 L0.352560,0.269375 L0.352641,0.269307 L0.352722,0.269152 L0.352816,0.269037 L0.352911,0.269030 L0.353026,0.268943 L0.353235,0.268787 L0.353437,0.268618 L0.353565,0.268625 L0.353687,0.268571 L0.353781,0.268544 L0.353902,0.268578 L0.354024,0.268605 L0.354146,0.268625 L0.354287,0.268585 L0.354361,0.268402 L0.354388,0.268254 L0.354544,0.268112 L0.354739,0.268011 L0.354861,0.267835 L0.355023,0.267639 L0.355238,0.267592 L0.355414,0.267498 L0.355609,0.267417 L0.355765,0.267423 L0.355947,0.267430 L0.356190,0.267322 L0.356379,0.267167 L0.356534,0.267045 L0.356729,0.267039 L0.356871,0.267086 L0.357020,0.267187 L0.357236,0.267390 L0.357290,0.268011 L0.357195,0.268240 L0.357013,0.268652 L0.356973,0.268976 L0.356986,0.269213 L0.357175,0.269375 L0.357236,0.269429 L0.357168,0.269638 L0.357114,0.269726 L0.357074,0.269793 L0.357006,0.269820 L0.356952,0.269874 L0.356919,0.269915 L0.356837,0.270016 L0.356777,0.270084 L0.356770,0.270212 L0.356770,0.270313 L0.356656,0.270401 L0.356649,0.270455 L0.356656,0.270563 L0.356696,0.270651 L0.356702,0.270725 L0.356588,0.271063 L0.356527,0.271164 L0.356460,0.271312 L0.356480,0.271394 L0.356534,0.271535 L0.356527,0.271664 L0.356561,0.271826 L0.356588,0.271974 L0.356581,0.272082 L0.356507,0.272265 L0.356358,0.272312 L0.356190,0.272379 L0.356035,0.272454 L0.355940,0.272548 L0.355860,0.272683 L0.355758,0.272663 L0.355616,0.272717 L0.355488,0.272879 L0.355333,0.273041 L0.354908,0.273055 L0.354490,0.273001 L0.354004,0.272906 L0.353889,0.272899 L0.353916,0.273304 L0.353707,0.273696 L0.353491,0.273845 L0.353113,0.273851 L0.352816,0.273905 L0.352688,0.273851 L0.352587,0.274047 L0.352594,0.274209 L0.352594,0.274290 L0.352513,0.274473 L0.352472,0.274655 L0.352675,0.274790 L0.352945,0.274803 L0.353120,0.274878 L0.353538,0.274925 L0.353748,0.274932 L0.354031,0.274965 L0.354227,0.275168 L0.354409,0.275330 L0.354503,0.275546 L0.354537,0.275755 L0.354598,0.275809 L0.354645,0.275999 L0.354712,0.276066 L0.354725,0.276086 L0.354739,0.276093 L0.354725,0.276154 L0.354672,0.276309 L0.354692,0.276647 L0.354698,0.276843 L0.354665,0.277072 L0.354685,0.277146 L0.354786,0.277207 L0.354854,0.277241 L0.354874,0.277255 L0.354935,0.277309 L0.355016,0.277450 L0.355070,0.277619 L0.355178,0.278072 L0.355191,0.278166 L0.355245,0.278490 L0.355265,0.278808 L0.355151,0.278949 L0.355697,0.278914 L0.355643,0.279181 L0.355800,0.279599 L0.355841,0.279846 L0.355674,0.280191 L0.355754,0.280629 L0.355945,0.280684 L0.356099,0.280911 L0.355824,0.281753 L0.355733,0.282059 L0.355603,0.282347 L0.355151,0.282638 L0.354944,0.282850 L0.354606,0.283140 L0.354210,0.283430 L0.353908,0.283548 L0.353587,0.283647 L0.352961,0.283711 L0.352734,0.283752 L0.351880,0.283704 L0.351750,0.284030 L0.351373,0.284244 L0.350785,0.284250 L0.350121,0.284220 L0.349668,0.284530 L0.349368,0.284800 L0.349144,0.285146 L0.348939,0.285472 L0.348887,0.285873 L0.348987,0.286349 L0.349065,0.286615 L0.349086,0.286805 L0.349089,0.287015 L0.349092,0.287358 L0.349079,0.287835 L0.348761,0.288239 L0.348477,0.288299 L0.348175,0.288398 L0.347777,0.288441 L0.347417,0.288483 L0.347134,0.288638 L0.346947,0.288927 L0.346874,0.289175 L0.346691,0.289768 L0.346694,0.290092 L0.346739,0.290645 L0.346856,0.291006 L0.346555,0.291200 L0.346253,0.291260 L0.346100,0.291262 L0.345930,0.291264 L0.345475,0.291326 L0.345080,0.291655 L0.344971,0.292000 L0.344880,0.292420 L0.344808,0.292764 L0.344680,0.293166 L0.344346,0.293818 L0.344295,0.294352 L0.344411,0.294561 L0.344548,0.294902 L0.344608,0.295226 L0.344631,0.295607 L0.344675,0.296178 L0.344757,0.296673 L0.344828,0.297278 L0.344545,0.297483 L0.344230,0.297845 L0.344056,0.298168 L0.343917,0.298492 L0.343801,0.298779 L0.343580,0.299163 L0.343370,0.299427 L0.343207,0.299691 L0.343102,0.299871 L0.342985,0.299992 L0.342560,0.300217 L0.342555,0.300277 L0.342502,0.300814 L0.342574,0.300890 L0.343020,0.300963 L0.343021,0.301028 L0.342976,0.301285 L0.342895,0.301429 L0.342973,0.301456 L0.343117,0.301576 L0.343104,0.301698 L0.343041,0.301799 L0.342985,0.301914 L0.342887,0.302029 L0.342902,0.302129 L0.342967,0.302229 L0.343076,0.302385 L0.343142,0.302527 L0.343107,0.302649 L0.343081,0.302828 L0.343089,0.302899 L0.343090,0.302971 L0.343048,0.303057 L0.343006,0.303165 L0.343029,0.303265 L0.343087,0.303378 L0.343074,0.303472 L0.343033,0.303615 L0.342985,0.303801 L0.343085,0.303865 L0.343108,0.303929 L0.343059,0.304065 L0.343003,0.304130 L0.342990,0.304259 L0.343048,0.304330 L0.342979,0.304488 L0.342937,0.304567 L0.342880,0.304618 L0.342868,0.304711 L0.342889,0.304753 L0.342940,0.304832 L0.343000,0.305074 L0.343031,0.305367 L0.343033,0.305588 L0.343035,0.305724 L0.343044,0.305889 L0.343074,0.306045 L0.343154,0.306223 L0.343236,0.306465 L0.343283,0.306880 L0.343335,0.307115 L0.343366,0.307301 L0.343404,0.307529 L0.343422,0.307815 L0.343436,0.307857 L0.343268,0.308088 L0.343156,0.308225 L0.343030,0.308441 L0.342954,0.308592 L0.342913,0.308779 L0.342922,0.308921 L0.342952,0.309036 L0.342995,0.309149 L0.343040,0.309263 L0.343040,0.309363 L0.342992,0.309471 L0.342930,0.309615 L0.342904,0.309894 L0.342950,0.310194 L0.342981,0.310365 L0.343018,0.310500 L0.343069,0.310593 L0.343077,0.310679 L0.343049,0.310793 L0.343009,0.310972 L0.342812,0.311196 L0.342742,0.311297 L0.342665,0.311398 L0.342553,0.311557 L0.342371,0.311795 L0.342208,0.311897 L0.341912,0.312107 L0.341814,0.312202 L0.341679,0.312267 L0.341531,0.312348 L0.341481,0.312384 L0.341255,0.312480 L0.341084,0.312432 L0.340723,0.312534 L0.340344,0.312741 L0.339897,0.313056 L0.339309,0.313515 L0.338508,0.313954 L0.337918,0.314199 L0.337283,0.314659 L0.335772,0.315224 L0.334896,0.315258 L0.334492,0.315263 L0.333782,0.315319 L0.333285,0.315420 L0.332716,0.315426 L0.332361,0.315454 L0.331935,0.315531 L0.331155,0.315730 L0.330564,0.315904 L0.329783,0.316032 L0.329382,0.316227 L0.329456,0.316513 L0.330077,0.316887 L0.330889,0.317425 L0.331984,0.317746 L0.332223,0.317863 L0.332510,0.318146 L0.332893,0.318403 L0.333226,0.318542 L0.333608,0.318824 L0.333499,0.319588 L0.333458,0.320208 L0.333346,0.320805 L0.333377,0.321401 L0.333407,0.321996 L0.333674,0.322517 L0.333633,0.323066 L0.333421,0.323188 L0.332639,0.323197 L0.331951,0.323252 L0.331145,0.323190 L0.330884,0.323145 L0.330431,0.322984 L0.330097,0.322773 L0.329311,0.322449 L0.328907,0.322310 L0.327933,0.322202 L0.327103,0.322141 L0.325675,0.321692 L0.325551,0.321676 L0.325444,0.321681 L0.325292,0.321733 L0.325122,0.321802 L0.325147,0.321874 L0.325180,0.321930 L0.325102,0.321981 L0.325008,0.322054 L0.324927,0.322105 L0.324867,0.322138 L0.324650,0.322187 L0.324508,0.322196 L0.324423,0.322240 L0.324367,0.322340 L0.324319,0.322455 L0.324269,0.322520 L0.324178,0.322564 L0.324085,0.322587 L0.323937,0.322674 L0.323761,0.322784 L0.323705,0.322841 L0.323642,0.322942 L0.323564,0.323007 L0.323500,0.323051 L0.323409,0.323152 L0.323361,0.323267 L0.323326,0.323318 L0.323271,0.323454 L0.323258,0.323554 L0.323280,0.323640 L0.323246,0.323855 L0.323205,0.323955 L0.323165,0.324099 L0.323138,0.324292 L0.323133,0.324500 L0.323163,0.324621 L0.323201,0.324849 L0.323153,0.325021 L0.323120,0.325201 L0.323065,0.325330 L0.323059,0.325437 L0.323074,0.325551 L0.323140,0.325651 L0.323135,0.325858 L0.323165,0.325994 L0.323216,0.326107 L0.323261,0.326264 L0.323276,0.326378 L0.323278,0.326543 L0.323308,0.326721 L0.323218,0.326923 L0.323143,0.327138 L0.322999,0.327619 L0.322890,0.328063 L0.322617,0.328467 L0.322442,0.328690 L0.322351,0.328792 L0.322202,0.328858 L0.322153,0.328908 L0.322104,0.328980 L0.322048,0.329010 L0.321884,0.328983 L0.321806,0.329034 L0.321594,0.329144 L0.321495,0.329209 L0.321347,0.329318 L0.321117,0.329523 L0.321611,0.328872 L0.321774,0.328662 L0.322131,0.328115 L0.322293,0.327865 L0.322326,0.327743 L0.322577,0.327040 L0.322570,0.326108 L0.322536,0.325743 L0.322482,0.325142 L0.322455,0.324655 L0.322502,0.323925 L0.322650,0.323682 L0.322664,0.323648 L0.322670,0.323621 L0.322792,0.323243 L0.322833,0.322966 L0.322853,0.322817 L0.322853,0.322790 L0.322880,0.322445 L0.322880,0.322432 L0.322914,0.322330 L0.323885,0.318932 L0.324870,0.315472 L0.325045,0.314959 L0.325079,0.314878 L0.325687,0.313067 L0.325748,0.312898 L0.325882,0.310459 L0.325936,0.309479 L0.325997,0.307290 L0.325511,0.305750 L0.324789,0.304169 L0.324283,0.303703 L0.322968,0.303298 L0.322792,0.303811 L0.322360,0.304163 L0.321915,0.304541 L0.321362,0.304744 L0.320363,0.304858 L0.319924,0.304831 L0.319513,0.304622 L0.319466,0.304527 L0.319385,0.304379 L0.319257,0.304291 L0.319128,0.304284 L0.318872,0.304467 L0.318049,0.304494 L0.317050,0.304487 L0.315849,0.304554 L0.315013,0.304568 L0.314500,0.304426 L0.313852,0.304500 L0.313772,0.304500 L0.313164,0.304507 L0.312436,0.304392 L0.311639,0.304325 L0.310735,0.304413 L0.310020,0.304521 L0.309527,0.305358 L0.308880,0.307358 L0.308543,0.308155 L0.308003,0.308412 L0.307605,0.308385 L0.307423,0.308094 L0.307220,0.307608 L0.306917,0.307358 L0.306687,0.307324 L0.306053,0.307723 L0.305992,0.308243 L0.305783,0.308615 L0.305472,0.308743 L0.305358,0.308783 L0.304251,0.309121 L0.302774,0.309723 L0.301681,0.310283 L0.300392,0.311276 L0.298692,0.312364 L0.298300,0.312614 L0.297835,0.312871 L0.297275,0.312972 L0.297174,0.315006 L0.296992,0.314999 L0.296776,0.314992 L0.296398,0.314851 L0.296149,0.314675 L0.295784,0.314479 L0.295561,0.314459 L0.295244,0.314492 L0.294893,0.314486 L0.294556,0.314459 L0.294252,0.314418 L0.294104,0.314310 L0.293861,0.314242 L0.293584,0.314188 L0.293274,0.314188 L0.292991,0.314107 L0.292734,0.314026 L0.292593,0.313763 L0.292525,0.313506 L0.292383,0.313276 L0.292248,0.313195 L0.292026,0.313020 L0.291877,0.312810 L0.291783,0.312641 L0.291709,0.312432 L0.291608,0.312222 L0.291499,0.312060 L0.291230,0.311851 L0.291013,0.311830 L0.290757,0.311898 L0.290501,0.311932 L0.290352,0.311878 L0.290096,0.311851 L0.289948,0.311851 L0.289644,0.311857 L0.289448,0.311857 L0.289152,0.311925 L0.289219,0.312229 L0.289043,0.312270 L0.286426,0.316965 L0.285825,0.318094 L0.285778,0.317925 L0.284908,0.317519 L0.284827,0.317580 L0.284780,0.317594 L0.284759,0.317560 L0.284739,0.317486 L0.284692,0.317371 L0.284604,0.317107 L0.284557,0.316992 L0.284449,0.316999 L0.284321,0.317067 L0.284219,0.317080 L0.284159,0.317121 L0.284119,0.317202 L0.284105,0.317283 L0.284031,0.317283 L0.283916,0.317290 L0.283841,0.317283 L0.283748,0.317344 L0.283599,0.317452 L0.283531,0.317472 L0.283491,0.317438 L0.283450,0.317432 L0.283160,0.317411 L0.282951,0.317391 L0.282749,0.317384 L0.282398,0.317391 L0.282081,0.317432 L0.281784,0.317513 L0.281521,0.317573 L0.281204,0.317682 L0.281359,0.317864 L0.281419,0.318026 L0.281419,0.318209 L0.281359,0.318391 L0.281264,0.318824 L0.281217,0.319040 L0.281217,0.319155 L0.281251,0.319297 L0.281460,0.319594 L0.281858,0.320060 L0.282142,0.320378 L0.282040,0.320492 L0.281771,0.320648 L0.281581,0.320722 L0.281500,0.320803 L0.281379,0.320986 L0.281305,0.321080 L0.281082,0.321195 L0.280812,0.321310 L0.280448,0.321574 L0.279955,0.321925 L0.279733,0.322033 L0.279389,0.322202 L0.279180,0.322270 L0.279038,0.322276 L0.278849,0.322324 L0.278714,0.322357 L0.278498,0.322405 L0.278275,0.322391 L0.278228,0.322405 L0.278046,0.322472 L0.277958,0.322506 L0.277830,0.322567 L0.277743,0.322614 L0.277668,0.322621 L0.277608,0.322567 L0.277540,0.322486 L0.277526,0.322391 L0.277479,0.322276 L0.277385,0.322128 L0.277338,0.322020 L0.277324,0.321912 L0.277297,0.321736 L0.277230,0.321668 L0.277182,0.321621 L0.277067,0.321648 L0.276926,0.321709 L0.276811,0.321675 L0.276703,0.321689 L0.276562,0.321709 L0.276521,0.321770 L0.276474,0.321878 L0.276434,0.322047 L0.276366,0.322148 L0.276312,0.322175 L0.276204,0.322182 L0.276117,0.322195 L0.276049,0.322202 L0.275975,0.322202 L0.275887,0.322202 L0.275759,0.322276 L0.275644,0.322297 L0.275401,0.322344 L0.275266,0.322418 L0.275118,0.322486 L0.274983,0.322560 L0.274835,0.322587 L0.274679,0.322499 L0.274464,0.322526 L0.274180,0.322729 L0.274079,0.322912 L0.274045,0.323013 L0.273951,0.323053 L0.273836,0.323033 L0.273701,0.322993 L0.273559,0.322898 L0.273458,0.322810 L0.273296,0.322763 L0.273073,0.322790 L0.272985,0.322851 L0.272837,0.322918 L0.272729,0.322979 L0.272655,0.323040 L0.272527,0.323053 L0.272419,0.323013 L0.272297,0.322912 L0.272203,0.322871 L0.272095,0.322878 L0.272021,0.322993 L0.271947,0.323236 L0.271940,0.323391 L0.272001,0.323493 L0.272082,0.323547 L0.272170,0.323716 L0.272237,0.323925 L0.272257,0.324101 L0.272358,0.324351 L0.272392,0.324729 L0.272777,0.325094 L0.273357,0.325554 L0.273478,0.325655 L0.274234,0.326338 L0.274605,0.326851 L0.274780,0.327311 L0.275246,0.327649 L0.275651,0.328372 L0.275806,0.328520 L0.275887,0.328757 L0.275900,0.328852 L0.275900,0.328872 L0.275826,0.328980 L0.275773,0.329129 L0.275819,0.329291 L0.275759,0.329453 L0.275692,0.329791 L0.275523,0.330102 L0.275192,0.330575 L0.274767,0.331366 L0.274632,0.331629 L0.274106,0.332920 L0.273809,0.333535 L0.273546,0.333981 L0.273546,0.334346 L0.273566,0.334353 L0.273735,0.334441 L0.273762,0.334454 L0.273836,0.334549 L0.273903,0.334610 L0.273930,0.334650 L0.273957,0.334677 L0.274167,0.334981 L0.274240,0.335083 L0.274254,0.335137 L0.274335,0.335671 L0.274416,0.336482 L0.274591,0.337097 L0.274632,0.337658 L0.274753,0.337861 L0.274909,0.338003 L0.274943,0.338253 L0.275077,0.338672 L0.275334,0.339158 L0.275597,0.339361 L0.275631,0.339517 L0.275570,0.339807 L0.275462,0.340213 L0.275368,0.340402 L0.275253,0.340503 L0.275172,0.340821 L0.275097,0.340990 L0.275057,0.341085 L0.275016,0.341443 L0.275097,0.341700 L0.275314,0.342234 L0.275523,0.342916 L0.275489,0.343308 L0.275489,0.343457 L0.275502,0.343734 L0.275617,0.344194 L0.275948,0.344674 L0.276986,0.345559 L0.277324,0.345519 L0.277594,0.345438 L0.277736,0.345438 L0.278275,0.345600 L0.278417,0.345620 L0.278492,0.345634 L0.278781,0.345614 L0.278815,0.345614 L0.278890,0.345586 L0.278930,0.345573 L0.278984,0.345553 L0.278990,0.345553 L0.279038,0.345559 L0.279078,0.345573 L0.279125,0.345586 L0.279186,0.345586 L0.279200,0.345539 L0.279207,0.345499 L0.279254,0.345343 L0.279261,0.345309 L0.279281,0.345181 L0.279281,0.345167 L0.279315,0.345140 L0.279578,0.344883 L0.279638,0.344850 L0.279969,0.344579 L0.280124,0.344931 L0.280252,0.345573 L0.280414,0.346168 L0.280435,0.346249 L0.280516,0.346837 L0.280711,0.347439 L0.280718,0.347486 L0.280806,0.347858 L0.281028,0.348993 L0.281433,0.349764 L0.281932,0.350454 L0.282533,0.350859 L0.283086,0.351285 L0.283099,0.351292 L0.283497,0.351231 L0.284273,0.350893 L0.284496,0.350528 L0.285144,0.350251 L0.285677,0.350075 L0.285745,0.350054 L0.285787,0.350183 L0.285941,0.350543 L0.286089,0.350815 L0.286196,0.351021 L0.286334,0.351284 L0.286430,0.351433 L0.286594,0.351632 L0.286846,0.351867 L0.287026,0.352065 L0.287142,0.352249 L0.287227,0.352417 L0.287278,0.352572 L0.287371,0.352721 L0.287464,0.352813 L0.287613,0.353013 L0.287651,0.353158 L0.287638,0.353313 L0.287621,0.353440 L0.287653,0.353573 L0.287691,0.353720 L0.287739,0.353860 L0.287810,0.354026 L0.287903,0.354261 L0.287936,0.354442 L0.287912,0.354592 L0.287929,0.354837 L0.287948,0.354985 L0.288011,0.355158 L0.288068,0.355365 L0.288154,0.355843 L0.288233,0.356254 L0.288291,0.356718 L0.288317,0.357137 L0.288292,0.357495 L0.288270,0.357831 L0.288219,0.357989 L0.288150,0.358137 L0.288159,0.358273 L0.288171,0.358423 L0.288219,0.358594 L0.288257,0.358772 L0.288270,0.358915 L0.288257,0.359065 L0.288216,0.359191 L0.288182,0.359320 L0.288180,0.359409 L0.288180,0.359491 L0.288218,0.359630 L0.288013,0.359719 L0.287949,0.359723 L0.287842,0.359710 L0.287696,0.359662 L0.287589,0.359627 L0.287478,0.359607 L0.287131,0.359574 L0.287157,0.359729 L0.287123,0.359908 L0.287066,0.360076 L0.286759,0.360175 L0.286593,0.360153 L0.286258,0.359859 L0.285881,0.360007 L0.285655,0.359938 L0.285392,0.359822 L0.285273,0.359752 L0.285082,0.359635 L0.284939,0.359577 L0.284808,0.359496 L0.284665,0.359438 L0.284582,0.359439 L0.284452,0.359464 L0.284133,0.359480 L0.284061,0.359505 L0.283767,0.359592 L0.283613,0.359653 L0.283413,0.359751 L0.283242,0.359783 L0.283071,0.359815 L0.282870,0.359841 L0.282716,0.359879 L0.282568,0.359928 L0.282386,0.359990 L0.282114,0.360083 L0.281949,0.360133 L0.281802,0.360176 L0.281672,0.360213 L0.281483,0.360269 L0.281300,0.360319 L0.281194,0.360404 L0.281030,0.360537 L0.280870,0.360569 L0.280664,0.360667 L0.280470,0.360729 L0.280322,0.360784 L0.280133,0.360870 L0.279939,0.360926 L0.279750,0.360988 L0.279597,0.361067 L0.279456,0.361164 L0.279238,0.361232 L0.279167,0.361251 L0.278948,0.361260 L0.278776,0.361268 L0.278611,0.361300 L0.278368,0.361315 L0.278208,0.361346 L0.278044,0.361420 L0.277697,0.361537 L0.277655,0.361588 L0.277563,0.361689 L0.277551,0.361696 L0.277394,0.361784 L0.277252,0.361822 L0.277153,0.361837 L0.277011,0.361868 L0.276891,0.361905 L0.276792,0.361963 L0.276623,0.362087 L0.276490,0.362217 L0.276377,0.362312 L0.276278,0.362356 L0.276108,0.362401 L0.275974,0.362460 L0.275882,0.362525 L0.275783,0.362584 L0.275643,0.362678 L0.275593,0.362700 L0.275394,0.362724 L0.275337,0.362725 L0.275173,0.362706 L0.274995,0.362672 L0.274910,0.362680 L0.274847,0.362702 L0.274449,0.362750 L0.274195,0.362839 L0.274067,0.362891 L0.273923,0.362965 L0.273898,0.362979 L0.273629,0.363075 L0.273324,0.363186 L0.273148,0.363267 L0.273021,0.363354 L0.272880,0.363435 L0.272696,0.363516 L0.272484,0.363597 L0.272264,0.363650 L0.271938,0.363675 L0.271731,0.363671 L0.271596,0.363658 L0.271275,0.363591 L0.271119,0.363557 L0.270919,0.363502 L0.270740,0.363447 L0.270626,0.363427 L0.270242,0.363332 L0.269877,0.363208 L0.269757,0.363216 L0.269678,0.363203 L0.269648,0.363197 L0.269543,0.363176 L0.269230,0.363144 L0.268861,0.363120 L0.268526,0.363137 L0.268469,0.363139 L0.268351,0.363128 L0.268213,0.363114 L0.267971,0.363096 L0.267815,0.363076 L0.267630,0.363057 L0.267381,0.363060 L0.266990,0.362986 L0.266901,0.362980 L0.266748,0.362968 L0.266719,0.362961 L0.266477,0.362893 L0.266448,0.362882 L0.266255,0.362810 L0.265883,0.362593 L0.265696,0.362481 L0.265318,0.362321 L0.265040,0.362231 L0.264861,0.362191 L0.264698,0.362179 L0.264371,0.362140 L0.264078,0.362129 L0.263830,0.362139 L0.263638,0.362149 L0.263397,0.362159 L0.263242,0.362177 L0.263120,0.362191 L0.262467,0.362207 L0.261770,0.362187 L0.261642,0.362188 L0.261506,0.362147 L0.261470,0.362098 L0.261452,0.362045 L0.261448,0.362034 L0.261419,0.361998 L0.261297,0.361935 L0.261133,0.361887 L0.261040,0.361853 L0.260983,0.361803 L0.260853,0.361705 L0.260732,0.361614 L0.260617,0.361501 L0.260523,0.361359 L0.260378,0.361146 L0.260363,0.361125 L0.260233,0.360955 L0.260046,0.360750 L0.259781,0.360560 L0.259457,0.360307 L0.259192,0.360117 L0.259006,0.359998 L0.258783,0.359844 L0.258611,0.359667 L0.258545,0.359503 L0.258551,0.359382 L0.258584,0.359274 L0.258661,0.359144 L0.258738,0.359029 L0.258828,0.358899 L0.258883,0.358741 L0.258939,0.358612 L0.258910,0.358584 L0.258895,0.358498 L0.258865,0.358398 L0.258843,0.358334 L0.258863,0.358270 L0.258960,0.358032 L0.259001,0.357925 L0.259036,0.357831 L0.259034,0.357717 L0.259010,0.357524 L0.258994,0.357346 L0.258993,0.357238 L0.258970,0.357167 L0.258933,0.357032 L0.258932,0.356925 L0.258965,0.356767 L0.258970,0.356624 L0.258927,0.356524 L0.258550,0.356522 L0.258415,0.356473 L0.258258,0.356518 L0.258046,0.356578 L0.258013,0.356772 L0.257765,0.356811 L0.257766,0.356896 L0.257766,0.356939 L0.257724,0.356976 L0.257653,0.356998 L0.257554,0.357021 L0.257469,0.357057 L0.257384,0.357094 L0.257314,0.357109 L0.257193,0.357082 L0.257178,0.357090 L0.257088,0.357284 L0.256997,0.357421 L0.256970,0.357507 L0.256922,0.357622 L0.256859,0.357709 L0.256726,0.357868 L0.256514,0.358028 L0.256452,0.358107 L0.256423,0.358150 L0.256375,0.358194 L0.256297,0.358231 L0.256155,0.358275 L0.256063,0.358305 L0.255929,0.358343 L0.255787,0.358387 L0.255688,0.358446 L0.255561,0.358540 L0.255520,0.358619 L0.255464,0.358713 L0.255394,0.358793 L0.255310,0.358865 L0.255183,0.358953 L0.255091,0.359004 L0.254928,0.359042 L0.254848,0.358928 L0.254791,0.358922 L0.254727,0.358887 L0.254591,0.358817 L0.254455,0.358712 L0.254160,0.358415 L0.253780,0.358141 L0.253486,0.357995 L0.253207,0.357862 L0.253029,0.357779 L0.252751,0.357718 L0.252459,0.357650 L0.252288,0.357652 L0.252075,0.357655 L0.251911,0.357657 L0.251834,0.357687 L0.251763,0.357752 L0.251743,0.357838 L0.251794,0.357930 L0.251822,0.357959 L0.251931,0.358050 L0.252030,0.358120 L0.252139,0.358198 L0.252232,0.358268 L0.252618,0.358478 L0.252869,0.358610 L0.252978,0.358780 L0.253029,0.358887 L0.253058,0.358994 L0.253053,0.359180 L0.253077,0.359308 L0.253096,0.359737 L0.253062,0.359916 L0.253014,0.360038 L0.252958,0.360096 L0.252773,0.360106 L0.252631,0.360086 L0.252503,0.360045 L0.252381,0.359996 L0.252253,0.359977 L0.252225,0.359984 L0.252154,0.360006 L0.252062,0.360051 L0.252020,0.360065 L0.251977,0.360087 L0.251935,0.360102 L0.251878,0.360103 L0.251814,0.360097 L0.251764,0.360061 L0.251648,0.359927 L0.251491,0.359858 L0.251341,0.359809 L0.251128,0.359755 L0.250963,0.359707 L0.250763,0.359667 L0.250621,0.359633 L0.250536,0.359612 L0.250386,0.359557 L0.250293,0.359537 L0.250215,0.359559 L0.250181,0.359646 L0.250168,0.359774 L0.250163,0.359889 L0.250163,0.359982 L0.250164,0.360032 L0.250144,0.360096 L0.250123,0.360147 L0.250095,0.360169 L0.250052,0.360169 L0.249945,0.360142 L0.249667,0.360067 L0.249567,0.360047 L0.249461,0.360055 L0.249405,0.360113 L0.249405,0.360185 L0.249449,0.360220 L0.249513,0.360262 L0.249542,0.360319 L0.249510,0.360555 L0.249461,0.360649 L0.249434,0.360735 L0.249428,0.360835 L0.249458,0.360956 L0.249586,0.361019 L0.249658,0.361046 L0.249743,0.361053 L0.249837,0.361094 L0.249908,0.361151 L0.249938,0.361279 L0.249914,0.361608 L0.249915,0.361715 L0.249853,0.361838 L0.249783,0.361896 L0.249670,0.361983 L0.249571,0.362049 L0.249240,0.362260 L0.249078,0.362362 L0.248774,0.362473 L0.248633,0.362611 L0.248533,0.362701 L0.248521,0.362713 L0.248586,0.362798 L0.248559,0.362962 L0.248503,0.363042 L0.248497,0.363149 L0.248506,0.363220 L0.248584,0.363227 L0.248676,0.363218 L0.248699,0.363311 L0.248687,0.363447 L0.248666,0.363569 L0.248667,0.363640 L0.248697,0.363754 L0.248748,0.363854 L0.248828,0.363939 L0.248835,0.364017 L0.248830,0.364020 L0.248758,0.364061 L0.248651,0.364077 L0.248595,0.364092 L0.248417,0.364094 L0.248304,0.364095 L0.248162,0.364097 L0.247813,0.364073 L0.247485,0.364020 L0.247300,0.364015 L0.247066,0.363983 L0.246944,0.363934 L0.246815,0.363843 L0.246699,0.363701 L0.246584,0.363560 L0.246540,0.363446 L0.246453,0.363325 L0.246416,0.363240 L0.246359,0.363191 L0.246201,0.363107 L0.246043,0.362923 L0.245936,0.362875 L0.245864,0.362825 L0.245764,0.362769 L0.245649,0.362714 L0.245577,0.362650 L0.245456,0.362566 L0.245369,0.362467 L0.245311,0.362375 L0.245210,0.362269 L0.245139,0.362248 L0.245104,0.362313 L0.245056,0.362457 L0.245002,0.362651 L0.244926,0.362823 L0.244861,0.362810 L0.244741,0.362811 L0.244663,0.362841 L0.244607,0.362884 L0.244345,0.362945 L0.244217,0.362982 L0.244103,0.362962 L0.244054,0.363035 L0.243992,0.363150 L0.243971,0.363243 L0.243888,0.363394 L0.243811,0.363517 L0.243756,0.363610 L0.243700,0.363740 L0.243674,0.363862 L0.243646,0.363948 L0.243619,0.364020 L0.243577,0.364077 L0.243513,0.364100 L0.243436,0.364136 L0.243365,0.364173 L0.243196,0.364233 L0.243097,0.364320 L0.243027,0.364413 L0.242957,0.364543 L0.242902,0.364644 L0.242875,0.364773 L0.242862,0.364859 L0.242828,0.364967 L0.242943,0.365108 L0.242873,0.365145 L0.242910,0.365273 L0.242912,0.365445 L0.242900,0.365616 L0.242873,0.365760 L0.242912,0.366024 L0.242914,0.366131 L0.242924,0.366410 L0.242991,0.366580 L0.243077,0.366665 L0.243242,0.366820 L0.243287,0.366991 L0.243398,0.367319 L0.243457,0.367511 L0.243552,0.367667 L0.243638,0.367773 L0.243661,0.367909 L0.243685,0.368080 L0.243708,0.368187 L0.243731,0.368344 L0.243797,0.368522 L0.243891,0.368628 L0.243899,0.368756 L0.243880,0.368864 L0.243852,0.368936 L0.243824,0.368979 L0.243768,0.369044 L0.243767,0.369047 L0.243720,0.369138 L0.243721,0.369209 L0.243707,0.369252 L0.243615,0.369289 L0.243544,0.369312 L0.243481,0.369348 L0.243382,0.369385 L0.243268,0.369415 L0.243119,0.369417 L0.243012,0.369390 L0.242934,0.369377 L0.242806,0.369371 L0.242720,0.369365 L0.242585,0.369331 L0.242526,0.369314 L0.242514,0.369311 L0.242329,0.369292 L0.242215,0.369322 L0.242131,0.369366 L0.241997,0.369446 L0.241992,0.369457 L0.241921,0.369619 L0.241886,0.369719 L0.241866,0.369819 L0.241846,0.369906 L0.241811,0.369985 L0.241749,0.370086 L0.241728,0.370114 L0.241622,0.370173 L0.241573,0.370174 L0.241509,0.370174 L0.241344,0.370126 L0.241231,0.370135 L0.241039,0.370138 L0.240876,0.370125 L0.240755,0.370127 L0.240648,0.370128 L0.240471,0.370138 L0.240357,0.370161 L0.240265,0.370198 L0.240215,0.370205 L0.240102,0.370193 L0.240031,0.370194 L0.239935,0.370139 L0.239909,0.370124 L0.239787,0.370047 L0.239730,0.370047 L0.239666,0.370070 L0.239454,0.370151 L0.239334,0.370203 L0.239237,0.370217 L0.239129,0.370234 L0.239029,0.370235 L0.239005,0.370230 L0.238844,0.370195 L0.238694,0.370189 L0.238396,0.370229 L0.238363,0.370234 L0.238184,0.370260 L0.237957,0.370328 L0.237865,0.370366 L0.237996,0.370115 L0.238306,0.369561 L0.238326,0.369453 L0.238448,0.368918 L0.238589,0.368080 L0.238724,0.367728 L0.238920,0.367417 L0.238833,0.366836 L0.238826,0.366727 L0.238819,0.366471 L0.238941,0.365443 L0.238826,0.365125 L0.238536,0.363955 L0.238340,0.362887 L0.238232,0.362048 L0.238529,0.361251 L0.238542,0.361142 L0.238691,0.360088 L0.239102,0.358796 L0.239177,0.357762 L0.239190,0.357376 L0.239231,0.356281 L0.239231,0.354638 L0.239156,0.354125 L0.239014,0.353719 L0.238677,0.353313 L0.238475,0.352732 L0.238441,0.352428 L0.238441,0.352374 L0.238414,0.352225 L0.238407,0.352117 L0.238299,0.351684 L0.238084,0.351407 L0.237773,0.351042 L0.237402,0.350683 L0.237186,0.350264 L0.237078,0.349886 L0.236903,0.349696 L0.236673,0.349453 L0.236606,0.349189 L0.236350,0.348757 L0.236214,0.348385 L0.236194,0.347898 L0.236208,0.347493 L0.236154,0.347229 L0.235985,0.346844 L0.235911,0.346587 L0.235904,0.346560 L0.235668,0.346431 L0.235513,0.346418 L0.235398,0.346418 L0.235236,0.346371 L0.235115,0.346303 L0.234959,0.346127 L0.234899,0.345992 L0.234872,0.345924 L0.234845,0.345837 L0.234703,0.345695 L0.234541,0.345614 L0.234379,0.345600 L0.234204,0.345559 L0.234042,0.345424 L0.233934,0.345296 L0.233792,0.345262 L0.233617,0.345235 L0.233441,0.345221 L0.233320,0.345235 L0.233307,0.345235 L0.233287,0.345221 L0.233070,0.345127 L0.233043,0.345107 L0.232659,0.344775 L0.232382,0.344600 L0.232322,0.344559 L0.232011,0.344349 L0.231863,0.344322 L0.231667,0.344336 L0.231579,0.344248 L0.231417,0.343863 L0.231383,0.343788 L0.231310,0.343640 L0.231263,0.343430 L0.231141,0.343207 L0.231073,0.343018 L0.230985,0.342734 L0.230844,0.342531 L0.230750,0.342376 L0.230750,0.342254 L0.230763,0.342119 L0.230817,0.341936 L0.230716,0.341679 L0.230655,0.341504 L0.230560,0.341423 L0.230493,0.341382 L0.230426,0.341355 L0.230250,0.341321 L0.230230,0.341321 L0.230223,0.341321 L0.230055,0.341206 L0.229852,0.340997 L0.229670,0.340672 L0.229636,0.340443 L0.229508,0.339909 L0.229440,0.339706 L0.229359,0.339625 L0.229178,0.339496 L0.229164,0.339314 L0.229232,0.339016 L0.229259,0.338766 L0.229164,0.338597 L0.229096,0.338462 L0.229130,0.338354 L0.229198,0.338273 L0.229265,0.338097 L0.229279,0.338063 L0.229292,0.338016 L0.229313,0.337948 L0.229313,0.337921 L0.229339,0.337739 L0.229339,0.337698 L0.229353,0.337692 L0.229440,0.337543 L0.229454,0.337306 L0.229454,0.337273 L0.229609,0.337110 L0.229691,0.336894 L0.229852,0.336610 L0.229994,0.336516 L0.230095,0.336428 L0.230169,0.336272 L0.230237,0.336184 L0.230324,0.336191 L0.230439,0.336211 L0.230554,0.336205 L0.230675,0.336279 L0.230797,0.336286 L0.230925,0.336252 L0.231033,0.336184 L0.231107,0.336103 L0.231168,0.335988 L0.231215,0.335738 L0.231310,0.333042 L0.231168,0.331480 L0.230972,0.330156 L0.230790,0.329940 L0.230473,0.329575 L0.230338,0.329399 L0.229980,0.329135 L0.229623,0.328865 L0.229555,0.328838 L0.228982,0.328561 L0.228854,0.328514 L0.227963,0.328007 L0.227862,0.327953 L0.226998,0.327473 L0.226924,0.327426 L0.226749,0.326946 L0.226647,0.326817 L0.226398,0.326513 L0.226209,0.326277 L0.225494,0.325851 L0.225453,0.325811 L0.225331,0.325696 L0.224637,0.325006 L0.224589,0.324959 L0.224893,0.323770 L0.225150,0.322398 L0.225237,0.320736 L0.225089,0.319222 L0.225014,0.318783 L0.225838,0.319702 L0.226634,0.320364 L0.227572,0.321141 L0.229218,0.322425 L0.230527,0.322972 L0.232120,0.323067 L0.232605,0.322952 L0.232611,0.322939 L0.232929,0.322837 L0.232942,0.322831 L0.233097,0.322743 L0.233455,0.322770 L0.233738,0.322702 L0.234170,0.322486 L0.234690,0.322574 L0.235115,0.322567 L0.235776,0.322553 L0.236012,0.322540 L0.237632,0.322445 L0.239527,0.322330 L0.240034,0.322107 L0.240627,0.321607 L0.240674,0.321553 L0.241113,0.321040 L0.241531,0.320060 L0.241868,0.319175 L0.242172,0.318783 L0.242402,0.318574 L0.242624,0.318384 L0.242665,0.318357 L0.243015,0.318202 L0.243205,0.318114 L0.244055,0.317878 L0.244723,0.317628 L0.245775,0.317296 L0.246639,0.316898 L0.247138,0.316364 L0.247779,0.316188 L0.248568,0.316263 L0.249128,0.316040 L0.249291,0.315972 L0.250012,0.315878 L0.250808,0.316006 L0.251436,0.316080 L0.252299,0.315918 L0.252960,0.315533 L0.253568,0.315128 L0.254040,0.314972 L0.254836,0.314351 L0.255018,0.313810 L0.255504,0.313351 L0.255720,0.312729 L0.255700,0.311783 L0.255396,0.311412 L0.255275,0.311270 L0.254620,0.310729 L0.254566,0.310506 L0.254432,0.310121 L0.254283,0.309790 L0.254074,0.309601 L0.254040,0.309439 L0.254054,0.309216 L0.254061,0.308892 L0.254061,0.308871 L0.254027,0.308588 L0.253973,0.308202 L0.253763,0.307594 L0.253143,0.306946 L0.253116,0.306926 L0.252111,0.305980 L0.251281,0.305379 L0.250727,0.304973 L0.250565,0.304838 L0.249452,0.303906 L0.248346,0.303122 L0.247880,0.302818 L0.247556,0.302589 L0.246389,0.301488 L0.245485,0.300623 L0.244919,0.300157 L0.244331,0.299718 L0.244129,0.299387 L0.243913,0.299049 L0.243232,0.298265 L0.242665,0.297718 L0.241504,0.296773 L0.240998,0.296435 L0.240202,0.295564 L0.240101,0.295415 L0.239602,0.294719 L0.239480,0.294530 L0.238860,0.293402 L0.238144,0.292524 L0.237496,0.291619 L0.236437,0.290653 L0.235547,0.290153 L0.235291,0.289883 L0.235081,0.289660 L0.235074,0.289660 L0.234319,0.289242 L0.234258,0.289215 L0.233927,0.289073 L0.233921,0.289059 L0.233671,0.288593 L0.233604,0.288472 L0.233138,0.287627 L0.233070,0.287513 L0.232949,0.287067 L0.232841,0.286695 L0.232544,0.286189 L0.232315,0.285547 L0.232247,0.285480 L0.232079,0.285318 L0.231890,0.285115 L0.231370,0.284784 L0.231256,0.283332 L0.231559,0.281982 L0.231654,0.281637 L0.231910,0.280631 L0.232416,0.279962 L0.232423,0.279956 L0.232409,0.279692 L0.232301,0.279496 L0.232227,0.279355 L0.232139,0.279274 L0.232038,0.279159 L0.231910,0.279024 L0.231910,0.279003 L0.231910,0.278943 L0.231910,0.278929 L0.232032,0.278895 L0.232227,0.278929 L0.232261,0.278922 L0.232409,0.278916 L0.232578,0.278902 L0.232996,0.278814 L0.233070,0.278794 L0.233792,0.278625 L0.233873,0.278612 L0.233900,0.278605 L0.234420,0.278382 L0.234832,0.277511 L0.234886,0.277396 L0.234899,0.277356 L0.235324,0.277531 L0.235331,0.277538 L0.235364,0.277552 L0.235803,0.277727 L0.236525,0.277997 L0.237261,0.277916 L0.237733,0.277862 L0.237888,0.277842 L0.238016,0.277896 L0.238502,0.278119 L0.239217,0.278727 L0.239703,0.279024 L0.240128,0.278578 L0.240411,0.278288 L0.240627,0.277970 L0.240695,0.277869 L0.241282,0.278038 L0.242597,0.277005 L0.243198,0.277059 L0.243886,0.276586 L0.244412,0.276437 L0.245222,0.276890 L0.245607,0.277234 L0.246173,0.277228 L0.246207,0.277221 L0.246240,0.277255 L0.246254,0.277288 L0.246288,0.277369 L0.246430,0.277430 L0.246909,0.277916 L0.247468,0.278159 L0.248508,0.278497 L0.249034,0.278700 L0.249668,0.279240 L0.249823,0.279186 L0.250228,0.279550 L0.250282,0.279571 L0.250485,0.279638 L0.251152,0.279449 L0.251733,0.279699 L0.251854,0.280280 L0.251632,0.281043 L0.251207,0.282488 L0.251193,0.282562 L0.251901,0.282819 L0.252157,0.283217 L0.252252,0.283974 L0.252091,0.284899 L0.252064,0.285642 L0.252252,0.286182 L0.252610,0.286432 L0.252846,0.286601 L0.253507,0.286891 L0.254486,0.286986 L0.254593,0.286999 L0.255329,0.287087 L0.256375,0.287310 L0.257501,0.287756 L0.258716,0.288026 L0.259566,0.288370 L0.259876,0.288640 L0.260106,0.288830 L0.260672,0.289863 L0.261556,0.291065 L0.262535,0.291768 L0.263020,0.292754 L0.263216,0.293213 L0.263621,0.294132 L0.264585,0.295462 L0.265503,0.296212 L0.265955,0.296489 L0.266907,0.296516 L0.267717,0.296151 L0.268215,0.295685 L0.269079,0.295631 L0.270219,0.295604 L0.271252,0.295104 L0.272257,0.294841 L0.272541,0.294800 L0.272561,0.294794 L0.273242,0.294571 L0.273404,0.294517 L0.273424,0.294503 L0.273485,0.294456 L0.273883,0.294199 L0.273964,0.294145 L0.274767,0.293963 L0.275583,0.293787 L0.276197,0.293828 L0.276562,0.293828 L0.277182,0.293814 L0.277904,0.293564 L0.278127,0.294030 L0.278444,0.295239 L0.279166,0.297387 L0.279908,0.296705 L0.279935,0.296685 L0.280509,0.296057 L0.280745,0.295820 L0.281190,0.294875 L0.281690,0.294044 L0.281993,0.293172 L0.282222,0.292396 L0.282607,0.291889 L0.283052,0.291423 L0.283518,0.291322 L0.283565,0.291315 L0.284010,0.291214 L0.284429,0.291085 L0.284793,0.290991 L0.285718,0.290606 L0.285893,0.290538 L0.286709,0.290201 L0.286723,0.290194 L0.287249,0.289627 L0.287350,0.289458 L0.287525,0.289154 L0.287937,0.288472 L0.288174,0.287992 L0.288457,0.287452 L0.288693,0.287317 L0.289064,0.287351 L0.289543,0.287479 L0.290008,0.287810 L0.290278,0.287985 L0.290589,0.287925 L0.290832,0.287844 L0.291061,0.287810 L0.291553,0.287762 L0.291716,0.287729 L0.291972,0.287695 L0.292248,0.287540 L0.292275,0.287506 L0.292464,0.287195 L0.292761,0.286790 L0.293159,0.286452 L0.293288,0.286331 L0.293720,0.286054 L0.293874,0.285892 L0.293969,0.285561 L0.294104,0.285264 L0.294286,0.285075 L0.294961,0.284973 L0.296020,0.284912 L0.296782,0.284696 L0.297416,0.284379 L0.297673,0.284122 L0.297977,0.283798 L0.298179,0.283656 L0.298611,0.283515 L0.299009,0.283461 L0.299151,0.283379 L0.299394,0.283116 L0.299447,0.283049 L0.299643,0.282839 L0.299799,0.282677 L0.300068,0.282529 L0.300541,0.282353 L0.300770,0.282218 L0.301242,0.281948 L0.301532,0.281738 L0.301796,0.281637 L0.302113,0.281543 L0.302497,0.281448 L0.302956,0.281023 L0.303678,0.280469 L0.304164,0.279983 L0.304717,0.279800 L0.305432,0.279821 L0.306329,0.279773 L0.306431,0.279767 L0.306775,0.279767 L0.307044,0.279827 L0.307476,0.280016 L0.307908,0.280131 L0.308617,0.279868 L0.309292,0.279422 L0.309548,0.279247 L0.310823,0.278355 L0.311680,0.277747 L0.312732,0.276944 L0.314237,0.275897 L0.314412,0.275803 L0.315823,0.275067 L0.315924,0.275013 L0.316633,0.274202 L0.317070,0.273190 L0.317307,0.272346 L0.316234,0.271529 L0.315991,0.271171 L0.315869,0.270597 L0.315863,0.270543 L0.315559,0.269597 L0.315229,0.269138 L0.314878,0.268841 L0.314433,0.268436 L0.314156,0.268011 L0.314210,0.267707 L0.314311,0.267538 L0.314446,0.267477 L0.314696,0.267417 L0.314912,0.267356 L0.315027,0.267234 L0.315053,0.266917 L0.315087,0.266539 L0.315080,0.266249 L0.315107,0.266080 L0.315323,0.265864 L0.315573,0.265695 L0.316274,0.265425 L0.316491,0.265303 L0.316639,0.265121 L0.316659,0.264932 L0.316626,0.264757 L0.316821,0.264574 L0.316990,0.264412 L0.317260,0.264338 L0.317597,0.264196 L0.317766,0.263838 L0.317786,0.263535 L0.317773,0.263089 L0.317887,0.262596 L0.318090,0.262589 L0.318225,0.262650 L0.318440,0.262670 L0.318542,0.262299 L0.318710,0.261840 L0.318865,0.261408 L0.319068,0.261124 L0.319439,0.261138 L0.319459,0.260888 L0.319553,0.260281 L0.319709,0.260146 L0.319931,0.259606 L0.320168,0.258917 L0.320343,0.258114 L0.320451,0.257452 L0.320512,0.257115 L0.320573,0.256635 L0.320613,0.256304 L0.320532,0.256142 L0.320532,0.256129 L0.320343,0.255812 L0.320235,0.255548 L0.320275,0.255339 L0.320431,0.255029 L0.320444,0.255015 L0.320627,0.254738 L0.320694,0.254651 L0.320998,0.254063 L0.321065,0.253463 L0.321220,0.253064 L0.321476,0.253051 L0.321713,0.252943 L0.321989,0.252389 L0.322057,0.251674 L0.322252,0.251174 L0.322367,0.250466 L0.322516,0.249959 L0.322529,0.249791 L0.322522,0.249460 L0.322509,0.249237 L0.322509,0.249068 L0.322563,0.248839 L0.322610,0.248636 L0.322604,0.248461 L0.322670,0.248346 L0.322806,0.248245 L0.322819,0.248225 L0.323217,0.248069 L0.323581,0.247982 L0.323844,0.247901 L0.324013,0.247725 L0.324034,0.247705 L0.324149,0.247577 L0.324499,0.247536 L0.324958,0.247637 L0.324965,0.247644 L0.325235,0.247516 L0.325606,0.247205 L0.325963,0.247273 L0.326051,0.247313 L0.326334,0.247435 L0.326692,0.247590 L0.326698,0.247590 L0.326807,0.247678 L0.327023,0.247847 L0.327151,0.247739 L0.327394,0.247543 L0.327920,0.247739 L0.329451,0.247516 L0.330747,0.246956 L0.331097,0.246800 L0.331422,0.246591 L0.332305,0.246024 L0.333594,0.245525 L0.334046,0.245498 L0.334161,0.245491 L0.334309,0.245478 L0.335112,0.245491 L0.335490,0.245437 L0.335753,0.245052 L0.336583,0.244755 L0.337183,0.244708 L0.337210,0.244708 L0.337494,0.244884 L0.337663,0.245282 Z">
    <title>Bërzhita</title>
  </path>
</svg>
