<?xml version="1.0" encoding="UTF-8"?>
<svg xmlns="http://www.w3.org/2000/svg" viewBox="0 0 0.533968 0.445545" width="800" height="800">
  <style>
    .boundary {
      fill: none;
      stroke: #222222;
      stroke-width: 1;
      vector-effect: non-scaling-stroke;
    }
  </style>
  <path class="boundary" d="M0.252016,0.153495 L0.253494,0.155011 L0.253986,0.155867 L0.254755,0.157195 L0.255997,0.158833 L0.256975,0.160127 L0.258230,0.161772 L0.258979,0.162850 L0.259006,0.162904 L0.260005,0.164893 L0.260862,0.166221 L0.261401,0.167434 L0.262170,0.169066 L0.262386,0.169362 L0.263209,0.170535 L0.264356,0.171971 L0.265281,0.173428 L0.266043,0.174526 L0.266394,0.175039 L0.267730,0.176846 L0.268047,0.177196 L0.269349,0.178659 L0.270705,0.180082 L0.270705,0.180089 L0.272790,0.182611 L0.273181,0.183137 L0.274989,0.185564 L0.275570,0.186353 L0.276528,0.187661 L0.277439,0.188882 L0.280225,0.192928 L0.280286,0.193029 L0.280853,0.193852 L0.283599,0.191836 L0.283599,0.191822 L0.284780,0.190655 L0.284840,0.190163 L0.285076,0.188349 L0.285157,0.187702 L0.285144,0.185733 L0.285697,0.183973 L0.285704,0.183932 L0.286075,0.182550 L0.286588,0.180925 L0.287458,0.180473 L0.288254,0.179866 L0.290494,0.178808 L0.291074,0.178565 L0.292930,0.177776 L0.295757,0.176556 L0.297133,0.176077 L0.297356,0.175996 L0.298955,0.175619 L0.299670,0.175437 L0.299677,0.175443 L0.299866,0.175403 L0.300089,0.175349 L0.300156,0.175396 L0.300716,0.175807 L0.300777,0.175888 L0.300973,0.176131 L0.301013,0.176172 L0.301215,0.176293 L0.301471,0.176441 L0.301647,0.176549 L0.301688,0.176576 L0.302220,0.176192 L0.302234,0.176172 L0.302511,0.175990 L0.302531,0.175983 L0.302760,0.175774 L0.302922,0.175619 L0.302963,0.175592 L0.303206,0.175437 L0.303273,0.175437 L0.303482,0.175437 L0.303556,0.175450 L0.303793,0.175484 L0.303826,0.175484 L0.303833,0.175484 L0.303853,0.175470 L0.303873,0.175457 L0.303975,0.175369 L0.304022,0.175329 L0.304205,0.175207 L0.304224,0.175194 L0.304542,0.175147 L0.304562,0.175147 L0.304879,0.175052 L0.304906,0.175046 L0.305176,0.174796 L0.305182,0.174722 L0.305209,0.174486 L0.305216,0.174473 L0.305318,0.174358 L0.305520,0.174317 L0.305553,0.174317 L0.305770,0.174216 L0.305783,0.174223 L0.306080,0.174243 L0.306100,0.174243 L0.306222,0.174270 L0.306505,0.174324 L0.306950,0.174378 L0.307044,0.174506 L0.307159,0.174661 L0.307409,0.174749 L0.307915,0.174661 L0.308597,0.174398 L0.309224,0.174210 L0.309932,0.173974 L0.310398,0.173980 L0.310640,0.174223 L0.310803,0.174385 L0.311039,0.174513 L0.311262,0.174641 L0.311788,0.174688 L0.311848,0.174695 L0.311916,0.174715 L0.312253,0.174769 L0.312267,0.174769 L0.312658,0.174776 L0.312712,0.174783 L0.312827,0.174816 L0.313137,0.174911 L0.313286,0.174897 L0.313353,0.174897 L0.313440,0.174891 L0.313724,0.174709 L0.313819,0.174695 L0.313872,0.174695 L0.313872,0.174769 L0.313920,0.175356 L0.313913,0.175369 L0.313967,0.175416 L0.314082,0.175538 L0.314149,0.175605 L0.314851,0.176050 L0.314878,0.176064 L0.315276,0.176273 L0.315290,0.176293 L0.315580,0.176677 L0.315593,0.176704 L0.315667,0.176799 L0.315769,0.176812 L0.316072,0.176873 L0.316153,0.176920 L0.316281,0.176981 L0.316335,0.177014 L0.316382,0.177062 L0.316855,0.177547 L0.317024,0.177844 L0.317091,0.177965 L0.317131,0.178032 L0.317138,0.178046 L0.317152,0.178053 L0.317280,0.178127 L0.317489,0.178255 L0.317820,0.178504 L0.317961,0.178552 L0.318198,0.178633 L0.318467,0.178747 L0.319028,0.178990 L0.319155,0.179044 L0.319378,0.179071 L0.319945,0.179165 L0.320694,0.179239 L0.320815,0.179253 L0.321005,0.179206 L0.321166,0.179165 L0.321173,0.179185 L0.321247,0.179442 L0.320849,0.181107 L0.320444,0.182388 L0.320060,0.183420 L0.319486,0.183615 L0.318791,0.183824 L0.318339,0.183838 L0.317786,0.183231 L0.317070,0.183245 L0.316558,0.183872 L0.316254,0.184276 L0.315917,0.184714 L0.315384,0.185685 L0.314946,0.186400 L0.314763,0.187176 L0.314723,0.188848 L0.314419,0.189900 L0.314392,0.189988 L0.314270,0.190048 L0.313879,0.190264 L0.313313,0.190258 L0.312678,0.190183 L0.311929,0.190446 L0.311748,0.190500 L0.312557,0.191579 L0.313589,0.192732 L0.314575,0.193555 L0.314966,0.194021 L0.314959,0.194216 L0.314824,0.194675 L0.315006,0.195578 L0.315175,0.196051 L0.315391,0.196381 L0.315559,0.196853 L0.315566,0.197318 L0.315444,0.198242 L0.315425,0.199369 L0.315600,0.199902 L0.316328,0.200846 L0.317348,0.201817 L0.318784,0.203200 L0.319574,0.204380 L0.319857,0.205905 L0.320175,0.206883 L0.320532,0.207503 L0.321159,0.208117 L0.321551,0.208468 L0.321976,0.209271 L0.323224,0.211159 L0.322435,0.211328 L0.322435,0.211288 L0.320687,0.211517 L0.320687,0.211490 L0.320087,0.211645 L0.319196,0.211874 L0.319203,0.211901 L0.318974,0.211969 L0.318967,0.211969 L0.318953,0.212124 L0.318953,0.212131 L0.318947,0.212138 L0.318852,0.212266 L0.318838,0.212279 L0.318778,0.212407 L0.318940,0.212657 L0.318933,0.212664 L0.318940,0.212704 L0.318960,0.212826 L0.319054,0.212900 L0.319047,0.212907 L0.319351,0.212859 L0.319365,0.212859 L0.319466,0.212893 L0.319486,0.212947 L0.319493,0.212967 L0.319479,0.213075 L0.319479,0.213170 L0.319499,0.213224 L0.319601,0.213493 L0.319614,0.213520 L0.319641,0.213534 L0.319972,0.213736 L0.319985,0.213757 L0.320127,0.213925 L0.320323,0.214155 L0.321301,0.215261 L0.321928,0.215963 L0.322111,0.216165 L0.323878,0.218661 L0.324985,0.220503 L0.325336,0.221097 L0.325072,0.222783 L0.324378,0.223849 L0.323865,0.224639 L0.323433,0.225037 L0.322711,0.225523 L0.322414,0.226110 L0.322394,0.226299 L0.322293,0.226994 L0.322380,0.227459 L0.322421,0.228282 L0.322604,0.229524 L0.322948,0.231002 L0.323116,0.231818 L0.323163,0.232061 L0.323460,0.233816 L0.323460,0.235165 L0.323048,0.236313 L0.323002,0.236421 L0.322192,0.238425 L0.321726,0.239417 L0.321294,0.241043 L0.321240,0.241415 L0.321139,0.241712 L0.321369,0.242602 L0.321544,0.243298 L0.321821,0.243905 L0.321989,0.244249 L0.322077,0.244452 L0.322124,0.244512 L0.322313,0.244755 L0.322475,0.245113 L0.322482,0.245127 L0.322522,0.245187 L0.322833,0.245687 L0.323379,0.246665 L0.323636,0.247165 L0.323952,0.247604 L0.324040,0.247590 L0.324149,0.247577 L0.324034,0.247705 L0.324013,0.247725 L0.323844,0.247901 L0.323581,0.247982 L0.323217,0.248069 L0.322819,0.248225 L0.322806,0.248245 L0.322670,0.248346 L0.322604,0.248461 L0.322610,0.248636 L0.322563,0.248839 L0.322509,0.249068 L0.322509,0.249237 L0.322522,0.249460 L0.322529,0.249791 L0.322516,0.249959 L0.322367,0.250466 L0.322252,0.251174 L0.322057,0.251674 L0.321989,0.252389 L0.321713,0.252943 L0.321476,0.253051 L0.321220,0.253064 L0.321065,0.253463 L0.320998,0.254063 L0.320694,0.254651 L0.320627,0.254738 L0.320444,0.255015 L0.320431,0.255029 L0.320275,0.255339 L0.320235,0.255548 L0.320343,0.255812 L0.320532,0.256129 L0.320532,0.256142 L0.320613,0.256304 L0.320573,0.256635 L0.320512,0.257115 L0.320451,0.257452 L0.320343,0.258114 L0.320168,0.258917 L0.319931,0.259606 L0.319709,0.260146 L0.319553,0.260281 L0.319459,0.260888 L0.319439,0.261138 L0.319068,0.261124 L0.318865,0.261408 L0.318710,0.261840 L0.318542,0.262299 L0.318440,0.262670 L0.318225,0.262650 L0.318090,0.262589 L0.317887,0.262596 L0.317773,0.263089 L0.317786,0.263535 L0.317766,0.263838 L0.317597,0.264196 L0.317260,0.264338 L0.316990,0.264412 L0.316821,0.264574 L0.316626,0.264757 L0.316659,0.264932 L0.316639,0.265121 L0.316491,0.265303 L0.316274,0.265425 L0.315573,0.265695 L0.315323,0.265864 L0.315107,0.266080 L0.315080,0.266249 L0.315087,0.266539 L0.315053,0.266917 L0.315027,0.267234 L0.314912,0.267356 L0.314696,0.267417 L0.314446,0.267477 L0.314311,0.267538 L0.314210,0.267707 L0.314156,0.268011 L0.314433,0.268436 L0.314878,0.268841 L0.315229,0.269138 L0.315559,0.269597 L0.315863,0.270543 L0.315869,0.270597 L0.315991,0.271171 L0.316234,0.271529 L0.317307,0.272346 L0.317070,0.273190 L0.316633,0.274202 L0.315924,0.275013 L0.315823,0.275067 L0.314412,0.275803 L0.314237,0.275897 L0.312732,0.276944 L0.311680,0.277747 L0.310479,0.276356 L0.309805,0.275897 L0.309676,0.275809 L0.309663,0.275796 L0.309527,0.275661 L0.309305,0.275445 L0.309022,0.275182 L0.308522,0.274830 L0.308023,0.274527 L0.307928,0.274250 L0.307787,0.273845 L0.307557,0.273460 L0.307449,0.273379 L0.306903,0.272967 L0.305270,0.271285 L0.305270,0.271279 L0.304184,0.270205 L0.303529,0.269098 L0.303192,0.267876 L0.302828,0.266721 L0.302794,0.266478 L0.302699,0.265844 L0.302315,0.263508 L0.302281,0.262670 L0.302274,0.262495 L0.302220,0.261347 L0.301917,0.260362 L0.301809,0.260287 L0.301134,0.259801 L0.301053,0.259720 L0.300729,0.259423 L0.300723,0.259410 L0.300514,0.259207 L0.300223,0.258552 L0.299839,0.257918 L0.299772,0.257803 L0.298996,0.256912 L0.298496,0.256109 L0.298334,0.255832 L0.298085,0.255062 L0.297835,0.254468 L0.297410,0.253463 L0.296661,0.252423 L0.296324,0.251438 L0.296088,0.250722 L0.295264,0.250040 L0.293915,0.248900 L0.292559,0.247982 L0.292437,0.247691 L0.291804,0.246105 L0.291877,0.245309 L0.292195,0.242056 L0.292275,0.241151 L0.292694,0.238837 L0.292761,0.238459 L0.290292,0.239080 L0.288167,0.239626 L0.284253,0.240902 L0.283349,0.241232 L0.283241,0.241273 L0.281959,0.241671 L0.281608,0.241745 L0.279611,0.242157 L0.278971,0.242366 L0.278107,0.242650 L0.276595,0.242832 L0.276521,0.242845 L0.275124,0.243109 L0.273296,0.242926 L0.272831,0.242879 L0.272291,0.242002 L0.271440,0.241988 L0.270962,0.241988 L0.270112,0.242184 L0.268965,0.241955 L0.268782,0.241914 L0.267602,0.241232 L0.267433,0.240443 L0.267089,0.239781 L0.267075,0.239748 L0.266806,0.239930 L0.266664,0.240011 L0.266421,0.240173 L0.266401,0.240193 L0.266111,0.240578 L0.265800,0.240969 L0.264957,0.241725 L0.264612,0.242029 L0.264579,0.242063 L0.264559,0.242083 L0.263803,0.242717 L0.262791,0.243291 L0.261921,0.243784 L0.260396,0.245410 L0.259532,0.245997 L0.259357,0.246011 L0.257657,0.246092 L0.257326,0.246112 L0.256422,0.245842 L0.255734,0.245633 L0.255369,0.245525 L0.254459,0.245430 L0.254115,0.245667 L0.253892,0.245835 L0.253912,0.245673 L0.253986,0.245093 L0.254081,0.244499 L0.254344,0.244020 L0.255167,0.243912 L0.255457,0.243439 L0.255579,0.242245 L0.255531,0.242069 L0.255329,0.241239 L0.255228,0.240821 L0.254695,0.240274 L0.254452,0.240031 L0.254142,0.238735 L0.254128,0.237946 L0.254479,0.236805 L0.254661,0.235901 L0.254667,0.235867 L0.254620,0.234841 L0.254580,0.233910 L0.254384,0.232021 L0.253878,0.231548 L0.253690,0.231096 L0.253473,0.230563 L0.253426,0.229902 L0.252408,0.227682 L0.251733,0.226623 L0.250727,0.225125 L0.250221,0.224457 L0.250363,0.223856 L0.250512,0.223276 L0.250546,0.223141 L0.250775,0.221859 L0.250498,0.221076 L0.249816,0.220530 L0.249769,0.219720 L0.249695,0.219167 L0.249621,0.218695 L0.249493,0.218398 L0.249486,0.217919 L0.249675,0.217427 L0.249736,0.216765 L0.249472,0.216563 L0.249250,0.216536 L0.248859,0.216482 L0.248488,0.216421 L0.248258,0.216394 L0.247819,0.216327 L0.247583,0.216259 L0.247448,0.216151 L0.247233,0.216145 L0.246929,0.216381 L0.246774,0.216543 L0.246976,0.216840 L0.246557,0.217379 L0.246450,0.217460 L0.246147,0.217649 L0.245917,0.217811 L0.245600,0.218142 L0.245532,0.218324 L0.245512,0.218364 L0.245208,0.218992 L0.245060,0.219498 L0.244958,0.219727 L0.244892,0.219896 L0.244614,0.220314 L0.244324,0.220618 L0.243616,0.221164 L0.243528,0.221279 L0.243515,0.221279 L0.243090,0.221002 L0.242698,0.220975 L0.242685,0.220982 L0.242617,0.221009 L0.242604,0.221029 L0.242429,0.221023 L0.242314,0.221036 L0.242206,0.221036 L0.242058,0.221130 L0.241916,0.221029 L0.241882,0.221097 L0.241781,0.221090 L0.241693,0.221063 L0.241687,0.221036 L0.241660,0.220982 L0.241660,0.221002 L0.241639,0.221043 L0.241011,0.220813 L0.241052,0.220705 L0.241059,0.220624 L0.240843,0.220557 L0.240728,0.220463 L0.240674,0.220409 L0.240640,0.220375 L0.240613,0.220355 L0.240242,0.220071 L0.239898,0.219795 L0.239669,0.219619 L0.239602,0.219565 L0.239453,0.219451 L0.239426,0.219430 L0.239278,0.219356 L0.239156,0.219268 L0.239082,0.219214 L0.239075,0.219214 L0.239055,0.219221 L0.239048,0.219221 L0.239021,0.219221 L0.238981,0.219262 L0.238900,0.219322 L0.238893,0.219336 L0.238846,0.219376 L0.238826,0.219390 L0.238812,0.219397 L0.238792,0.219403 L0.238630,0.219397 L0.238596,0.219383 L0.238455,0.219343 L0.238360,0.219302 L0.238326,0.219289 L0.238320,0.219275 L0.238252,0.219214 L0.238205,0.219167 L0.238164,0.219127 L0.238064,0.218985 L0.238023,0.218945 L0.237969,0.218830 L0.237962,0.218816 L0.237922,0.218769 L0.237861,0.218688 L0.237720,0.218587 L0.237625,0.218526 L0.237388,0.218391 L0.237085,0.218304 L0.236849,0.218250 L0.236741,0.218202 L0.236734,0.218196 L0.236741,0.218142 L0.236815,0.218047 L0.236836,0.218013 L0.237092,0.217703 L0.236424,0.217116 L0.235931,0.216840 L0.234966,0.216624 L0.233826,0.216489 L0.233617,0.216550 L0.233509,0.216583 L0.233495,0.216496 L0.233448,0.216327 L0.233489,0.216098 L0.233495,0.216091 L0.233738,0.215976 L0.233880,0.215902 L0.234150,0.215639 L0.234143,0.215376 L0.234170,0.215295 L0.234217,0.215146 L0.234413,0.215065 L0.234723,0.215059 L0.234771,0.215038 L0.234926,0.214998 L0.235277,0.214694 L0.235607,0.214458 L0.235891,0.214505 L0.235999,0.214519 L0.236525,0.214600 L0.236950,0.214519 L0.236990,0.214499 L0.237220,0.214384 L0.237321,0.214242 L0.237766,0.214263 L0.238070,0.214047 L0.238340,0.213763 L0.238610,0.213574 L0.238650,0.213541 L0.239150,0.213338 L0.239271,0.213298 L0.239312,0.213284 L0.239743,0.213143 L0.239892,0.213055 L0.240175,0.212873 L0.240486,0.212670 L0.240661,0.212590 L0.240688,0.212583 L0.240695,0.212576 L0.240864,0.212299 L0.240857,0.212299 L0.240776,0.212272 L0.240667,0.212272 L0.240553,0.212313 L0.240405,0.212380 L0.240357,0.212394 L0.240195,0.212441 L0.240074,0.212475 L0.240047,0.212482 L0.239865,0.212495 L0.239790,0.212475 L0.239737,0.212461 L0.239717,0.212441 L0.239622,0.212353 L0.239588,0.212320 L0.239575,0.212313 L0.239412,0.212144 L0.239385,0.212124 L0.239237,0.211962 L0.239217,0.211955 L0.239183,0.211922 L0.239143,0.211854 L0.238994,0.211625 L0.238987,0.211611 L0.238981,0.211598 L0.238941,0.211551 L0.238934,0.211544 L0.238826,0.211416 L0.238718,0.211308 L0.238704,0.211274 L0.238697,0.211254 L0.238670,0.211186 L0.238630,0.211085 L0.238616,0.211045 L0.238555,0.210957 L0.238516,0.210896 L0.238495,0.210836 L0.238475,0.210802 L0.238421,0.210701 L0.238333,0.210633 L0.238320,0.210633 L0.238211,0.210566 L0.238171,0.210532 L0.238016,0.210404 L0.238003,0.210390 L0.237962,0.210343 L0.237834,0.210181 L0.237748,0.210083 L0.237652,0.209972 L0.237591,0.209871 L0.237551,0.209824 L0.237503,0.209797 L0.237476,0.209797 L0.237415,0.209756 L0.237240,0.209716 L0.237139,0.209682 L0.237112,0.209675 L0.236963,0.209561 L0.236917,0.209520 L0.236694,0.209318 L0.236660,0.209284 L0.236525,0.209149 L0.236485,0.209109 L0.236431,0.209055 L0.236410,0.209035 L0.236404,0.209021 L0.236390,0.209014 L0.236309,0.208927 L0.236268,0.208886 L0.236201,0.208771 L0.236114,0.208724 L0.235931,0.208731 L0.235924,0.208744 L0.235884,0.208765 L0.235877,0.208771 L0.235796,0.208819 L0.235789,0.208812 L0.235742,0.208812 L0.235655,0.208798 L0.235547,0.208738 L0.235311,0.208643 L0.235304,0.208643 L0.235169,0.208596 L0.234818,0.208495 L0.234568,0.208407 L0.234554,0.208407 L0.234454,0.208367 L0.234366,0.208333 L0.234339,0.208333 L0.234332,0.208333 L0.234271,0.208313 L0.234238,0.208306 L0.234042,0.208319 L0.234002,0.208319 L0.233988,0.208319 L0.233934,0.208326 L0.233755,0.208291 L0.233876,0.207588 L0.233737,0.206967 L0.234090,0.206594 L0.234157,0.205730 L0.233909,0.205410 L0.232473,0.205321 L0.232092,0.205649 L0.232075,0.205661 L0.232058,0.205672 L0.232041,0.205683 L0.232023,0.205693 L0.232005,0.205702 L0.231987,0.205711 L0.231969,0.205720 L0.231950,0.205727 L0.231930,0.205734 L0.231911,0.205740 L0.231891,0.205746 L0.231872,0.205751 L0.231852,0.205755 L0.231832,0.205759 L0.231812,0.205761 L0.231791,0.205763 L0.231771,0.205765 L0.231751,0.205766 L0.231730,0.205766 L0.231710,0.205765 L0.231690,0.205763 L0.231670,0.205761 L0.231649,0.205759 L0.231629,0.205755 L0.231610,0.205751 L0.231590,0.205746 L0.231570,0.205740 L0.231551,0.205734 L0.231531,0.205727 L0.231513,0.205720 L0.231494,0.205711 L0.231476,0.205702 L0.231458,0.205693 L0.231440,0.205683 L0.231423,0.205672 L0.231406,0.205661 L0.231389,0.205649 L0.231374,0.205632 L0.231356,0.205613 L0.231339,0.205592 L0.231323,0.205572 L0.231307,0.205550 L0.231293,0.205529 L0.231278,0.205506 L0.231266,0.205484 L0.231253,0.205460 L0.231242,0.205437 L0.231230,0.205413 L0.231220,0.205388 L0.231211,0.205364 L0.231203,0.205339 L0.231196,0.205313 L0.231189,0.205288 L0.231184,0.205262 L0.231178,0.205236 L0.231175,0.205210 L0.231172,0.205184 L0.231169,0.205158 L0.231169,0.205132 L0.231168,0.205105 L0.231169,0.205078 L0.231170,0.205051 L0.231173,0.205024 L0.231176,0.204998 L0.231181,0.204971 L0.231186,0.204944 L0.231191,0.204922 L0.231197,0.204899 L0.231204,0.204877 L0.231290,0.204584 L0.231779,0.203460 L0.231094,0.203284 L0.230438,0.203279 L0.229974,0.203464 L0.228230,0.203031 L0.228571,0.202102 L0.228686,0.201126 L0.229221,0.199833 L0.229623,0.199119 L0.229913,0.197401 L0.230560,0.195594 L0.231587,0.194747 L0.232591,0.194011 L0.233818,0.194011 L0.234889,0.193765 L0.235536,0.193052 L0.236273,0.191758 L0.236942,0.190621 L0.237478,0.189907 L0.238082,0.189440 L0.238286,0.189253 L0.238564,0.188903 L0.238926,0.188475 L0.238085,0.187255 L0.235252,0.186147 L0.234672,0.186679 L0.233739,0.187166 L0.232646,0.187108 L0.231919,0.186846 L0.229814,0.185930 L0.226824,0.186911 L0.224837,0.187758 L0.220648,0.187450 L0.220550,0.187384 L0.220696,0.187313 L0.221094,0.186608 L0.221277,0.186183 L0.221505,0.185851 L0.221537,0.185508 L0.221182,0.185024 L0.220955,0.184312 L0.220778,0.183588 L0.220903,0.182607 L0.221267,0.182270 L0.221648,0.181693 L0.221901,0.180950 L0.222335,0.180210 L0.222200,0.179745 L0.221791,0.179219 L0.220705,0.178793 L0.219770,0.178255 L0.219900,0.177493 L0.219969,0.177169 L0.220527,0.176728 L0.221831,0.175904 L0.221577,0.175644 L0.222275,0.175102 L0.224760,0.173974 L0.224868,0.173650 L0.225360,0.173393 L0.227635,0.173400 L0.228176,0.173302 L0.229556,0.173064 L0.230532,0.172571 L0.230524,0.172014 L0.230361,0.171394 L0.229995,0.171049 L0.229423,0.170836 L0.228362,0.170707 L0.226993,0.170764 L0.224046,0.170738 L0.221952,0.170590 L0.221260,0.171289 L0.220699,0.171858 L0.218998,0.171256 L0.219046,0.171122 L0.219171,0.170873 L0.219264,0.170705 L0.219285,0.170643 L0.219284,0.170524 L0.219254,0.170236 L0.219261,0.170110 L0.219308,0.170024 L0.219359,0.169935 L0.219460,0.169688 L0.219506,0.169566 L0.219522,0.169496 L0.219522,0.169301 L0.219529,0.169105 L0.219514,0.168925 L0.219504,0.168822 L0.219517,0.168717 L0.219546,0.168614 L0.219629,0.168470 L0.219787,0.168146 L0.219922,0.167966 L0.220023,0.167826 L0.220173,0.167669 L0.220354,0.167536 L0.220570,0.167383 L0.220853,0.167179 L0.220915,0.167144 L0.220511,0.166850 L0.220286,0.166625 L0.220159,0.166570 L0.220097,0.166566 L0.220054,0.166488 L0.219936,0.166554 L0.219900,0.166497 L0.219930,0.166466 L0.219942,0.166444 L0.219953,0.166413 L0.219964,0.166382 L0.219983,0.166348 L0.219985,0.166324 L0.219989,0.166260 L0.219972,0.166231 L0.219923,0.166142 L0.219865,0.166073 L0.219805,0.165986 L0.219718,0.165896 L0.219644,0.165876 L0.219585,0.165891 L0.219509,0.165916 L0.219450,0.165938 L0.219389,0.165965 L0.219329,0.165999 L0.219256,0.166019 L0.219209,0.166039 L0.219176,0.166063 L0.219150,0.166073 L0.219100,0.166074 L0.219060,0.166072 L0.218967,0.166056 L0.218862,0.166005 L0.218889,0.165938 L0.218932,0.165788 L0.219001,0.165579 L0.219024,0.165365 L0.219004,0.165219 L0.219007,0.165160 L0.219001,0.165019 L0.218988,0.164772 L0.218975,0.164524 L0.218969,0.164271 L0.218921,0.164375 L0.218886,0.164461 L0.218842,0.164521 L0.218795,0.164529 L0.218738,0.164568 L0.218693,0.164625 L0.218635,0.164700 L0.218573,0.164663 L0.218439,0.164612 L0.218454,0.164617 L0.218386,0.164570 L0.218329,0.164552 L0.218228,0.164520 L0.218124,0.164483 L0.218047,0.164460 L0.217962,0.164447 L0.217909,0.164414 L0.217893,0.164343 L0.217869,0.164267 L0.217863,0.164191 L0.217853,0.164100 L0.217827,0.164010 L0.217760,0.163892 L0.217697,0.163826 L0.217639,0.163779 L0.217587,0.163785 L0.217549,0.163790 L0.217421,0.163806 L0.217331,0.163840 L0.217255,0.163837 L0.217111,0.163738 L0.217036,0.163667 L0.217044,0.163605 L0.217039,0.163557 L0.216985,0.163425 L0.216887,0.163183 L0.216803,0.162936 L0.216684,0.162628 L0.216630,0.162495 L0.216582,0.162405 L0.216494,0.162283 L0.216431,0.162164 L0.216378,0.162079 L0.216300,0.161952 L0.216304,0.161909 L0.216360,0.161860 L0.216417,0.161807 L0.216449,0.161735 L0.216472,0.161635 L0.216451,0.161559 L0.216388,0.161450 L0.216382,0.161369 L0.216430,0.161306 L0.216495,0.161229 L0.216575,0.161171 L0.216621,0.161080 L0.216694,0.160850 L0.216550,0.160733 L0.216424,0.160534 L0.216331,0.160564 L0.216267,0.160529 L0.216224,0.160494 L0.216072,0.160367 L0.215985,0.160254 L0.215898,0.160127 L0.215832,0.160042 L0.215774,0.159928 L0.215766,0.159835 L0.215736,0.159743 L0.215686,0.159743 L0.215530,0.159767 L0.215422,0.159740 L0.215343,0.159641 L0.215284,0.159534 L0.215211,0.159449 L0.215154,0.159371 L0.215109,0.159272 L0.215087,0.159194 L0.215072,0.159115 L0.215042,0.159001 L0.215012,0.158873 L0.214967,0.158730 L0.214945,0.158674 L0.214901,0.158631 L0.214822,0.158589 L0.214743,0.158569 L0.214572,0.158521 L0.214393,0.158509 L0.214222,0.158490 L0.214072,0.158442 L0.213720,0.158290 L0.213542,0.158270 L0.213414,0.158279 L0.213272,0.158331 L0.213165,0.158376 L0.213095,0.158398 L0.213037,0.158363 L0.212993,0.158278 L0.212949,0.158178 L0.212919,0.158064 L0.212860,0.157936 L0.212794,0.157823 L0.212800,0.157716 L0.212849,0.157651 L0.212942,0.157614 L0.212998,0.157548 L0.213069,0.157490 L0.213147,0.157468 L0.213182,0.157467 L0.213225,0.157467 L0.213268,0.157452 L0.213310,0.157437 L0.213444,0.157314 L0.213571,0.157262 L0.213642,0.157161 L0.213695,0.157077 L0.213729,0.156933 L0.213762,0.156742 L0.213771,0.156552 L0.213851,0.156324 L0.213885,0.156181 L0.213931,0.156037 L0.213977,0.155893 L0.213974,0.155739 L0.213961,0.155643 L0.213901,0.155585 L0.213805,0.155562 L0.213722,0.155539 L0.213627,0.155541 L0.213461,0.155555 L0.213377,0.155556 L0.213271,0.155557 L0.213199,0.155546 L0.212913,0.155455 L0.212806,0.155420 L0.212602,0.155340 L0.212507,0.155281 L0.212375,0.155200 L0.212279,0.155142 L0.212255,0.155130 L0.212076,0.155085 L0.211980,0.155050 L0.211862,0.155040 L0.211635,0.154995 L0.211540,0.155020 L0.211457,0.155021 L0.211303,0.155024 L0.211183,0.155001 L0.211088,0.154943 L0.211074,0.154937 L0.211075,0.154937 L0.211129,0.154816 L0.211136,0.154647 L0.211123,0.154425 L0.211116,0.154418 L0.211089,0.154263 L0.211068,0.154203 L0.211082,0.154176 L0.211136,0.154088 L0.211258,0.154054 L0.211379,0.154021 L0.211426,0.154014 L0.211507,0.153973 L0.211561,0.153953 L0.211588,0.153886 L0.211608,0.153845 L0.211642,0.153805 L0.211723,0.153724 L0.211905,0.153582 L0.212040,0.153481 L0.212209,0.153306 L0.212222,0.153286 L0.212290,0.153232 L0.212398,0.153144 L0.212546,0.152814 L0.212627,0.152605 L0.212634,0.152605 L0.212978,0.152598 L0.213126,0.152558 L0.213174,0.152551 L0.213194,0.152545 L0.213362,0.152477 L0.213376,0.152464 L0.213599,0.152342 L0.213673,0.152288 L0.213693,0.152288 L0.213733,0.152261 L0.213983,0.152113 L0.214158,0.152005 L0.214239,0.151945 L0.214260,0.151911 L0.214354,0.151823 L0.214463,0.151682 L0.214556,0.151635 L0.214752,0.151574 L0.214995,0.151507 L0.215184,0.151466 L0.215218,0.151466 L0.215312,0.151439 L0.215346,0.151439 L0.215413,0.151406 L0.215508,0.151365 L0.215643,0.151264 L0.215757,0.151183 L0.216109,0.151035 L0.216365,0.150994 L0.216426,0.150988 L0.216648,0.150907 L0.216655,0.150907 L0.217114,0.150657 L0.217390,0.150388 L0.217397,0.150381 L0.217579,0.150017 L0.217607,0.149768 L0.217917,0.149545 L0.217930,0.149336 L0.217903,0.149107 L0.217842,0.148885 L0.218261,0.148184 L0.218369,0.147995 L0.218557,0.147503 L0.218652,0.147261 L0.218625,0.146695 L0.218524,0.145589 L0.218517,0.145448 L0.218443,0.143905 L0.218638,0.142773 L0.218686,0.142597 L0.218949,0.141762 L0.219043,0.141465 L0.219246,0.140879 L0.219785,0.140091 L0.220136,0.139868 L0.220508,0.139646 L0.221040,0.139370 L0.221716,0.139060 L0.222214,0.138770 L0.222795,0.138770 L0.223254,0.138703 L0.223442,0.138595 L0.223759,0.138420 L0.223901,0.138305 L0.224272,0.137988 L0.224448,0.137712 L0.224421,0.137496 L0.224353,0.137227 L0.224495,0.136526 L0.224765,0.136432 L0.224914,0.136034 L0.224974,0.136007 L0.225331,0.135846 L0.225878,0.135812 L0.226027,0.135253 L0.226323,0.134896 L0.226924,0.134208 L0.227255,0.133838 L0.227646,0.133386 L0.228354,0.132126 L0.228752,0.131405 L0.229420,0.130166 L0.230062,0.128394 L0.230082,0.128380 L0.230487,0.127875 L0.231012,0.126864 L0.231539,0.125423 L0.231917,0.124237 L0.232288,0.123584 L0.232686,0.124379 L0.233624,0.126245 L0.234993,0.127929 L0.236275,0.129020 L0.236896,0.129546 L0.238616,0.131850 L0.240081,0.133824 L0.240661,0.134485 L0.241592,0.135529 L0.241714,0.135677 L0.244433,0.138979 L0.246011,0.140717 L0.246186,0.140886 L0.247260,0.141937 L0.249196,0.145131 L0.249891,0.146270 L0.249965,0.146398 L0.249979,0.146418 L0.250295,0.147389 L0.250451,0.148191 L0.250444,0.149000 L0.250431,0.149916 L0.250565,0.150253 L0.250944,0.151244 L0.251523,0.152201 L0.251747,0.153097 L0.251949,0.153427 L0.252016,0.153495 Z">
    <title>Dajti</title>
  </path>
</svg>
