<?xml version="1.0" encoding="UTF-8"?>
<svg xmlns="http://www.w3.org/2000/svg" viewBox="0 0 0.533968 0.445545" width="800" height="800">
  <style>
    .boundary {
      fill: #dddddd;
      stroke: #222222;
      stroke-width: 1;
      vector-effect: non-scaling-stroke;
    }
  </style>
  <path class="boundary" d="M0.187878,0.187211 L0.187895,0.188139 L0.187896,0.188164 L0.188268,0.188535 L0.188392,0.188620 L0.188473,0.188701 L0.188529,0.188784 L0.188549,0.188856 L0.188538,0.189025 L0.188535,0.189128 L0.188487,0.189410 L0.188360,0.189818 L0.188729,0.190485 L0.189050,0.190949 L0.189281,0.191382 L0.189528,0.191466 L0.189779,0.191848 L0.190265,0.193040 L0.190592,0.193981 L0.190998,0.194931 L0.191391,0.195936 L0.191803,0.196957 L0.192171,0.197776 L0.192494,0.198372 L0.192815,0.198932 L0.193152,0.199524 L0.193499,0.200197 L0.193676,0.200490 L0.193733,0.200787 L0.193886,0.201123 L0.194170,0.201530 L0.194525,0.202124 L0.194674,0.202283 L0.194849,0.202599 L0.195210,0.203270 L0.195769,0.204303 L0.196464,0.205599 L0.196727,0.206064 L0.196776,0.206175 L0.196567,0.206592 L0.196213,0.207258 L0.195889,0.207734 L0.195497,0.208215 L0.195158,0.208563 L0.195079,0.208662 L0.194978,0.208773 L0.194537,0.209278 L0.194180,0.209680 L0.194001,0.209832 L0.193723,0.210051 L0.193569,0.210132 L0.193273,0.210279 L0.192895,0.210466 L0.192195,0.210592 L0.191643,0.210366 L0.191272,0.210183 L0.191013,0.210075 L0.190690,0.209692 L0.190286,0.209271 L0.189688,0.208717 L0.189110,0.208285 L0.188272,0.207679 L0.187603,0.207203 L0.187078,0.206824 L0.186749,0.206674 L0.185815,0.206296 L0.184807,0.205895 L0.184610,0.205806 L0.184438,0.205665 L0.184267,0.205373 L0.184181,0.205176 L0.184135,0.205070 L0.184025,0.204887 L0.183820,0.204477 L0.183699,0.204183 L0.183578,0.203915 L0.183466,0.203661 L0.183343,0.203371 L0.183269,0.203221 L0.183187,0.203054 L0.183147,0.202985 L0.183087,0.202872 L0.183018,0.202736 L0.182935,0.202577 L0.182802,0.202307 L0.182483,0.201700 L0.181430,0.199565 L0.180776,0.198231 L0.180373,0.197384 L0.180078,0.196834 L0.180070,0.196569 L0.179934,0.196564 L0.179905,0.196299 L0.179858,0.195693 L0.179870,0.195523 L0.179951,0.195433 L0.179972,0.195310 L0.179921,0.195288 L0.179912,0.195245 L0.179924,0.195087 L0.179902,0.194692 L0.179856,0.194532 L0.179793,0.194321 L0.179773,0.194194 L0.179737,0.193958 L0.179690,0.193747 L0.179694,0.193645 L0.179659,0.193466 L0.179595,0.193256 L0.179541,0.193176 L0.179480,0.192971 L0.179300,0.192764 L0.179186,0.192670 L0.179076,0.192166 L0.179212,0.192095 L0.179170,0.191830 L0.179106,0.191618 L0.178998,0.190974 L0.178889,0.190312 L0.179073,0.190147 L0.179158,0.190039 L0.179217,0.189984 L0.179296,0.189900 L0.179401,0.189758 L0.179505,0.189566 L0.179524,0.189471 L0.179568,0.189384 L0.179638,0.189311 L0.179743,0.189238 L0.179844,0.189180 L0.179945,0.189149 L0.180036,0.189142 L0.180164,0.189140 L0.180304,0.189159 L0.180482,0.189183 L0.180706,0.189219 L0.180988,0.189242 L0.181243,0.189206 L0.181545,0.189160 L0.181704,0.189110 L0.181997,0.189010 L0.182326,0.188916 L0.182613,0.188835 L0.182805,0.188794 L0.182971,0.188759 L0.183071,0.188757 L0.183167,0.188771 L0.183253,0.188793 L0.183340,0.188807 L0.183438,0.188815 L0.183515,0.188796 L0.183605,0.188729 L0.183673,0.188663 L0.183783,0.188497 L0.183836,0.188413 L0.183880,0.188353 L0.183947,0.188313 L0.184048,0.188282 L0.184148,0.188257 L0.184362,0.188221 L0.184676,0.188184 L0.184916,0.188157 L0.184996,0.188165 L0.185128,0.188202 L0.185271,0.188244 L0.185387,0.188258 L0.185512,0.188244 L0.185621,0.188210 L0.185706,0.188173 L0.185919,0.188083 L0.186238,0.187969 L0.186530,0.187846 L0.186728,0.187709 L0.186924,0.187536 L0.187027,0.187437 L0.187159,0.187354 L0.187395,0.187271 L0.187600,0.187214 L0.187784,0.187206 L0.187878,0.187211 Z">
    <title>Njësia 9</title>
  </path>
</svg>
