<?xml version="1.0" encoding="UTF-8"?>
<svg xmlns="http://www.w3.org/2000/svg" viewBox="0 0 0.533968 0.445545" width="800" height="800">
  <style>
    .boundary {
      fill: #dddddd;
      stroke: #222222;
      stroke-width: 1;
      vector-effect: non-scaling-stroke;
    }
  </style>
  <path class="boundary" d="M0.224046,0.170738 L0.226993,0.170764 L0.228362,0.170707 L0.229423,0.170836 L0.229995,0.171049 L0.230361,0.171394 L0.230524,0.172014 L0.230532,0.172571 L0.229556,0.173064 L0.228176,0.173302 L0.227635,0.173400 L0.225360,0.173393 L0.224868,0.173650 L0.224760,0.173974 L0.222275,0.175102 L0.221577,0.175644 L0.221831,0.175904 L0.220527,0.176728 L0.219969,0.177169 L0.219900,0.177493 L0.219770,0.178255 L0.220705,0.178793 L0.221791,0.179219 L0.222200,0.179745 L0.222335,0.180210 L0.221901,0.180950 L0.221648,0.181693 L0.221267,0.182270 L0.220903,0.182607 L0.220778,0.183588 L0.220955,0.184312 L0.221182,0.185024 L0.221537,0.185508 L0.221505,0.185851 L0.221277,0.186183 L0.221094,0.186608 L0.220696,0.187313 L0.220550,0.187384 L0.220100,0.187604 L0.220177,0.187902 L0.220803,0.188260 L0.221514,0.189068 L0.222102,0.189869 L0.222501,0.190437 L0.222926,0.190784 L0.223477,0.190139 L0.224180,0.189984 L0.224687,0.191127 L0.224606,0.191464 L0.224017,0.191596 L0.222937,0.192534 L0.222022,0.192947 L0.221348,0.192775 L0.221320,0.193215 L0.220403,0.193230 L0.220386,0.193230 L0.219450,0.193350 L0.218624,0.193713 L0.218070,0.193972 L0.217866,0.194084 L0.217674,0.194209 L0.217604,0.194295 L0.217443,0.194404 L0.216561,0.194961 L0.215856,0.195564 L0.215274,0.196063 L0.214885,0.196346 L0.214648,0.196550 L0.214378,0.196792 L0.214220,0.196936 L0.214053,0.197127 L0.213542,0.197730 L0.212856,0.198540 L0.212531,0.198927 L0.212189,0.199308 L0.212128,0.199379 L0.211841,0.199720 L0.211784,0.199714 L0.210727,0.197954 L0.210633,0.197793 L0.210531,0.197850 L0.209305,0.198548 L0.207507,0.199571 L0.207300,0.199697 L0.207200,0.199517 L0.207126,0.199394 L0.206447,0.198335 L0.206271,0.198064 L0.206179,0.197901 L0.206133,0.197875 L0.206060,0.197899 L0.205520,0.197429 L0.205400,0.197253 L0.205281,0.197187 L0.205197,0.197075 L0.205139,0.197019 L0.205025,0.196921 L0.204930,0.196974 L0.204232,0.197441 L0.201451,0.199323 L0.201384,0.199225 L0.201308,0.199147 L0.201203,0.199119 L0.200945,0.199123 L0.200539,0.199111 L0.199862,0.199163 L0.199603,0.199207 L0.199446,0.199243 L0.199386,0.199251 L0.199363,0.199135 L0.199361,0.198866 L0.199334,0.198395 L0.199126,0.197324 L0.198914,0.196462 L0.198834,0.196083 L0.198463,0.194159 L0.198315,0.193620 L0.198064,0.192660 L0.197830,0.191757 L0.197666,0.191121 L0.197498,0.190565 L0.197267,0.190069 L0.197080,0.190022 L0.197092,0.189778 L0.197097,0.189534 L0.196981,0.188684 L0.196773,0.187696 L0.196995,0.187681 L0.197310,0.187668 L0.197491,0.187675 L0.197633,0.187649 L0.197749,0.187656 L0.198008,0.187712 L0.198172,0.187758 L0.198432,0.187835 L0.198595,0.187880 L0.198735,0.187911 L0.198827,0.187919 L0.198922,0.187902 L0.199002,0.187895 L0.199082,0.187894 L0.199177,0.187920 L0.199259,0.187946 L0.199336,0.187968 L0.199452,0.187991 L0.199559,0.187992 L0.199687,0.187999 L0.199832,0.187994 L0.199977,0.187960 L0.200098,0.187898 L0.200209,0.187822 L0.200366,0.187749 L0.200496,0.187693 L0.200644,0.187647 L0.200806,0.187564 L0.200906,0.187524 L0.200984,0.187511 L0.201052,0.187522 L0.201096,0.187539 L0.201163,0.187544 L0.201239,0.187531 L0.201358,0.187506 L0.201488,0.187474 L0.201787,0.187426 L0.202149,0.187403 L0.202541,0.187430 L0.202836,0.187495 L0.202985,0.187552 L0.203123,0.187589 L0.203446,0.187585 L0.203736,0.187560 L0.203869,0.187496 L0.203970,0.187480 L0.204065,0.187472 L0.204202,0.187500 L0.204310,0.187514 L0.204390,0.187525 L0.204524,0.187526 L0.204651,0.187536 L0.204778,0.187510 L0.204915,0.187491 L0.205031,0.187468 L0.205510,0.187402 L0.205694,0.187361 L0.205898,0.187293 L0.206057,0.187201 L0.206204,0.187083 L0.206243,0.186995 L0.206302,0.186914 L0.206445,0.186779 L0.206618,0.186645 L0.206777,0.186589 L0.206877,0.186544 L0.207052,0.186448 L0.207269,0.186283 L0.207511,0.186150 L0.207773,0.186006 L0.208075,0.185861 L0.208241,0.185788 L0.208347,0.185704 L0.208432,0.185606 L0.208490,0.185519 L0.208546,0.185460 L0.208658,0.185414 L0.208774,0.185399 L0.208901,0.185384 L0.208999,0.185383 L0.209106,0.185378 L0.209237,0.185349 L0.209454,0.185312 L0.209687,0.185235 L0.210022,0.185119 L0.210266,0.185055 L0.210459,0.185039 L0.210728,0.185026 L0.210922,0.185044 L0.210993,0.185061 L0.211053,0.185069 L0.211097,0.185042 L0.211121,0.185000 L0.211120,0.184956 L0.211110,0.184901 L0.211089,0.184848 L0.211086,0.184793 L0.211119,0.184695 L0.211224,0.184564 L0.211405,0.184327 L0.211536,0.184152 L0.211660,0.183908 L0.211787,0.183739 L0.211791,0.183736 L0.211790,0.183735 L0.211798,0.183725 L0.212003,0.183539 L0.212039,0.183530 L0.212054,0.183518 L0.212135,0.183484 L0.212257,0.183440 L0.212492,0.183302 L0.212734,0.183117 L0.212894,0.182976 L0.213063,0.182827 L0.213179,0.182711 L0.213268,0.182575 L0.213358,0.182314 L0.213490,0.182036 L0.213560,0.181924 L0.213687,0.181700 L0.213729,0.181581 L0.213799,0.181433 L0.213868,0.181341 L0.214082,0.180995 L0.214263,0.180790 L0.214438,0.180586 L0.214514,0.180546 L0.214621,0.180509 L0.214752,0.180452 L0.214861,0.180399 L0.214984,0.180357 L0.215067,0.180301 L0.215121,0.180262 L0.215159,0.180210 L0.215173,0.180149 L0.215208,0.179777 L0.215195,0.179626 L0.215169,0.179356 L0.215160,0.179159 L0.215175,0.178887 L0.215232,0.178585 L0.215305,0.178361 L0.215442,0.178082 L0.215648,0.177727 L0.215803,0.177509 L0.215997,0.177076 L0.216041,0.176946 L0.216116,0.176748 L0.216140,0.176651 L0.216173,0.176467 L0.216164,0.176355 L0.216145,0.176304 L0.216140,0.176260 L0.216182,0.176158 L0.216224,0.176079 L0.216243,0.175999 L0.216235,0.175936 L0.216195,0.175878 L0.216165,0.175817 L0.216116,0.175747 L0.216097,0.175700 L0.216098,0.175585 L0.216117,0.175478 L0.216170,0.175365 L0.216240,0.175313 L0.216394,0.175208 L0.216473,0.175106 L0.216581,0.174969 L0.216805,0.174659 L0.216951,0.174449 L0.217061,0.174305 L0.217186,0.174231 L0.217348,0.174179 L0.217531,0.174140 L0.217631,0.174091 L0.217810,0.174026 L0.217935,0.173948 L0.218187,0.173785 L0.218370,0.173636 L0.218425,0.173567 L0.218463,0.173474 L0.218542,0.173360 L0.218659,0.173245 L0.218784,0.173058 L0.218973,0.172758 L0.219028,0.172659 L0.219057,0.172557 L0.219049,0.172450 L0.219018,0.172311 L0.219023,0.172233 L0.219040,0.172173 L0.219045,0.172105 L0.219038,0.172030 L0.219016,0.171941 L0.218982,0.171876 L0.218919,0.171811 L0.218886,0.171734 L0.218881,0.171621 L0.218918,0.171478 L0.218998,0.171256 L0.220699,0.171858 L0.221260,0.171289 L0.221952,0.170590 L0.224046,0.170738 Z">
    <title>Njësia 4</title>
  </path>
</svg>
