<?xml version="1.0" encoding="UTF-8"?>
<svg xmlns="http://www.w3.org/2000/svg" viewBox="0 0 0.533968 0.445545" width="800" height="800">
  <style>
    .boundary {
      fill: #dddddd;
      stroke: #222222;
      stroke-width: 0.5;
      vector-effect: non-scaling-stroke;
    }
  </style>
  <path class="boundary" d="M0.195041,0.218757 L0.195113,0.219094 L0.195258,0.219825 L0.195393,0.220607 L0.195513,0.221175 L0.195672,0.222002 L0.195102,0.222121 L0.194552,0.222222 L0.194225,0.222280 L0.194087,0.222316 L0.194075,0.222377 L0.194126,0.222706 L0.194144,0.222804 L0.194258,0.223276 L0.194254,0.223498 L0.194203,0.223734 L0.194078,0.223923 L0.193847,0.224135 L0.193648,0.224258 L0.193535,0.224367 L0.193372,0.224651 L0.193273,0.224857 L0.193157,0.225061 L0.193026,0.225417 L0.192817,0.225499 L0.192426,0.225710 L0.192070,0.226003 L0.191951,0.226086 L0.190915,0.226850 L0.190138,0.227531 L0.188852,0.228736 L0.188392,0.229150 L0.187470,0.229762 L0.187371,0.229548 L0.187312,0.229421 L0.187154,0.229154 L0.187097,0.229076 L0.186865,0.228871 L0.186619,0.228683 L0.186361,0.228513 L0.186333,0.228505 L0.185832,0.228356 L0.185384,0.228212 L0.184716,0.227998 L0.183777,0.227697 L0.181815,0.226839 L0.179903,0.225846 L0.178910,0.225228 L0.178413,0.225049 L0.178289,0.225015 L0.178265,0.225175 L0.178262,0.225583 L0.178223,0.225974 L0.178169,0.226551 L0.177665,0.227161 L0.177285,0.227787 L0.177061,0.228172 L0.176741,0.228105 L0.176065,0.227778 L0.175757,0.227773 L0.175192,0.227825 L0.174611,0.228011 L0.174020,0.228711 L0.173516,0.228730 L0.173096,0.228967 L0.172822,0.228976 L0.172562,0.228860 L0.172206,0.228888 L0.171957,0.229051 L0.171715,0.229185 L0.171331,0.228862 L0.171489,0.228270 L0.171486,0.228269 L0.171487,0.228262 L0.171486,0.228259 L0.171488,0.228269 L0.171486,0.228258 L0.171486,0.228256 L0.171486,0.228256 L0.171482,0.228233 L0.171478,0.228206 L0.171479,0.228204 L0.171478,0.228202 L0.171475,0.228187 L0.171474,0.228181 L0.171474,0.228175 L0.171474,0.228175 L0.171476,0.228173 L0.171473,0.228174 L0.171473,0.228174 L0.171474,0.228174 L0.171473,0.228174 L0.171474,0.228168 L0.171476,0.228164 L0.171474,0.228166 L0.171476,0.228155 L0.171474,0.228153 L0.171428,0.228116 L0.171333,0.228134 L0.171158,0.228157 L0.170890,0.228318 L0.170584,0.228170 L0.170293,0.228060 L0.169753,0.227991 L0.169579,0.228115 L0.169214,0.227696 L0.169235,0.227050 L0.169236,0.227036 L0.169252,0.226748 L0.169261,0.226622 L0.169400,0.226601 L0.169352,0.226468 L0.169323,0.226374 L0.169317,0.226276 L0.169281,0.226250 L0.169185,0.226217 L0.169045,0.226174 L0.168857,0.226106 L0.168938,0.226038 L0.169054,0.225963 L0.169165,0.225871 L0.169196,0.225782 L0.169220,0.225678 L0.169243,0.225601 L0.169237,0.225485 L0.169221,0.225195 L0.169212,0.224978 L0.169198,0.224674 L0.169192,0.224124 L0.169385,0.224271 L0.169529,0.224399 L0.169674,0.224536 L0.169774,0.224642 L0.169954,0.224836 L0.170018,0.224902 L0.170263,0.224698 L0.170513,0.224455 L0.170688,0.224279 L0.170897,0.224105 L0.171287,0.223753 L0.172315,0.222828 L0.172988,0.222185 L0.173229,0.221951 L0.173380,0.221851 L0.173485,0.221831 L0.173551,0.221772 L0.173602,0.221718 L0.173562,0.221666 L0.173587,0.221627 L0.173667,0.221569 L0.173693,0.221553 L0.173703,0.221537 L0.173917,0.221316 L0.174025,0.221135 L0.174162,0.221000 L0.174324,0.220829 L0.174420,0.220727 L0.174438,0.220704 L0.173283,0.220051 L0.173062,0.219941 L0.172826,0.219800 L0.172706,0.219745 L0.172539,0.219638 L0.171804,0.218868 L0.171133,0.218127 L0.171023,0.218008 L0.171395,0.217830 L0.171657,0.217721 L0.171898,0.217604 L0.172202,0.217471 L0.172410,0.217379 L0.172514,0.217338 L0.172998,0.217163 L0.173287,0.217058 L0.173443,0.217010 L0.173571,0.217220 L0.173735,0.217408 L0.173967,0.217639 L0.174151,0.217817 L0.174463,0.218058 L0.174733,0.218183 L0.175101,0.218345 L0.175329,0.218445 L0.175610,0.218572 L0.175863,0.218677 L0.176047,0.218750 L0.176249,0.218823 L0.176475,0.218909 L0.176703,0.218962 L0.177007,0.219010 L0.177310,0.219053 L0.177594,0.219042 L0.177833,0.219016 L0.178065,0.218974 L0.178253,0.218935 L0.178566,0.218877 L0.178772,0.218832 L0.178915,0.218799 L0.179086,0.218771 L0.179339,0.218721 L0.179797,0.218617 L0.181247,0.218321 L0.181919,0.218175 L0.182510,0.218050 L0.183244,0.217899 L0.183658,0.217808 L0.184097,0.217731 L0.185549,0.217427 L0.186540,0.217223 L0.187053,0.217117 L0.187500,0.217024 L0.187858,0.216939 L0.188949,0.216707 L0.189729,0.216538 L0.191430,0.216185 L0.193860,0.215681 L0.194362,0.215569 L0.194392,0.215722 L0.194513,0.216262 L0.194649,0.216812 L0.194885,0.218021 L0.195041,0.218757 Z">
    <title>Njësia 5</title>
  </path>
</svg>
