<?xml version="1.0" encoding="UTF-8"?>
<svg xmlns="http://www.w3.org/2000/svg" viewBox="0 0 0.533968 0.445545" width="800" height="800">
  <style>
    .boundary {
      fill: none;
      stroke: #222222;
      stroke-width: 1;
      vector-effect: non-scaling-stroke;
    }
  </style>
  <path class="boundary" d="M0.278701,0.025380 L0.279478,0.025609 L0.280164,0.025779 L0.280821,0.025950 L0.280821,0.025920 L0.280918,0.026574 L0.280925,0.027080 L0.280929,0.027438 L0.280932,0.027676 L0.280788,0.028035 L0.280257,0.028489 L0.279816,0.028703 L0.279754,0.028733 L0.279429,0.028886 L0.279253,0.029097 L0.279226,0.029365 L0.279290,0.029722 L0.279354,0.030049 L0.279688,0.030611 L0.280082,0.031112 L0.280382,0.031377 L0.280777,0.031997 L0.281319,0.032467 L0.281594,0.033090 L0.281708,0.033351 L0.281887,0.033759 L0.281931,0.033860 L0.282109,0.034184 L0.282139,0.034237 L0.282387,0.034688 L0.282719,0.035072 L0.282873,0.035427 L0.282997,0.035843 L0.283184,0.036555 L0.283307,0.036911 L0.283580,0.037265 L0.284029,0.037498 L0.285101,0.037545 L0.285758,0.037745 L0.286116,0.037800 L0.286653,0.037853 L0.287249,0.037935 L0.287818,0.038226 L0.288207,0.038430 L0.288894,0.038630 L0.289325,0.038768 L0.289611,0.038860 L0.290120,0.039152 L0.290451,0.039386 L0.290632,0.039562 L0.291174,0.040122 L0.291411,0.040530 L0.291569,0.040802 L0.292859,0.041621 L0.293607,0.041939 L0.294239,0.042468 L0.294570,0.042821 L0.294991,0.043233 L0.295383,0.043645 L0.295892,0.043848 L0.296103,0.044143 L0.296137,0.044441 L0.296261,0.044886 L0.296415,0.045331 L0.296481,0.045866 L0.296605,0.046282 L0.296701,0.046787 L0.296824,0.047084 L0.296944,0.047231 L0.297247,0.047644 L0.297582,0.048296 L0.297824,0.048650 L0.298218,0.049241 L0.298640,0.049653 L0.298972,0.050037 L0.299304,0.050450 L0.299486,0.050775 L0.299667,0.050952 L0.300325,0.051242 L0.301161,0.051470 L0.301549,0.051614 L0.302117,0.051756 L0.302534,0.051811 L0.302923,0.051985 L0.303194,0.052220 L0.303435,0.052485 L0.303517,0.052554 L0.303645,0.052662 L0.303798,0.053047 L0.304103,0.053609 L0.304256,0.053935 L0.304298,0.054074 L0.304410,0.054440 L0.304671,0.054739 L0.304949,0.055058 L0.305104,0.055236 L0.305436,0.055589 L0.305589,0.056005 L0.305802,0.056360 L0.306847,0.056675 L0.307473,0.056816 L0.307975,0.057125 L0.308043,0.057167 L0.308435,0.057609 L0.308887,0.058051 L0.309428,0.058551 L0.309789,0.058933 L0.310091,0.059317 L0.310722,0.059727 L0.310984,0.060459 L0.310998,0.060498 L0.311271,0.060912 L0.311488,0.061147 L0.311844,0.061531 L0.312233,0.061824 L0.312831,0.062025 L0.313340,0.062258 L0.313579,0.062344 L0.314035,0.063173 L0.314278,0.063587 L0.314433,0.064151 L0.314681,0.064741 L0.314770,0.064952 L0.314984,0.065485 L0.315202,0.066287 L0.315326,0.066732 L0.315667,0.067920 L0.315736,0.068664 L0.315860,0.069109 L0.315779,0.069795 L0.315664,0.070214 L0.315610,0.070661 L0.315615,0.071019 L0.315590,0.071466 L0.315447,0.072004 L0.315305,0.072482 L0.315221,0.072930 L0.315028,0.074273 L0.314919,0.075078 L0.314953,0.075465 L0.315138,0.075999 L0.315500,0.076442 L0.316040,0.076823 L0.316161,0.077030 L0.316611,0.077323 L0.317089,0.077525 L0.317567,0.077669 L0.317871,0.078291 L0.317906,0.078767 L0.317909,0.079005 L0.318002,0.079243 L0.318183,0.079568 L0.318394,0.079744 L0.318783,0.079948 L0.319104,0.079998 L0.319677,0.080087 L0.320034,0.080083 L0.320211,0.080021 L0.320357,0.079781 L0.320681,0.079449 L0.320799,0.079388 L0.320947,0.079327 L0.321067,0.079415 L0.321246,0.079443 L0.322169,0.079581 L0.322524,0.079398 L0.322968,0.079184 L0.323264,0.079062 L0.323829,0.078996 L0.324394,0.079049 L0.324840,0.079043 L0.326030,0.079059 L0.326297,0.078967 L0.326981,0.078989 L0.327517,0.079042 L0.327756,0.079129 L0.327878,0.079336 L0.327914,0.079931 L0.327978,0.080347 L0.328044,0.080853 L0.328140,0.081507 L0.328150,0.082371 L0.328186,0.082907 L0.328284,0.083621 L0.328321,0.084305 L0.328327,0.084812 L0.328177,0.084635 L0.328155,0.085350 L0.328228,0.086481 L0.328329,0.087523 L0.328337,0.088267 L0.328291,0.089400 L0.328272,0.090294 L0.328284,0.091336 L0.328442,0.092139 L0.328506,0.092585 L0.328379,0.094493 L0.328419,0.095356 L0.328605,0.096039 L0.328789,0.096454 L0.329151,0.096897 L0.329422,0.097162 L0.330142,0.097749 L0.330535,0.098281 L0.330807,0.098695 L0.331079,0.099139 L0.331262,0.099494 L0.331591,0.099609 L0.332244,0.099513 L0.332451,0.099451 L0.332955,0.099326 L0.333018,0.099623 L0.333080,0.099860 L0.333143,0.100217 L0.333179,0.100664 L0.333183,0.101081 L0.333188,0.101498 L0.333104,0.101975 L0.333053,0.102691 L0.333059,0.103227 L0.333095,0.103733 L0.333191,0.104357 L0.333197,0.104894 L0.333206,0.105608 L0.333211,0.106055 L0.333185,0.106473 L0.333104,0.107129 L0.333229,0.107634 L0.333888,0.108103 L0.334368,0.108395 L0.334697,0.108660 L0.335148,0.109072 L0.335479,0.109425 L0.336140,0.110013 L0.336561,0.110455 L0.336982,0.110868 L0.337374,0.111370 L0.337496,0.111510 L0.337886,0.111960 L0.338158,0.112159 L0.338366,0.112312 L0.338575,0.112399 L0.338933,0.112484 L0.339440,0.112627 L0.340244,0.112767 L0.340659,0.112673 L0.341105,0.112638 L0.341638,0.112513 L0.342084,0.112507 L0.342533,0.112711 L0.343223,0.113299 L0.343794,0.113888 L0.344575,0.114564 L0.345085,0.115035 L0.345387,0.115419 L0.345480,0.115805 L0.345396,0.116194 L0.345192,0.116553 L0.344989,0.116973 L0.344638,0.117483 L0.344403,0.117754 L0.343846,0.118475 L0.343828,0.118502 L0.343642,0.118775 L0.343497,0.119105 L0.343115,0.119556 L0.342911,0.119886 L0.342855,0.120185 L0.343095,0.120420 L0.343423,0.120476 L0.343780,0.120532 L0.344317,0.120674 L0.344615,0.120671 L0.345001,0.120667 L0.345417,0.120692 L0.345893,0.120746 L0.346261,0.120751 L0.347677,0.119909 L0.349511,0.119876 L0.350531,0.119379 L0.350667,0.119302 L0.351099,0.119058 L0.352203,0.118151 L0.353344,0.117420 L0.353775,0.116055 L0.354366,0.115305 L0.355189,0.114953 L0.356530,0.114966 L0.357531,0.115184 L0.358176,0.115496 L0.358764,0.115799 L0.359408,0.116135 L0.360571,0.115540 L0.361252,0.115759 L0.362127,0.115476 L0.363099,0.115722 L0.363617,0.116117 L0.363536,0.116547 L0.363143,0.117066 L0.363181,0.118008 L0.363448,0.118949 L0.363428,0.119721 L0.363407,0.120407 L0.363526,0.120806 L0.363160,0.121268 L0.363475,0.121749 L0.365337,0.122101 L0.366308,0.122176 L0.367249,0.122166 L0.367905,0.122216 L0.368535,0.122466 L0.368599,0.123037 L0.368464,0.123753 L0.368115,0.124235 L0.368117,0.125264 L0.368122,0.125741 L0.368008,0.126189 L0.367923,0.126607 L0.367988,0.127083 L0.367995,0.127102 L0.368036,0.127214 L0.368172,0.127587 L0.368325,0.127973 L0.368450,0.128508 L0.368473,0.128718 L0.368515,0.129103 L0.368701,0.129816 L0.368795,0.130262 L0.368801,0.130738 L0.368746,0.131216 L0.368575,0.131873 L0.368492,0.132410 L0.368499,0.132976 L0.368710,0.133331 L0.368837,0.134015 L0.368838,0.134017 L0.369139,0.134458 L0.369321,0.134814 L0.369714,0.135465 L0.369992,0.136385 L0.370026,0.136772 L0.370361,0.137543 L0.370785,0.138254 L0.371327,0.138933 L0.371721,0.139584 L0.372234,0.140353 L0.372278,0.140552 L0.372359,0.140918 L0.372341,0.142020 L0.372318,0.142614 L0.372271,0.143778 L0.372222,0.144673 L0.372079,0.145210 L0.371850,0.146017 L0.371740,0.146823 L0.372074,0.147474 L0.372286,0.147889 L0.372499,0.148334 L0.372787,0.148616 L0.371957,0.148191 L0.371432,0.147908 L0.371236,0.147874 L0.369501,0.147537 L0.369191,0.147476 L0.367700,0.147187 L0.364475,0.147342 L0.364192,0.147348 L0.360380,0.149653 L0.359024,0.150462 L0.352755,0.154243 L0.351602,0.154930 L0.351554,0.154964 L0.349530,0.156083 L0.346974,0.157478 L0.344308,0.159022 L0.342865,0.159864 L0.341333,0.160983 L0.340173,0.161839 L0.339552,0.162136 L0.336529,0.163538 L0.335146,0.164839 L0.334141,0.165722 L0.333250,0.166524 L0.333243,0.166517 L0.332784,0.166403 L0.332744,0.166383 L0.332434,0.166174 L0.332117,0.165971 L0.331995,0.165924 L0.331429,0.165722 L0.331402,0.165709 L0.331348,0.165709 L0.331097,0.165742 L0.330753,0.165776 L0.330180,0.165944 L0.330160,0.165951 L0.330140,0.165965 L0.329735,0.166234 L0.329654,0.166241 L0.329330,0.166268 L0.329181,0.166275 L0.329148,0.166268 L0.326955,0.165722 L0.321220,0.165385 L0.321119,0.165392 L0.319338,0.165392 L0.318980,0.165587 L0.317800,0.166221 L0.316963,0.167158 L0.316672,0.167488 L0.316369,0.168250 L0.316281,0.168459 L0.316018,0.170023 L0.315242,0.171708 L0.315168,0.172821 L0.314966,0.173340 L0.314237,0.174115 L0.313866,0.174675 L0.313872,0.174695 L0.313819,0.174695 L0.313724,0.174709 L0.313440,0.174891 L0.313353,0.174897 L0.313286,0.174897 L0.313137,0.174911 L0.312827,0.174816 L0.312712,0.174783 L0.312658,0.174776 L0.312267,0.174769 L0.312253,0.174769 L0.311916,0.174715 L0.311848,0.174695 L0.311788,0.174688 L0.311262,0.174641 L0.311039,0.174513 L0.310803,0.174385 L0.310640,0.174223 L0.310398,0.173980 L0.309932,0.173974 L0.309224,0.174210 L0.308597,0.174398 L0.307915,0.174661 L0.307409,0.174749 L0.307159,0.174661 L0.307044,0.174506 L0.306950,0.174378 L0.306505,0.174324 L0.306222,0.174270 L0.306100,0.174243 L0.306080,0.174243 L0.305783,0.174223 L0.305770,0.174216 L0.305553,0.174317 L0.305520,0.174317 L0.305318,0.174358 L0.305216,0.174473 L0.305209,0.174486 L0.305182,0.174722 L0.305176,0.174796 L0.304906,0.175046 L0.304879,0.175052 L0.304562,0.175147 L0.304542,0.175147 L0.304224,0.175194 L0.304205,0.175207 L0.304022,0.175329 L0.303975,0.175369 L0.303873,0.175457 L0.303853,0.175470 L0.303833,0.175484 L0.303826,0.175484 L0.303793,0.175484 L0.303556,0.175450 L0.303482,0.175437 L0.303273,0.175437 L0.303206,0.175437 L0.302963,0.175592 L0.302922,0.175619 L0.302760,0.175774 L0.302531,0.175983 L0.302511,0.175990 L0.302234,0.176172 L0.302220,0.176192 L0.301688,0.176576 L0.301647,0.176549 L0.301471,0.176441 L0.301215,0.176293 L0.301013,0.176172 L0.300973,0.176131 L0.300777,0.175888 L0.300716,0.175807 L0.300156,0.175396 L0.300089,0.175349 L0.299866,0.175403 L0.299677,0.175443 L0.299670,0.175437 L0.298955,0.175619 L0.297356,0.175996 L0.297133,0.176077 L0.295757,0.176556 L0.292930,0.177776 L0.291074,0.178565 L0.290494,0.178808 L0.288254,0.179866 L0.287458,0.180473 L0.286588,0.180925 L0.286075,0.182550 L0.285704,0.183932 L0.285697,0.183973 L0.285144,0.185733 L0.285157,0.187702 L0.285076,0.188349 L0.284840,0.190163 L0.284780,0.190655 L0.283599,0.191822 L0.283599,0.191836 L0.280853,0.193852 L0.280286,0.193029 L0.280225,0.192928 L0.277439,0.188882 L0.276528,0.187661 L0.275570,0.186353 L0.274989,0.185564 L0.273181,0.183137 L0.272790,0.182611 L0.270705,0.180089 L0.270705,0.180082 L0.269349,0.178659 L0.268047,0.177196 L0.267730,0.176846 L0.266394,0.175039 L0.266043,0.174526 L0.265281,0.173428 L0.264356,0.171971 L0.263209,0.170535 L0.262386,0.169362 L0.262170,0.169066 L0.261401,0.167434 L0.260862,0.166221 L0.260005,0.164893 L0.259006,0.162904 L0.258979,0.162850 L0.258230,0.161772 L0.256975,0.160127 L0.255997,0.158833 L0.254755,0.157195 L0.253986,0.155867 L0.253494,0.155011 L0.252016,0.153495 L0.251949,0.153427 L0.251747,0.153097 L0.251523,0.152201 L0.250944,0.151244 L0.250565,0.150253 L0.250431,0.149916 L0.250444,0.149000 L0.250451,0.148191 L0.250295,0.147389 L0.249979,0.146418 L0.249965,0.146398 L0.249891,0.146270 L0.249196,0.145131 L0.247260,0.141937 L0.246186,0.140886 L0.246011,0.140717 L0.244433,0.138979 L0.241714,0.135677 L0.241592,0.135529 L0.240661,0.134485 L0.240081,0.133824 L0.238616,0.131850 L0.236896,0.129546 L0.236275,0.129020 L0.234993,0.127929 L0.233624,0.126245 L0.232686,0.124379 L0.232288,0.123584 L0.231991,0.123031 L0.231512,0.122486 L0.231249,0.122196 L0.231073,0.121576 L0.231033,0.120956 L0.231188,0.120539 L0.231330,0.119602 L0.231350,0.119441 L0.231276,0.119198 L0.231161,0.118760 L0.230864,0.117514 L0.230419,0.116578 L0.230284,0.116450 L0.229886,0.116073 L0.229434,0.115965 L0.229022,0.115641 L0.228550,0.115392 L0.228098,0.114901 L0.227929,0.114496 L0.227814,0.113904 L0.227410,0.113526 L0.227045,0.112759 L0.226884,0.111782 L0.226870,0.111041 L0.226964,0.110280 L0.227201,0.108933 L0.227355,0.108340 L0.227335,0.108111 L0.227302,0.107707 L0.227174,0.107236 L0.227093,0.106670 L0.226918,0.105592 L0.226459,0.103929 L0.226256,0.102999 L0.226182,0.102710 L0.226209,0.102124 L0.226256,0.101848 L0.226303,0.101619 L0.226357,0.101370 L0.226384,0.101235 L0.226506,0.100791 L0.226532,0.100683 L0.226532,0.100676 L0.226566,0.100541 L0.226667,0.100171 L0.226918,0.099740 L0.227039,0.099538 L0.227086,0.099383 L0.227221,0.098972 L0.227255,0.098595 L0.227255,0.098521 L0.227187,0.098157 L0.227302,0.097612 L0.227545,0.097316 L0.227599,0.097269 L0.227801,0.097067 L0.227794,0.096804 L0.227720,0.096299 L0.227693,0.096104 L0.227626,0.095726 L0.227693,0.095316 L0.227700,0.095296 L0.227720,0.095262 L0.228024,0.094784 L0.228354,0.094440 L0.228510,0.094285 L0.228556,0.094238 L0.228604,0.094211 L0.228779,0.094137 L0.228915,0.094104 L0.229029,0.094063 L0.229245,0.094030 L0.229407,0.093996 L0.229474,0.093989 L0.230925,0.093855 L0.231094,0.093834 L0.232600,0.093495 L0.233258,0.093531 L0.236277,0.081680 L0.236295,0.081605 L0.236521,0.081436 L0.239376,0.079294 L0.239554,0.079162 L0.241206,0.078163 L0.242124,0.077377 L0.242222,0.077281 L0.243464,0.076073 L0.244536,0.074840 L0.244648,0.074711 L0.244934,0.074258 L0.245383,0.073545 L0.245579,0.073303 L0.246593,0.072056 L0.247007,0.071546 L0.247046,0.071498 L0.247709,0.070490 L0.248096,0.069900 L0.249270,0.068431 L0.249443,0.068215 L0.250045,0.067262 L0.250225,0.066977 L0.250904,0.066111 L0.251551,0.065495 L0.252199,0.065057 L0.252826,0.064751 L0.253348,0.064590 L0.253762,0.064477 L0.254158,0.064357 L0.254213,0.064341 L0.254650,0.064097 L0.255123,0.063781 L0.255673,0.063107 L0.255882,0.062711 L0.256066,0.062172 L0.256258,0.061419 L0.256322,0.060798 L0.256327,0.060191 L0.256377,0.059511 L0.256380,0.058784 L0.256360,0.058200 L0.256425,0.057628 L0.256467,0.057198 L0.256449,0.056710 L0.256383,0.056234 L0.256284,0.055878 L0.256162,0.055712 L0.255934,0.055537 L0.255753,0.055348 L0.255714,0.055262 L0.255655,0.055135 L0.255771,0.054848 L0.255983,0.054738 L0.255999,0.054733 L0.256280,0.054650 L0.256611,0.054444 L0.256928,0.054154 L0.257196,0.053733 L0.257407,0.053409 L0.257592,0.052989 L0.257704,0.052766 L0.257984,0.052357 L0.258230,0.051996 L0.258488,0.051707 L0.258700,0.051537 L0.258948,0.051368 L0.259231,0.051173 L0.259455,0.050968 L0.259560,0.050812 L0.259712,0.050607 L0.259864,0.050426 L0.260018,0.050317 L0.260314,0.050218 L0.260587,0.050203 L0.260897,0.050199 L0.261110,0.050077 L0.261370,0.049919 L0.261593,0.049725 L0.261885,0.049293 L0.262014,0.049136 L0.262309,0.048870 L0.262533,0.048713 L0.262851,0.048482 L0.263004,0.048290 L0.263096,0.048086 L0.263201,0.047882 L0.263353,0.047654 L0.263542,0.047568 L0.263850,0.047433 L0.264206,0.047345 L0.264492,0.047330 L0.264944,0.047300 L0.265252,0.047272 L0.265418,0.047187 L0.265548,0.047054 L0.265665,0.046957 L0.265926,0.046883 L0.266129,0.046904 L0.266332,0.046997 L0.266535,0.047042 L0.266833,0.047038 L0.267129,0.046891 L0.267341,0.046746 L0.267649,0.046670 L0.268005,0.046582 L0.268242,0.046508 L0.268633,0.046324 L0.268905,0.046178 L0.269141,0.045984 L0.269269,0.045780 L0.269277,0.045506 L0.269227,0.045268 L0.269225,0.045090 L0.269186,0.044876 L0.269125,0.044709 L0.269119,0.044233 L0.269089,0.043769 L0.269168,0.043470 L0.269343,0.043158 L0.269518,0.042858 L0.269705,0.042629 L0.269907,0.042495 L0.270167,0.042349 L0.270486,0.042190 L0.270698,0.041973 L0.271037,0.041528 L0.271247,0.041156 L0.271374,0.040821 L0.271430,0.040570 L0.271439,0.040307 L0.271448,0.040093 L0.271314,0.039868 L0.271182,0.039751 L0.270978,0.039610 L0.270773,0.039458 L0.270617,0.039317 L0.270472,0.039116 L0.270386,0.038926 L0.270347,0.038653 L0.270389,0.038247 L0.270492,0.037876 L0.270525,0.037650 L0.270592,0.037387 L0.270717,0.036861 L0.270809,0.036562 L0.270899,0.036132 L0.270931,0.035869 L0.270869,0.035207 L0.270776,0.034904 L0.270664,0.034560 L0.270529,0.034216 L0.270138,0.033446 L0.269986,0.033228 L0.269922,0.033288 L0.269869,0.033336 L0.269816,0.033391 L0.269763,0.033415 L0.269661,0.033405 L0.269578,0.033370 L0.269518,0.033323 L0.269457,0.033252 L0.269397,0.033187 L0.269325,0.033117 L0.269300,0.033040 L0.269291,0.032819 L0.269260,0.032713 L0.269229,0.032588 L0.269132,0.032482 L0.269018,0.032406 L0.268922,0.032365 L0.268827,0.032354 L0.268690,0.032344 L0.268630,0.032291 L0.268473,0.032168 L0.268359,0.032039 L0.268298,0.031950 L0.268171,0.031826 L0.267985,0.031680 L0.267877,0.031580 L0.267366,0.031229 L0.266979,0.031210 L0.266640,0.031220 L0.266056,0.031174 L0.265650,0.031119 L0.265017,0.030966 L0.264473,0.030806 L0.264002,0.030669 L0.263631,0.030531 L0.263122,0.030323 L0.262829,0.030202 L0.262506,0.030027 L0.262188,0.029876 L0.261936,0.029748 L0.261493,0.029563 L0.261230,0.029429 L0.260989,0.029266 L0.262518,0.028183 L0.263036,0.027728 L0.263661,0.027425 L0.264702,0.027029 L0.265915,0.026658 L0.266546,0.026277 L0.267207,0.025754 L0.268042,0.025193 L0.268133,0.025132 L0.269207,0.024704 L0.270947,0.024682 L0.271549,0.024867 L0.272623,0.025467 L0.273415,0.025571 L0.274310,0.025493 L0.274927,0.025314 L0.275657,0.025067 L0.276281,0.024716 L0.276841,0.024271 L0.277951,0.024883 L0.278701,0.025380 Z">
    <title>Zall Bastari</title>
  </path>
</svg>
