<?xml version="1.0" encoding="UTF-8"?>
<svg xmlns="http://www.w3.org/2000/svg" viewBox="0 0 0.098594 0.082349" width="800" height="800">
  <style>
    .boundary {
      fill: none;
      stroke: #000000;
      stroke-width: 0.5;
      vector-effect: non-scaling-stroke;
    }
  </style>
  <path class="boundary" d="M0.084004,0.004630 L0.086950,0.004656 L0.088319,0.004599 L0.089380,0.004728 L0.089951,0.004941 L0.090318,0.005286 L0.090481,0.005906 L0.090488,0.006463 L0.089513,0.006956 L0.088133,0.007194 L0.087592,0.007292 L0.085318,0.007285 L0.084826,0.007542 L0.084718,0.007866 L0.082234,0.008994 L0.081536,0.009536 L0.081789,0.009796 L0.080486,0.010620 L0.079928,0.011061 L0.079859,0.011385 L0.079729,0.012147 L0.080664,0.012685 L0.081749,0.013111 L0.082159,0.013637 L0.082294,0.014102 L0.081860,0.014842 L0.081607,0.015585 L0.081226,0.016162 L0.080862,0.016499 L0.080736,0.017480 L0.080914,0.018204 L0.081140,0.018916 L0.081496,0.019400 L0.081464,0.019743 L0.081236,0.020075 L0.081053,0.020500 L0.080655,0.021205 L0.080509,0.021276 L0.080059,0.021496 L0.080136,0.021794 L0.080762,0.022152 L0.081472,0.022960 L0.082060,0.023761 L0.082459,0.024329 L0.082885,0.024676 L0.083435,0.024031 L0.084138,0.023876 L0.084645,0.025019 L0.084564,0.025356 L0.083975,0.025488 L0.082895,0.026426 L0.081981,0.026839 L0.081306,0.026667 L0.081279,0.027107 L0.080362,0.027122 L0.080345,0.027122 L0.079410,0.027242 L0.078584,0.027605 L0.078029,0.027864 L0.077826,0.027976 L0.077634,0.028101 L0.077563,0.028187 L0.077402,0.028296 L0.076521,0.028853 L0.075816,0.029456 L0.075234,0.029955 L0.074845,0.030238 L0.074608,0.030442 L0.074339,0.030684 L0.074180,0.030828 L0.074014,0.031019 L0.073503,0.031622 L0.072817,0.032432 L0.072492,0.032819 L0.072150,0.033200 L0.072089,0.033271 L0.071802,0.033612 L0.071745,0.033606 L0.070689,0.031846 L0.070594,0.031685 L0.070492,0.031742 L0.069267,0.032440 L0.067469,0.033463 L0.067262,0.033589 L0.067162,0.033409 L0.067088,0.033286 L0.066409,0.032227 L0.066234,0.031956 L0.066141,0.031793 L0.066095,0.031767 L0.066022,0.031791 L0.065482,0.031321 L0.065363,0.031145 L0.065243,0.031079 L0.065159,0.030967 L0.065102,0.030911 L0.064987,0.030813 L0.064893,0.030866 L0.064195,0.031333 L0.061414,0.033215 L0.061348,0.033117 L0.061272,0.033039 L0.061167,0.033011 L0.060908,0.033015 L0.060503,0.033003 L0.059826,0.033055 L0.059566,0.033099 L0.059410,0.033135 L0.059350,0.033143 L0.059327,0.033027 L0.059325,0.032758 L0.059298,0.032287 L0.059090,0.031216 L0.058878,0.030354 L0.058798,0.029975 L0.058427,0.028051 L0.058279,0.027512 L0.058029,0.026552 L0.057794,0.025649 L0.057631,0.025013 L0.057462,0.024457 L0.057232,0.023961 L0.057044,0.023914 L0.057056,0.023670 L0.057061,0.023426 L0.056946,0.022576 L0.056738,0.021588 L0.056959,0.021573 L0.057274,0.021560 L0.057455,0.021567 L0.057598,0.021541 L0.057713,0.021548 L0.057972,0.021604 L0.058136,0.021650 L0.058396,0.021727 L0.058559,0.021772 L0.058699,0.021803 L0.058792,0.021811 L0.058886,0.021794 L0.058966,0.021787 L0.059046,0.021786 L0.059141,0.021812 L0.059223,0.021838 L0.059300,0.021860 L0.059416,0.021883 L0.059523,0.021884 L0.059651,0.021891 L0.059796,0.021886 L0.059941,0.021852 L0.060062,0.021790 L0.060173,0.021714 L0.060330,0.021641 L0.060460,0.021585 L0.060608,0.021539 L0.060769,0.021456 L0.060870,0.021416 L0.060947,0.021403 L0.061016,0.021414 L0.061060,0.021431 L0.061126,0.021436 L0.061203,0.021423 L0.061321,0.021398 L0.061451,0.021366 L0.061751,0.021318 L0.062113,0.021295 L0.062505,0.021322 L0.062799,0.021387 L0.062948,0.021444 L0.063086,0.021481 L0.063409,0.021477 L0.063699,0.021452 L0.063832,0.021388 L0.063933,0.021372 L0.064028,0.021364 L0.064165,0.021392 L0.064272,0.021406 L0.064353,0.021417 L0.064486,0.021418 L0.064614,0.021428 L0.064741,0.021402 L0.064878,0.021383 L0.064993,0.021360 L0.065473,0.021294 L0.065656,0.021253 L0.065860,0.021185 L0.066020,0.021093 L0.066166,0.020975 L0.066205,0.020887 L0.066264,0.020806 L0.066407,0.020671 L0.066581,0.020537 L0.066739,0.020481 L0.066839,0.020436 L0.067015,0.020340 L0.067231,0.020175 L0.067473,0.020042 L0.067735,0.019898 L0.068037,0.019753 L0.068202,0.019680 L0.068308,0.019596 L0.068394,0.019498 L0.068452,0.019411 L0.068508,0.019352 L0.068620,0.019306 L0.068736,0.019291 L0.068863,0.019276 L0.068961,0.019275 L0.069068,0.019270 L0.069198,0.019241 L0.069416,0.019204 L0.069649,0.019127 L0.069984,0.019011 L0.070228,0.018947 L0.070420,0.018931 L0.070689,0.018918 L0.070883,0.018936 L0.070954,0.018953 L0.071015,0.018961 L0.071058,0.018934 L0.071082,0.018892 L0.071081,0.018848 L0.071072,0.018793 L0.071050,0.018740 L0.071047,0.018685 L0.071080,0.018587 L0.071185,0.018456 L0.071366,0.018219 L0.071497,0.018044 L0.071621,0.017800 L0.071748,0.017631 L0.071752,0.017628 L0.071751,0.017627 L0.071759,0.017617 L0.071964,0.017431 L0.072000,0.017422 L0.072015,0.017410 L0.072096,0.017376 L0.072218,0.017332 L0.072453,0.017194 L0.072695,0.017009 L0.072854,0.016868 L0.073024,0.016719 L0.073140,0.016603 L0.073229,0.016467 L0.073319,0.016206 L0.073450,0.015928 L0.073521,0.015816 L0.073647,0.015592 L0.073689,0.015473 L0.073760,0.015325 L0.073829,0.015233 L0.074042,0.014887 L0.074224,0.014682 L0.074398,0.014478 L0.074474,0.014438 L0.074581,0.014401 L0.074712,0.014344 L0.074822,0.014291 L0.074944,0.014249 L0.075027,0.014193 L0.075081,0.014154 L0.075119,0.014102 L0.075133,0.014041 L0.075169,0.013669 L0.075155,0.013518 L0.075129,0.013248 L0.075120,0.013051 L0.075135,0.012779 L0.075193,0.012477 L0.075265,0.012253 L0.075402,0.011974 L0.075609,0.011619 L0.075763,0.011401 L0.075957,0.010968 L0.076001,0.010838 L0.076076,0.010640 L0.076100,0.010543 L0.076133,0.010359 L0.076124,0.010247 L0.076105,0.010196 L0.076100,0.010152 L0.076142,0.010050 L0.076184,0.009971 L0.076203,0.009891 L0.076195,0.009828 L0.076154,0.009770 L0.076125,0.009709 L0.076076,0.009639 L0.076057,0.009592 L0.076058,0.009477 L0.076077,0.009370 L0.076130,0.009257 L0.076200,0.009205 L0.076354,0.009100 L0.076433,0.008998 L0.076541,0.008861 L0.076765,0.008551 L0.076911,0.008341 L0.077021,0.008197 L0.077146,0.008123 L0.077308,0.008071 L0.077490,0.008032 L0.077590,0.007983 L0.077770,0.007918 L0.077894,0.007840 L0.078147,0.007677 L0.078330,0.007528 L0.078385,0.007459 L0.078422,0.007366 L0.078501,0.007252 L0.078618,0.007137 L0.078744,0.006950 L0.078933,0.006650 L0.078988,0.006551 L0.079016,0.006449 L0.079009,0.006342 L0.078977,0.006203 L0.078982,0.006125 L0.078999,0.006065 L0.079004,0.005997 L0.078997,0.005922 L0.078975,0.005833 L0.078942,0.005768 L0.078879,0.005703 L0.078845,0.005626 L0.078840,0.005513 L0.078877,0.005370 L0.078958,0.005148 L0.080658,0.005750 L0.081218,0.005181 L0.081911,0.004482 L0.084004,0.004630 Z">
    <title>Njësia 4</title>
  </path>
</svg>