<?xml version="1.0" encoding="UTF-8"?>
<svg xmlns="http://www.w3.org/2000/svg" viewBox="0 0 0.098594 0.082349" width="800" height="800">
  <style>
    .boundary {
      fill: none;
      stroke: #000000;
      stroke-width: 0.5;
      vector-effect: non-scaling-stroke;
    }
  </style>
  <path class="boundary" d="M0.047844,0.021103 L0.047862,0.022031 L0.047862,0.022056 L0.048235,0.022427 L0.048359,0.022512 L0.048440,0.022593 L0.048496,0.022676 L0.048516,0.022748 L0.048504,0.022917 L0.048502,0.023020 L0.048454,0.023302 L0.048327,0.023710 L0.048696,0.024377 L0.049016,0.024841 L0.049247,0.025274 L0.049494,0.025358 L0.049745,0.025740 L0.050231,0.026932 L0.050558,0.027873 L0.050964,0.028823 L0.051357,0.029828 L0.051769,0.030849 L0.052137,0.031668 L0.052459,0.032264 L0.052781,0.032824 L0.053117,0.033416 L0.053465,0.034089 L0.053641,0.034382 L0.053698,0.034679 L0.053851,0.035015 L0.054135,0.035422 L0.054490,0.036016 L0.054639,0.036175 L0.054814,0.036491 L0.055174,0.037162 L0.055734,0.038195 L0.056428,0.039491 L0.056692,0.039956 L0.056740,0.040067 L0.056531,0.040484 L0.056178,0.041150 L0.055854,0.041626 L0.055462,0.042107 L0.055123,0.042455 L0.055044,0.042554 L0.054943,0.042665 L0.054502,0.043170 L0.054145,0.043572 L0.053966,0.043724 L0.053688,0.043943 L0.053535,0.044024 L0.053238,0.044171 L0.052860,0.044358 L0.052160,0.044484 L0.051609,0.044258 L0.051238,0.044075 L0.050978,0.043967 L0.050656,0.043584 L0.050252,0.043163 L0.049654,0.042609 L0.049076,0.042177 L0.048238,0.041571 L0.047569,0.041095 L0.047045,0.040716 L0.046716,0.040566 L0.045782,0.040188 L0.044775,0.039787 L0.044577,0.039698 L0.044405,0.039557 L0.044235,0.039265 L0.044148,0.039068 L0.044103,0.038962 L0.043993,0.038779 L0.043788,0.038369 L0.043666,0.038075 L0.043545,0.037807 L0.043434,0.037553 L0.043311,0.037263 L0.043237,0.037113 L0.043155,0.036946 L0.043115,0.036877 L0.043055,0.036764 L0.042986,0.036628 L0.042903,0.036469 L0.042770,0.036199 L0.042451,0.035592 L0.041399,0.033457 L0.040745,0.032123 L0.040341,0.031276 L0.040047,0.030726 L0.040039,0.030461 L0.039903,0.030456 L0.039873,0.030191 L0.039827,0.029585 L0.039839,0.029415 L0.039920,0.029325 L0.039941,0.029202 L0.039889,0.029180 L0.039881,0.029137 L0.039892,0.028979 L0.039870,0.028584 L0.039825,0.028424 L0.039762,0.028213 L0.039741,0.028086 L0.039705,0.027850 L0.039659,0.027639 L0.039662,0.027537 L0.039627,0.027358 L0.039563,0.027148 L0.039509,0.027068 L0.039448,0.026863 L0.039268,0.026656 L0.039155,0.026562 L0.039045,0.026058 L0.039180,0.025987 L0.039138,0.025722 L0.039075,0.025510 L0.038967,0.024866 L0.038858,0.024204 L0.039042,0.024039 L0.039127,0.023931 L0.039186,0.023876 L0.039265,0.023792 L0.039370,0.023650 L0.039473,0.023458 L0.039493,0.023363 L0.039536,0.023276 L0.039606,0.023203 L0.039712,0.023130 L0.039813,0.023072 L0.039913,0.023041 L0.040005,0.023034 L0.040133,0.023032 L0.040272,0.023051 L0.040451,0.023075 L0.040674,0.023111 L0.040956,0.023134 L0.041211,0.023098 L0.041513,0.023052 L0.041673,0.023002 L0.041965,0.022902 L0.042294,0.022808 L0.042580,0.022727 L0.042773,0.022686 L0.042939,0.022651 L0.043039,0.022649 L0.043135,0.022663 L0.043221,0.022685 L0.043307,0.022699 L0.043406,0.022707 L0.043482,0.022688 L0.043573,0.022621 L0.043641,0.022555 L0.043751,0.022389 L0.043804,0.022305 L0.043847,0.022245 L0.043915,0.022205 L0.044015,0.022174 L0.044116,0.022149 L0.044329,0.022113 L0.044644,0.022076 L0.044883,0.022049 L0.044964,0.022057 L0.045095,0.022094 L0.045238,0.022136 L0.045354,0.022150 L0.045479,0.022136 L0.045588,0.022102 L0.045673,0.022065 L0.045886,0.021975 L0.046205,0.021861 L0.046497,0.021738 L0.046695,0.021601 L0.046891,0.021428 L0.046993,0.021329 L0.047126,0.021246 L0.047362,0.021163 L0.047566,0.021106 L0.047750,0.021098 L0.047844,0.021103 Z">
    <title>Njësia 9</title>
  </path>
</svg>