<?xml version="1.0" encoding="UTF-8"?>
<svg xmlns="http://www.w3.org/2000/svg" viewBox="0 0 0.098594 0.082349" width="800" height="800">
  <style>
    .boundary {
      fill: none;
      stroke: #222222;
      stroke-width: 1;
      vector-effect: non-scaling-stroke;
    }
  </style>
  <path class="boundary" d="M0.056738,0.021588 L0.056946,0.022576 L0.057061,0.023426 L0.057056,0.023670 L0.057044,0.023914 L0.057232,0.023961 L0.057462,0.024457 L0.057631,0.025013 L0.057794,0.025649 L0.058029,0.026552 L0.058279,0.027512 L0.058427,0.028051 L0.058798,0.029975 L0.058878,0.030354 L0.059090,0.031216 L0.059298,0.032287 L0.059325,0.032758 L0.059327,0.033027 L0.059350,0.033143 L0.059410,0.033135 L0.059566,0.033099 L0.059826,0.033055 L0.060503,0.033003 L0.060908,0.033015 L0.061167,0.033011 L0.061272,0.033039 L0.061348,0.033117 L0.061414,0.033215 L0.061450,0.033268 L0.061529,0.033437 L0.061860,0.034074 L0.062029,0.034394 L0.062585,0.035465 L0.062963,0.036171 L0.063373,0.036986 L0.063778,0.037799 L0.064157,0.038441 L0.064217,0.038561 L0.064237,0.038602 L0.063993,0.038746 L0.063233,0.039194 L0.062725,0.039494 L0.062290,0.039748 L0.061938,0.039953 L0.061752,0.040062 L0.061181,0.040387 L0.060771,0.040625 L0.060297,0.040902 L0.059693,0.041253 L0.059096,0.041603 L0.058677,0.041795 L0.058120,0.042042 L0.057545,0.042291 L0.056950,0.042544 L0.055777,0.043053 L0.055406,0.043233 L0.055183,0.042635 L0.055123,0.042455 L0.055462,0.042107 L0.055854,0.041626 L0.056178,0.041150 L0.056531,0.040484 L0.056740,0.040067 L0.056692,0.039956 L0.056428,0.039491 L0.055734,0.038195 L0.055174,0.037162 L0.054814,0.036491 L0.054639,0.036175 L0.054490,0.036016 L0.054135,0.035422 L0.053851,0.035015 L0.053698,0.034679 L0.053641,0.034382 L0.053465,0.034089 L0.053117,0.033416 L0.052781,0.032824 L0.052459,0.032264 L0.052137,0.031668 L0.051769,0.030849 L0.051357,0.029828 L0.050964,0.028823 L0.050558,0.027873 L0.050231,0.026932 L0.049745,0.025740 L0.049494,0.025358 L0.049247,0.025274 L0.049016,0.024841 L0.048696,0.024377 L0.048327,0.023710 L0.048454,0.023302 L0.048502,0.023020 L0.048504,0.022917 L0.048516,0.022748 L0.048496,0.022676 L0.048440,0.022593 L0.048359,0.022512 L0.048235,0.022427 L0.047862,0.022056 L0.047862,0.022031 L0.047844,0.021103 L0.047964,0.021110 L0.048307,0.021176 L0.048643,0.021288 L0.048864,0.021362 L0.048974,0.021385 L0.049114,0.021371 L0.049303,0.021336 L0.049501,0.021315 L0.049682,0.021309 L0.049814,0.021326 L0.049938,0.021363 L0.050052,0.021397 L0.050156,0.021395 L0.050275,0.021385 L0.050369,0.021395 L0.050545,0.021441 L0.050740,0.021530 L0.051039,0.021651 L0.051208,0.021691 L0.051333,0.021707 L0.051437,0.021723 L0.051562,0.021757 L0.051735,0.021862 L0.051865,0.022015 L0.052013,0.022168 L0.052277,0.022379 L0.052579,0.022539 L0.052856,0.022636 L0.053110,0.022695 L0.053339,0.022767 L0.053545,0.022818 L0.053664,0.022819 L0.053833,0.022817 L0.053993,0.022788 L0.054128,0.022729 L0.054456,0.022588 L0.054906,0.022328 L0.055407,0.022029 L0.055772,0.021804 L0.055985,0.021703 L0.056147,0.021644 L0.056304,0.021609 L0.056431,0.021601 L0.056538,0.021603 L0.056734,0.021588 L0.056738,0.021588 Z">
    <title>Njësia 8</title>
  </path>
</svg>
