<?xml version="1.0" encoding="UTF-8"?>
<svg xmlns="http://www.w3.org/2000/svg" viewBox="0 0 0.098594 0.082349" width="800" height="800">
  <style>
    .boundary {
      fill: none;
      stroke: #000000;
      stroke-width: 0.5;
      vector-effect: non-scaling-stroke;
    }
  </style>
  <path class="boundary" d="M0.055006,0.052649 L0.055078,0.052986 L0.055223,0.053717 L0.055358,0.054499 L0.055478,0.055067 L0.055637,0.055894 L0.055067,0.056013 L0.054517,0.056114 L0.054190,0.056172 L0.054052,0.056208 L0.054040,0.056269 L0.054092,0.056598 L0.054110,0.056696 L0.054223,0.057168 L0.054219,0.057390 L0.054168,0.057626 L0.054044,0.057815 L0.053812,0.058027 L0.053613,0.058150 L0.053501,0.058259 L0.053337,0.058543 L0.053238,0.058749 L0.053122,0.058953 L0.052992,0.059309 L0.052782,0.059391 L0.052392,0.059602 L0.052036,0.059895 L0.051917,0.059978 L0.050881,0.060742 L0.050104,0.061423 L0.048818,0.062628 L0.048359,0.063042 L0.047437,0.063654 L0.047338,0.063440 L0.047279,0.063313 L0.047121,0.063046 L0.047064,0.062968 L0.046832,0.062763 L0.046586,0.062575 L0.046328,0.062405 L0.046300,0.062397 L0.045799,0.062248 L0.045351,0.062104 L0.044683,0.061890 L0.043745,0.061589 L0.041783,0.060731 L0.039872,0.059738 L0.038879,0.059120 L0.038382,0.058941 L0.038258,0.058907 L0.038234,0.059067 L0.038231,0.059475 L0.038192,0.059866 L0.038138,0.060443 L0.037634,0.061053 L0.037254,0.061679 L0.037030,0.062064 L0.036711,0.061997 L0.036035,0.061670 L0.035726,0.061665 L0.035162,0.061717 L0.034581,0.061903 L0.033990,0.062603 L0.033486,0.062622 L0.033067,0.062859 L0.032792,0.062868 L0.032533,0.062752 L0.032176,0.062780 L0.031928,0.062943 L0.031686,0.063077 L0.031301,0.062754 L0.031460,0.062162 L0.031457,0.062161 L0.031457,0.062154 L0.031457,0.062151 L0.031458,0.062161 L0.031457,0.062150 L0.031457,0.062148 L0.031457,0.062148 L0.031453,0.062125 L0.031448,0.062098 L0.031449,0.062096 L0.031448,0.062094 L0.031445,0.062079 L0.031445,0.062073 L0.031445,0.062067 L0.031445,0.062067 L0.031446,0.062065 L0.031444,0.062066 L0.031444,0.062066 L0.031445,0.062066 L0.031443,0.062066 L0.031445,0.062060 L0.031446,0.062056 L0.031445,0.062058 L0.031447,0.062047 L0.031445,0.062045 L0.031398,0.062008 L0.031304,0.062026 L0.031129,0.062049 L0.030860,0.062210 L0.030555,0.062062 L0.030264,0.061952 L0.029724,0.061883 L0.029550,0.062007 L0.029185,0.061588 L0.029206,0.060942 L0.029207,0.060928 L0.029223,0.060640 L0.029232,0.060514 L0.029371,0.060493 L0.029323,0.060360 L0.029294,0.060266 L0.029288,0.060168 L0.029252,0.060142 L0.029156,0.060109 L0.029016,0.060066 L0.028828,0.059998 L0.028909,0.059930 L0.029025,0.059855 L0.029136,0.059763 L0.029167,0.059674 L0.029191,0.059570 L0.029215,0.059493 L0.029208,0.059377 L0.029192,0.059087 L0.029183,0.058870 L0.029169,0.058566 L0.029163,0.058016 L0.029356,0.058163 L0.029500,0.058291 L0.029645,0.058428 L0.029745,0.058534 L0.029925,0.058728 L0.029989,0.058794 L0.030234,0.058590 L0.030484,0.058347 L0.030659,0.058171 L0.030867,0.057997 L0.031258,0.057645 L0.032286,0.056720 L0.032958,0.056077 L0.033200,0.055843 L0.033350,0.055743 L0.033456,0.055723 L0.033521,0.055664 L0.033572,0.055610 L0.033532,0.055558 L0.033557,0.055519 L0.033637,0.055461 L0.033663,0.055445 L0.033673,0.055429 L0.033887,0.055208 L0.033995,0.055027 L0.034132,0.054892 L0.034294,0.054721 L0.034390,0.054619 L0.034408,0.054596 L0.033254,0.053943 L0.033032,0.053833 L0.032796,0.053692 L0.032676,0.053637 L0.032509,0.053530 L0.031774,0.052760 L0.031104,0.052019 L0.030994,0.051900 L0.031366,0.051722 L0.031627,0.051613 L0.031869,0.051496 L0.032172,0.051363 L0.032380,0.051271 L0.032485,0.051230 L0.032968,0.051055 L0.033257,0.050950 L0.033414,0.050902 L0.033541,0.051112 L0.033705,0.051300 L0.033937,0.051531 L0.034121,0.051709 L0.034433,0.051950 L0.034703,0.052075 L0.035071,0.052237 L0.035299,0.052337 L0.035580,0.052464 L0.035832,0.052569 L0.036017,0.052642 L0.036219,0.052715 L0.036444,0.052801 L0.036672,0.052854 L0.036977,0.052902 L0.037279,0.052945 L0.037563,0.052934 L0.037802,0.052908 L0.038034,0.052866 L0.038222,0.052827 L0.038535,0.052769 L0.038741,0.052724 L0.038884,0.052691 L0.039055,0.052663 L0.039308,0.052613 L0.039766,0.052509 L0.041215,0.052213 L0.041887,0.052067 L0.042478,0.051942 L0.043212,0.051791 L0.043626,0.051700 L0.044064,0.051623 L0.045516,0.051319 L0.046507,0.051115 L0.047020,0.051009 L0.047467,0.050916 L0.047825,0.050831 L0.048915,0.050599 L0.049695,0.050430 L0.051396,0.050077 L0.053825,0.049573 L0.054327,0.049461 L0.054357,0.049614 L0.054478,0.050154 L0.054614,0.050704 L0.054850,0.051913 L0.055006,0.052649 Z">
    <title>Njësia 5</title>
  </path>
</svg>