<?xml version="1.0" encoding="UTF-8"?>
<svg xmlns="http://www.w3.org/2000/svg" viewBox="0 0 0.098594 0.082349" width="800" height="800">
  <style>
    .boundary {
      fill: none;
      stroke: #000000;
      stroke-width: 0.5;
      vector-effect: non-scaling-stroke;
    }
  </style>
  <path class="boundary" d="M0.053238,0.044171 L0.053453,0.045191 L0.053688,0.046371 L0.053881,0.047231 L0.054056,0.048153 L0.054177,0.048709 L0.054327,0.049461 L0.053825,0.049573 L0.051396,0.050077 L0.049695,0.050430 L0.048915,0.050599 L0.047825,0.050831 L0.047467,0.050916 L0.047391,0.050471 L0.047297,0.049900 L0.047333,0.049779 L0.047305,0.049606 L0.047239,0.049248 L0.047195,0.048990 L0.047215,0.048938 L0.047231,0.048924 L0.047201,0.048727 L0.047195,0.048694 L0.047001,0.048738 L0.046966,0.048464 L0.047067,0.048459 L0.047120,0.048485 L0.047106,0.048413 L0.047103,0.048363 L0.047099,0.048320 L0.047099,0.048270 L0.047092,0.048198 L0.047099,0.048162 L0.047099,0.048093 L0.047128,0.048016 L0.047120,0.047957 L0.047078,0.047964 L0.047000,0.047971 L0.046958,0.047977 L0.046928,0.047981 L0.046919,0.047944 L0.046910,0.047896 L0.046895,0.047856 L0.046795,0.047810 L0.046741,0.047821 L0.046646,0.047834 L0.046615,0.047836 L0.046532,0.047859 L0.046515,0.047798 L0.046500,0.047715 L0.046475,0.047655 L0.046451,0.047571 L0.046454,0.047544 L0.046455,0.047539 L0.046410,0.047453 L0.046389,0.047464 L0.046375,0.047460 L0.046366,0.047435 L0.046416,0.047387 L0.046422,0.047365 L0.046401,0.047333 L0.046364,0.047284 L0.046306,0.047227 L0.046288,0.047205 L0.046261,0.047206 L0.046210,0.047222 L0.046171,0.047223 L0.046107,0.047215 L0.046074,0.047212 L0.046012,0.047237 L0.045915,0.047288 L0.045871,0.047298 L0.045854,0.047298 L0.045803,0.047303 L0.045769,0.047224 L0.045709,0.047106 L0.045649,0.047074 L0.045604,0.047076 L0.045509,0.047100 L0.045477,0.047099 L0.045417,0.047076 L0.045309,0.047053 L0.045221,0.047075 L0.045121,0.047090 L0.045101,0.047090 L0.045085,0.047091 L0.045061,0.047090 L0.045048,0.047087 L0.045034,0.047085 L0.045007,0.047093 L0.045000,0.047073 L0.044915,0.047094 L0.044892,0.047103 L0.044871,0.047093 L0.044823,0.046938 L0.044794,0.046880 L0.044756,0.046916 L0.044724,0.046914 L0.044705,0.046874 L0.044699,0.046860 L0.044637,0.046884 L0.044627,0.046897 L0.044601,0.046912 L0.044570,0.046926 L0.044545,0.046817 L0.044355,0.046872 L0.044262,0.046612 L0.044567,0.046489 L0.044654,0.046455 L0.044719,0.046424 L0.044838,0.046374 L0.045299,0.046170 L0.045486,0.046083 L0.046107,0.045844 L0.046078,0.045746 L0.045992,0.045453 L0.045835,0.044805 L0.045727,0.044243 L0.045573,0.043504 L0.045292,0.042236 L0.045161,0.041708 L0.045066,0.041236 L0.044177,0.040821 L0.043210,0.040361 L0.043551,0.039588 L0.043687,0.039402 L0.044148,0.039068 L0.044235,0.039265 L0.044405,0.039557 L0.044577,0.039698 L0.044775,0.039787 L0.045782,0.040188 L0.046716,0.040566 L0.047045,0.040716 L0.047569,0.041095 L0.048238,0.041571 L0.049076,0.042177 L0.049654,0.042609 L0.050252,0.043163 L0.050656,0.043584 L0.050978,0.043967 L0.051238,0.044075 L0.051609,0.044258 L0.052160,0.044484 L0.052860,0.044358 L0.053238,0.044171 Z">
    <title>Njësia 10</title>
  </path>
</svg>