<?xml version="1.0" encoding="UTF-8"?>
<svg xmlns="http://www.w3.org/2000/svg" viewBox="0 0 0.098594 0.082349" width="800" height="800">
  <style>
    .boundary {
      fill: none;
      stroke: #222222;
      stroke-width: 1;
      vector-effect: non-scaling-stroke;
    }
  </style>
  <path class="boundary" d="M0.081747,0.032655 L0.081894,0.032658 L0.081968,0.032656 L0.082041,0.032651 L0.082115,0.032643 L0.082188,0.032634 L0.082599,0.032489 L0.082629,0.032681 L0.082568,0.033609 L0.084822,0.034572 L0.084097,0.034907 L0.082288,0.035365 L0.081862,0.035824 L0.081599,0.035869 L0.081045,0.035934 L0.080953,0.035901 L0.080889,0.035879 L0.080738,0.035720 L0.080571,0.035525 L0.080464,0.035288 L0.080387,0.035163 L0.080320,0.035146 L0.080208,0.035157 L0.080067,0.035178 L0.079922,0.035187 L0.079869,0.035223 L0.079843,0.035408 L0.079817,0.035508 L0.079734,0.035679 L0.079382,0.035786 L0.079181,0.035892 L0.078874,0.036059 L0.078780,0.036160 L0.078286,0.036441 L0.078227,0.036521 L0.078148,0.036555 L0.078015,0.036568 L0.077835,0.036597 L0.077680,0.036620 L0.077696,0.036855 L0.077428,0.036930 L0.077277,0.036970 L0.077159,0.037022 L0.077059,0.037083 L0.076975,0.037170 L0.076933,0.037194 L0.076884,0.037210 L0.076772,0.037258 L0.076711,0.037251 L0.076619,0.037227 L0.076494,0.037177 L0.076398,0.037213 L0.076290,0.037304 L0.076165,0.037376 L0.076037,0.037446 L0.075972,0.037480 L0.075693,0.037627 L0.075438,0.037777 L0.075399,0.037901 L0.075482,0.037936 L0.075717,0.038057 L0.075926,0.038199 L0.076061,0.038370 L0.076126,0.038522 L0.076219,0.038659 L0.076341,0.038825 L0.076438,0.038937 L0.076344,0.039006 L0.076275,0.039011 L0.076216,0.039037 L0.075989,0.039179 L0.075909,0.039219 L0.075778,0.039257 L0.075666,0.039291 L0.075572,0.039344 L0.075475,0.039426 L0.075397,0.039482 L0.075305,0.039540 L0.075189,0.039612 L0.075093,0.039676 L0.075036,0.039724 L0.075000,0.039751 L0.074934,0.039765 L0.074869,0.039758 L0.074787,0.039725 L0.074701,0.039659 L0.074636,0.039603 L0.074570,0.039541 L0.074472,0.039474 L0.074404,0.039390 L0.074334,0.039301 L0.074264,0.039248 L0.074187,0.039238 L0.074132,0.039259 L0.074070,0.039290 L0.073983,0.039319 L0.073875,0.039340 L0.073814,0.039375 L0.073710,0.039461 L0.073635,0.039533 L0.073577,0.039589 L0.073519,0.039661 L0.073428,0.039702 L0.073343,0.039742 L0.073290,0.039793 L0.073237,0.039817 L0.073193,0.039794 L0.073119,0.039752 L0.073061,0.039736 L0.072999,0.039750 L0.072942,0.039779 L0.072889,0.039842 L0.072832,0.039923 L0.072756,0.040019 L0.072668,0.040115 L0.072608,0.040196 L0.072573,0.040252 L0.072539,0.040337 L0.072525,0.040421 L0.072509,0.040502 L0.072489,0.040594 L0.072456,0.040680 L0.072417,0.040764 L0.072365,0.040817 L0.072296,0.040864 L0.072222,0.040905 L0.072149,0.040909 L0.072085,0.040881 L0.072000,0.040819 L0.071898,0.040707 L0.071802,0.040563 L0.071740,0.040466 L0.071666,0.040459 L0.071514,0.040464 L0.071378,0.040438 L0.071234,0.040381 L0.071076,0.040347 L0.070922,0.040322 L0.070744,0.040274 L0.070548,0.040218 L0.070460,0.040202 L0.070424,0.040179 L0.070382,0.040111 L0.070356,0.040055 L0.070341,0.039974 L0.070314,0.039911 L0.070275,0.039881 L0.070196,0.039861 L0.070114,0.039848 L0.070049,0.039866 L0.069998,0.039894 L0.069963,0.039944 L0.069936,0.039985 L0.069918,0.040028 L0.069882,0.040102 L0.069848,0.040165 L0.069830,0.040206 L0.069824,0.040231 L0.069824,0.040267 L0.069830,0.040324 L0.069812,0.040373 L0.069777,0.040421 L0.069743,0.040463 L0.069658,0.040493 L0.069518,0.040533 L0.069393,0.040564 L0.069250,0.040601 L0.069210,0.040633 L0.069170,0.040694 L0.069104,0.040734 L0.069021,0.040777 L0.068975,0.040813 L0.068917,0.040888 L0.068891,0.040918 L0.068855,0.040921 L0.068754,0.040902 L0.068608,0.040951 L0.068447,0.041026 L0.068351,0.041056 L0.068242,0.041106 L0.068180,0.041153 L0.068136,0.041205 L0.068064,0.041238 L0.067883,0.041349 L0.067582,0.041555 L0.067325,0.041700 L0.066813,0.041992 L0.066313,0.042287 L0.065411,0.042786 L0.065408,0.042787 L0.065366,0.042359 L0.065272,0.041810 L0.065110,0.040733 L0.065043,0.040285 L0.064932,0.039951 L0.064774,0.039651 L0.064237,0.038602 L0.064217,0.038561 L0.064157,0.038441 L0.063778,0.037799 L0.063373,0.036986 L0.062963,0.036171 L0.062585,0.035465 L0.062029,0.034394 L0.061860,0.034074 L0.061529,0.033437 L0.061450,0.033268 L0.061414,0.033215 L0.064195,0.031333 L0.064893,0.030866 L0.064987,0.030813 L0.065102,0.030911 L0.065159,0.030967 L0.065243,0.031079 L0.065363,0.031145 L0.065482,0.031321 L0.066022,0.031791 L0.066095,0.031767 L0.066141,0.031793 L0.066234,0.031956 L0.066409,0.032227 L0.067088,0.033286 L0.067162,0.033409 L0.067262,0.033589 L0.067469,0.033463 L0.069267,0.032440 L0.070492,0.031742 L0.070594,0.031685 L0.070689,0.031846 L0.071745,0.033606 L0.071802,0.033612 L0.072089,0.033271 L0.072150,0.033200 L0.072492,0.032819 L0.072817,0.032432 L0.073503,0.031622 L0.074014,0.031019 L0.074180,0.030828 L0.074339,0.030684 L0.074608,0.030442 L0.074845,0.030238 L0.075234,0.029955 L0.075816,0.029456 L0.076521,0.028853 L0.077402,0.028296 L0.077563,0.028187 L0.077634,0.028101 L0.077826,0.027976 L0.078029,0.027864 L0.078584,0.027605 L0.079410,0.027242 L0.080345,0.027122 L0.080362,0.027122 L0.081279,0.027107 L0.080947,0.027497 L0.080772,0.027754 L0.080853,0.028448 L0.080979,0.029536 L0.081969,0.031002 L0.081355,0.032575 L0.081367,0.032582 L0.081378,0.032589 L0.081390,0.032595 L0.081403,0.032601 L0.081415,0.032607 L0.081428,0.032612 L0.081441,0.032617 L0.081454,0.032621 L0.081527,0.032633 L0.081600,0.032643 L0.081747,0.032655 Z">
    <title>Njësia 3</title>
  </path>
</svg>
