<?xml version="1.0" encoding="UTF-8"?>
<svg xmlns="http://www.w3.org/2000/svg" viewBox="0 0 0.098594 0.082349" width="800" height="800">
  <style>
    .boundary {
      fill: none;
      stroke: #000000;
      stroke-width: 0.5;
      vector-effect: non-scaling-stroke;
    }
  </style>
  <path class="boundary" d="M0.086014,0.034738 L0.085973,0.036681 L0.087440,0.036970 L0.088188,0.036923 L0.089930,0.037356 L0.090394,0.037171 L0.091051,0.037176 L0.091735,0.037352 L0.091246,0.038476 L0.091160,0.038769 L0.091154,0.038791 L0.091148,0.038814 L0.091142,0.038836 L0.091137,0.038863 L0.091133,0.038890 L0.091130,0.038916 L0.091127,0.038943 L0.091125,0.038970 L0.091124,0.038997 L0.091125,0.039024 L0.091126,0.039050 L0.091128,0.039076 L0.091131,0.039102 L0.091135,0.039128 L0.091140,0.039154 L0.091145,0.039180 L0.091152,0.039205 L0.091160,0.039231 L0.091168,0.039256 L0.091177,0.039280 L0.091187,0.039305 L0.091198,0.039329 L0.091209,0.039352 L0.091222,0.039376 L0.091235,0.039398 L0.091249,0.039421 L0.091263,0.039442 L0.091279,0.039464 L0.091296,0.039484 L0.091312,0.039505 L0.091330,0.039524 L0.091346,0.039541 L0.091362,0.039553 L0.091379,0.039564 L0.091396,0.039575 L0.091414,0.039585 L0.091432,0.039594 L0.091450,0.039603 L0.091469,0.039612 L0.091488,0.039619 L0.091507,0.039626 L0.091527,0.039632 L0.091546,0.039638 L0.091566,0.039643 L0.091585,0.039647 L0.091606,0.039651 L0.091626,0.039653 L0.091646,0.039655 L0.091666,0.039657 L0.091687,0.039658 L0.091707,0.039658 L0.091727,0.039657 L0.091748,0.039655 L0.091768,0.039653 L0.091788,0.039651 L0.091808,0.039647 L0.091828,0.039643 L0.091847,0.039638 L0.091867,0.039632 L0.091886,0.039626 L0.091906,0.039619 L0.091925,0.039612 L0.091944,0.039603 L0.091962,0.039594 L0.091980,0.039585 L0.091997,0.039575 L0.092014,0.039564 L0.092031,0.039553 L0.092048,0.039541 L0.092429,0.039213 L0.093864,0.039302 L0.094113,0.039622 L0.094045,0.040486 L0.093693,0.040859 L0.093832,0.041480 L0.093711,0.042183 L0.093577,0.042959 L0.092872,0.043270 L0.089990,0.042469 L0.089457,0.042491 L0.089490,0.042866 L0.089380,0.043609 L0.088976,0.044581 L0.088079,0.045352 L0.087352,0.045771 L0.087642,0.046067 L0.087801,0.046252 L0.087807,0.046470 L0.087365,0.046584 L0.086834,0.046420 L0.086358,0.046909 L0.086002,0.047223 L0.085704,0.047501 L0.085779,0.047914 L0.084128,0.049682 L0.083804,0.047925 L0.083691,0.046980 L0.083470,0.045921 L0.083395,0.045966 L0.081549,0.046316 L0.080088,0.046438 L0.078795,0.046354 L0.078854,0.046593 L0.078925,0.046793 L0.078952,0.046949 L0.079059,0.047211 L0.079142,0.047380 L0.079352,0.047691 L0.079388,0.047830 L0.079370,0.047998 L0.079319,0.048308 L0.079313,0.048446 L0.078997,0.048553 L0.078809,0.048671 L0.078656,0.048694 L0.078421,0.048734 L0.078144,0.048816 L0.078008,0.048866 L0.077952,0.048925 L0.077828,0.049138 L0.077695,0.049295 L0.077595,0.049335 L0.077535,0.049312 L0.077473,0.049237 L0.077347,0.049111 L0.077244,0.049051 L0.077122,0.049029 L0.076980,0.049028 L0.076805,0.049000 L0.076709,0.048983 L0.076591,0.049003 L0.076465,0.049080 L0.076381,0.049108 L0.076200,0.048899 L0.076006,0.048583 L0.075900,0.048344 L0.075828,0.048185 L0.075781,0.047997 L0.075800,0.047858 L0.075883,0.047584 L0.075905,0.047405 L0.075860,0.047157 L0.075699,0.046890 L0.075601,0.046733 L0.075417,0.046545 L0.075072,0.046301 L0.074829,0.046146 L0.073764,0.046160 L0.073083,0.046169 L0.072723,0.046295 L0.072409,0.046512 L0.072210,0.046536 L0.072100,0.046718 L0.072089,0.046964 L0.072029,0.047130 L0.071833,0.047366 L0.071571,0.047751 L0.071355,0.047946 L0.071169,0.047796 L0.071081,0.047700 L0.070746,0.047560 L0.070373,0.047345 L0.070132,0.047254 L0.070022,0.047218 L0.069969,0.047288 L0.069893,0.047309 L0.069796,0.047325 L0.069723,0.047341 L0.069599,0.047543 L0.069501,0.047485 L0.069215,0.047303 L0.069081,0.047219 L0.068956,0.047168 L0.068845,0.047175 L0.068697,0.047231 L0.068490,0.047298 L0.068310,0.047361 L0.068055,0.046813 L0.067829,0.046726 L0.067639,0.046701 L0.067403,0.046712 L0.067210,0.046717 L0.066997,0.046712 L0.066795,0.046748 L0.066583,0.046856 L0.066462,0.046880 L0.066371,0.046730 L0.066224,0.046802 L0.065869,0.046850 L0.065544,0.046854 L0.065208,0.046905 L0.065091,0.046929 L0.064916,0.047021 L0.064886,0.046817 L0.064718,0.046762 L0.064492,0.046762 L0.064436,0.046786 L0.064417,0.046846 L0.064344,0.046943 L0.064266,0.047013 L0.064198,0.046901 L0.064156,0.046823 L0.064064,0.046698 L0.064036,0.046596 L0.063932,0.046490 L0.063771,0.046393 L0.063737,0.046414 L0.063681,0.046367 L0.063476,0.046166 L0.063778,0.045927 L0.063725,0.045885 L0.063569,0.045824 L0.063244,0.045787 L0.062951,0.045777 L0.062701,0.045778 L0.062458,0.045803 L0.062267,0.045902 L0.062159,0.045959 L0.062054,0.046034 L0.061942,0.046095 L0.061895,0.046065 L0.061851,0.045979 L0.061875,0.045893 L0.061821,0.045816 L0.061651,0.045870 L0.061613,0.045967 L0.061458,0.046059 L0.061357,0.046030 L0.061236,0.046057 L0.061143,0.046106 L0.061038,0.046013 L0.060988,0.045970 L0.060950,0.046002 L0.060884,0.046020 L0.060814,0.046086 L0.060766,0.046151 L0.060686,0.046239 L0.060602,0.046314 L0.060553,0.046295 L0.060462,0.046416 L0.060019,0.046916 L0.059448,0.047562 L0.059400,0.047638 L0.059603,0.047737 L0.059753,0.047811 L0.059732,0.047905 L0.059556,0.048146 L0.059403,0.048325 L0.059078,0.048501 L0.058891,0.048592 L0.058755,0.048660 L0.058553,0.048695 L0.058488,0.048663 L0.058548,0.048385 L0.058536,0.048194 L0.058473,0.047984 L0.058849,0.047572 L0.059516,0.046850 L0.060147,0.046127 L0.060668,0.045533 L0.060817,0.045397 L0.061587,0.044973 L0.063438,0.043909 L0.064920,0.043065 L0.065408,0.042787 L0.065411,0.042786 L0.066313,0.042287 L0.066813,0.041992 L0.067325,0.041700 L0.067582,0.041555 L0.067883,0.041349 L0.068064,0.041238 L0.068136,0.041205 L0.068180,0.041153 L0.068242,0.041106 L0.068351,0.041056 L0.068447,0.041026 L0.068608,0.040951 L0.068754,0.040902 L0.068855,0.040921 L0.068891,0.040918 L0.068917,0.040888 L0.068975,0.040813 L0.069021,0.040777 L0.069104,0.040734 L0.069170,0.040694 L0.069210,0.040633 L0.069250,0.040601 L0.069393,0.040564 L0.069518,0.040533 L0.069658,0.040493 L0.069743,0.040463 L0.069777,0.040421 L0.069812,0.040373 L0.069830,0.040324 L0.069824,0.040267 L0.069824,0.040231 L0.069830,0.040206 L0.069848,0.040165 L0.069882,0.040102 L0.069918,0.040028 L0.069936,0.039985 L0.069963,0.039944 L0.069998,0.039894 L0.070049,0.039866 L0.070114,0.039848 L0.070196,0.039861 L0.070275,0.039881 L0.070314,0.039911 L0.070341,0.039974 L0.070356,0.040055 L0.070382,0.040111 L0.070424,0.040179 L0.070460,0.040202 L0.070548,0.040218 L0.070744,0.040274 L0.070922,0.040322 L0.071076,0.040347 L0.071234,0.040381 L0.071378,0.040438 L0.071514,0.040464 L0.071666,0.040459 L0.071740,0.040466 L0.071802,0.040563 L0.071898,0.040707 L0.072000,0.040819 L0.072085,0.040881 L0.072149,0.040909 L0.072222,0.040905 L0.072296,0.040864 L0.072365,0.040817 L0.072417,0.040764 L0.072456,0.040680 L0.072489,0.040594 L0.072509,0.040502 L0.072525,0.040421 L0.072539,0.040337 L0.072573,0.040252 L0.072608,0.040196 L0.072668,0.040115 L0.072756,0.040019 L0.072832,0.039923 L0.072889,0.039842 L0.072942,0.039779 L0.072999,0.039750 L0.073061,0.039736 L0.073119,0.039752 L0.073193,0.039794 L0.073237,0.039817 L0.073290,0.039793 L0.073343,0.039742 L0.073428,0.039702 L0.073519,0.039661 L0.073577,0.039589 L0.073635,0.039533 L0.073710,0.039461 L0.073814,0.039375 L0.073875,0.039340 L0.073983,0.039319 L0.074070,0.039290 L0.074132,0.039259 L0.074187,0.039238 L0.074264,0.039248 L0.074334,0.039301 L0.074404,0.039390 L0.074472,0.039474 L0.074570,0.039541 L0.074636,0.039603 L0.074701,0.039659 L0.074787,0.039725 L0.074869,0.039758 L0.074934,0.039765 L0.075000,0.039751 L0.075036,0.039724 L0.075093,0.039676 L0.075189,0.039612 L0.075305,0.039540 L0.075397,0.039482 L0.075475,0.039426 L0.075572,0.039344 L0.075666,0.039291 L0.075778,0.039257 L0.075909,0.039219 L0.075989,0.039179 L0.076216,0.039037 L0.076275,0.039011 L0.076344,0.039006 L0.076438,0.038937 L0.076341,0.038825 L0.076219,0.038659 L0.076126,0.038522 L0.076061,0.038370 L0.075926,0.038199 L0.075717,0.038057 L0.075482,0.037936 L0.075399,0.037901 L0.075438,0.037777 L0.075693,0.037627 L0.075972,0.037480 L0.076037,0.037446 L0.076165,0.037376 L0.076290,0.037304 L0.076398,0.037213 L0.076494,0.037177 L0.076619,0.037227 L0.076711,0.037251 L0.076772,0.037258 L0.076884,0.037210 L0.076933,0.037194 L0.076975,0.037170 L0.077059,0.037083 L0.077159,0.037022 L0.077277,0.036970 L0.077428,0.036930 L0.077696,0.036855 L0.077680,0.036620 L0.077835,0.036597 L0.078015,0.036568 L0.078148,0.036555 L0.078227,0.036521 L0.078286,0.036441 L0.078780,0.036160 L0.078874,0.036059 L0.079181,0.035892 L0.079382,0.035786 L0.079734,0.035679 L0.079817,0.035508 L0.079843,0.035408 L0.079869,0.035223 L0.079922,0.035187 L0.080067,0.035178 L0.080208,0.035157 L0.080320,0.035146 L0.080387,0.035163 L0.080464,0.035288 L0.080571,0.035525 L0.080738,0.035720 L0.080889,0.035879 L0.080953,0.035901 L0.081045,0.035934 L0.081599,0.035869 L0.081862,0.035824 L0.082288,0.035365 L0.084097,0.034907 L0.084822,0.034572 L0.084839,0.034579 L0.086014,0.034738 Z">
    <title>Njësia 1</title>
  </path>
</svg>