<?xml version="1.0" encoding="UTF-8"?>
<svg xmlns="http://www.w3.org/2000/svg" viewBox="0 0 0.098594 0.082349" width="800" height="800">
  <style>
    .boundary {
      fill: none;
      stroke: #222222;
      stroke-width: 0.5;
      vector-effect: non-scaling-stroke;
    }
  </style>
  <path class="boundary" d="M0.006262,0.057014 L0.010637,0.054955 L0.011188,0.054707 L0.013742,0.053302 L0.013775,0.052060 L0.014365,0.051798 L0.014739,0.051444 L0.015434,0.050832 L0.017091,0.051841 L0.015651,0.054390 L0.016350,0.055684 L0.021184,0.054805 L0.019290,0.050239 L0.019828,0.049028 L0.026013,0.050329 L0.029799,0.048182 L0.026553,0.040051 L0.026446,0.038913 L0.026762,0.037527 L0.027085,0.037448 L0.027449,0.037597 L0.027785,0.037756 L0.028273,0.038005 L0.028567,0.038152 L0.028672,0.038312 L0.028783,0.038716 L0.028862,0.038845 L0.029110,0.038986 L0.029303,0.039154 L0.029510,0.039362 L0.029652,0.039553 L0.029751,0.039672 L0.029909,0.039803 L0.030049,0.039894 L0.030065,0.040021 L0.030051,0.040162 L0.029882,0.040335 L0.029858,0.040464 L0.030014,0.040581 L0.030197,0.040602 L0.030615,0.040451 L0.030800,0.040552 L0.031063,0.041226 L0.031493,0.041477 L0.031763,0.041860 L0.031933,0.041903 L0.032088,0.041990 L0.032215,0.042102 L0.032309,0.042196 L0.032395,0.042306 L0.032431,0.042401 L0.032409,0.042484 L0.032350,0.042550 L0.032288,0.042588 L0.032202,0.042615 L0.032127,0.042663 L0.032042,0.042686 L0.031952,0.042680 L0.031855,0.042709 L0.031801,0.042771 L0.031758,0.042879 L0.031711,0.043027 L0.031689,0.043142 L0.031671,0.043246 L0.031631,0.043411 L0.031606,0.043531 L0.031557,0.043679 L0.031518,0.043813 L0.031444,0.043985 L0.031349,0.044206 L0.031301,0.044334 L0.031234,0.044496 L0.031179,0.044647 L0.031118,0.044833 L0.031093,0.044928 L0.031107,0.045002 L0.031095,0.045153 L0.031081,0.045295 L0.031081,0.045441 L0.031077,0.045605 L0.031077,0.045768 L0.031075,0.045914 L0.031099,0.046034 L0.031136,0.046152 L0.031190,0.046305 L0.031210,0.046434 L0.031207,0.046568 L0.031216,0.046698 L0.031237,0.046797 L0.031213,0.046920 L0.031152,0.047081 L0.031084,0.047234 L0.031081,0.047312 L0.031138,0.047367 L0.031266,0.047483 L0.031385,0.047615 L0.031501,0.047738 L0.031639,0.047843 L0.031732,0.047925 L0.031774,0.048020 L0.031826,0.048099 L0.031847,0.048201 L0.031821,0.048288 L0.031733,0.048418 L0.031670,0.048501 L0.031587,0.048595 L0.031512,0.048681 L0.031450,0.048761 L0.031416,0.048858 L0.031416,0.048939 L0.031460,0.049034 L0.031528,0.049098 L0.031629,0.049143 L0.031746,0.049127 L0.031878,0.049146 L0.032068,0.049173 L0.032256,0.049183 L0.032356,0.049151 L0.032436,0.049136 L0.032545,0.049165 L0.032645,0.049261 L0.032667,0.049383 L0.032672,0.049669 L0.032662,0.049895 L0.032716,0.050059 L0.032969,0.050200 L0.033257,0.050499 L0.033414,0.050902 L0.033257,0.050950 L0.032968,0.051055 L0.032485,0.051230 L0.032380,0.051271 L0.032172,0.051363 L0.031869,0.051496 L0.031627,0.051613 L0.031366,0.051722 L0.030994,0.051900 L0.031104,0.052019 L0.031774,0.052760 L0.032509,0.053530 L0.032676,0.053637 L0.032796,0.053692 L0.033032,0.053833 L0.033254,0.053943 L0.034408,0.054596 L0.034390,0.054619 L0.034294,0.054721 L0.034132,0.054892 L0.033995,0.055027 L0.033887,0.055208 L0.033673,0.055429 L0.033663,0.055445 L0.033637,0.055461 L0.033557,0.055519 L0.033532,0.055558 L0.033572,0.055610 L0.033521,0.055664 L0.033456,0.055723 L0.033350,0.055743 L0.033200,0.055843 L0.032958,0.056077 L0.032286,0.056720 L0.031258,0.057645 L0.030867,0.057997 L0.030659,0.058171 L0.030484,0.058347 L0.030234,0.058590 L0.029989,0.058794 L0.029925,0.058728 L0.029745,0.058534 L0.029645,0.058428 L0.029500,0.058291 L0.029356,0.058163 L0.029163,0.058016 L0.029169,0.058566 L0.029183,0.058870 L0.029192,0.059087 L0.029208,0.059377 L0.029215,0.059493 L0.029191,0.059570 L0.029167,0.059674 L0.029136,0.059763 L0.029025,0.059855 L0.028909,0.059930 L0.028828,0.059998 L0.029016,0.060066 L0.029156,0.060109 L0.029252,0.060142 L0.029288,0.060168 L0.029294,0.060266 L0.029323,0.060360 L0.029371,0.060493 L0.029232,0.060514 L0.029223,0.060640 L0.029207,0.060928 L0.029206,0.060942 L0.029185,0.061588 L0.029550,0.062007 L0.028874,0.061979 L0.028670,0.062034 L0.028757,0.062750 L0.028581,0.062817 L0.028275,0.062725 L0.028014,0.062640 L0.027924,0.062635 L0.027861,0.062661 L0.027695,0.062620 L0.027620,0.062596 L0.027575,0.062561 L0.027502,0.062520 L0.027471,0.062493 L0.027351,0.062444 L0.027291,0.062426 L0.027207,0.062386 L0.027159,0.062347 L0.027118,0.062332 L0.027050,0.062321 L0.026998,0.062314 L0.026949,0.062308 L0.026948,0.062308 L0.026947,0.062308 L0.026945,0.062309 L0.026945,0.062309 L0.026943,0.062310 L0.026936,0.062311 L0.026936,0.062311 L0.026934,0.062311 L0.026933,0.062312 L0.026927,0.062313 L0.026927,0.062313 L0.026914,0.062317 L0.026901,0.062319 L0.026900,0.062320 L0.026899,0.062320 L0.026866,0.062326 L0.026861,0.062326 L0.026860,0.062326 L0.026859,0.062326 L0.026858,0.062327 L0.026857,0.062328 L0.026853,0.062333 L0.026850,0.062334 L0.026747,0.062358 L0.026602,0.062424 L0.026452,0.062541 L0.026299,0.062460 L0.026129,0.062571 L0.025938,0.062735 L0.025489,0.062675 L0.025133,0.062572 L0.024922,0.062416 L0.024814,0.062509 L0.024723,0.062600 L0.024509,0.062817 L0.024273,0.063183 L0.024245,0.063502 L0.024628,0.063637 L0.024852,0.063767 L0.024987,0.063937 L0.024976,0.064065 L0.024954,0.064262 L0.024734,0.064412 L0.024444,0.064582 L0.024015,0.065167 L0.024825,0.066009 L0.026127,0.066916 L0.026671,0.067422 L0.027099,0.067564 L0.027365,0.067808 L0.027322,0.068237 L0.027260,0.068501 L0.026854,0.068820 L0.026580,0.069104 L0.026437,0.069468 L0.026491,0.069846 L0.026200,0.070114 L0.025906,0.070217 L0.025562,0.070254 L0.025202,0.070309 L0.024891,0.070330 L0.024416,0.070386 L0.023879,0.070673 L0.023455,0.070877 L0.023111,0.070832 L0.022591,0.071277 L0.022413,0.071545 L0.021406,0.071567 L0.021075,0.071425 L0.020775,0.071535 L0.020446,0.071493 L0.019621,0.070809 L0.019271,0.070805 L0.018929,0.070648 L0.018121,0.070274 L0.017838,0.069910 L0.017733,0.069646 L0.017327,0.069449 L0.017093,0.068933 L0.016705,0.068055 L0.016324,0.067722 L0.016188,0.067387 L0.015970,0.067124 L0.015599,0.066787 L0.015090,0.066503 L0.015261,0.067008 L0.015420,0.067512 L0.015436,0.067803 L0.015354,0.068185 L0.015460,0.068551 L0.015514,0.068841 L0.015418,0.069109 L0.015270,0.069377 L0.015274,0.069706 L0.015529,0.069867 L0.015870,0.069926 L0.016001,0.070215 L0.015915,0.070381 L0.015241,0.070948 L0.014556,0.071490 L0.014116,0.071686 L0.013350,0.071913 L0.012807,0.071857 L0.012407,0.072129 L0.011765,0.072227 L0.011047,0.072288 L0.010439,0.072132 L0.009666,0.071852 L0.008980,0.070483 L0.007777,0.068781 L0.007542,0.068136 L0.007356,0.067375 L0.007559,0.067199 L0.007694,0.067021 L0.007506,0.066390 L0.007663,0.065894 L0.008225,0.064587 L0.005253,0.061500 L0.005971,0.060489 L0.006004,0.059260 L0.006262,0.057014 Z">
    <title>Njësia 6</title>
  </path>
</svg>
