<?xml version="1.0" encoding="UTF-8"?>
<svg xmlns="http://www.w3.org/2000/svg" viewBox="0 0 0.533968 0.445545" width="800" height="800">
  <style>
    .boundary {
      fill: none;
      stroke: #222222;
      stroke-width: 1;
      vector-effect: non-scaling-stroke;
    }
  </style>
  <path class="boundary" d="M0.171099,0.281083 L0.171558,0.281252 L0.171828,0.281225 L0.171875,0.281212 L0.172077,0.281360 L0.172165,0.281414 L0.172185,0.281421 L0.172368,0.281468 L0.172624,0.281468 L0.172658,0.281462 L0.172752,0.281455 L0.173022,0.281428 L0.173319,0.281543 L0.173508,0.281718 L0.173582,0.281786 L0.173663,0.281860 L0.173703,0.281860 L0.173778,0.281874 L0.174291,0.281961 L0.174506,0.281961 L0.174655,0.281955 L0.174702,0.281961 L0.174877,0.282056 L0.175336,0.282299 L0.175829,0.282637 L0.176497,0.283366 L0.176780,0.283670 L0.177016,0.283913 L0.177590,0.284683 L0.177779,0.284939 L0.178778,0.285291 L0.179384,0.285270 L0.179931,0.285237 L0.180943,0.285122 L0.181753,0.284933 L0.182097,0.284507 L0.182157,0.283866 L0.182320,0.283791 L0.182535,0.283690 L0.183028,0.283683 L0.183277,0.284278 L0.183433,0.285048 L0.183817,0.285250 L0.184620,0.285122 L0.184694,0.285102 L0.185328,0.284987 L0.185733,0.284987 L0.185747,0.284987 L0.185760,0.284980 L0.185889,0.284980 L0.186388,0.284811 L0.186509,0.284764 L0.186752,0.284683 L0.186847,0.284649 L0.187096,0.284892 L0.187218,0.284926 L0.187272,0.284933 L0.187332,0.284980 L0.187434,0.285041 L0.187724,0.285149 L0.187859,0.284683 L0.188007,0.284595 L0.188216,0.284480 L0.188257,0.284453 L0.188345,0.284406 L0.188365,0.284399 L0.188453,0.284365 L0.188641,0.284278 L0.188817,0.284203 L0.188999,0.284224 L0.189012,0.284230 L0.189263,0.284257 L0.189512,0.284284 L0.190254,0.284325 L0.190382,0.284332 L0.190389,0.284338 L0.190767,0.284359 L0.191495,0.284818 L0.191590,0.284879 L0.191610,0.284885 L0.191792,0.284994 L0.192015,0.285149 L0.192083,0.285196 L0.192089,0.285203 L0.192156,0.285250 L0.192224,0.285291 L0.192224,0.285297 L0.192258,0.285318 L0.192366,0.285345 L0.192764,0.285453 L0.192912,0.285493 L0.193020,0.285541 L0.193128,0.285568 L0.193115,0.285615 L0.193088,0.285649 L0.193445,0.285851 L0.193668,0.285986 L0.193918,0.286128 L0.194248,0.286331 L0.194370,0.286378 L0.194896,0.286614 L0.195119,0.286716 L0.195173,0.286749 L0.195402,0.286891 L0.195490,0.286959 L0.195996,0.287269 L0.196245,0.287432 L0.196266,0.287432 L0.196394,0.287479 L0.197500,0.287871 L0.197838,0.287985 L0.199153,0.288438 L0.200415,0.288951 L0.201137,0.289255 L0.201636,0.289471 L0.202695,0.290086 L0.202790,0.290478 L0.202945,0.291173 L0.203127,0.292294 L0.203181,0.293584 L0.201940,0.295023 L0.201589,0.295739 L0.201515,0.295888 L0.201481,0.295955 L0.201420,0.296084 L0.201400,0.296124 L0.201447,0.296165 L0.201724,0.296401 L0.201960,0.296610 L0.202426,0.296867 L0.202554,0.296995 L0.202675,0.297164 L0.202790,0.297225 L0.202938,0.297320 L0.202972,0.297340 L0.203046,0.297387 L0.203195,0.297590 L0.203222,0.297637 L0.203316,0.297786 L0.203336,0.297826 L0.203363,0.297921 L0.203397,0.298069 L0.203410,0.298130 L0.203438,0.298252 L0.203397,0.298319 L0.203329,0.298427 L0.203296,0.298488 L0.203269,0.298529 L0.203263,0.298630 L0.203215,0.298900 L0.203336,0.299089 L0.203600,0.299346 L0.203634,0.299360 L0.203775,0.299441 L0.203815,0.299468 L0.204045,0.299833 L0.204234,0.299914 L0.204240,0.299914 L0.204274,0.299927 L0.204537,0.300022 L0.204740,0.300258 L0.204753,0.300278 L0.204875,0.300562 L0.204895,0.300616 L0.204922,0.300650 L0.205016,0.300785 L0.205050,0.300819 L0.205158,0.300927 L0.205455,0.301211 L0.205482,0.301238 L0.205543,0.301292 L0.205543,0.301339 L0.205516,0.301521 L0.205516,0.301528 L0.205394,0.301846 L0.205239,0.302021 L0.205212,0.302068 L0.205151,0.302170 L0.205179,0.302318 L0.205347,0.302406 L0.205556,0.302406 L0.205799,0.302454 L0.205927,0.302602 L0.205981,0.302717 L0.206002,0.302764 L0.206008,0.302778 L0.206008,0.302994 L0.206083,0.303143 L0.206090,0.303156 L0.206265,0.303365 L0.206305,0.303440 L0.206447,0.303703 L0.206622,0.303899 L0.206757,0.304048 L0.206886,0.304149 L0.207108,0.304325 L0.207310,0.304541 L0.207324,0.304561 L0.207324,0.304568 L0.207364,0.304676 L0.207384,0.304723 L0.207405,0.304750 L0.208714,0.305541 L0.210016,0.306318 L0.211966,0.307257 L0.211973,0.307270 L0.212613,0.307581 L0.212647,0.307594 L0.213038,0.307716 L0.213079,0.307743 L0.213302,0.307898 L0.213497,0.308034 L0.213943,0.308202 L0.213956,0.308209 L0.214044,0.308243 L0.214463,0.308378 L0.214503,0.308405 L0.214914,0.308601 L0.215299,0.308709 L0.215373,0.308729 L0.215684,0.309067 L0.215691,0.309087 L0.215724,0.309121 L0.215751,0.309142 L0.215967,0.309371 L0.216162,0.309587 L0.216668,0.309898 L0.217269,0.310162 L0.218025,0.310472 L0.218996,0.310999 L0.219475,0.311121 L0.219529,0.311135 L0.219839,0.311249 L0.220366,0.311445 L0.220690,0.311736 L0.221655,0.313553 L0.222525,0.315290 L0.222734,0.315790 L0.222997,0.316445 L0.223759,0.317553 L0.224380,0.318128 L0.225001,0.318763 L0.225014,0.318783 L0.225089,0.319222 L0.225237,0.320736 L0.225150,0.322398 L0.224893,0.323770 L0.224589,0.324959 L0.224637,0.325006 L0.225331,0.325696 L0.225453,0.325811 L0.225494,0.325851 L0.226209,0.326277 L0.226398,0.326513 L0.226647,0.326817 L0.226749,0.326946 L0.226924,0.327426 L0.226998,0.327473 L0.227862,0.327953 L0.227963,0.328007 L0.228854,0.328514 L0.228982,0.328561 L0.229555,0.328838 L0.229623,0.328865 L0.229980,0.329135 L0.230338,0.329399 L0.230473,0.329575 L0.230790,0.329940 L0.230972,0.330156 L0.231168,0.331480 L0.231310,0.333042 L0.231215,0.335738 L0.231168,0.335988 L0.231107,0.336103 L0.231033,0.336184 L0.230925,0.336252 L0.230797,0.336286 L0.230675,0.336279 L0.230554,0.336205 L0.230439,0.336211 L0.230324,0.336191 L0.230237,0.336184 L0.230169,0.336272 L0.230095,0.336428 L0.229994,0.336516 L0.229852,0.336610 L0.229691,0.336894 L0.229609,0.337110 L0.229454,0.337273 L0.229454,0.337306 L0.229440,0.337543 L0.229353,0.337692 L0.229339,0.337698 L0.229339,0.337739 L0.229313,0.337921 L0.229313,0.337948 L0.229292,0.338016 L0.229279,0.338063 L0.229265,0.338097 L0.229198,0.338273 L0.229130,0.338354 L0.229096,0.338462 L0.229164,0.338597 L0.229259,0.338766 L0.229232,0.339016 L0.229164,0.339314 L0.229178,0.339496 L0.229359,0.339625 L0.229440,0.339706 L0.229508,0.339909 L0.229636,0.340443 L0.229670,0.340672 L0.229852,0.340997 L0.230055,0.341206 L0.230223,0.341321 L0.230230,0.341321 L0.230250,0.341321 L0.230426,0.341355 L0.230493,0.341382 L0.230560,0.341423 L0.230655,0.341504 L0.230716,0.341679 L0.230817,0.341936 L0.230763,0.342119 L0.230750,0.342254 L0.230750,0.342376 L0.230844,0.342531 L0.230985,0.342734 L0.231073,0.343018 L0.231141,0.343207 L0.231263,0.343430 L0.231310,0.343640 L0.231383,0.343788 L0.231417,0.343863 L0.231579,0.344248 L0.231667,0.344336 L0.231863,0.344322 L0.232011,0.344349 L0.232322,0.344559 L0.232382,0.344600 L0.232659,0.344775 L0.233043,0.345107 L0.233070,0.345127 L0.233287,0.345221 L0.233307,0.345235 L0.233320,0.345235 L0.233441,0.345221 L0.233617,0.345235 L0.233792,0.345262 L0.233934,0.345296 L0.234042,0.345424 L0.234204,0.345559 L0.234379,0.345600 L0.234541,0.345614 L0.234703,0.345695 L0.234845,0.345837 L0.234872,0.345924 L0.234899,0.345992 L0.234959,0.346127 L0.235115,0.346303 L0.235236,0.346371 L0.235398,0.346418 L0.235513,0.346418 L0.235668,0.346431 L0.235904,0.346560 L0.235911,0.346587 L0.235985,0.346844 L0.236154,0.347229 L0.236208,0.347493 L0.236194,0.347898 L0.236214,0.348385 L0.236350,0.348757 L0.236606,0.349189 L0.236673,0.349453 L0.236903,0.349696 L0.237078,0.349886 L0.237186,0.350264 L0.237402,0.350683 L0.237773,0.351042 L0.238084,0.351407 L0.238299,0.351684 L0.238407,0.352117 L0.238414,0.352225 L0.238441,0.352374 L0.238441,0.352428 L0.238475,0.352732 L0.238677,0.353313 L0.239014,0.353719 L0.239156,0.354125 L0.239231,0.354638 L0.239231,0.356281 L0.239190,0.357376 L0.239177,0.357762 L0.239102,0.358796 L0.238691,0.360088 L0.238542,0.361142 L0.238529,0.361251 L0.238232,0.362048 L0.238340,0.362887 L0.238536,0.363955 L0.238826,0.365125 L0.238941,0.365443 L0.238819,0.366471 L0.238826,0.366727 L0.238833,0.366836 L0.238920,0.367417 L0.238724,0.367728 L0.238589,0.368080 L0.238448,0.368918 L0.238326,0.369453 L0.238306,0.369561 L0.237996,0.370115 L0.237865,0.370366 L0.237851,0.370372 L0.237738,0.370473 L0.237647,0.370546 L0.237564,0.370683 L0.237501,0.370798 L0.237431,0.370899 L0.237347,0.370979 L0.237312,0.371038 L0.237278,0.371094 L0.237244,0.371238 L0.237217,0.371367 L0.237204,0.371481 L0.237164,0.371632 L0.237123,0.371716 L0.237100,0.371752 L0.237023,0.371770 L0.236910,0.371778 L0.236682,0.371781 L0.236519,0.371812 L0.236300,0.371872 L0.236108,0.371932 L0.235960,0.371984 L0.235747,0.372037 L0.235542,0.372082 L0.235330,0.372135 L0.235230,0.372186 L0.235188,0.372237 L0.235140,0.372309 L0.235084,0.372410 L0.235036,0.372532 L0.234981,0.372640 L0.234904,0.372734 L0.234862,0.372799 L0.234785,0.372879 L0.234699,0.372894 L0.234607,0.372895 L0.234421,0.372762 L0.234342,0.372720 L0.234164,0.372672 L0.234014,0.372674 L0.233887,0.372690 L0.233766,0.372692 L0.233618,0.372786 L0.233549,0.372902 L0.233493,0.372988 L0.233409,0.373082 L0.233275,0.373170 L0.233205,0.373242 L0.233071,0.373344 L0.232987,0.373445 L0.232896,0.373561 L0.232798,0.373662 L0.232749,0.373713 L0.232685,0.373721 L0.232585,0.373701 L0.232571,0.373680 L0.232512,0.373516 L0.232467,0.373373 L0.232437,0.373245 L0.232415,0.373153 L0.232356,0.373025 L0.232320,0.372961 L0.232156,0.372963 L0.231733,0.373122 L0.231634,0.373159 L0.231677,0.373234 L0.231739,0.373344 L0.231792,0.373432 L0.231862,0.373549 L0.231918,0.373763 L0.231909,0.373885 L0.231868,0.373916 L0.231479,0.374216 L0.231272,0.374381 L0.231066,0.374527 L0.230849,0.374634 L0.230709,0.374750 L0.230551,0.374934 L0.230448,0.375040 L0.230241,0.375185 L0.229943,0.375176 L0.229785,0.375379 L0.229616,0.375597 L0.229431,0.375837 L0.229200,0.375974 L0.229023,0.376211 L0.228713,0.376416 L0.228497,0.376523 L0.228337,0.376621 L0.228055,0.376777 L0.227961,0.376835 L0.227801,0.376923 L0.227716,0.376962 L0.227527,0.377032 L0.227425,0.377109 L0.227294,0.377273 L0.227135,0.377456 L0.227043,0.377600 L0.226969,0.377754 L0.226896,0.377974 L0.226870,0.378193 L0.226844,0.378365 L0.226818,0.378575 L0.226794,0.378842 L0.226769,0.379100 L0.226725,0.379367 L0.226699,0.379587 L0.226685,0.379911 L0.226669,0.380187 L0.226643,0.380321 L0.226610,0.380360 L0.226540,0.380446 L0.226417,0.380477 L0.226237,0.380489 L0.226030,0.380568 L0.225880,0.380627 L0.225747,0.380686 L0.225663,0.380753 L0.225427,0.380833 L0.225229,0.380902 L0.225004,0.381019 L0.224872,0.381135 L0.224760,0.381280 L0.224646,0.381177 L0.224475,0.381150 L0.224335,0.381247 L0.224279,0.381399 L0.224261,0.381448 L0.224264,0.381658 L0.224323,0.381810 L0.224353,0.381971 L0.224356,0.382152 L0.224330,0.382372 L0.224342,0.382562 L0.224363,0.382734 L0.224414,0.382971 L0.224417,0.383181 L0.224411,0.383524 L0.224357,0.383734 L0.224340,0.383887 L0.224241,0.384250 L0.224168,0.384461 L0.224161,0.384690 L0.224181,0.384865 L0.224127,0.384941 L0.223998,0.385209 L0.223888,0.385487 L0.223853,0.385736 L0.223855,0.385888 L0.223857,0.386012 L0.223859,0.386184 L0.223824,0.386403 L0.223779,0.386537 L0.223686,0.386710 L0.223671,0.386968 L0.223683,0.387196 L0.223562,0.387322 L0.223493,0.387550 L0.223356,0.387572 L0.223252,0.387612 L0.223177,0.387622 L0.222914,0.387759 L0.222782,0.387847 L0.222585,0.387974 L0.222416,0.388090 L0.222247,0.388273 L0.222126,0.388418 L0.221919,0.388497 L0.221576,0.388565 L0.221381,0.388628 L0.221202,0.388716 L0.220985,0.388776 L0.220844,0.388845 L0.220693,0.388933 L0.220600,0.389039 L0.220479,0.389183 L0.220319,0.389329 L0.220263,0.389339 L0.220111,0.389350 L0.219903,0.389353 L0.219685,0.389347 L0.219429,0.389350 L0.219259,0.389362 L0.219127,0.389392 L0.218918,0.389385 L0.218602,0.389367 L0.218382,0.389289 L0.218086,0.389131 L0.217810,0.388973 L0.217601,0.388861 L0.217400,0.388749 L0.217057,0.388620 L0.216800,0.388509 L0.216581,0.388388 L0.216342,0.388277 L0.216123,0.388204 L0.216047,0.388176 L0.215877,0.388169 L0.215706,0.388200 L0.215537,0.388231 L0.215414,0.388308 L0.215293,0.388463 L0.215229,0.388635 L0.215175,0.388836 L0.215102,0.389028 L0.215057,0.389209 L0.215001,0.389324 L0.214927,0.389440 L0.214850,0.389644 L0.214750,0.389696 L0.214683,0.389712 L0.214606,0.389728 L0.214568,0.389737 L0.214487,0.389750 L0.214423,0.389754 L0.214337,0.389758 L0.214272,0.389762 L0.214251,0.389774 L0.214222,0.389798 L0.214193,0.389832 L0.214167,0.389865 L0.214164,0.389918 L0.214171,0.389972 L0.214166,0.390070 L0.214173,0.390148 L0.214201,0.390237 L0.214231,0.390290 L0.214310,0.390402 L0.214328,0.390446 L0.214321,0.390542 L0.214290,0.390682 L0.214320,0.390739 L0.214435,0.390886 L0.214435,0.390987 L0.214420,0.391166 L0.214405,0.391321 L0.214360,0.391513 L0.214233,0.391824 L0.214084,0.392136 L0.213978,0.392203 L0.213866,0.392234 L0.213730,0.392248 L0.213648,0.392267 L0.213571,0.392316 L0.213542,0.392399 L0.213544,0.392471 L0.213545,0.392536 L0.213545,0.392608 L0.213535,0.392691 L0.213471,0.392811 L0.213461,0.392895 L0.213467,0.392984 L0.213452,0.393169 L0.213412,0.393271 L0.213313,0.393332 L0.213242,0.393392 L0.213183,0.393435 L0.213083,0.393466 L0.213001,0.393497 L0.212954,0.393533 L0.212919,0.393581 L0.212812,0.393601 L0.212653,0.393615 L0.212571,0.393634 L0.212488,0.393689 L0.212442,0.393778 L0.212402,0.393856 L0.212367,0.393934 L0.212297,0.393995 L0.212280,0.394055 L0.212239,0.394103 L0.212198,0.394121 L0.212151,0.394140 L0.212012,0.394121 L0.211880,0.394160 L0.211800,0.394209 L0.211772,0.394233 L0.211711,0.394244 L0.211597,0.394255 L0.211545,0.394270 L0.211489,0.394299 L0.211451,0.394338 L0.211400,0.394348 L0.211352,0.394344 L0.211295,0.394330 L0.211248,0.394355 L0.211215,0.394360 L0.211172,0.394332 L0.211124,0.394309 L0.211077,0.394328 L0.211030,0.394348 L0.210982,0.394306 L0.210920,0.394302 L0.210831,0.394327 L0.210799,0.394389 L0.210767,0.394504 L0.210735,0.394585 L0.210693,0.394634 L0.210622,0.394678 L0.210495,0.394684 L0.210424,0.394685 L0.210329,0.394715 L0.210231,0.394764 L0.210175,0.394817 L0.210133,0.394827 L0.210065,0.394761 L0.209964,0.394682 L0.209860,0.394654 L0.209751,0.394646 L0.209699,0.394661 L0.209677,0.394724 L0.209677,0.394785 L0.209649,0.394836 L0.209608,0.394826 L0.209484,0.394798 L0.209412,0.394782 L0.209343,0.394766 L0.209286,0.394754 L0.209204,0.394735 L0.209155,0.394724 L0.209065,0.394627 L0.209007,0.394618 L0.208956,0.394619 L0.208893,0.394567 L0.208855,0.394554 L0.208756,0.394550 L0.208712,0.394484 L0.208683,0.394418 L0.208659,0.394389 L0.208497,0.394306 L0.208307,0.394294 L0.208089,0.394245 L0.208006,0.394223 L0.207951,0.394208 L0.207847,0.394195 L0.207804,0.394296 L0.207885,0.394329 L0.207930,0.394442 L0.207960,0.394527 L0.207971,0.394646 L0.207973,0.394723 L0.207925,0.394786 L0.207947,0.394853 L0.208051,0.394955 L0.208108,0.394988 L0.208147,0.395011 L0.208185,0.395068 L0.208186,0.395125 L0.208176,0.395170 L0.208172,0.395187 L0.208154,0.395244 L0.208148,0.395313 L0.208185,0.395345 L0.208268,0.395417 L0.208330,0.395471 L0.208504,0.395497 L0.208621,0.395491 L0.208731,0.395546 L0.208855,0.395630 L0.208937,0.395701 L0.208980,0.395738 L0.209008,0.395759 L0.209133,0.395851 L0.209247,0.395934 L0.209424,0.396018 L0.209452,0.396070 L0.209466,0.396104 L0.209487,0.396155 L0.209558,0.396159 L0.209576,0.396157 L0.209629,0.396149 L0.209677,0.396182 L0.209705,0.396218 L0.209739,0.396262 L0.209849,0.396303 L0.209967,0.396325 L0.210053,0.396334 L0.210209,0.396370 L0.210252,0.396387 L0.210367,0.396434 L0.210557,0.396537 L0.210630,0.396626 L0.210683,0.396754 L0.210722,0.396830 L0.210780,0.396896 L0.210866,0.396961 L0.210914,0.397042 L0.210920,0.397142 L0.210920,0.397238 L0.211121,0.397363 L0.211256,0.397509 L0.211433,0.397540 L0.211557,0.397595 L0.212147,0.397797 L0.212357,0.397838 L0.212828,0.397713 L0.213101,0.397697 L0.213326,0.397718 L0.213446,0.397812 L0.213660,0.397928 L0.213816,0.398057 L0.214123,0.398220 L0.214344,0.398369 L0.214686,0.398540 L0.214815,0.398610 L0.214931,0.398688 L0.215038,0.398732 L0.215180,0.398712 L0.215245,0.398705 L0.215360,0.398692 L0.215359,0.398778 L0.215351,0.398885 L0.215311,0.399008 L0.215215,0.399146 L0.215193,0.399203 L0.215164,0.399287 L0.215166,0.399415 L0.215158,0.399540 L0.215203,0.399593 L0.215216,0.399665 L0.215164,0.399764 L0.215160,0.399838 L0.215136,0.399910 L0.215078,0.400009 L0.215077,0.400096 L0.215069,0.400200 L0.214985,0.400317 L0.214963,0.400449 L0.214938,0.400538 L0.214825,0.400698 L0.214728,0.400759 L0.214690,0.400849 L0.214738,0.400908 L0.214580,0.401023 L0.214726,0.401313 L0.214825,0.401603 L0.214738,0.401801 L0.214882,0.401895 L0.215103,0.402082 L0.215105,0.402089 L0.215177,0.402320 L0.215206,0.402742 L0.215238,0.402909 L0.215277,0.403194 L0.215313,0.403251 L0.215648,0.403318 L0.216076,0.403405 L0.216652,0.403498 L0.217249,0.403504 L0.217570,0.403564 L0.217526,0.403766 L0.217495,0.403912 L0.217483,0.403973 L0.217485,0.404145 L0.217489,0.404516 L0.217584,0.404701 L0.217727,0.404806 L0.217927,0.404868 L0.218049,0.404945 L0.218320,0.405027 L0.218450,0.405058 L0.218520,0.405074 L0.218932,0.405126 L0.219253,0.405179 L0.219348,0.405196 L0.219523,0.405226 L0.219916,0.405378 L0.220043,0.405473 L0.220102,0.405518 L0.220247,0.405745 L0.220364,0.405922 L0.220437,0.406086 L0.220745,0.406260 L0.220873,0.406284 L0.221414,0.406380 L0.221762,0.406450 L0.222085,0.406684 L0.222519,0.407250 L0.222749,0.407664 L0.222872,0.408056 L0.222921,0.408359 L0.222937,0.408460 L0.222940,0.408720 L0.222942,0.408853 L0.222912,0.409282 L0.222866,0.409507 L0.222845,0.409605 L0.222734,0.409895 L0.222731,0.409905 L0.222615,0.410085 L0.222475,0.410289 L0.222406,0.410343 L0.222194,0.410507 L0.221997,0.410784 L0.221846,0.410989 L0.221659,0.411265 L0.221604,0.411396 L0.221579,0.411457 L0.221582,0.411683 L0.221596,0.411874 L0.221618,0.411924 L0.221682,0.412075 L0.221695,0.412194 L0.221662,0.412385 L0.221582,0.412565 L0.221466,0.412722 L0.221372,0.412878 L0.221315,0.412950 L0.221245,0.413070 L0.221200,0.413273 L0.221119,0.413429 L0.221003,0.413574 L0.220717,0.414124 L0.220703,0.414150 L0.220621,0.414156 L0.220525,0.414164 L0.220159,0.414217 L0.219759,0.414377 L0.219752,0.414411 L0.219737,0.414484 L0.219722,0.414509 L0.219632,0.414653 L0.219470,0.414881 L0.219466,0.414886 L0.219307,0.415122 L0.219148,0.415314 L0.219109,0.415363 L0.219032,0.415466 L0.218958,0.415567 L0.218865,0.415676 L0.218677,0.415797 L0.218602,0.415817 L0.218595,0.415819 L0.218581,0.415828 L0.218452,0.415912 L0.218325,0.415993 L0.218246,0.416074 L0.218171,0.416148 L0.218111,0.416198 L0.218052,0.416279 L0.217996,0.416360 L0.217955,0.416425 L0.217862,0.416503 L0.217779,0.416584 L0.217735,0.416649 L0.217641,0.416708 L0.217592,0.416758 L0.217438,0.416870 L0.217326,0.416948 L0.217312,0.417040 L0.217257,0.417220 L0.217217,0.417327 L0.217204,0.417442 L0.217152,0.417549 L0.217026,0.417753 L0.216978,0.417826 L0.216907,0.417952 L0.216849,0.418060 L0.216786,0.418221 L0.216826,0.418377 L0.216865,0.418498 L0.216840,0.418575 L0.216682,0.418653 L0.216566,0.418727 L0.216498,0.418774 L0.216445,0.418782 L0.216396,0.418794 L0.216293,0.418919 L0.216277,0.418967 L0.216275,0.419047 L0.216298,0.419108 L0.216306,0.419157 L0.216267,0.419235 L0.216243,0.419265 L0.216176,0.419319 L0.216128,0.419369 L0.216041,0.419424 L0.215984,0.419455 L0.215893,0.419474 L0.215808,0.419530 L0.215740,0.419644 L0.215639,0.419721 L0.215627,0.419731 L0.215522,0.419839 L0.215487,0.419876 L0.215232,0.419936 L0.215133,0.419938 L0.215123,0.419937 L0.214920,0.419926 L0.214820,0.419899 L0.214549,0.419831 L0.214162,0.419550 L0.213975,0.419367 L0.213689,0.419199 L0.213531,0.419130 L0.213303,0.419047 L0.213104,0.418992 L0.212876,0.418981 L0.212565,0.419028 L0.212437,0.419030 L0.212238,0.419061 L0.212025,0.419064 L0.211784,0.419082 L0.211657,0.419112 L0.211172,0.419018 L0.211059,0.418991 L0.210977,0.418992 L0.210775,0.418995 L0.210415,0.419056 L0.210406,0.419057 L0.210151,0.419075 L0.210023,0.419077 L0.209780,0.419023 L0.209638,0.418982 L0.209410,0.418927 L0.209139,0.418845 L0.208940,0.418791 L0.208397,0.418555 L0.207883,0.418405 L0.207641,0.418336 L0.207271,0.418256 L0.206986,0.418159 L0.206914,0.418117 L0.206671,0.418020 L0.206457,0.417923 L0.206115,0.417871 L0.206072,0.417881 L0.205162,0.418088 L0.205067,0.418056 L0.205010,0.418033 L0.204910,0.417997 L0.204733,0.417904 L0.204626,0.417882 L0.204600,0.417877 L0.204510,0.417849 L0.204386,0.417794 L0.204334,0.417761 L0.204239,0.417734 L0.204135,0.417735 L0.204002,0.417775 L0.203880,0.417844 L0.203833,0.417887 L0.203773,0.417950 L0.203633,0.418090 L0.203604,0.418107 L0.203558,0.418134 L0.203487,0.418154 L0.203411,0.418155 L0.203344,0.418151 L0.203325,0.418153 L0.203278,0.418157 L0.203242,0.418166 L0.203217,0.418172 L0.203166,0.418220 L0.203129,0.418297 L0.203121,0.418388 L0.203107,0.418445 L0.203032,0.418513 L0.203000,0.418551 L0.202943,0.418566 L0.202777,0.418554 L0.202758,0.418517 L0.202729,0.418469 L0.202695,0.418432 L0.202680,0.418403 L0.202628,0.418356 L0.202571,0.418347 L0.202538,0.418348 L0.202448,0.418344 L0.202429,0.418330 L0.202405,0.418312 L0.202371,0.418288 L0.202342,0.418260 L0.202291,0.418261 L0.202243,0.418247 L0.202216,0.418233 L0.202159,0.418203 L0.201959,0.418218 L0.201947,0.418223 L0.201853,0.418267 L0.201663,0.418269 L0.201545,0.418295 L0.201380,0.418309 L0.201071,0.418230 L0.200833,0.418137 L0.200737,0.418055 L0.200559,0.417986 L0.200392,0.417893 L0.200291,0.417830 L0.200260,0.417812 L0.200140,0.417706 L0.200045,0.417636 L0.199926,0.417530 L0.199818,0.417484 L0.199615,0.417379 L0.199473,0.417381 L0.199262,0.417444 L0.199242,0.417454 L0.199167,0.417493 L0.199086,0.417577 L0.199028,0.417673 L0.198829,0.417831 L0.198676,0.417905 L0.198228,0.418065 L0.197991,0.418033 L0.197909,0.418070 L0.197840,0.418250 L0.197795,0.418465 L0.197654,0.418538 L0.197228,0.418544 L0.196981,0.418583 L0.196624,0.418469 L0.196351,0.418437 L0.196091,0.418488 L0.195951,0.418585 L0.195846,0.418706 L0.195767,0.418993 L0.195617,0.419293 L0.195430,0.419426 L0.195347,0.419451 L0.195146,0.419454 L0.194814,0.419459 L0.194648,0.419461 L0.194351,0.419334 L0.194267,0.419228 L0.194160,0.419158 L0.193945,0.419041 L0.193825,0.418972 L0.193613,0.418974 L0.193460,0.419024 L0.193355,0.419169 L0.193155,0.419255 L0.193061,0.419316 L0.192967,0.419365 L0.192884,0.419401 L0.192826,0.419426 L0.192719,0.419428 L0.192565,0.419430 L0.192364,0.419373 L0.192268,0.419326 L0.192136,0.419209 L0.192076,0.419127 L0.192028,0.419056 L0.191967,0.418973 L0.191907,0.418902 L0.191824,0.418844 L0.191646,0.418882 L0.191432,0.418814 L0.191326,0.418791 L0.191124,0.418758 L0.190934,0.418725 L0.190804,0.418739 L0.190615,0.418753 L0.190356,0.418828 L0.190237,0.418854 L0.190096,0.418891 L0.189978,0.418929 L0.189872,0.418966 L0.189684,0.419040 L0.189519,0.419114 L0.189342,0.419140 L0.189037,0.419361 L0.188876,0.419325 L0.188677,0.419357 L0.188460,0.419369 L0.188385,0.419389 L0.188281,0.419419 L0.188167,0.419459 L0.187998,0.419509 L0.187790,0.419540 L0.187534,0.419544 L0.187221,0.419501 L0.186787,0.419573 L0.186721,0.419622 L0.186618,0.419690 L0.186458,0.419759 L0.186345,0.419799 L0.186203,0.419820 L0.186005,0.419860 L0.185854,0.419910 L0.185741,0.419998 L0.185620,0.420095 L0.185489,0.420249 L0.185322,0.420461 L0.185163,0.420654 L0.184995,0.420818 L0.184239,0.421248 L0.184163,0.421254 L0.184012,0.421266 L0.183960,0.421271 L0.183813,0.421273 L0.183708,0.421246 L0.183628,0.421204 L0.183561,0.421167 L0.183461,0.421149 L0.183295,0.421151 L0.183253,0.421152 L0.183130,0.421154 L0.182983,0.421137 L0.182892,0.421081 L0.182844,0.421019 L0.182806,0.420987 L0.182640,0.420946 L0.182554,0.420919 L0.182445,0.420906 L0.182416,0.420906 L0.182284,0.420908 L0.182156,0.420915 L0.182057,0.420925 L0.181943,0.420937 L0.181863,0.420938 L0.181711,0.420906 L0.181573,0.420875 L0.181474,0.420862 L0.181369,0.420854 L0.181289,0.420855 L0.181170,0.420852 L0.181062,0.420844 L0.180933,0.420784 L0.180847,0.420732 L0.180781,0.420710 L0.180785,0.420710 L0.180657,0.420692 L0.180572,0.420665 L0.180524,0.420651 L0.180452,0.420605 L0.180357,0.420549 L0.180256,0.420498 L0.180147,0.420470 L0.179991,0.420425 L0.179758,0.420423 L0.179641,0.420435 L0.179574,0.420450 L0.179480,0.420480 L0.179353,0.420505 L0.179211,0.420550 L0.179083,0.420557 L0.178956,0.420554 L0.178766,0.420556 L0.178696,0.420572 L0.178554,0.420602 L0.178369,0.420605 L0.178270,0.420620 L0.178124,0.420656 L0.178001,0.420696 L0.177869,0.420721 L0.177731,0.420704 L0.177636,0.420610 L0.177602,0.420582 L0.177563,0.420525 L0.177529,0.420450 L0.177495,0.420374 L0.177451,0.420303 L0.177394,0.420261 L0.177270,0.420220 L0.177219,0.420254 L0.177187,0.420307 L0.177173,0.420359 L0.177145,0.420436 L0.177047,0.420490 L0.176891,0.420492 L0.176824,0.420483 L0.176800,0.420450 L0.176771,0.420403 L0.176738,0.420356 L0.176708,0.420323 L0.176608,0.420300 L0.176566,0.420272 L0.176509,0.420254 L0.176433,0.420255 L0.176347,0.420213 L0.176228,0.420172 L0.176101,0.420184 L0.176068,0.420255 L0.175990,0.420371 L0.175932,0.420334 L0.175893,0.420244 L0.175850,0.420187 L0.175783,0.420136 L0.175740,0.420112 L0.175688,0.420084 L0.175555,0.420048 L0.175531,0.420048 L0.175498,0.420049 L0.175398,0.420041 L0.175355,0.420003 L0.175307,0.419961 L0.175199,0.419991 L0.175109,0.419973 L0.175041,0.419898 L0.174988,0.419827 L0.174940,0.419780 L0.174873,0.419705 L0.174810,0.419649 L0.174729,0.419592 L0.174615,0.419542 L0.174454,0.419611 L0.174397,0.419583 L0.174345,0.419555 L0.174269,0.419546 L0.174179,0.419548 L0.174066,0.419559 L0.173962,0.419565 L0.173877,0.419571 L0.173758,0.419573 L0.173682,0.419574 L0.173569,0.419566 L0.173464,0.419534 L0.173393,0.419502 L0.173331,0.419459 L0.173259,0.419422 L0.173240,0.419418 L0.173174,0.419428 L0.173127,0.419448 L0.173042,0.419473 L0.172848,0.419485 L0.172730,0.419473 L0.172654,0.419469 L0.172588,0.419479 L0.172460,0.419519 L0.172357,0.419549 L0.172300,0.419574 L0.172164,0.419690 L0.172122,0.419715 L0.172056,0.419749 L0.172014,0.419764 L0.171934,0.419789 L0.171868,0.419814 L0.171750,0.419844 L0.171636,0.419845 L0.171542,0.419847 L0.171447,0.419848 L0.171295,0.419850 L0.170860,0.419837 L0.170751,0.419829 L0.170628,0.419807 L0.170523,0.419785 L0.170385,0.419744 L0.170272,0.419741 L0.170163,0.419742 L0.170077,0.419734 L0.169982,0.419697 L0.169943,0.419664 L0.169910,0.419627 L0.169857,0.419575 L0.169800,0.419523 L0.169733,0.419486 L0.169642,0.419449 L0.169572,0.419464 L0.169510,0.419480 L0.169525,0.419518 L0.169463,0.419499 L0.169349,0.419468 L0.169240,0.419431 L0.169135,0.419399 L0.169045,0.419372 L0.168974,0.419339 L0.168864,0.419327 L0.168784,0.419337 L0.168684,0.419305 L0.168584,0.419264 L0.168508,0.419227 L0.168447,0.419242 L0.168395,0.419247 L0.168272,0.419244 L0.168171,0.419169 L0.168137,0.419132 L0.168112,0.419056 L0.168107,0.418980 L0.168092,0.418932 L0.168054,0.418928 L0.167978,0.418905 L0.167925,0.418873 L0.167887,0.418826 L0.167863,0.418773 L0.167824,0.418717 L0.167790,0.418674 L0.167762,0.418646 L0.167671,0.418671 L0.167649,0.418700 L0.167593,0.418739 L0.167564,0.418759 L0.167521,0.418759 L0.167488,0.418760 L0.167450,0.418708 L0.167425,0.418646 L0.167415,0.418589 L0.167400,0.418518 L0.167375,0.418437 L0.167350,0.418361 L0.167302,0.418290 L0.167273,0.418234 L0.167168,0.418183 L0.167110,0.418126 L0.167063,0.418122 L0.167006,0.418090 L0.166943,0.418024 L0.166900,0.417977 L0.166828,0.417901 L0.166766,0.417917 L0.166728,0.417855 L0.166685,0.417784 L0.166626,0.417699 L0.166564,0.417614 L0.166472,0.417496 L0.166423,0.417383 L0.166398,0.417335 L0.166360,0.417298 L0.166317,0.417256 L0.166288,0.417199 L0.166250,0.417147 L0.166239,0.417071 L0.166224,0.417019 L0.166218,0.416971 L0.166218,0.416928 L0.166217,0.416871 L0.166178,0.416819 L0.166135,0.416753 L0.166120,0.416710 L0.166114,0.416648 L0.166114,0.416643 L0.166114,0.416596 L0.166089,0.416529 L0.166065,0.416487 L0.166003,0.416402 L0.165963,0.416355 L0.165930,0.416312 L0.165896,0.416265 L0.165872,0.416232 L0.165879,0.416087 L0.165901,0.416039 L0.165939,0.415978 L0.165942,0.415973 L0.165942,0.415965 L0.165941,0.415919 L0.165898,0.415830 L0.165856,0.415753 L0.165837,0.415682 L0.165819,0.415638 L0.165813,0.415623 L0.165778,0.415570 L0.165770,0.415558 L0.165747,0.415549 L0.165628,0.415500 L0.165544,0.415454 L0.165383,0.415385 L0.165318,0.415326 L0.165239,0.415296 L0.165198,0.415280 L0.165116,0.415263 L0.164920,0.415266 L0.164895,0.415275 L0.164867,0.415285 L0.164790,0.415286 L0.164706,0.415192 L0.164693,0.415120 L0.164704,0.415025 L0.164738,0.414911 L0.164790,0.414815 L0.164798,0.414805 L0.164836,0.414761 L0.164835,0.414689 L0.164817,0.414666 L0.164716,0.414655 L0.164675,0.414677 L0.164645,0.414692 L0.164593,0.414740 L0.164552,0.414783 L0.164500,0.414813 L0.164423,0.414856 L0.164393,0.414877 L0.164370,0.414893 L0.164365,0.414940 L0.164389,0.414982 L0.164453,0.415039 L0.164455,0.415040 L0.164497,0.415087 L0.164451,0.415171 L0.164357,0.415203 L0.164209,0.415205 L0.164054,0.415111 L0.164054,0.415110 L0.164029,0.415052 L0.164035,0.415028 L0.164063,0.414950 L0.164080,0.414861 L0.164061,0.414790 L0.164036,0.414718 L0.164006,0.414665 L0.163994,0.414655 L0.163934,0.414601 L0.163887,0.414565 L0.163881,0.414560 L0.163785,0.414502 L0.163726,0.414502 L0.163667,0.414527 L0.163638,0.414548 L0.163626,0.414557 L0.163597,0.414576 L0.163514,0.414595 L0.163384,0.414591 L0.163348,0.414567 L0.163341,0.414503 L0.163341,0.414496 L0.163329,0.414448 L0.163222,0.414438 L0.163209,0.414447 L0.163157,0.414481 L0.163121,0.414475 L0.163079,0.414434 L0.163079,0.414390 L0.163079,0.414369 L0.163119,0.414291 L0.163160,0.414224 L0.163206,0.414152 L0.163205,0.414069 L0.163187,0.414033 L0.163052,0.414131 L0.162988,0.414185 L0.162899,0.414240 L0.162798,0.414266 L0.162729,0.414284 L0.162663,0.414214 L0.162602,0.414119 L0.162592,0.414102 L0.162572,0.414066 L0.162506,0.413989 L0.162457,0.413930 L0.162391,0.413836 L0.162366,0.413741 L0.162359,0.413682 L0.162322,0.413593 L0.162269,0.413599 L0.162180,0.413625 L0.162140,0.413649 L0.162089,0.413664 L0.162074,0.413668 L0.161920,0.413646 L0.161843,0.413623 L0.161796,0.413588 L0.161742,0.413535 L0.161652,0.413453 L0.161622,0.413454 L0.161587,0.413502 L0.161600,0.413561 L0.161619,0.413632 L0.161570,0.413698 L0.161535,0.413744 L0.161520,0.413765 L0.161484,0.413765 L0.161365,0.413755 L0.161323,0.413726 L0.161282,0.413697 L0.161274,0.413680 L0.161233,0.413602 L0.161220,0.413519 L0.161247,0.413435 L0.161254,0.413411 L0.161323,0.413255 L0.161358,0.413171 L0.161356,0.413100 L0.161296,0.413005 L0.161271,0.413006 L0.161190,0.413007 L0.161084,0.413032 L0.160824,0.413084 L0.160749,0.413020 L0.160728,0.413002 L0.160727,0.412954 L0.160784,0.412810 L0.160784,0.412772 L0.160783,0.412727 L0.160774,0.412621 L0.160769,0.412560 L0.160732,0.412441 L0.160766,0.412334 L0.160812,0.412226 L0.160810,0.412083 L0.160795,0.411880 L0.160729,0.411751 L0.160722,0.411739 L0.160707,0.411548 L0.160741,0.411369 L0.160774,0.411178 L0.160759,0.410999 L0.160710,0.410928 L0.160651,0.410917 L0.160535,0.411014 L0.160258,0.411170 L0.160248,0.411175 L0.160229,0.411185 L0.160099,0.411211 L0.159968,0.411141 L0.159823,0.410881 L0.159784,0.410727 L0.159723,0.410537 L0.159662,0.410395 L0.159528,0.410136 L0.159516,0.410111 L0.159478,0.410107 L0.159338,0.410090 L0.159256,0.410186 L0.159265,0.410281 L0.159282,0.410439 L0.159283,0.410460 L0.159280,0.410473 L0.159270,0.410505 L0.159250,0.410568 L0.159156,0.410593 L0.159048,0.410547 L0.158940,0.410453 L0.158868,0.410359 L0.158761,0.410289 L0.158631,0.410326 L0.158538,0.410459 L0.158444,0.410492 L0.158432,0.410496 L0.158372,0.410473 L0.158349,0.410473 L0.158177,0.410286 L0.158133,0.410238 L0.158037,0.410156 L0.157916,0.409991 L0.157860,0.409918 L0.157844,0.409897 L0.157828,0.409879 L0.157760,0.409802 L0.157582,0.409769 L0.157425,0.409729 L0.157404,0.409724 L0.157320,0.409725 L0.157261,0.409730 L0.157131,0.409740 L0.156942,0.409802 L0.156696,0.409960 L0.156592,0.410081 L0.156510,0.410154 L0.156415,0.410155 L0.156375,0.410092 L0.156324,0.410011 L0.156318,0.410002 L0.156246,0.409919 L0.156256,0.409788 L0.156300,0.409561 L0.156302,0.409528 L0.156308,0.409334 L0.156290,0.409237 L0.156288,0.409231 L0.156283,0.409204 L0.156270,0.409194 L0.156188,0.409134 L0.155975,0.409172 L0.155868,0.409221 L0.155810,0.409246 L0.155611,0.409392 L0.155435,0.409466 L0.155282,0.409516 L0.155207,0.409543 L0.155081,0.409590 L0.154954,0.409783 L0.154924,0.409841 L0.154839,0.410011 L0.154685,0.410013 L0.154578,0.409957 L0.154530,0.409932 L0.154479,0.409882 L0.154434,0.409838 L0.154267,0.409757 L0.154184,0.409758 L0.154101,0.409826 L0.154085,0.409841 L0.154067,0.409855 L0.154021,0.409965 L0.153998,0.410023 L0.153962,0.410032 L0.153750,0.410086 L0.153692,0.410074 L0.153644,0.410064 L0.153626,0.410046 L0.153560,0.409981 L0.153511,0.409911 L0.153357,0.409853 L0.153300,0.409831 L0.153297,0.409830 L0.153294,0.409836 L0.153193,0.409975 L0.153148,0.410142 L0.153078,0.410262 L0.152929,0.410318 L0.152914,0.410324 L0.152215,0.410505 L0.152182,0.410513 L0.152150,0.410505 L0.152020,0.410470 L0.151969,0.410457 L0.151944,0.410444 L0.151833,0.410387 L0.151766,0.410353 L0.151599,0.410283 L0.151565,0.410257 L0.151420,0.410143 L0.151371,0.410072 L0.151322,0.409942 L0.151275,0.409862 L0.151273,0.409859 L0.151179,0.409825 L0.151119,0.409826 L0.150953,0.409828 L0.150800,0.409854 L0.150659,0.409927 L0.150590,0.410071 L0.150603,0.410179 L0.150629,0.410309 L0.150690,0.410428 L0.150728,0.410606 L0.150729,0.410725 L0.150484,0.410943 L0.150342,0.410957 L0.150199,0.410911 L0.150021,0.410890 L0.149833,0.410964 L0.149752,0.411049 L0.149706,0.411180 L0.149684,0.411324 L0.149664,0.411527 L0.149584,0.411754 L0.149396,0.411900 L0.149244,0.411962 L0.149150,0.412046 L0.149092,0.412119 L0.148999,0.412263 L0.148787,0.412314 L0.148599,0.412376 L0.148516,0.412425 L0.148434,0.412509 L0.148447,0.412569 L0.148472,0.412676 L0.148533,0.412746 L0.148547,0.412901 L0.148502,0.413057 L0.148148,0.413193 L0.147925,0.413327 L0.147891,0.413423 L0.147835,0.413614 L0.147766,0.413747 L0.147574,0.413945 L0.147567,0.413952 L0.147548,0.414238 L0.147220,0.414517 L0.147124,0.414459 L0.146891,0.414134 L0.146913,0.414006 L0.146919,0.413934 L0.146903,0.413872 L0.146870,0.413813 L0.146833,0.413761 L0.146740,0.413670 L0.146649,0.413600 L0.146601,0.413574 L0.146549,0.413572 L0.146497,0.413578 L0.146438,0.413605 L0.146353,0.413637 L0.146299,0.413640 L0.146254,0.413634 L0.146201,0.413594 L0.146143,0.413552 L0.146036,0.413454 L0.145978,0.413395 L0.145918,0.413329 L0.145865,0.413253 L0.145823,0.413173 L0.145737,0.413081 L0.145644,0.413011 L0.145548,0.412948 L0.145443,0.412853 L0.145381,0.412778 L0.145294,0.412655 L0.145216,0.412528 L0.145129,0.412405 L0.145018,0.412283 L0.144937,0.412198 L0.144783,0.412057 L0.144664,0.411969 L0.144511,0.411856 L0.144428,0.411719 L0.144435,0.411581 L0.144474,0.411266 L0.144480,0.411037 L0.144505,0.410817 L0.144598,0.410692 L0.144739,0.410585 L0.144906,0.410373 L0.144925,0.410268 L0.144933,0.410230 L0.144939,0.409991 L0.144936,0.409954 L0.144927,0.409801 L0.144938,0.409295 L0.144936,0.409124 L0.144952,0.408952 L0.144978,0.408742 L0.145000,0.408639 L0.145022,0.408531 L0.145067,0.408350 L0.145087,0.408279 L0.145112,0.408187 L0.145157,0.408062 L0.145259,0.407889 L0.145266,0.407876 L0.145368,0.407685 L0.145355,0.407625 L0.145309,0.407519 L0.145224,0.407389 L0.145176,0.407315 L0.145117,0.407265 L0.145110,0.407259 L0.145026,0.407195 L0.144886,0.407105 L0.144604,0.406897 L0.144533,0.406836 L0.144454,0.406738 L0.144307,0.406562 L0.144276,0.406519 L0.144249,0.406482 L0.144220,0.406454 L0.144157,0.406394 L0.144105,0.406322 L0.144096,0.406309 L0.144033,0.406214 L0.143957,0.406120 L0.143863,0.406009 L0.143840,0.405982 L0.143795,0.405917 L0.143784,0.405851 L0.143766,0.405738 L0.143724,0.405566 L0.143696,0.405453 L0.143656,0.405332 L0.143613,0.405237 L0.143583,0.405175 L0.143543,0.405119 L0.143505,0.405099 L0.143421,0.405129 L0.143367,0.405148 L0.143300,0.405145 L0.143200,0.405098 L0.143079,0.405062 L0.143000,0.405051 L0.142920,0.405033 L0.142827,0.405006 L0.142746,0.404974 L0.142663,0.404939 L0.142527,0.404894 L0.142479,0.404854 L0.142438,0.404767 L0.142423,0.404718 L0.142434,0.404672 L0.142453,0.404646 L0.142454,0.404591 L0.142450,0.404553 L0.142446,0.404512 L0.142430,0.404431 L0.142457,0.404336 L0.142480,0.404290 L0.142503,0.404216 L0.142488,0.404135 L0.142453,0.404074 L0.142448,0.403995 L0.142430,0.403921 L0.142384,0.403853 L0.142376,0.403779 L0.142344,0.403699 L0.142287,0.403626 L0.142217,0.403560 L0.142166,0.403510 L0.142142,0.403487 L0.142094,0.403423 L0.142064,0.403343 L0.142040,0.403257 L0.142045,0.403114 L0.142041,0.403012 L0.142046,0.402862 L0.142044,0.402759 L0.142043,0.402638 L0.142073,0.402432 L0.142084,0.402389 L0.142111,0.402286 L0.142131,0.402200 L0.142156,0.402116 L0.142182,0.402059 L0.142211,0.401999 L0.142257,0.401946 L0.142299,0.401886 L0.142347,0.401756 L0.142360,0.401632 L0.142363,0.401525 L0.142352,0.401432 L0.142299,0.401333 L0.142219,0.401255 L0.142131,0.401185 L0.142031,0.401136 L0.141916,0.401100 L0.141814,0.401082 L0.141734,0.401086 L0.141628,0.401109 L0.141524,0.401117 L0.141412,0.401090 L0.141346,0.401080 L0.141249,0.401086 L0.141143,0.401116 L0.140994,0.401166 L0.140900,0.401229 L0.140865,0.401263 L0.140802,0.401302 L0.140724,0.401258 L0.140673,0.401226 L0.140590,0.401207 L0.140519,0.401187 L0.140462,0.401155 L0.140408,0.401120 L0.140352,0.401097 L0.140311,0.401109 L0.140225,0.401137 L0.140151,0.401156 L0.140074,0.401157 L0.139941,0.401153 L0.139804,0.401141 L0.139704,0.401136 L0.139626,0.401084 L0.139575,0.401007 L0.139505,0.400901 L0.139445,0.400800 L0.139409,0.400744 L0.139366,0.400667 L0.139341,0.400611 L0.139296,0.400519 L0.139265,0.400451 L0.139199,0.400360 L0.139170,0.400247 L0.139157,0.400125 L0.139156,0.400060 L0.139164,0.399967 L0.139170,0.399812 L0.139169,0.399717 L0.139164,0.399616 L0.139154,0.399500 L0.139134,0.399410 L0.139110,0.399315 L0.139094,0.399235 L0.139081,0.399173 L0.139053,0.399090 L0.139016,0.398965 L0.138988,0.398870 L0.138968,0.398772 L0.138941,0.398674 L0.138895,0.398553 L0.138830,0.398535 L0.138766,0.398542 L0.138821,0.398435 L0.138902,0.398036 L0.138909,0.397982 L0.139071,0.397900 L0.139523,0.397677 L0.140232,0.397278 L0.141109,0.396804 L0.141581,0.396229 L0.141892,0.395411 L0.142040,0.395012 L0.142209,0.394944 L0.142546,0.394701 L0.142742,0.394153 L0.142897,0.394119 L0.143247,0.393902 L0.143531,0.393747 L0.143585,0.393733 L0.143821,0.393699 L0.144199,0.393781 L0.144475,0.393814 L0.144678,0.393841 L0.144725,0.393841 L0.144914,0.393808 L0.145312,0.393740 L0.145710,0.393368 L0.146378,0.392455 L0.146985,0.391528 L0.147309,0.391102 L0.147356,0.391054 L0.147458,0.390777 L0.147667,0.390250 L0.147761,0.389898 L0.147991,0.389458 L0.148213,0.388951 L0.148315,0.388728 L0.148652,0.387544 L0.148828,0.386401 L0.148854,0.386265 L0.149374,0.385028 L0.149772,0.384047 L0.150224,0.382660 L0.150238,0.382627 L0.150190,0.381342 L0.150002,0.380861 L0.149846,0.380469 L0.149765,0.380266 L0.149691,0.380097 L0.149650,0.379996 L0.149563,0.379772 L0.149347,0.379279 L0.149259,0.379049 L0.149077,0.378555 L0.149003,0.378501 L0.148517,0.378109 L0.148476,0.378075 L0.148186,0.377419 L0.147094,0.375376 L0.146689,0.374247 L0.146540,0.373835 L0.146526,0.373808 L0.146513,0.373767 L0.145838,0.372651 L0.145603,0.372245 L0.145265,0.371603 L0.145225,0.371508 L0.145171,0.370954 L0.145056,0.369574 L0.145090,0.368235 L0.145407,0.367749 L0.145690,0.367309 L0.145724,0.367282 L0.146210,0.366782 L0.146419,0.366572 L0.147640,0.365314 L0.149057,0.364503 L0.150278,0.363800 L0.150588,0.363631 L0.152518,0.362542 L0.152983,0.362346 L0.153227,0.362244 L0.154286,0.361791 L0.155487,0.360777 L0.156073,0.359871 L0.157099,0.358749 L0.157524,0.357944 L0.157977,0.357383 L0.158327,0.356727 L0.158631,0.356146 L0.159332,0.354537 L0.159569,0.353077 L0.159643,0.352597 L0.159461,0.350866 L0.159427,0.350474 L0.159407,0.350339 L0.159319,0.349061 L0.159305,0.348906 L0.159258,0.348317 L0.158327,0.346087 L0.158300,0.346006 L0.158017,0.345269 L0.157679,0.344390 L0.156883,0.343004 L0.156796,0.342660 L0.156647,0.342024 L0.156344,0.341186 L0.156161,0.340686 L0.155905,0.339895 L0.155871,0.339800 L0.155736,0.339456 L0.155568,0.339016 L0.155325,0.337854 L0.155291,0.337746 L0.155150,0.337523 L0.154806,0.336995 L0.154157,0.336482 L0.153786,0.335414 L0.153044,0.334062 L0.152875,0.333778 L0.152808,0.333670 L0.152383,0.332961 L0.152295,0.332819 L0.152140,0.332346 L0.151965,0.331818 L0.151789,0.330926 L0.151722,0.330061 L0.151688,0.329703 L0.151722,0.329649 L0.151782,0.329534 L0.152066,0.329021 L0.152694,0.328149 L0.153227,0.327223 L0.153719,0.327101 L0.154542,0.326993 L0.155453,0.326757 L0.155588,0.326669 L0.156478,0.326081 L0.157120,0.325554 L0.157679,0.325385 L0.157936,0.324391 L0.158199,0.323317 L0.158260,0.323081 L0.158111,0.321797 L0.157754,0.320634 L0.157922,0.319398 L0.157916,0.319357 L0.157531,0.317209 L0.157457,0.316749 L0.157430,0.316553 L0.157274,0.315587 L0.157221,0.315263 L0.157403,0.314776 L0.157579,0.314276 L0.157916,0.313742 L0.157990,0.313621 L0.158064,0.313398 L0.158415,0.312283 L0.158651,0.311337 L0.158807,0.310716 L0.158752,0.309162 L0.158746,0.309000 L0.158604,0.307986 L0.158590,0.307878 L0.158583,0.307648 L0.158536,0.306311 L0.158644,0.305453 L0.159137,0.304879 L0.159373,0.304629 L0.159744,0.304250 L0.160264,0.303386 L0.161161,0.302339 L0.161175,0.302291 L0.161242,0.302035 L0.161410,0.301359 L0.161417,0.299880 L0.161248,0.298786 L0.161229,0.298644 L0.161127,0.297995 L0.161026,0.296577 L0.160587,0.295496 L0.160513,0.295354 L0.159649,0.293875 L0.159535,0.293706 L0.158610,0.292342 L0.158583,0.292301 L0.157733,0.291200 L0.157679,0.291126 L0.157572,0.290984 L0.156762,0.289903 L0.155756,0.288998 L0.155021,0.288364 L0.154657,0.288053 L0.154218,0.287269 L0.154117,0.287074 L0.153807,0.286527 L0.152714,0.285568 L0.151506,0.284338 L0.151506,0.284332 L0.152045,0.284183 L0.152889,0.284365 L0.153085,0.284365 L0.153834,0.284352 L0.154394,0.284372 L0.155204,0.283717 L0.156053,0.283352 L0.156661,0.283798 L0.157086,0.283764 L0.157511,0.283433 L0.158010,0.283427 L0.158172,0.283420 L0.158226,0.283427 L0.158665,0.283481 L0.159576,0.283204 L0.160291,0.282738 L0.160824,0.282407 L0.161188,0.281772 L0.161579,0.281077 L0.162490,0.280746 L0.163664,0.280354 L0.163826,0.280300 L0.164521,0.280057 L0.165000,0.279591 L0.165681,0.279361 L0.165830,0.279321 L0.166410,0.279382 L0.166491,0.279395 L0.166727,0.279908 L0.166862,0.280037 L0.167098,0.280246 L0.167908,0.280489 L0.169291,0.280712 L0.170351,0.280780 L0.170492,0.280834 L0.171099,0.281083 Z">
    <title>Baldushku</title>
  </path>
</svg>
