<?xml version="1.0" encoding="UTF-8"?>
<svg xmlns="http://www.w3.org/2000/svg" viewBox="0 0 0.533968 0.445545" width="800" height="800">
  <style>
    .boundary {
      fill: none;
      stroke: #222222;
      stroke-width: 1;
      vector-effect: non-scaling-stroke;
    }
  </style>
  <path class="boundary" d="M0.233755,0.208291 L0.233934,0.208326 L0.233988,0.208319 L0.234002,0.208319 L0.234042,0.208319 L0.234238,0.208306 L0.234271,0.208313 L0.234332,0.208333 L0.234339,0.208333 L0.234366,0.208333 L0.234454,0.208367 L0.234554,0.208407 L0.234568,0.208407 L0.234818,0.208495 L0.235169,0.208596 L0.235304,0.208643 L0.235311,0.208643 L0.235547,0.208738 L0.235655,0.208798 L0.235742,0.208812 L0.235789,0.208812 L0.235796,0.208819 L0.235877,0.208771 L0.235884,0.208765 L0.235924,0.208744 L0.235931,0.208731 L0.236114,0.208724 L0.236201,0.208771 L0.236268,0.208886 L0.236309,0.208927 L0.236390,0.209014 L0.236404,0.209021 L0.236410,0.209035 L0.236431,0.209055 L0.236485,0.209109 L0.236525,0.209149 L0.236660,0.209284 L0.236694,0.209318 L0.236917,0.209520 L0.236963,0.209561 L0.237112,0.209675 L0.237139,0.209682 L0.237240,0.209716 L0.237415,0.209756 L0.237476,0.209797 L0.237503,0.209797 L0.237551,0.209824 L0.237591,0.209871 L0.237652,0.209972 L0.237748,0.210083 L0.237834,0.210181 L0.237962,0.210343 L0.238003,0.210390 L0.238016,0.210404 L0.238171,0.210532 L0.238211,0.210566 L0.238320,0.210633 L0.238333,0.210633 L0.238421,0.210701 L0.238475,0.210802 L0.238495,0.210836 L0.238516,0.210896 L0.238555,0.210957 L0.238616,0.211045 L0.238630,0.211085 L0.238670,0.211186 L0.238697,0.211254 L0.238704,0.211274 L0.238718,0.211308 L0.238826,0.211416 L0.238934,0.211544 L0.238941,0.211551 L0.238981,0.211598 L0.238987,0.211611 L0.238994,0.211625 L0.239143,0.211854 L0.239183,0.211922 L0.239217,0.211955 L0.239237,0.211962 L0.239385,0.212124 L0.239412,0.212144 L0.239575,0.212313 L0.239588,0.212320 L0.239622,0.212353 L0.239717,0.212441 L0.239737,0.212461 L0.239790,0.212475 L0.239865,0.212495 L0.240047,0.212482 L0.240074,0.212475 L0.240195,0.212441 L0.240357,0.212394 L0.240405,0.212380 L0.240553,0.212313 L0.240667,0.212272 L0.240776,0.212272 L0.240857,0.212299 L0.240864,0.212299 L0.240695,0.212576 L0.240688,0.212583 L0.240661,0.212590 L0.240486,0.212670 L0.240175,0.212873 L0.239892,0.213055 L0.239743,0.213143 L0.239312,0.213284 L0.239271,0.213298 L0.239150,0.213338 L0.238650,0.213541 L0.238610,0.213574 L0.238340,0.213763 L0.238070,0.214047 L0.237766,0.214263 L0.237321,0.214242 L0.237220,0.214384 L0.236990,0.214499 L0.236950,0.214519 L0.236525,0.214600 L0.235999,0.214519 L0.235891,0.214505 L0.235607,0.214458 L0.235277,0.214694 L0.234926,0.214998 L0.234771,0.215038 L0.234723,0.215059 L0.234413,0.215065 L0.234217,0.215146 L0.234170,0.215295 L0.234143,0.215376 L0.234150,0.215639 L0.233880,0.215902 L0.233738,0.215976 L0.233495,0.216091 L0.233489,0.216098 L0.233448,0.216327 L0.233495,0.216496 L0.233509,0.216583 L0.233617,0.216550 L0.233826,0.216489 L0.234966,0.216624 L0.235931,0.216840 L0.236424,0.217116 L0.237092,0.217703 L0.236836,0.218013 L0.236815,0.218047 L0.236741,0.218142 L0.236734,0.218196 L0.236741,0.218202 L0.236849,0.218250 L0.237085,0.218304 L0.237388,0.218391 L0.237625,0.218526 L0.237720,0.218587 L0.237861,0.218688 L0.237922,0.218769 L0.237962,0.218816 L0.237969,0.218830 L0.238023,0.218945 L0.238064,0.218985 L0.238164,0.219127 L0.238205,0.219167 L0.238252,0.219214 L0.238320,0.219275 L0.238326,0.219289 L0.238360,0.219302 L0.238455,0.219343 L0.238596,0.219383 L0.238630,0.219397 L0.238792,0.219403 L0.238812,0.219397 L0.238826,0.219390 L0.238846,0.219376 L0.238893,0.219336 L0.238900,0.219322 L0.238981,0.219262 L0.239021,0.219221 L0.239048,0.219221 L0.239055,0.219221 L0.239075,0.219214 L0.239082,0.219214 L0.239156,0.219268 L0.239278,0.219356 L0.239426,0.219430 L0.239453,0.219451 L0.239602,0.219565 L0.239669,0.219619 L0.239898,0.219795 L0.240242,0.220071 L0.240613,0.220355 L0.240640,0.220375 L0.240674,0.220409 L0.240728,0.220463 L0.240843,0.220557 L0.241059,0.220624 L0.241052,0.220705 L0.241011,0.220813 L0.241639,0.221043 L0.241660,0.221002 L0.241660,0.220982 L0.241687,0.221036 L0.241693,0.221063 L0.241781,0.221090 L0.241882,0.221097 L0.241916,0.221029 L0.242058,0.221130 L0.242206,0.221036 L0.242314,0.221036 L0.242429,0.221023 L0.242604,0.221029 L0.242617,0.221009 L0.242685,0.220982 L0.242698,0.220975 L0.243090,0.221002 L0.243515,0.221279 L0.243528,0.221279 L0.243616,0.221164 L0.244324,0.220618 L0.244614,0.220314 L0.244892,0.219896 L0.244958,0.219727 L0.245060,0.219498 L0.245208,0.218992 L0.245512,0.218364 L0.245532,0.218324 L0.245600,0.218142 L0.245917,0.217811 L0.246147,0.217649 L0.246450,0.217460 L0.246557,0.217379 L0.246976,0.216840 L0.246774,0.216543 L0.246929,0.216381 L0.247233,0.216145 L0.247448,0.216151 L0.247583,0.216259 L0.247819,0.216327 L0.248258,0.216394 L0.248488,0.216421 L0.248859,0.216482 L0.249250,0.216536 L0.249472,0.216563 L0.249736,0.216765 L0.249675,0.217427 L0.249486,0.217919 L0.249493,0.218398 L0.249621,0.218695 L0.249695,0.219167 L0.249769,0.219720 L0.249816,0.220530 L0.250498,0.221076 L0.250775,0.221859 L0.250546,0.223141 L0.250512,0.223276 L0.250363,0.223856 L0.250221,0.224457 L0.250727,0.225125 L0.251733,0.226623 L0.252408,0.227682 L0.253426,0.229902 L0.253473,0.230563 L0.253690,0.231096 L0.253878,0.231548 L0.254384,0.232021 L0.254580,0.233910 L0.254620,0.234841 L0.254667,0.235867 L0.254661,0.235901 L0.254479,0.236805 L0.254128,0.237946 L0.254142,0.238735 L0.254452,0.240031 L0.254695,0.240274 L0.255228,0.240821 L0.255329,0.241239 L0.255531,0.242069 L0.255579,0.242245 L0.255457,0.243439 L0.255167,0.243912 L0.254344,0.244020 L0.254081,0.244499 L0.253986,0.245093 L0.253912,0.245673 L0.253892,0.245835 L0.253750,0.245937 L0.253514,0.246105 L0.253399,0.246186 L0.252987,0.246443 L0.252353,0.246315 L0.252030,0.246315 L0.251840,0.246726 L0.251652,0.247178 L0.251510,0.247232 L0.251321,0.247313 L0.251247,0.247347 L0.251159,0.247340 L0.250829,0.247293 L0.250558,0.247010 L0.250437,0.246888 L0.250519,0.246362 L0.250646,0.245916 L0.250700,0.245451 L0.250471,0.245093 L0.250006,0.244789 L0.249689,0.244465 L0.249493,0.244141 L0.249331,0.243945 L0.248366,0.244236 L0.247961,0.244654 L0.247462,0.244553 L0.247327,0.244269 L0.247441,0.243898 L0.247651,0.243561 L0.247826,0.243264 L0.247839,0.243075 L0.247590,0.242980 L0.247293,0.243122 L0.247138,0.243203 L0.247084,0.243217 L0.246443,0.243635 L0.246416,0.243662 L0.246335,0.243723 L0.246011,0.243966 L0.245890,0.244060 L0.245761,0.244215 L0.245654,0.244344 L0.245647,0.244350 L0.245634,0.244411 L0.245546,0.244647 L0.245492,0.244816 L0.245290,0.245430 L0.245121,0.245781 L0.245039,0.245957 L0.245012,0.246038 L0.244992,0.246051 L0.244797,0.246294 L0.244777,0.246328 L0.244560,0.246551 L0.244520,0.246591 L0.244358,0.246942 L0.244230,0.247111 L0.244062,0.247340 L0.243974,0.247448 L0.243724,0.247712 L0.243697,0.247745 L0.243589,0.248272 L0.243879,0.248697 L0.244243,0.249318 L0.244372,0.249777 L0.244291,0.250081 L0.244041,0.250439 L0.243805,0.250884 L0.243677,0.251330 L0.243569,0.251660 L0.243346,0.251694 L0.243029,0.251863 L0.242954,0.251951 L0.242961,0.252214 L0.243042,0.252430 L0.243225,0.252707 L0.243225,0.252713 L0.243400,0.252828 L0.243427,0.252923 L0.243535,0.253267 L0.243636,0.253591 L0.244028,0.254043 L0.244460,0.254387 L0.245276,0.255353 L0.245424,0.255589 L0.245498,0.255710 L0.245161,0.256250 L0.245256,0.256730 L0.245390,0.257175 L0.245404,0.257209 L0.245438,0.257256 L0.245579,0.257452 L0.245775,0.257742 L0.246247,0.258262 L0.246403,0.258444 L0.246436,0.258471 L0.246645,0.258674 L0.247124,0.259119 L0.247212,0.259214 L0.247226,0.259194 L0.247307,0.259261 L0.247287,0.259275 L0.247334,0.259322 L0.247401,0.259389 L0.247334,0.259484 L0.247151,0.259707 L0.246807,0.259822 L0.246645,0.259882 L0.246625,0.259889 L0.246059,0.260058 L0.245856,0.260152 L0.245438,0.260341 L0.245417,0.260348 L0.244885,0.260584 L0.244797,0.260645 L0.244635,0.260780 L0.244189,0.261185 L0.243764,0.261557 L0.243495,0.261860 L0.243299,0.262076 L0.242942,0.262583 L0.242867,0.262738 L0.242698,0.263069 L0.242665,0.263157 L0.242530,0.263285 L0.242307,0.263494 L0.242273,0.263535 L0.242233,0.263575 L0.242119,0.263703 L0.241855,0.264014 L0.241248,0.264304 L0.240452,0.264676 L0.240432,0.264689 L0.240188,0.264831 L0.239946,0.264973 L0.239898,0.265000 L0.239878,0.265027 L0.239858,0.265047 L0.239561,0.265344 L0.239548,0.265357 L0.239231,0.265519 L0.239210,0.265499 L0.238751,0.265121 L0.237746,0.264298 L0.237085,0.264898 L0.236417,0.264277 L0.236336,0.264203 L0.236046,0.263670 L0.236046,0.263622 L0.236012,0.263211 L0.235803,0.262724 L0.235749,0.262650 L0.235384,0.262117 L0.234980,0.261462 L0.234508,0.260935 L0.234042,0.260726 L0.233260,0.260632 L0.232537,0.260456 L0.232220,0.260267 L0.232146,0.260281 L0.231674,0.260341 L0.231579,0.260422 L0.231458,0.260517 L0.231148,0.260645 L0.230810,0.260389 L0.230392,0.259957 L0.230075,0.260348 L0.229697,0.260760 L0.229069,0.261199 L0.228483,0.261739 L0.228092,0.261860 L0.227754,0.261712 L0.227707,0.261388 L0.227733,0.261131 L0.227733,0.260996 L0.227733,0.260760 L0.227760,0.260476 L0.227760,0.260416 L0.227794,0.260267 L0.227538,0.260173 L0.227302,0.260483 L0.227045,0.261340 L0.227045,0.261347 L0.226897,0.262063 L0.226803,0.262124 L0.226681,0.262211 L0.226256,0.262218 L0.226215,0.262218 L0.226027,0.262232 L0.225905,0.262387 L0.225838,0.262677 L0.225790,0.262772 L0.225710,0.262927 L0.225473,0.263069 L0.225109,0.263292 L0.224799,0.263494 L0.224684,0.263899 L0.224643,0.264216 L0.224535,0.264446 L0.224428,0.264642 L0.224353,0.264750 L0.224225,0.264797 L0.224057,0.264757 L0.224050,0.264750 L0.223895,0.264757 L0.223753,0.264871 L0.223598,0.265047 L0.223469,0.265195 L0.223281,0.265222 L0.223152,0.265087 L0.223125,0.264878 L0.223112,0.264608 L0.223017,0.264460 L0.222917,0.264365 L0.222721,0.264304 L0.222525,0.264311 L0.222356,0.264493 L0.222329,0.264790 L0.222377,0.265060 L0.222282,0.265202 L0.222133,0.265317 L0.221884,0.265297 L0.221857,0.265270 L0.221607,0.265054 L0.221439,0.264790 L0.221270,0.264460 L0.221115,0.264176 L0.220939,0.263994 L0.220926,0.263973 L0.220737,0.263784 L0.220703,0.263609 L0.220959,0.263352 L0.220980,0.263285 L0.221013,0.263143 L0.220892,0.262785 L0.220919,0.262454 L0.220980,0.262292 L0.220865,0.261921 L0.220953,0.261611 L0.221108,0.261469 L0.221203,0.261347 L0.221264,0.261064 L0.221398,0.260929 L0.221614,0.260794 L0.221675,0.260578 L0.221574,0.260402 L0.221425,0.260294 L0.221155,0.260294 L0.220798,0.260348 L0.220791,0.260348 L0.220723,0.260571 L0.220669,0.260773 L0.220669,0.260800 L0.220642,0.261037 L0.220602,0.261259 L0.220541,0.261442 L0.220474,0.261651 L0.220407,0.261887 L0.220366,0.262016 L0.220359,0.262063 L0.220346,0.262124 L0.220339,0.262157 L0.220312,0.262313 L0.220319,0.262340 L0.220312,0.262394 L0.220298,0.262508 L0.220305,0.262657 L0.220305,0.262664 L0.220298,0.262691 L0.220285,0.262778 L0.220278,0.262805 L0.220224,0.262900 L0.220143,0.262981 L0.220022,0.263076 L0.219779,0.263231 L0.219738,0.263265 L0.219590,0.263346 L0.219563,0.263366 L0.219367,0.263487 L0.219158,0.263670 L0.218659,0.263217 L0.218484,0.263035 L0.218328,0.262886 L0.218180,0.262859 L0.218092,0.262853 L0.217883,0.262846 L0.217768,0.262819 L0.217654,0.262765 L0.217559,0.262691 L0.217505,0.262556 L0.217485,0.262508 L0.217444,0.262367 L0.217356,0.262157 L0.217181,0.262049 L0.216999,0.261914 L0.216979,0.261908 L0.216729,0.261793 L0.216419,0.261685 L0.216216,0.261678 L0.215980,0.261692 L0.215778,0.261719 L0.215501,0.261746 L0.215346,0.261779 L0.215144,0.261752 L0.215042,0.261752 L0.214874,0.261752 L0.214631,0.261665 L0.214354,0.261462 L0.214044,0.261280 L0.213726,0.261091 L0.213403,0.260888 L0.213282,0.260719 L0.213295,0.260625 L0.213416,0.260470 L0.213430,0.260254 L0.213335,0.259984 L0.213187,0.259842 L0.212917,0.259828 L0.212708,0.259950 L0.212559,0.260004 L0.212465,0.259842 L0.212459,0.259572 L0.212330,0.259423 L0.212202,0.259342 L0.212074,0.259376 L0.211925,0.259484 L0.211885,0.259484 L0.211676,0.259504 L0.211473,0.259403 L0.211244,0.259200 L0.210555,0.259977 L0.210482,0.260024 L0.209989,0.260341 L0.208923,0.261232 L0.207891,0.262394 L0.207263,0.261914 L0.206811,0.261536 L0.206494,0.261300 L0.206271,0.261232 L0.205961,0.261131 L0.205212,0.260794 L0.204403,0.260375 L0.204301,0.260308 L0.204274,0.260301 L0.203849,0.260017 L0.203356,0.259579 L0.202729,0.259059 L0.202028,0.258566 L0.201467,0.258235 L0.201474,0.257911 L0.201542,0.257574 L0.201542,0.257196 L0.201447,0.256858 L0.201305,0.256628 L0.201110,0.256392 L0.200773,0.256196 L0.200671,0.256149 L0.200402,0.256021 L0.200017,0.255717 L0.199666,0.255407 L0.198519,0.254381 L0.198411,0.254117 L0.198398,0.253800 L0.198391,0.253564 L0.198276,0.253294 L0.197892,0.252983 L0.197521,0.252693 L0.197494,0.252680 L0.197095,0.252389 L0.197062,0.252369 L0.196637,0.252099 L0.196401,0.251809 L0.196171,0.251559 L0.195807,0.251404 L0.195530,0.251343 L0.195314,0.251303 L0.194956,0.251269 L0.194761,0.251255 L0.194255,0.251114 L0.193904,0.250992 L0.193641,0.250776 L0.193303,0.250547 L0.192986,0.250344 L0.192703,0.250081 L0.192332,0.249770 L0.192163,0.249541 L0.191968,0.249305 L0.191772,0.249062 L0.191651,0.248846 L0.191651,0.248623 L0.191644,0.248474 L0.191536,0.248333 L0.191523,0.248326 L0.191381,0.248225 L0.191131,0.248171 L0.190828,0.248204 L0.190571,0.248218 L0.190517,0.248218 L0.190416,0.248252 L0.190207,0.248312 L0.190011,0.248461 L0.189842,0.248474 L0.189829,0.248474 L0.189613,0.248481 L0.189451,0.248481 L0.189410,0.248495 L0.189377,0.248508 L0.189242,0.248555 L0.189215,0.248555 L0.188992,0.248717 L0.188777,0.248778 L0.188695,0.248690 L0.188601,0.248576 L0.188399,0.248252 L0.188176,0.247813 L0.188135,0.247725 L0.188055,0.247570 L0.187913,0.247266 L0.187866,0.247124 L0.188007,0.246962 L0.188048,0.246895 L0.188095,0.246780 L0.188108,0.246753 L0.188014,0.246551 L0.187967,0.246476 L0.187859,0.246342 L0.188005,0.246353 L0.188170,0.246339 L0.188349,0.246393 L0.188639,0.246411 L0.188974,0.246348 L0.189090,0.246370 L0.189229,0.246513 L0.189402,0.246549 L0.189514,0.246553 L0.189630,0.246701 L0.189862,0.246844 L0.190045,0.246853 L0.190308,0.246844 L0.190393,0.246745 L0.190442,0.246562 L0.190549,0.246509 L0.190781,0.246540 L0.191045,0.246585 L0.191299,0.246616 L0.191495,0.246611 L0.191580,0.246509 L0.191705,0.246509 L0.191857,0.246607 L0.191951,0.246674 L0.192098,0.246674 L0.192312,0.246719 L0.192548,0.246705 L0.192718,0.246705 L0.192915,0.246705 L0.193058,0.246603 L0.193120,0.246567 L0.193236,0.246558 L0.193414,0.246500 L0.193499,0.246460 L0.193607,0.246420 L0.193683,0.246424 L0.193861,0.246482 L0.194026,0.246504 L0.194093,0.246518 L0.194223,0.246433 L0.194271,0.246339 L0.194267,0.246129 L0.194173,0.245772 L0.194164,0.245482 L0.194035,0.244995 L0.194026,0.244857 L0.194021,0.244763 L0.194084,0.244638 L0.194169,0.244464 L0.194254,0.244361 L0.194319,0.244190 L0.194437,0.243997 L0.194586,0.243954 L0.194865,0.243954 L0.195133,0.244029 L0.195336,0.243997 L0.195315,0.243858 L0.194993,0.243601 L0.194779,0.243408 L0.194673,0.243194 L0.194769,0.242969 L0.194844,0.242840 L0.194983,0.242733 L0.195143,0.242701 L0.195347,0.243044 L0.195465,0.243194 L0.195744,0.243269 L0.196033,0.243397 L0.196247,0.243494 L0.196493,0.243676 L0.196643,0.243815 L0.196803,0.243922 L0.197018,0.243965 L0.197222,0.243794 L0.197532,0.243740 L0.197810,0.243536 L0.198239,0.243354 L0.198550,0.243258 L0.198978,0.243097 L0.199310,0.243140 L0.199653,0.242958 L0.199963,0.242711 L0.200199,0.242519 L0.200799,0.242326 L0.200948,0.242261 L0.201038,0.242194 L0.201058,0.242233 L0.201297,0.242328 L0.201335,0.242481 L0.201360,0.242659 L0.201346,0.242844 L0.201285,0.242980 L0.201229,0.243086 L0.201177,0.243192 L0.201169,0.243266 L0.201171,0.243331 L0.201183,0.243428 L0.201282,0.243476 L0.201488,0.243569 L0.201588,0.243628 L0.201673,0.243684 L0.201762,0.243740 L0.201943,0.243844 L0.202179,0.243976 L0.202446,0.243747 L0.202633,0.243614 L0.202874,0.243514 L0.203087,0.243477 L0.203268,0.243446 L0.203392,0.243427 L0.203557,0.243396 L0.203758,0.243338 L0.203848,0.243292 L0.203925,0.243250 L0.204012,0.243103 L0.204052,0.243001 L0.204159,0.242824 L0.204343,0.242750 L0.204457,0.242724 L0.204599,0.242613 L0.204810,0.242558 L0.205052,0.242547 L0.205348,0.242488 L0.205594,0.242402 L0.205911,0.242264 L0.206178,0.242172 L0.206339,0.242094 L0.206544,0.241976 L0.206754,0.241834 L0.207019,0.241635 L0.207677,0.241528 L0.208230,0.241481 L0.209081,0.241469 L0.209578,0.241701 L0.210525,0.242999 L0.210948,0.243490 L0.211303,0.243386 L0.211817,0.243360 L0.212252,0.243354 L0.212768,0.243526 L0.213265,0.243698 L0.213920,0.243788 L0.213854,0.243332 L0.214856,0.242822 L0.216961,0.241841 L0.216629,0.240713 L0.216983,0.240569 L0.217440,0.240125 L0.217171,0.239806 L0.217330,0.239671 L0.217470,0.239546 L0.217581,0.239392 L0.217682,0.239164 L0.217838,0.238830 L0.217854,0.238602 L0.217832,0.238346 L0.217848,0.238109 L0.217826,0.237900 L0.217786,0.237730 L0.217681,0.237627 L0.217491,0.237573 L0.217264,0.237547 L0.217140,0.237473 L0.217062,0.237285 L0.217026,0.236870 L0.216807,0.236631 L0.216639,0.236435 L0.216586,0.236258 L0.216641,0.236117 L0.216804,0.235949 L0.217036,0.235710 L0.216756,0.235172 L0.216451,0.234150 L0.216212,0.233879 L0.215952,0.233399 L0.215911,0.232136 L0.215663,0.231590 L0.215588,0.230883 L0.215425,0.230535 L0.215372,0.230287 L0.215321,0.230117 L0.215414,0.228455 L0.216269,0.225803 L0.218070,0.223472 L0.217767,0.222841 L0.219897,0.221649 L0.220516,0.221172 L0.220901,0.221019 L0.221610,0.220321 L0.220756,0.218718 L0.221634,0.218494 L0.222644,0.218041 L0.223077,0.218033 L0.223822,0.217195 L0.224270,0.216568 L0.224421,0.216253 L0.224170,0.215790 L0.225822,0.214022 L0.225747,0.213609 L0.226044,0.213331 L0.226400,0.213017 L0.226877,0.212528 L0.227407,0.212692 L0.227850,0.212578 L0.227844,0.212360 L0.227685,0.212175 L0.227395,0.211879 L0.228122,0.211460 L0.229019,0.210689 L0.229423,0.209717 L0.229534,0.208974 L0.229501,0.208599 L0.230033,0.208577 L0.232916,0.209378 L0.233622,0.209067 L0.233755,0.208291 Z">
    <title>Farka</title>
  </path>
</svg>
