<?xml version="1.0" encoding="UTF-8"?>
<svg xmlns="http://www.w3.org/2000/svg" viewBox="0 0 0.533968 0.445545" width="800" height="800">
  <style>
    .boundary {
      fill: none;
      stroke: #222222;
      stroke-width: 0.5;
      vector-effect: non-scaling-stroke;
    }
  </style>
  <path class="boundary" d="M0.155460,0.216940 L0.154764,0.217552 L0.154390,0.217906 L0.153801,0.218168 L0.153768,0.219410 L0.151212,0.220815 L0.150661,0.221063 L0.146285,0.223122 L0.146506,0.221690 L0.146736,0.221724 L0.147053,0.221549 L0.146733,0.220922 L0.146710,0.220877 L0.146493,0.220445 L0.146135,0.219734 L0.146122,0.219741 L0.145940,0.219835 L0.145737,0.219943 L0.145562,0.220010 L0.145549,0.220010 L0.145522,0.220024 L0.145501,0.220031 L0.145420,0.220085 L0.145407,0.220105 L0.145312,0.220166 L0.145305,0.220172 L0.145292,0.220186 L0.145164,0.220314 L0.145150,0.220334 L0.145137,0.220348 L0.145117,0.220402 L0.145110,0.220456 L0.145110,0.220469 L0.145090,0.220543 L0.145049,0.220739 L0.145029,0.220854 L0.145022,0.220874 L0.145002,0.221002 L0.144982,0.221083 L0.144934,0.221252 L0.144934,0.221259 L0.144927,0.221279 L0.144894,0.221407 L0.144880,0.221461 L0.144840,0.221556 L0.144813,0.221643 L0.144725,0.221798 L0.144685,0.221846 L0.144631,0.221893 L0.144402,0.221643 L0.144368,0.221603 L0.144314,0.221542 L0.144233,0.221441 L0.144212,0.221340 L0.144219,0.221326 L0.144206,0.221306 L0.144246,0.221252 L0.144287,0.221171 L0.144307,0.221130 L0.144354,0.221049 L0.144388,0.220989 L0.144179,0.220726 L0.144125,0.220618 L0.144125,0.220456 L0.144010,0.220307 L0.143909,0.220260 L0.143821,0.220287 L0.143720,0.220382 L0.143585,0.220388 L0.143382,0.220361 L0.143369,0.220361 L0.143288,0.220328 L0.143241,0.220307 L0.143227,0.220287 L0.143099,0.220139 L0.143032,0.219970 L0.143018,0.219788 L0.143011,0.219768 L0.142971,0.219646 L0.142964,0.219626 L0.142856,0.219451 L0.142842,0.219424 L0.142823,0.219410 L0.142755,0.219302 L0.142627,0.219194 L0.142546,0.219127 L0.142438,0.219046 L0.142411,0.219025 L0.142391,0.218870 L0.142519,0.218742 L0.142505,0.218742 L0.142418,0.218594 L0.142202,0.218263 L0.142087,0.218094 L0.141925,0.217899 L0.141851,0.217811 L0.141548,0.217508 L0.141453,0.217400 L0.141243,0.217265 L0.141116,0.217163 L0.141008,0.217089 L0.140886,0.216880 L0.140745,0.216644 L0.140623,0.216448 L0.140582,0.216266 L0.140569,0.216232 L0.140684,0.215963 L0.140711,0.215895 L0.140731,0.215834 L0.140819,0.215592 L0.140852,0.215315 L0.140792,0.215106 L0.140778,0.215059 L0.140758,0.215045 L0.140603,0.214944 L0.140434,0.214876 L0.140326,0.214849 L0.140144,0.214802 L0.140022,0.214748 L0.139658,0.214620 L0.139381,0.214553 L0.139327,0.214559 L0.139200,0.214559 L0.139024,0.214607 L0.138882,0.214580 L0.138802,0.214573 L0.138639,0.214559 L0.138437,0.214593 L0.138430,0.214593 L0.138289,0.214613 L0.138268,0.214620 L0.138248,0.214613 L0.137620,0.214188 L0.137580,0.214155 L0.137574,0.214148 L0.137533,0.214134 L0.137337,0.214006 L0.136817,0.213676 L0.136703,0.213574 L0.136581,0.213487 L0.136278,0.213251 L0.136041,0.213028 L0.135961,0.212954 L0.135866,0.212853 L0.135550,0.212488 L0.135272,0.212198 L0.135111,0.212016 L0.134935,0.211800 L0.134847,0.211686 L0.134537,0.211449 L0.134254,0.211321 L0.134024,0.211180 L0.133741,0.211072 L0.133525,0.210944 L0.133336,0.210761 L0.133309,0.210741 L0.133107,0.210552 L0.132958,0.210431 L0.132904,0.210390 L0.132830,0.210235 L0.132877,0.209905 L0.132877,0.209857 L0.132877,0.209830 L0.132877,0.209777 L0.132870,0.209750 L0.132864,0.209702 L0.132857,0.209547 L0.132857,0.209534 L0.132877,0.209399 L0.132870,0.209338 L0.132877,0.209318 L0.132870,0.209311 L0.132864,0.209291 L0.132857,0.209264 L0.132830,0.209230 L0.132810,0.209210 L0.132790,0.209183 L0.132777,0.209169 L0.132756,0.209115 L0.132743,0.209014 L0.132736,0.208994 L0.132743,0.208927 L0.132736,0.208920 L0.132736,0.208913 L0.132709,0.208900 L0.132682,0.208920 L0.132662,0.208940 L0.132594,0.209014 L0.132587,0.209021 L0.132574,0.209068 L0.132540,0.209115 L0.132493,0.209109 L0.132466,0.209102 L0.132445,0.209088 L0.132345,0.209021 L0.132189,0.208974 L0.131960,0.208974 L0.131879,0.208981 L0.131771,0.208994 L0.131724,0.209008 L0.131703,0.209014 L0.131697,0.209014 L0.131622,0.209028 L0.131603,0.209028 L0.131589,0.208994 L0.131642,0.208940 L0.131987,0.208603 L0.132088,0.208481 L0.132297,0.208252 L0.132412,0.208185 L0.132513,0.208124 L0.132608,0.208070 L0.132843,0.207996 L0.133012,0.208002 L0.133039,0.207996 L0.133214,0.208009 L0.133221,0.208002 L0.133241,0.207996 L0.133248,0.207996 L0.133316,0.207948 L0.133363,0.207921 L0.133404,0.207895 L0.133404,0.207888 L0.133451,0.207874 L0.133498,0.207854 L0.133552,0.207827 L0.133680,0.207773 L0.133883,0.207699 L0.133984,0.207658 L0.134483,0.207503 L0.134881,0.207443 L0.135016,0.207254 L0.135037,0.207240 L0.135172,0.207085 L0.135340,0.206788 L0.135570,0.206464 L0.135583,0.206444 L0.135212,0.205925 L0.135064,0.205723 L0.134908,0.205500 L0.134274,0.204630 L0.134207,0.204556 L0.134200,0.204522 L0.134207,0.204495 L0.134207,0.204481 L0.134227,0.204448 L0.134261,0.204387 L0.134267,0.204380 L0.134274,0.204373 L0.135894,0.202714 L0.135900,0.202701 L0.135462,0.202121 L0.135428,0.202080 L0.134720,0.201149 L0.134699,0.201116 L0.133869,0.200043 L0.133667,0.199848 L0.133660,0.199848 L0.133323,0.200003 L0.132810,0.200542 L0.131872,0.200266 L0.131636,0.200171 L0.131265,0.200030 L0.130887,0.199935 L0.130543,0.199922 L0.130199,0.199935 L0.129943,0.199949 L0.129679,0.199989 L0.129430,0.200192 L0.129281,0.200367 L0.129052,0.200590 L0.128836,0.200563 L0.128661,0.200549 L0.128532,0.200522 L0.128431,0.200482 L0.128364,0.200515 L0.128296,0.200569 L0.128141,0.200617 L0.127973,0.200536 L0.127912,0.200542 L0.127763,0.200529 L0.127480,0.200583 L0.127291,0.200556 L0.127143,0.200441 L0.127021,0.200144 L0.126772,0.199881 L0.126474,0.199807 L0.126434,0.199800 L0.125969,0.199740 L0.125604,0.199821 L0.125314,0.199983 L0.125092,0.200124 L0.124963,0.200212 L0.124694,0.200428 L0.124511,0.200724 L0.124579,0.200947 L0.124626,0.201203 L0.124660,0.201406 L0.124606,0.201547 L0.124484,0.201756 L0.124322,0.201966 L0.124363,0.202094 L0.124484,0.202336 L0.124680,0.202653 L0.124673,0.202802 L0.124700,0.202869 L0.124775,0.202971 L0.124768,0.202984 L0.124775,0.203105 L0.124835,0.203274 L0.124875,0.203402 L0.124916,0.203524 L0.124956,0.203618 L0.124950,0.203739 L0.124545,0.204110 L0.124201,0.204286 L0.124012,0.204333 L0.123891,0.204360 L0.123809,0.204380 L0.123803,0.204387 L0.123587,0.204434 L0.123283,0.204434 L0.123094,0.204515 L0.122798,0.204630 L0.122500,0.204717 L0.122224,0.204738 L0.121941,0.204724 L0.121697,0.204684 L0.121502,0.204576 L0.121239,0.204522 L0.120753,0.204360 L0.120396,0.204272 L0.119707,0.203989 L0.119262,0.203773 L0.119039,0.203564 L0.118857,0.203220 L0.118668,0.202944 L0.118614,0.202417 L0.118526,0.202006 L0.118445,0.201689 L0.118513,0.201534 L0.118553,0.201338 L0.118547,0.201129 L0.118513,0.200913 L0.118418,0.200536 L0.118324,0.200286 L0.118155,0.200165 L0.117926,0.200090 L0.117690,0.200171 L0.117461,0.200286 L0.117271,0.200542 L0.117049,0.200846 L0.116719,0.201379 L0.116523,0.201783 L0.116408,0.202087 L0.116334,0.202323 L0.116266,0.202667 L0.116260,0.202923 L0.116260,0.202930 L0.116226,0.203173 L0.116138,0.203368 L0.115963,0.203618 L0.115841,0.203874 L0.115753,0.204070 L0.115585,0.204198 L0.115376,0.204259 L0.115295,0.204293 L0.115153,0.204367 L0.114876,0.204596 L0.114546,0.204846 L0.114384,0.204987 L0.114181,0.205163 L0.113999,0.205520 L0.113662,0.205918 L0.113385,0.206377 L0.112960,0.206889 L0.112940,0.206916 L0.112758,0.207227 L0.112691,0.207355 L0.112441,0.207915 L0.112205,0.208239 L0.112184,0.208272 L0.111766,0.208346 L0.111496,0.208353 L0.111159,0.208313 L0.110882,0.208346 L0.110585,0.208367 L0.110187,0.208239 L0.109668,0.207888 L0.109215,0.207598 L0.108919,0.207530 L0.108838,0.207645 L0.108784,0.208009 L0.108790,0.208495 L0.108784,0.208819 L0.108778,0.208839 L0.108804,0.209615 L0.108703,0.209878 L0.108723,0.210215 L0.108730,0.210485 L0.108663,0.210687 L0.108642,0.210748 L0.108379,0.211227 L0.108325,0.211308 L0.108163,0.211632 L0.108055,0.211901 L0.108041,0.211928 L0.107994,0.212036 L0.107812,0.212266 L0.107643,0.212495 L0.107616,0.212819 L0.107616,0.212981 L0.107616,0.213136 L0.107603,0.213197 L0.107596,0.213426 L0.107589,0.213460 L0.107529,0.213622 L0.107516,0.213628 L0.107408,0.213716 L0.107293,0.213838 L0.107184,0.213851 L0.107172,0.213851 L0.107097,0.213831 L0.107009,0.213804 L0.106868,0.213777 L0.106726,0.213750 L0.106693,0.213750 L0.106625,0.213743 L0.106551,0.213723 L0.106463,0.213703 L0.106369,0.213669 L0.106349,0.213669 L0.106234,0.213689 L0.106132,0.213696 L0.106038,0.213662 L0.105869,0.213534 L0.105829,0.213493 L0.105748,0.213379 L0.105592,0.213244 L0.105546,0.213217 L0.105539,0.213217 L0.105498,0.213197 L0.105451,0.213183 L0.105437,0.213176 L0.105383,0.213170 L0.105336,0.213163 L0.105309,0.213176 L0.105269,0.213190 L0.105241,0.213210 L0.105201,0.213230 L0.105154,0.213244 L0.105134,0.213264 L0.105100,0.213278 L0.105019,0.213359 L0.104985,0.213392 L0.104979,0.213399 L0.104789,0.213601 L0.104789,0.213622 L0.104641,0.213777 L0.104412,0.213730 L0.104243,0.213716 L0.104216,0.213709 L0.104203,0.213709 L0.104162,0.213709 L0.104135,0.213709 L0.104108,0.213696 L0.104095,0.213682 L0.104034,0.213588 L0.103986,0.213514 L0.103980,0.213500 L0.103974,0.213493 L0.103730,0.213453 L0.103669,0.213440 L0.103549,0.213406 L0.103413,0.213332 L0.103407,0.213332 L0.103400,0.213318 L0.103278,0.213257 L0.103251,0.213251 L0.103231,0.213224 L0.103211,0.213224 L0.103184,0.213210 L0.103150,0.213210 L0.103150,0.213217 L0.103096,0.213230 L0.103063,0.213244 L0.103036,0.213257 L0.103009,0.213264 L0.102975,0.213264 L0.102934,0.213264 L0.102894,0.213264 L0.102873,0.213264 L0.102853,0.213257 L0.102812,0.213251 L0.102644,0.213224 L0.102401,0.213203 L0.102226,0.213143 L0.102097,0.213136 L0.102016,0.213197 L0.101936,0.213467 L0.101835,0.213730 L0.101706,0.213892 L0.101639,0.213932 L0.101572,0.213972 L0.101443,0.213966 L0.101308,0.213905 L0.101059,0.213797 L0.100991,0.213763 L0.100957,0.213743 L0.100917,0.213709 L0.100917,0.213642 L0.100930,0.213547 L0.100930,0.213507 L0.100930,0.213419 L0.100890,0.213419 L0.100863,0.213419 L0.100829,0.213453 L0.100809,0.213487 L0.100762,0.213561 L0.100634,0.213689 L0.100600,0.213723 L0.100539,0.213804 L0.100417,0.213878 L0.100411,0.213885 L0.100371,0.213918 L0.100344,0.213912 L0.100330,0.213925 L0.100256,0.213952 L0.100148,0.213945 L0.100012,0.213892 L0.099979,0.213865 L0.099939,0.213851 L0.099885,0.213838 L0.099871,0.213838 L0.099858,0.213831 L0.099614,0.213905 L0.099594,0.213912 L0.099419,0.213932 L0.099304,0.213952 L0.099203,0.213966 L0.098981,0.213993 L0.098872,0.214013 L0.098758,0.214026 L0.098657,0.214080 L0.098386,0.214209 L0.098360,0.214209 L0.098063,0.214276 L0.098056,0.214269 L0.097834,0.214343 L0.097780,0.214364 L0.097429,0.214411 L0.097415,0.214404 L0.097395,0.214411 L0.097260,0.214458 L0.097125,0.214593 L0.097071,0.214654 L0.097065,0.214654 L0.096923,0.214708 L0.096855,0.214735 L0.096633,0.214849 L0.096282,0.215099 L0.096059,0.215693 L0.095931,0.215841 L0.095613,0.216253 L0.095283,0.216624 L0.095215,0.216684 L0.094784,0.216995 L0.094150,0.217427 L0.093677,0.217683 L0.093725,0.218344 L0.094197,0.218762 L0.094568,0.219437 L0.094878,0.220172 L0.095047,0.220948 L0.095101,0.221488 L0.094865,0.221448 L0.094595,0.221441 L0.094143,0.221286 L0.093819,0.221225 L0.093643,0.221319 L0.093414,0.221508 L0.093003,0.221549 L0.092955,0.221549 L0.092854,0.221515 L0.092213,0.221299 L0.091721,0.221023 L0.091565,0.220746 L0.091437,0.220516 L0.091134,0.220355 L0.091026,0.220361 L0.090891,0.220355 L0.090257,0.220442 L0.090216,0.220463 L0.089865,0.220645 L0.089582,0.220827 L0.089163,0.220773 L0.088806,0.220543 L0.088637,0.220476 L0.087976,0.220193 L0.087713,0.220085 L0.087666,0.220098 L0.087430,0.220112 L0.086944,0.220031 L0.086634,0.220037 L0.086290,0.220166 L0.085925,0.220409 L0.085521,0.220624 L0.085500,0.220631 L0.085089,0.220705 L0.084764,0.220213 L0.084326,0.219882 L0.084103,0.219923 L0.083935,0.219936 L0.083786,0.219936 L0.083773,0.219943 L0.083463,0.219950 L0.083354,0.219889 L0.082916,0.219680 L0.082376,0.219383 L0.082113,0.219039 L0.081776,0.218870 L0.081513,0.218776 L0.081337,0.218783 L0.081229,0.218776 L0.081081,0.218769 L0.080898,0.218742 L0.080588,0.218729 L0.080298,0.218654 L0.080278,0.218654 L0.080183,0.218526 L0.080008,0.218263 L0.079907,0.217987 L0.079846,0.217818 L0.079374,0.217325 L0.079320,0.217231 L0.079178,0.216927 L0.078861,0.216678 L0.078773,0.216603 L0.078436,0.216381 L0.078146,0.216259 L0.077869,0.216219 L0.077653,0.215760 L0.077356,0.215443 L0.077019,0.215194 L0.076729,0.215059 L0.076520,0.215113 L0.076277,0.215227 L0.075751,0.215362 L0.075244,0.215403 L0.074563,0.215504 L0.073828,0.215619 L0.073511,0.215619 L0.073113,0.215524 L0.073086,0.215511 L0.072890,0.215382 L0.072822,0.215349 L0.072782,0.215328 L0.072600,0.215113 L0.072593,0.215072 L0.072546,0.214802 L0.072525,0.214674 L0.072519,0.214593 L0.072512,0.214553 L0.072478,0.214465 L0.072356,0.214343 L0.072276,0.214276 L0.072263,0.214269 L0.072236,0.214242 L0.072202,0.214215 L0.072195,0.214202 L0.072107,0.214101 L0.072040,0.214047 L0.071945,0.213898 L0.071932,0.213878 L0.071919,0.213851 L0.071851,0.213797 L0.071844,0.213784 L0.071777,0.213723 L0.071756,0.213703 L0.071635,0.213514 L0.071534,0.213372 L0.071385,0.213190 L0.071270,0.213089 L0.071243,0.213082 L0.071109,0.212927 L0.071041,0.212792 L0.070981,0.212691 L0.070886,0.212414 L0.070859,0.212401 L0.070528,0.212158 L0.070366,0.212030 L0.070359,0.212009 L0.070063,0.211355 L0.070056,0.211355 L0.069577,0.211497 L0.069550,0.211456 L0.069368,0.211200 L0.069260,0.211011 L0.069145,0.210836 L0.068909,0.210323 L0.068821,0.209804 L0.068754,0.209372 L0.068707,0.209183 L0.068754,0.209021 L0.068977,0.208717 L0.068978,0.208715 L0.069107,0.208785 L0.069249,0.208862 L0.069344,0.208913 L0.069433,0.209002 L0.069561,0.209105 L0.069654,0.209127 L0.069717,0.209067 L0.070317,0.208569 L0.070861,0.208093 L0.071361,0.207837 L0.071747,0.207660 L0.072058,0.207474 L0.072244,0.207252 L0.072353,0.206955 L0.072359,0.206726 L0.072308,0.206479 L0.072550,0.206094 L0.072658,0.205768 L0.072711,0.205471 L0.072805,0.204793 L0.072904,0.204458 L0.072987,0.204333 L0.073203,0.204120 L0.073506,0.204077 L0.073830,0.204167 L0.074145,0.204200 L0.074410,0.204149 L0.074966,0.203930 L0.075702,0.203566 L0.076249,0.203272 L0.076475,0.203125 L0.076917,0.202880 L0.077193,0.202876 L0.077354,0.202883 L0.077553,0.202842 L0.077763,0.202962 L0.077851,0.203028 L0.078041,0.203044 L0.078162,0.202956 L0.078285,0.202849 L0.078521,0.202760 L0.078489,0.202560 L0.078427,0.202247 L0.078395,0.201999 L0.078344,0.201781 L0.078294,0.201639 L0.078291,0.201467 L0.078355,0.201218 L0.078447,0.201055 L0.078578,0.200900 L0.078850,0.200734 L0.079012,0.200731 L0.079127,0.200758 L0.079365,0.200840 L0.079583,0.200837 L0.079793,0.200843 L0.080040,0.200859 L0.080364,0.200939 L0.080717,0.201039 L0.080898,0.201084 L0.081174,0.201098 L0.081373,0.201086 L0.081761,0.201004 L0.081912,0.200915 L0.082166,0.200769 L0.082421,0.200622 L0.082378,0.200298 L0.082382,0.199955 L0.082418,0.199783 L0.082519,0.199581 L0.082603,0.199504 L0.082734,0.199359 L0.082818,0.199262 L0.082902,0.199118 L0.083071,0.199029 L0.083176,0.199037 L0.083290,0.199035 L0.083393,0.198977 L0.083496,0.198832 L0.083607,0.198668 L0.083756,0.198485 L0.083905,0.198282 L0.084027,0.198176 L0.084216,0.198096 L0.084367,0.198056 L0.084556,0.197996 L0.084697,0.197917 L0.084781,0.197773 L0.084922,0.197657 L0.085014,0.197503 L0.085089,0.197444 L0.085125,0.197329 L0.085219,0.197214 L0.085341,0.197116 L0.085510,0.196990 L0.085641,0.196854 L0.085773,0.196786 L0.085877,0.196727 L0.086038,0.196722 L0.086194,0.196679 L0.086263,0.196645 L0.086347,0.196612 L0.086375,0.196510 L0.086342,0.196422 L0.086313,0.196379 L0.086282,0.196358 L0.086244,0.196338 L0.086212,0.196319 L0.086160,0.196320 L0.086115,0.196323 L0.086067,0.196304 L0.086034,0.196284 L0.085993,0.196241 L0.085942,0.196206 L0.085908,0.196164 L0.085882,0.196145 L0.085825,0.196125 L0.085774,0.196114 L0.085720,0.196105 L0.085672,0.196087 L0.085662,0.196015 L0.085660,0.195927 L0.085638,0.195868 L0.085599,0.195811 L0.085556,0.195800 L0.085492,0.195787 L0.085480,0.195787 L0.085425,0.195790 L0.085343,0.195796 L0.085290,0.195790 L0.085209,0.195789 L0.085166,0.195780 L0.085109,0.195764 L0.085085,0.195729 L0.085065,0.195681 L0.085018,0.195577 L0.084994,0.195551 L0.084946,0.195528 L0.084901,0.195517 L0.084866,0.195525 L0.084747,0.195560 L0.084670,0.195587 L0.084594,0.195622 L0.084534,0.195634 L0.084473,0.195647 L0.084397,0.195656 L0.084326,0.195647 L0.084287,0.195631 L0.084249,0.195586 L0.084226,0.195539 L0.084202,0.195485 L0.084161,0.195464 L0.084112,0.195441 L0.084073,0.195437 L0.084026,0.195437 L0.084004,0.195433 L0.083952,0.195419 L0.083928,0.195403 L0.083900,0.195349 L0.083900,0.195294 L0.083898,0.195199 L0.083888,0.195137 L0.083856,0.195075 L0.083763,0.195039 L0.083698,0.195001 L0.083665,0.194971 L0.083634,0.194955 L0.083593,0.194932 L0.083519,0.194899 L0.083506,0.194887 L0.083478,0.194857 L0.083441,0.194796 L0.083436,0.194784 L0.083434,0.194778 L0.083406,0.194710 L0.083403,0.194680 L0.083399,0.194653 L0.083384,0.194601 L0.083363,0.194559 L0.083362,0.194557 L0.083335,0.194528 L0.083306,0.194483 L0.083288,0.194452 L0.083273,0.194405 L0.083266,0.194343 L0.083260,0.194288 L0.083252,0.194234 L0.083225,0.194163 L0.083203,0.194109 L0.083197,0.194096 L0.083181,0.194077 L0.083161,0.194054 L0.083056,0.194001 L0.082997,0.194002 L0.082951,0.193991 L0.082899,0.193968 L0.082877,0.193939 L0.082859,0.193904 L0.082832,0.193845 L0.082813,0.193778 L0.082799,0.193733 L0.082798,0.193728 L0.082785,0.193693 L0.082754,0.193674 L0.082697,0.193673 L0.082678,0.193677 L0.082652,0.193683 L0.082614,0.193688 L0.082573,0.193675 L0.082494,0.193616 L0.082422,0.193524 L0.082390,0.193473 L0.082356,0.193409 L0.082310,0.193355 L0.082283,0.193270 L0.082283,0.193267 L0.082278,0.193264 L0.082247,0.193244 L0.082175,0.193214 L0.082110,0.193198 L0.082084,0.193170 L0.082071,0.193151 L0.082060,0.193134 L0.082021,0.193090 L0.081948,0.193062 L0.081921,0.193051 L0.081882,0.193039 L0.081834,0.193021 L0.081832,0.193002 L0.081776,0.192934 L0.081756,0.192879 L0.081731,0.192820 L0.081727,0.192768 L0.081726,0.192756 L0.081710,0.192675 L0.081690,0.192630 L0.081683,0.192616 L0.081660,0.192584 L0.081659,0.192583 L0.081609,0.192569 L0.081583,0.192575 L0.081553,0.192608 L0.081534,0.192644 L0.081514,0.192695 L0.081490,0.192731 L0.081474,0.192755 L0.081412,0.192770 L0.081310,0.192765 L0.081269,0.192759 L0.081260,0.192758 L0.081194,0.192755 L0.081115,0.192746 L0.081006,0.192734 L0.080961,0.192732 L0.080839,0.192724 L0.080797,0.192730 L0.080747,0.192738 L0.080661,0.192713 L0.080611,0.192678 L0.080565,0.192652 L0.080486,0.192630 L0.080417,0.192609 L0.080364,0.192596 L0.080303,0.192587 L0.080292,0.192586 L0.080217,0.192577 L0.080179,0.192572 L0.080108,0.192571 L0.080053,0.192562 L0.079998,0.192551 L0.079936,0.192528 L0.079855,0.192484 L0.079840,0.192475 L0.079794,0.192431 L0.079758,0.192402 L0.079751,0.192397 L0.079698,0.192358 L0.079629,0.192314 L0.079598,0.192293 L0.079516,0.192244 L0.079475,0.192209 L0.079399,0.192170 L0.079310,0.192109 L0.079228,0.192036 L0.079160,0.191964 L0.079130,0.191938 L0.079119,0.191929 L0.079052,0.191903 L0.079050,0.191903 L0.078952,0.191879 L0.078952,0.191879 L0.078854,0.191837 L0.078768,0.191852 L0.078708,0.191862 L0.078638,0.191884 L0.078587,0.191912 L0.078514,0.191928 L0.078487,0.191928 L0.078453,0.191866 L0.078417,0.191831 L0.078349,0.191787 L0.078328,0.191749 L0.078321,0.191734 L0.078299,0.191660 L0.078297,0.191583 L0.078297,0.191582 L0.078297,0.191541 L0.078297,0.191529 L0.078305,0.191469 L0.078309,0.191413 L0.078309,0.191362 L0.078273,0.191365 L0.078244,0.191390 L0.078224,0.191423 L0.078195,0.191461 L0.078192,0.191465 L0.078192,0.191465 L0.078156,0.191492 L0.078148,0.191495 L0.078118,0.191496 L0.078084,0.191434 L0.078086,0.191429 L0.078104,0.191362 L0.078104,0.191314 L0.078085,0.191288 L0.078053,0.191288 L0.078017,0.191310 L0.077991,0.191340 L0.077979,0.191349 L0.077962,0.191358 L0.077914,0.191371 L0.077872,0.191363 L0.077810,0.191352 L0.077769,0.191349 L0.077700,0.191347 L0.077664,0.191351 L0.077636,0.191363 L0.077614,0.191373 L0.077564,0.191379 L0.077534,0.191374 L0.077471,0.191342 L0.077435,0.191292 L0.077434,0.191256 L0.077482,0.191232 L0.077528,0.191207 L0.077539,0.191178 L0.077546,0.191156 L0.077539,0.191152 L0.077510,0.191134 L0.077504,0.191130 L0.077495,0.191130 L0.077432,0.191131 L0.077365,0.191159 L0.077305,0.191181 L0.077253,0.191214 L0.077188,0.191260 L0.077141,0.191270 L0.077127,0.191262 L0.077082,0.191238 L0.077072,0.191232 L0.077069,0.191220 L0.077060,0.191183 L0.077056,0.191170 L0.077055,0.191112 L0.077055,0.191104 L0.077054,0.191080 L0.077048,0.191076 L0.077031,0.191064 L0.077021,0.191057 L0.076986,0.191055 L0.076947,0.191052 L0.076888,0.191055 L0.076867,0.191057 L0.076802,0.191069 L0.076781,0.191081 L0.076737,0.191106 L0.076678,0.191143 L0.076617,0.191156 L0.076469,0.190997 L0.076390,0.190933 L0.076354,0.190880 L0.076351,0.190743 L0.076315,0.190681 L0.076327,0.190639 L0.076346,0.190594 L0.076347,0.190593 L0.076372,0.190528 L0.076380,0.190456 L0.076379,0.190397 L0.076367,0.190369 L0.076351,0.190335 L0.076342,0.190284 L0.076340,0.190195 L0.076322,0.190150 L0.076318,0.190097 L0.076329,0.190052 L0.076358,0.190010 L0.076375,0.189977 L0.076387,0.189911 L0.076409,0.189815 L0.076399,0.189762 L0.076341,0.189662 L0.076307,0.189602 L0.076270,0.189529 L0.076261,0.189451 L0.076244,0.189362 L0.076213,0.189288 L0.076198,0.189089 L0.076164,0.188997 L0.076104,0.188923 L0.075995,0.188809 L0.075914,0.188754 L0.075852,0.188734 L0.075809,0.188669 L0.075799,0.188559 L0.075798,0.188514 L0.075790,0.188419 L0.075777,0.188330 L0.075751,0.188190 L0.075724,0.188104 L0.075687,0.188048 L0.075587,0.187948 L0.075565,0.187868 L0.075546,0.187797 L0.075521,0.187699 L0.075483,0.187563 L0.075461,0.187459 L0.075433,0.187370 L0.075395,0.187245 L0.075369,0.187088 L0.075328,0.186940 L0.075301,0.186868 L0.075254,0.186762 L0.075265,0.186719 L0.075268,0.186651 L0.075267,0.186626 L0.075224,0.186623 L0.075135,0.186624 L0.074924,0.186603 L0.074910,0.186596 L0.074874,0.186546 L0.074862,0.186500 L0.074861,0.186443 L0.074882,0.186374 L0.074885,0.186339 L0.074888,0.186271 L0.074932,0.186173 L0.074942,0.186134 L0.074977,0.186083 L0.074997,0.186026 L0.075011,0.185969 L0.075021,0.185886 L0.075019,0.185815 L0.075067,0.185703 L0.075080,0.185585 L0.075082,0.185517 L0.075096,0.185445 L0.075136,0.185334 L0.075196,0.185215 L0.075244,0.185143 L0.075311,0.185102 L0.075407,0.185051 L0.075473,0.185003 L0.075562,0.184948 L0.075625,0.184901 L0.075710,0.184846 L0.075798,0.184798 L0.075951,0.184760 L0.076076,0.184751 L0.076179,0.184753 L0.076261,0.184766 L0.076347,0.184779 L0.076489,0.184780 L0.076589,0.184775 L0.076720,0.184730 L0.076819,0.184671 L0.076933,0.184638 L0.077067,0.184610 L0.077192,0.184601 L0.077377,0.184602 L0.077524,0.184625 L0.077677,0.184612 L0.077765,0.184560 L0.077821,0.184524 L0.077875,0.184484 L0.077944,0.184429 L0.078071,0.184338 L0.078149,0.184258 L0.078212,0.184200 L0.078333,0.184155 L0.078510,0.184098 L0.078698,0.184049 L0.078880,0.184028 L0.079022,0.183994 L0.079131,0.183967 L0.079248,0.183883 L0.079332,0.183821 L0.079411,0.183806 L0.079429,0.183845 L0.079459,0.183901 L0.079505,0.183940 L0.079562,0.183946 L0.079644,0.183945 L0.079727,0.183976 L0.079851,0.183999 L0.079901,0.183966 L0.079975,0.183883 L0.080038,0.183792 L0.082918,0.181505 L0.083182,0.181295 L0.083328,0.181179 L0.083915,0.180713 L0.086062,0.179751 L0.086179,0.179782 L0.086734,0.179901 L0.086857,0.179899 L0.086947,0.179877 L0.087250,0.179689 L0.087786,0.179313 L0.088399,0.178920 L0.088486,0.178858 L0.088586,0.178849 L0.088666,0.178853 L0.088738,0.178856 L0.088816,0.178857 L0.088868,0.178854 L0.088924,0.178846 L0.088980,0.178839 L0.089036,0.178827 L0.089135,0.178787 L0.089184,0.178752 L0.089212,0.178731 L0.089253,0.178703 L0.089365,0.178677 L0.089452,0.178651 L0.089497,0.178635 L0.089524,0.178623 L0.089603,0.178599 L0.089654,0.178577 L0.089705,0.178568 L0.089779,0.178554 L0.089815,0.178535 L0.089913,0.178437 L0.089928,0.178411 L0.089945,0.178387 L0.089968,0.178343 L0.089986,0.178304 L0.090005,0.178261 L0.090034,0.178227 L0.090068,0.178212 L0.090137,0.178198 L0.090180,0.178197 L0.090225,0.178192 L0.090262,0.178197 L0.090325,0.178209 L0.090396,0.178224 L0.090467,0.178236 L0.090524,0.178253 L0.090584,0.178270 L0.090642,0.178282 L0.090719,0.178315 L0.090765,0.178336 L0.090812,0.178361 L0.090885,0.178384 L0.090982,0.178396 L0.091070,0.178383 L0.091099,0.178368 L0.091145,0.178343 L0.091175,0.178315 L0.091203,0.178289 L0.091247,0.178257 L0.091309,0.178231 L0.091370,0.178221 L0.091422,0.178237 L0.091492,0.178264 L0.091558,0.178292 L0.091594,0.178307 L0.091631,0.178317 L0.091715,0.178326 L0.091790,0.178316 L0.091866,0.178295 L0.091954,0.178289 L0.091990,0.178309 L0.092003,0.178316 L0.092056,0.178350 L0.092119,0.178363 L0.092172,0.178357 L0.092258,0.178328 L0.092297,0.178303 L0.092384,0.178271 L0.092428,0.178250 L0.092452,0.178234 L0.092509,0.178203 L0.092554,0.178184 L0.092566,0.178178 L0.092616,0.178156 L0.092672,0.178142 L0.092729,0.178133 L0.092768,0.178127 L0.092790,0.178122 L0.092810,0.178118 L0.092911,0.178103 L0.092989,0.178089 L0.093028,0.178077 L0.093092,0.178049 L0.093160,0.178011 L0.093221,0.177976 L0.093250,0.177963 L0.093393,0.177888 L0.093486,0.177858 L0.093543,0.177844 L0.093595,0.177828 L0.093628,0.177809 L0.093666,0.177773 L0.093686,0.177742 L0.093692,0.177700 L0.093679,0.177641 L0.093655,0.177592 L0.093569,0.177487 L0.093501,0.177372 L0.093474,0.177308 L0.093447,0.177255 L0.093422,0.177102 L0.093383,0.177013 L0.093337,0.176972 L0.093316,0.176903 L0.093308,0.176832 L0.093329,0.176694 L0.093341,0.176642 L0.093384,0.176593 L0.093450,0.176564 L0.093505,0.176551 L0.093586,0.176538 L0.093688,0.176506 L0.093758,0.176482 L0.093842,0.176445 L0.093970,0.176404 L0.094082,0.176372 L0.094113,0.176353 L0.094248,0.176274 L0.094326,0.176235 L0.094431,0.176210 L0.094631,0.176166 L0.094743,0.176077 L0.094824,0.176014 L0.094904,0.175959 L0.094980,0.175897 L0.095076,0.175839 L0.095128,0.175823 L0.095190,0.175788 L0.095246,0.175749 L0.095292,0.175709 L0.095344,0.175673 L0.095396,0.175631 L0.095450,0.175593 L0.095505,0.175561 L0.095531,0.175542 L0.095598,0.175497 L0.095588,0.175454 L0.095575,0.175395 L0.095543,0.175312 L0.095534,0.175290 L0.095506,0.175226 L0.095472,0.175163 L0.095426,0.175081 L0.095389,0.175013 L0.095334,0.174901 L0.095315,0.174834 L0.095309,0.174773 L0.095308,0.174694 L0.095315,0.174610 L0.095340,0.174515 L0.095372,0.174445 L0.095419,0.174390 L0.095565,0.174335 L0.095750,0.174282 L0.095758,0.174280 L0.095809,0.174262 L0.095904,0.174223 L0.095965,0.174160 L0.096006,0.174107 L0.096041,0.174016 L0.096070,0.173905 L0.096072,0.173879 L0.096078,0.173774 L0.096086,0.173691 L0.096123,0.173607 L0.096174,0.173515 L0.096241,0.173457 L0.096449,0.173399 L0.096473,0.173392 L0.096537,0.173372 L0.096573,0.173351 L0.096591,0.173340 L0.096645,0.173275 L0.096667,0.173179 L0.096668,0.173079 L0.096662,0.172996 L0.096621,0.172904 L0.096555,0.172875 L0.096512,0.172819 L0.096488,0.172733 L0.096486,0.172632 L0.096519,0.172479 L0.096632,0.172230 L0.096680,0.172093 L0.096721,0.172000 L0.096775,0.171841 L0.096814,0.171736 L0.096867,0.171670 L0.096908,0.171616 L0.096965,0.171528 L0.097005,0.171403 L0.097075,0.171306 L0.097101,0.171225 L0.097103,0.171160 L0.097254,0.170946 L0.097349,0.170763 L0.097483,0.170385 L0.097508,0.170253 L0.097552,0.170030 L0.097631,0.169672 L0.097688,0.169428 L0.097739,0.169238 L0.097742,0.169124 L0.097698,0.168983 L0.097615,0.168847 L0.097576,0.168735 L0.097570,0.168709 L0.097557,0.168417 L0.097542,0.168370 L0.097492,0.168334 L0.097416,0.168312 L0.097457,0.168173 L0.097153,0.168015 L0.097110,0.167998 L0.097202,0.167681 L0.097212,0.167653 L0.097216,0.167600 L0.097466,0.167600 L0.097731,0.167608 L0.097732,0.167606 L0.097753,0.167572 L0.097853,0.167415 L0.098041,0.167528 L0.098175,0.167542 L0.098307,0.167515 L0.098401,0.167491 L0.098562,0.167521 L0.098695,0.167520 L0.099681,0.167637 L0.100957,0.167789 L0.102228,0.167961 L0.103265,0.168088 L0.104623,0.168249 L0.105145,0.168265 L0.105573,0.168287 L0.106590,0.168253 L0.106775,0.168236 L0.107397,0.168174 L0.107952,0.168099 L0.108359,0.168031 L0.109520,0.167747 L0.110324,0.167530 L0.110750,0.167402 L0.111135,0.167265 L0.111562,0.167189 L0.112069,0.167101 L0.112422,0.167079 L0.112863,0.167129 L0.113075,0.167138 L0.113248,0.167281 L0.113391,0.167307 L0.113689,0.167379 L0.114033,0.167496 L0.114257,0.167590 L0.114390,0.167652 L0.114454,0.167675 L0.114533,0.167707 L0.115032,0.168026 L0.115337,0.168232 L0.115618,0.168487 L0.115694,0.168615 L0.115729,0.168598 L0.115814,0.168739 L0.115988,0.168969 L0.116114,0.169156 L0.116221,0.169310 L0.116306,0.169438 L0.116354,0.169508 L0.116363,0.169540 L0.116534,0.169833 L0.116612,0.169954 L0.117163,0.170817 L0.117419,0.171227 L0.117621,0.171506 L0.117810,0.171749 L0.117913,0.171874 L0.118381,0.172328 L0.118508,0.172450 L0.118792,0.172720 L0.119455,0.173313 L0.119956,0.173775 L0.120310,0.174088 L0.120424,0.174181 L0.120566,0.174311 L0.120880,0.174539 L0.121177,0.174740 L0.121296,0.174834 L0.121493,0.174940 L0.121788,0.175099 L0.121878,0.175132 L0.121905,0.175122 L0.121942,0.175168 L0.122025,0.175132 L0.122390,0.174890 L0.122876,0.174574 L0.123411,0.174252 L0.123449,0.174272 L0.123584,0.174552 L0.123637,0.174643 L0.123731,0.174735 L0.123828,0.174825 L0.124000,0.174935 L0.124425,0.175163 L0.124830,0.175382 L0.124974,0.175455 L0.125073,0.175474 L0.125231,0.175477 L0.125572,0.175467 L0.125696,0.175467 L0.125738,0.175497 L0.125878,0.175710 L0.126197,0.176209 L0.126434,0.176535 L0.126584,0.176781 L0.126664,0.176919 L0.126722,0.176985 L0.127044,0.177195 L0.127422,0.177434 L0.127592,0.177502 L0.127919,0.177619 L0.128244,0.177757 L0.128237,0.177773 L0.128175,0.177981 L0.128172,0.177993 L0.128130,0.178022 L0.128146,0.178066 L0.128013,0.178296 L0.128229,0.178415 L0.128315,0.178456 L0.128803,0.178710 L0.129054,0.178838 L0.129353,0.179007 L0.129682,0.179160 L0.129788,0.179204 L0.129933,0.179264 L0.130218,0.179368 L0.130422,0.179451 L0.130473,0.179404 L0.130609,0.179490 L0.130761,0.179532 L0.130983,0.179601 L0.130991,0.179521 L0.131063,0.179241 L0.131018,0.179221 L0.131114,0.179042 L0.131160,0.179047 L0.131190,0.178898 L0.131176,0.178858 L0.131218,0.178625 L0.131331,0.178143 L0.131394,0.177887 L0.131498,0.177357 L0.131572,0.176957 L0.131570,0.176925 L0.131564,0.176847 L0.131524,0.176769 L0.131450,0.176686 L0.131301,0.176525 L0.131016,0.176221 L0.130840,0.176063 L0.130674,0.175913 L0.130324,0.175692 L0.130273,0.175662 L0.130215,0.175615 L0.130345,0.175237 L0.130674,0.174281 L0.131208,0.174437 L0.131890,0.174730 L0.132065,0.174813 L0.132121,0.174831 L0.132496,0.174948 L0.132240,0.175905 L0.132119,0.176324 L0.132642,0.176476 L0.132859,0.176537 L0.133374,0.176689 L0.133585,0.176750 L0.133737,0.176791 L0.133804,0.176811 L0.133878,0.176846 L0.134033,0.176877 L0.134198,0.176920 L0.134436,0.177005 L0.134866,0.177139 L0.135203,0.177222 L0.135331,0.177268 L0.135320,0.177323 L0.135319,0.177331 L0.135316,0.177347 L0.135314,0.177364 L0.135311,0.177392 L0.135305,0.177454 L0.135302,0.177491 L0.135299,0.177521 L0.135297,0.177552 L0.135298,0.177597 L0.135303,0.177640 L0.135307,0.177651 L0.135321,0.177700 L0.135333,0.177735 L0.135353,0.177787 L0.135378,0.177839 L0.135411,0.177894 L0.135529,0.177961 L0.135531,0.178004 L0.135532,0.178009 L0.135563,0.178037 L0.135628,0.178057 L0.135758,0.178108 L0.135759,0.178108 L0.135758,0.178111 L0.135740,0.178200 L0.135694,0.178407 L0.135845,0.178457 L0.135957,0.178510 L0.135981,0.178524 L0.135829,0.178817 L0.135779,0.178956 L0.135740,0.179116 L0.135740,0.179119 L0.135729,0.179145 L0.135810,0.179175 L0.135957,0.179151 L0.136004,0.179261 L0.136016,0.179291 L0.136023,0.179309 L0.136041,0.179362 L0.136066,0.179400 L0.136131,0.179473 L0.136139,0.179513 L0.136166,0.179543 L0.136182,0.179564 L0.136207,0.179592 L0.136222,0.179610 L0.136352,0.179690 L0.136630,0.179804 L0.136792,0.179861 L0.136848,0.179881 L0.136940,0.179913 L0.136932,0.179937 L0.136929,0.179949 L0.136980,0.180014 L0.137023,0.180054 L0.137056,0.180085 L0.137087,0.180125 L0.137107,0.180160 L0.137119,0.180205 L0.137143,0.180259 L0.137164,0.180290 L0.137181,0.180311 L0.137187,0.180325 L0.137207,0.180343 L0.137222,0.180359 L0.137232,0.180367 L0.137243,0.180389 L0.137260,0.180421 L0.137266,0.180437 L0.137291,0.180482 L0.137299,0.180515 L0.137300,0.180517 L0.137318,0.180545 L0.137342,0.180579 L0.137351,0.180594 L0.137358,0.180620 L0.137364,0.180649 L0.137383,0.180678 L0.137402,0.180705 L0.137420,0.180735 L0.137440,0.180766 L0.137453,0.180796 L0.137472,0.180846 L0.137486,0.180889 L0.137510,0.180977 L0.137520,0.181037 L0.137533,0.181085 L0.137538,0.181147 L0.137704,0.181118 L0.137688,0.181215 L0.137649,0.181303 L0.137623,0.181367 L0.137598,0.181497 L0.137852,0.181562 L0.137894,0.181578 L0.138304,0.181700 L0.138769,0.181831 L0.139234,0.181957 L0.139720,0.182086 L0.140190,0.182212 L0.140467,0.182294 L0.140522,0.182278 L0.140574,0.182252 L0.141424,0.182486 L0.142670,0.182836 L0.142981,0.182929 L0.143965,0.183200 L0.144360,0.183309 L0.144356,0.183382 L0.144505,0.183422 L0.144509,0.183427 L0.144523,0.183487 L0.144523,0.183494 L0.145022,0.183629 L0.145178,0.183683 L0.145913,0.183885 L0.145953,0.183899 L0.146155,0.183953 L0.146578,0.184087 L0.146732,0.184142 L0.155343,0.186591 L0.157472,0.188090 L0.158607,0.189162 L0.160203,0.190381 L0.162271,0.191973 L0.163686,0.192929 L0.164985,0.193683 L0.163495,0.197309 L0.162771,0.196964 L0.161278,0.200343 L0.158240,0.206695 L0.157964,0.207190 L0.158945,0.208384 L0.159383,0.209160 L0.158716,0.209457 L0.158316,0.209641 L0.158091,0.209744 L0.157769,0.209892 L0.157404,0.210060 L0.157078,0.210229 L0.156675,0.210329 L0.156335,0.210289 L0.155670,0.210210 L0.155761,0.210613 L0.155853,0.211015 L0.155943,0.211260 L0.156074,0.211701 L0.156094,0.212178 L0.155853,0.212819 L0.155693,0.213240 L0.155608,0.213348 L0.155899,0.213780 L0.156559,0.214489 L0.156276,0.214678 L0.156162,0.214837 L0.155730,0.215269 L0.155303,0.215665 L0.155442,0.215804 L0.155544,0.216072 L0.155665,0.216406 L0.155631,0.216653 L0.155460,0.216940 Z">
    <title>Kashari</title>
  </path>
</svg>
