<?xml version="1.0" encoding="UTF-8"?>
<svg xmlns="http://www.w3.org/2000/svg" viewBox="0 0 0.533968 0.445545" width="800" height="800">
  <style>
    .boundary {
      fill: none;
      stroke: #222222;
      stroke-width: 1;
      vector-effect: non-scaling-stroke;
    }
  </style>
  <path class="boundary" d="M0.324789,0.304169 L0.325511,0.305750 L0.325997,0.307290 L0.325936,0.309479 L0.325882,0.310459 L0.325748,0.312898 L0.325687,0.313067 L0.325079,0.314878 L0.325045,0.314959 L0.324870,0.315472 L0.323885,0.318932 L0.322914,0.322330 L0.322880,0.322432 L0.322880,0.322445 L0.322853,0.322790 L0.322853,0.322817 L0.322833,0.322966 L0.322792,0.323243 L0.322670,0.323621 L0.322664,0.323648 L0.322650,0.323682 L0.322502,0.323925 L0.322455,0.324655 L0.322482,0.325142 L0.322536,0.325743 L0.322570,0.326108 L0.322577,0.327040 L0.322326,0.327743 L0.322293,0.327865 L0.322131,0.328115 L0.321774,0.328662 L0.321611,0.328872 L0.321117,0.329523 L0.321003,0.329625 L0.320895,0.329794 L0.320895,0.329794 L0.320878,0.329820 L0.320639,0.330139 L0.320425,0.330303 L0.320425,0.330303 L0.320315,0.330387 L0.320122,0.330562 L0.319985,0.330733 L0.319961,0.330764 L0.319783,0.330992 L0.319534,0.331212 L0.319276,0.331438 L0.319232,0.331484 L0.318974,0.331674 L0.318721,0.331853 L0.318497,0.332037 L0.318259,0.332210 L0.317978,0.332401 L0.317804,0.332552 L0.317431,0.332780 L0.317272,0.332874 L0.317116,0.333001 L0.316867,0.333236 L0.316753,0.333363 L0.316612,0.333499 L0.316498,0.333586 L0.316292,0.333747 L0.316005,0.333976 L0.315869,0.334111 L0.315761,0.334198 L0.315544,0.334315 L0.315374,0.334384 L0.315252,0.334485 L0.315092,0.334606 L0.314994,0.334655 L0.314885,0.334685 L0.314837,0.334700 L0.314686,0.334730 L0.314634,0.334750 L0.314450,0.334790 L0.314346,0.334825 L0.314176,0.334879 L0.313996,0.334929 L0.313624,0.335064 L0.313398,0.335160 L0.313171,0.335256 L0.313003,0.335486 L0.312736,0.335776 L0.312355,0.336066 L0.312236,0.336244 L0.312230,0.336254 L0.312048,0.336440 L0.311878,0.336615 L0.311524,0.336734 L0.311288,0.336839 L0.311227,0.336866 L0.311086,0.336953 L0.310847,0.337199 L0.310678,0.337373 L0.310538,0.337489 L0.310382,0.337562 L0.310028,0.337652 L0.309943,0.337696 L0.309759,0.337784 L0.309533,0.337873 L0.309517,0.337876 L0.309405,0.337903 L0.309249,0.337976 L0.308984,0.338365 L0.308832,0.338753 L0.308664,0.339027 L0.308511,0.339286 L0.308342,0.339460 L0.308075,0.339692 L0.307721,0.339853 L0.307495,0.339928 L0.307225,0.340017 L0.307070,0.340061 L0.306857,0.340121 L0.306601,0.340153 L0.306402,0.340155 L0.306189,0.340143 L0.305889,0.340075 L0.305464,0.340152 L0.304645,0.340619 L0.304278,0.340895 L0.303773,0.341416 L0.303520,0.341648 L0.303295,0.341894 L0.302859,0.342342 L0.301993,0.343208 L0.301932,0.343269 L0.301665,0.343558 L0.301284,0.343777 L0.301264,0.343786 L0.300845,0.343982 L0.300491,0.344101 L0.300166,0.344262 L0.299813,0.344438 L0.299519,0.344828 L0.299040,0.345234 L0.298967,0.345289 L0.298716,0.345481 L0.298420,0.345713 L0.298194,0.345873 L0.298026,0.346047 L0.297801,0.346221 L0.297520,0.346525 L0.297295,0.346814 L0.297000,0.347060 L0.296930,0.347147 L0.296788,0.347163 L0.296645,0.347093 L0.296515,0.346923 L0.296441,0.346667 L0.296367,0.346424 L0.296278,0.346097 L0.296216,0.345684 L0.296200,0.345583 L0.295928,0.345343 L0.295641,0.345132 L0.295297,0.344922 L0.295067,0.344724 L0.294909,0.344597 L0.294694,0.344428 L0.294535,0.344259 L0.294334,0.344075 L0.294077,0.343964 L0.293762,0.343796 L0.293647,0.343712 L0.293445,0.343428 L0.293187,0.343288 L0.293043,0.343133 L0.292985,0.343062 L0.292670,0.342866 L0.292498,0.342725 L0.292368,0.342612 L0.291939,0.342445 L0.291559,0.342736 L0.290911,0.343159 L0.289993,0.343713 L0.289232,0.344294 L0.288603,0.344898 L0.288466,0.344834 L0.288312,0.344806 L0.288134,0.344820 L0.287997,0.344792 L0.287872,0.344710 L0.287776,0.344622 L0.287704,0.344551 L0.287519,0.344458 L0.287419,0.344460 L0.287271,0.344467 L0.287123,0.344475 L0.286933,0.344483 L0.286832,0.344485 L0.286689,0.344445 L0.286577,0.344428 L0.286341,0.344485 L0.286205,0.344522 L0.286105,0.344607 L0.286024,0.344727 L0.285977,0.344829 L0.285908,0.344943 L0.285867,0.344997 L0.285585,0.345161 L0.285502,0.345198 L0.285443,0.345246 L0.285397,0.345289 L0.285292,0.345403 L0.285228,0.345535 L0.285176,0.345637 L0.285117,0.345715 L0.285082,0.345757 L0.285030,0.345806 L0.284965,0.345854 L0.284825,0.346058 L0.284749,0.346172 L0.284746,0.346351 L0.284747,0.346470 L0.284755,0.346625 L0.284770,0.346849 L0.284749,0.346917 L0.284729,0.347007 L0.284716,0.347100 L0.284688,0.347143 L0.284663,0.347144 L0.284620,0.347130 L0.284559,0.347095 L0.284503,0.347146 L0.284540,0.347245 L0.284607,0.347455 L0.284741,0.347697 L0.284854,0.347903 L0.284934,0.348095 L0.285044,0.348379 L0.285096,0.348575 L0.285099,0.348740 L0.285295,0.349109 L0.285554,0.349649 L0.285724,0.349991 L0.285745,0.350054 L0.285677,0.350075 L0.285144,0.350251 L0.284496,0.350528 L0.284273,0.350893 L0.283497,0.351231 L0.283099,0.351292 L0.283086,0.351285 L0.282533,0.350859 L0.281932,0.350454 L0.281433,0.349764 L0.281028,0.348993 L0.280806,0.347858 L0.280718,0.347486 L0.280711,0.347439 L0.280516,0.346837 L0.280435,0.346249 L0.280414,0.346168 L0.280252,0.345573 L0.280124,0.344931 L0.279969,0.344579 L0.279638,0.344850 L0.279578,0.344883 L0.279315,0.345140 L0.279281,0.345167 L0.279281,0.345181 L0.279261,0.345309 L0.279254,0.345343 L0.279207,0.345499 L0.279200,0.345539 L0.279186,0.345586 L0.279125,0.345586 L0.279078,0.345573 L0.279038,0.345559 L0.278990,0.345553 L0.278984,0.345553 L0.278930,0.345573 L0.278890,0.345586 L0.278815,0.345614 L0.278781,0.345614 L0.278492,0.345634 L0.278417,0.345620 L0.278275,0.345600 L0.277736,0.345438 L0.277594,0.345438 L0.277324,0.345519 L0.276986,0.345559 L0.275948,0.344674 L0.275617,0.344194 L0.275502,0.343734 L0.275489,0.343457 L0.275489,0.343308 L0.275523,0.342916 L0.275314,0.342234 L0.275097,0.341700 L0.275016,0.341443 L0.275057,0.341085 L0.275097,0.340990 L0.275172,0.340821 L0.275253,0.340503 L0.275368,0.340402 L0.275462,0.340213 L0.275570,0.339807 L0.275631,0.339517 L0.275597,0.339361 L0.275334,0.339158 L0.275077,0.338672 L0.274943,0.338253 L0.274909,0.338003 L0.274753,0.337861 L0.274632,0.337658 L0.274591,0.337097 L0.274416,0.336482 L0.274335,0.335671 L0.274254,0.335137 L0.274240,0.335083 L0.274167,0.334981 L0.273957,0.334677 L0.273930,0.334650 L0.273903,0.334610 L0.273836,0.334549 L0.273762,0.334454 L0.273735,0.334441 L0.273566,0.334353 L0.273546,0.334346 L0.273546,0.333981 L0.273809,0.333535 L0.274106,0.332920 L0.274632,0.331629 L0.274767,0.331366 L0.275192,0.330575 L0.275523,0.330102 L0.275692,0.329791 L0.275759,0.329453 L0.275819,0.329291 L0.275773,0.329129 L0.275826,0.328980 L0.275900,0.328872 L0.275900,0.328852 L0.275887,0.328757 L0.275806,0.328520 L0.275651,0.328372 L0.275246,0.327649 L0.274780,0.327311 L0.274605,0.326851 L0.274234,0.326338 L0.273478,0.325655 L0.273357,0.325554 L0.272777,0.325094 L0.272392,0.324729 L0.272358,0.324351 L0.272257,0.324101 L0.272237,0.323925 L0.272170,0.323716 L0.272082,0.323547 L0.272001,0.323493 L0.271940,0.323391 L0.271947,0.323236 L0.272021,0.322993 L0.272095,0.322878 L0.272203,0.322871 L0.272297,0.322912 L0.272419,0.323013 L0.272527,0.323053 L0.272655,0.323040 L0.272729,0.322979 L0.272837,0.322918 L0.272985,0.322851 L0.273073,0.322790 L0.273296,0.322763 L0.273458,0.322810 L0.273559,0.322898 L0.273701,0.322993 L0.273836,0.323033 L0.273951,0.323053 L0.274045,0.323013 L0.274079,0.322912 L0.274180,0.322729 L0.274464,0.322526 L0.274679,0.322499 L0.274835,0.322587 L0.274983,0.322560 L0.275118,0.322486 L0.275266,0.322418 L0.275401,0.322344 L0.275644,0.322297 L0.275759,0.322276 L0.275887,0.322202 L0.275975,0.322202 L0.276049,0.322202 L0.276117,0.322195 L0.276204,0.322182 L0.276312,0.322175 L0.276366,0.322148 L0.276434,0.322047 L0.276474,0.321878 L0.276521,0.321770 L0.276562,0.321709 L0.276703,0.321689 L0.276811,0.321675 L0.276926,0.321709 L0.277067,0.321648 L0.277182,0.321621 L0.277230,0.321668 L0.277297,0.321736 L0.277324,0.321912 L0.277338,0.322020 L0.277385,0.322128 L0.277479,0.322276 L0.277526,0.322391 L0.277540,0.322486 L0.277608,0.322567 L0.277668,0.322621 L0.277743,0.322614 L0.277830,0.322567 L0.277958,0.322506 L0.278046,0.322472 L0.278228,0.322405 L0.278275,0.322391 L0.278498,0.322405 L0.278714,0.322357 L0.278849,0.322324 L0.279038,0.322276 L0.279180,0.322270 L0.279389,0.322202 L0.279733,0.322033 L0.279955,0.321925 L0.280448,0.321574 L0.280812,0.321310 L0.281082,0.321195 L0.281305,0.321080 L0.281379,0.320986 L0.281500,0.320803 L0.281581,0.320722 L0.281771,0.320648 L0.282040,0.320492 L0.282142,0.320378 L0.281858,0.320060 L0.281460,0.319594 L0.281251,0.319297 L0.281217,0.319155 L0.281217,0.319040 L0.281264,0.318824 L0.281359,0.318391 L0.281419,0.318209 L0.281419,0.318026 L0.281359,0.317864 L0.281204,0.317682 L0.281521,0.317573 L0.281784,0.317513 L0.282081,0.317432 L0.282398,0.317391 L0.282749,0.317384 L0.282951,0.317391 L0.283160,0.317411 L0.283450,0.317432 L0.283491,0.317438 L0.283531,0.317472 L0.283599,0.317452 L0.283748,0.317344 L0.283841,0.317283 L0.283916,0.317290 L0.284031,0.317283 L0.284105,0.317283 L0.284119,0.317202 L0.284159,0.317121 L0.284219,0.317080 L0.284321,0.317067 L0.284449,0.316999 L0.284557,0.316992 L0.284604,0.317107 L0.284692,0.317371 L0.284739,0.317486 L0.284759,0.317560 L0.284780,0.317594 L0.284827,0.317580 L0.284908,0.317519 L0.285778,0.317925 L0.285825,0.318094 L0.286426,0.316965 L0.289043,0.312270 L0.289219,0.312229 L0.289152,0.311925 L0.289448,0.311857 L0.289644,0.311857 L0.289948,0.311851 L0.290096,0.311851 L0.290352,0.311878 L0.290501,0.311932 L0.290757,0.311898 L0.291013,0.311830 L0.291230,0.311851 L0.291499,0.312060 L0.291608,0.312222 L0.291709,0.312432 L0.291783,0.312641 L0.291877,0.312810 L0.292026,0.313020 L0.292248,0.313195 L0.292383,0.313276 L0.292525,0.313506 L0.292593,0.313763 L0.292734,0.314026 L0.292991,0.314107 L0.293274,0.314188 L0.293584,0.314188 L0.293861,0.314242 L0.294104,0.314310 L0.294252,0.314418 L0.294556,0.314459 L0.294893,0.314486 L0.295244,0.314492 L0.295561,0.314459 L0.295784,0.314479 L0.296149,0.314675 L0.296398,0.314851 L0.296776,0.314992 L0.296992,0.314999 L0.297174,0.315006 L0.297275,0.312972 L0.297835,0.312871 L0.298300,0.312614 L0.298692,0.312364 L0.300392,0.311276 L0.301681,0.310283 L0.302774,0.309723 L0.304251,0.309121 L0.305358,0.308783 L0.305472,0.308743 L0.305783,0.308615 L0.305992,0.308243 L0.306053,0.307723 L0.306687,0.307324 L0.306917,0.307358 L0.307220,0.307608 L0.307423,0.308094 L0.307605,0.308385 L0.308003,0.308412 L0.308543,0.308155 L0.308880,0.307358 L0.309527,0.305358 L0.310020,0.304521 L0.310735,0.304413 L0.311639,0.304325 L0.312436,0.304392 L0.313164,0.304507 L0.313772,0.304500 L0.313852,0.304500 L0.314500,0.304426 L0.315013,0.304568 L0.315849,0.304554 L0.317050,0.304487 L0.318049,0.304494 L0.318872,0.304467 L0.319128,0.304284 L0.319257,0.304291 L0.319385,0.304379 L0.319466,0.304527 L0.319513,0.304622 L0.319924,0.304831 L0.320363,0.304858 L0.321362,0.304744 L0.321915,0.304541 L0.322360,0.304163 L0.322792,0.303811 L0.322968,0.303298 L0.324283,0.303703 L0.324789,0.304169 Z">
    <title>Krraba</title>
  </path>
</svg>
