<?xml version="1.0" encoding="UTF-8"?>
<svg xmlns="http://www.w3.org/2000/svg" viewBox="0 0 0.533968 0.445545" width="800" height="800">
  <style>
    .boundary {
      fill: none;
      stroke: #222222;
      stroke-width: 0.5;
      vector-effect: non-scaling-stroke;
    }
  </style>
  <path class="boundary" d="M0.184716,0.227998 L0.185384,0.228212 L0.185832,0.228356 L0.186361,0.228513 L0.186619,0.228683 L0.186865,0.228871 L0.187097,0.229076 L0.187154,0.229154 L0.187312,0.229421 L0.187371,0.229548 L0.187470,0.229762 L0.187531,0.229866 L0.187679,0.230123 L0.187802,0.230346 L0.187910,0.230669 L0.187953,0.230867 L0.188105,0.231134 L0.188191,0.231227 L0.188383,0.231416 L0.188552,0.231562 L0.188768,0.231748 L0.189228,0.232143 L0.189639,0.232522 L0.190774,0.233491 L0.192803,0.234617 L0.193938,0.235030 L0.194198,0.235124 L0.195820,0.235985 L0.196930,0.236451 L0.197661,0.236649 L0.198346,0.236764 L0.198401,0.237372 L0.198696,0.237517 L0.199051,0.238032 L0.198895,0.238682 L0.199378,0.239058 L0.199465,0.239365 L0.199403,0.239699 L0.199360,0.239940 L0.199690,0.240568 L0.199520,0.241121 L0.200378,0.241706 L0.200943,0.242123 L0.201038,0.242194 L0.200948,0.242261 L0.200799,0.242326 L0.200199,0.242519 L0.199963,0.242711 L0.199653,0.242958 L0.199310,0.243140 L0.198978,0.243097 L0.198550,0.243258 L0.198239,0.243354 L0.197810,0.243536 L0.197532,0.243740 L0.197222,0.243794 L0.197018,0.243965 L0.196803,0.243922 L0.196643,0.243815 L0.196493,0.243676 L0.196247,0.243494 L0.196033,0.243397 L0.195744,0.243269 L0.195465,0.243194 L0.195347,0.243044 L0.195143,0.242701 L0.194983,0.242733 L0.194844,0.242840 L0.194769,0.242969 L0.194673,0.243194 L0.194779,0.243408 L0.194993,0.243601 L0.195315,0.243858 L0.195336,0.243997 L0.195133,0.244029 L0.194865,0.243954 L0.194586,0.243954 L0.194437,0.243997 L0.194319,0.244190 L0.194254,0.244361 L0.194169,0.244464 L0.194084,0.244638 L0.194021,0.244763 L0.194026,0.244857 L0.194035,0.244995 L0.194164,0.245482 L0.194173,0.245772 L0.194267,0.246129 L0.194271,0.246339 L0.194223,0.246433 L0.194093,0.246518 L0.194026,0.246504 L0.193861,0.246482 L0.193683,0.246424 L0.193607,0.246420 L0.193499,0.246460 L0.193414,0.246500 L0.193236,0.246558 L0.193120,0.246567 L0.193058,0.246603 L0.192915,0.246705 L0.192718,0.246705 L0.192548,0.246705 L0.192312,0.246719 L0.192098,0.246674 L0.191951,0.246674 L0.191857,0.246607 L0.191705,0.246509 L0.191580,0.246509 L0.191495,0.246611 L0.191299,0.246616 L0.191045,0.246585 L0.190781,0.246540 L0.190549,0.246509 L0.190442,0.246562 L0.190393,0.246745 L0.190308,0.246844 L0.190045,0.246853 L0.189862,0.246844 L0.189630,0.246701 L0.189514,0.246553 L0.189402,0.246549 L0.189229,0.246513 L0.189090,0.246370 L0.188974,0.246348 L0.188639,0.246411 L0.188349,0.246393 L0.188170,0.246339 L0.188005,0.246353 L0.187859,0.246342 L0.187852,0.246342 L0.187825,0.246348 L0.187778,0.246348 L0.187703,0.246348 L0.187616,0.246348 L0.187488,0.246355 L0.187447,0.246362 L0.187278,0.246362 L0.187157,0.246301 L0.186779,0.246038 L0.186732,0.246011 L0.186590,0.245943 L0.186583,0.245943 L0.186583,0.245937 L0.186502,0.245788 L0.186489,0.245788 L0.186456,0.245640 L0.186408,0.245552 L0.186395,0.245518 L0.186381,0.245511 L0.186307,0.245451 L0.186260,0.245451 L0.186158,0.245424 L0.186024,0.245410 L0.185895,0.245316 L0.185875,0.245181 L0.185875,0.244971 L0.185936,0.244789 L0.185950,0.244722 L0.186031,0.244634 L0.186051,0.244546 L0.186058,0.244485 L0.186051,0.244357 L0.186051,0.244337 L0.185983,0.244202 L0.185923,0.244060 L0.185855,0.244026 L0.185828,0.244026 L0.185720,0.244040 L0.185626,0.244121 L0.185545,0.244188 L0.185410,0.244283 L0.185335,0.244310 L0.185207,0.244364 L0.185187,0.244350 L0.185052,0.244303 L0.185038,0.244296 L0.185045,0.244236 L0.185045,0.244215 L0.185066,0.244155 L0.185086,0.244121 L0.185160,0.243959 L0.185275,0.243811 L0.185288,0.243784 L0.185301,0.243730 L0.185328,0.243662 L0.185322,0.243514 L0.185255,0.243453 L0.185201,0.243385 L0.185052,0.243331 L0.184890,0.243250 L0.184816,0.243210 L0.184674,0.243163 L0.184492,0.243115 L0.184405,0.243041 L0.184303,0.242953 L0.184283,0.242920 L0.184188,0.242785 L0.184175,0.242771 L0.184127,0.242710 L0.184074,0.242650 L0.184027,0.242589 L0.183561,0.242238 L0.183421,0.242028 L0.183276,0.241860 L0.183123,0.241698 L0.182866,0.241428 L0.182616,0.241212 L0.182389,0.241074 L0.182071,0.240879 L0.181854,0.240746 L0.181766,0.240652 L0.181391,0.240294 L0.181085,0.239990 L0.180707,0.239640 L0.180573,0.239512 L0.180235,0.239214 L0.179823,0.238979 L0.179540,0.238816 L0.179493,0.238722 L0.179430,0.238623 L0.179276,0.238378 L0.178986,0.238040 L0.178865,0.237939 L0.178286,0.237511 L0.178024,0.237314 L0.177969,0.237271 L0.177520,0.236902 L0.177307,0.236698 L0.176977,0.236368 L0.176551,0.235935 L0.176349,0.235793 L0.176284,0.235743 L0.176105,0.235599 L0.175692,0.235246 L0.175397,0.235010 L0.175122,0.234724 L0.174768,0.234344 L0.174095,0.233532 L0.173778,0.233007 L0.173717,0.232925 L0.173117,0.232203 L0.172988,0.232135 L0.172875,0.232048 L0.172820,0.231987 L0.172697,0.231851 L0.172589,0.231732 L0.172442,0.231569 L0.172070,0.231299 L0.171376,0.231015 L0.170843,0.230799 L0.170620,0.230745 L0.170452,0.230739 L0.170371,0.230759 L0.170330,0.230712 L0.170317,0.230604 L0.170310,0.230475 L0.170229,0.230354 L0.169973,0.230239 L0.169797,0.230273 L0.169554,0.230320 L0.169297,0.230334 L0.168863,0.230017 L0.168676,0.229863 L0.168444,0.229635 L0.168279,0.229470 L0.167955,0.229227 L0.167605,0.228960 L0.167418,0.228792 L0.167173,0.228562 L0.167026,0.228422 L0.167079,0.228429 L0.167146,0.228440 L0.167188,0.228455 L0.167236,0.228494 L0.167320,0.228534 L0.167379,0.228552 L0.167499,0.228601 L0.167531,0.228628 L0.167604,0.228669 L0.167649,0.228704 L0.167724,0.228728 L0.167890,0.228769 L0.167953,0.228743 L0.168042,0.228748 L0.168304,0.228833 L0.168610,0.228925 L0.168786,0.228858 L0.168699,0.228142 L0.168902,0.228087 L0.169579,0.228115 L0.169753,0.227991 L0.170293,0.228060 L0.170584,0.228170 L0.170890,0.228318 L0.171158,0.228157 L0.171333,0.228134 L0.171428,0.228116 L0.171474,0.228153 L0.171476,0.228155 L0.171474,0.228166 L0.171476,0.228164 L0.171474,0.228168 L0.171473,0.228174 L0.171474,0.228174 L0.171473,0.228174 L0.171473,0.228174 L0.171476,0.228173 L0.171474,0.228175 L0.171474,0.228175 L0.171474,0.228181 L0.171475,0.228187 L0.171478,0.228202 L0.171479,0.228204 L0.171478,0.228206 L0.171482,0.228233 L0.171486,0.228256 L0.171486,0.228256 L0.171486,0.228258 L0.171488,0.228269 L0.171486,0.228259 L0.171487,0.228262 L0.171486,0.228269 L0.171489,0.228270 L0.171331,0.228862 L0.171715,0.229185 L0.171957,0.229051 L0.172206,0.228888 L0.172562,0.228860 L0.172822,0.228976 L0.173096,0.228967 L0.173516,0.228730 L0.174020,0.228711 L0.174611,0.228011 L0.175192,0.227825 L0.175757,0.227773 L0.176065,0.227778 L0.176741,0.228105 L0.177061,0.228172 L0.177285,0.227787 L0.177665,0.227161 L0.178169,0.226551 L0.178223,0.225974 L0.178262,0.225583 L0.178265,0.225175 L0.178289,0.225015 L0.178413,0.225049 L0.178910,0.225228 L0.179903,0.225846 L0.181815,0.226839 L0.183777,0.227697 L0.184716,0.227998 Z">
    <title>Lagjia 13</title>
  </path>
</svg>
