<?xml version="1.0" encoding="UTF-8"?>
<svg xmlns="http://www.w3.org/2000/svg" viewBox="0 0 0.533968 0.445545" width="800" height="800">
  <style>
    .boundary {
      fill: none;
      stroke: #222222;
      stroke-width: 0.5;
      vector-effect: non-scaling-stroke;
    }
  </style>
  <path class="boundary" d="M0.238286,0.189253 L0.238082,0.189440 L0.237478,0.189907 L0.236942,0.190621 L0.236273,0.191758 L0.235536,0.193052 L0.234889,0.193765 L0.233818,0.194011 L0.232591,0.194011 L0.231587,0.194747 L0.230560,0.195594 L0.229913,0.197401 L0.229623,0.199119 L0.229221,0.199833 L0.228686,0.201126 L0.228571,0.202102 L0.228230,0.203031 L0.227482,0.203078 L0.226016,0.202789 L0.226057,0.200846 L0.224881,0.200687 L0.222609,0.199717 L0.222671,0.198789 L0.222641,0.198597 L0.222229,0.198742 L0.222157,0.198751 L0.222083,0.198759 L0.222009,0.198764 L0.221936,0.198766 L0.221789,0.198763 L0.221641,0.198751 L0.221568,0.198741 L0.221496,0.198729 L0.221482,0.198725 L0.221469,0.198720 L0.221457,0.198715 L0.221445,0.198709 L0.221432,0.198703 L0.221420,0.198697 L0.221408,0.198690 L0.221396,0.198683 L0.222011,0.197110 L0.221020,0.195644 L0.220894,0.194556 L0.220814,0.193862 L0.220988,0.193605 L0.221320,0.193215 L0.221348,0.192775 L0.222022,0.192947 L0.222937,0.192534 L0.224017,0.191596 L0.224606,0.191464 L0.224687,0.191127 L0.224180,0.189984 L0.223477,0.190139 L0.222926,0.190784 L0.222501,0.190437 L0.222102,0.189869 L0.221514,0.189068 L0.220803,0.188260 L0.220177,0.187902 L0.220100,0.187604 L0.220550,0.187384 L0.220648,0.187450 L0.224837,0.187758 L0.226824,0.186911 L0.229814,0.185930 L0.231919,0.186846 L0.232646,0.187108 L0.233739,0.187166 L0.234672,0.186679 L0.235252,0.186147 L0.238085,0.187255 L0.238926,0.188475 L0.238564,0.188903 L0.238286,0.189253 Z">
    <title>Lagjia 12</title>
  </path>
</svg>
