<?xml version="1.0" encoding="UTF-8"?>
<svg xmlns="http://www.w3.org/2000/svg" viewBox="0 0 0.533968 0.445545" width="800" height="800">
  <style>
    .boundary {
      fill: none;
      stroke: #222222;
      stroke-width: 0.5;
      vector-effect: non-scaling-stroke;
    }
  </style>
  <path class="boundary" d="M0.155677,0.220498 L0.157117,0.217949 L0.155460,0.216940 L0.155631,0.216653 L0.155665,0.216406 L0.155544,0.216072 L0.155442,0.215804 L0.155303,0.215665 L0.155730,0.215269 L0.156162,0.214837 L0.156276,0.214678 L0.156559,0.214489 L0.155899,0.213780 L0.155608,0.213348 L0.155693,0.213240 L0.155853,0.212819 L0.156094,0.212178 L0.156074,0.211701 L0.155943,0.211260 L0.155853,0.211015 L0.155761,0.210613 L0.155670,0.210210 L0.156335,0.210289 L0.156675,0.210329 L0.157078,0.210229 L0.157404,0.210060 L0.157769,0.209892 L0.158091,0.209744 L0.158316,0.209641 L0.158716,0.209457 L0.159383,0.209160 L0.158945,0.208384 L0.157964,0.207190 L0.158240,0.206695 L0.161278,0.200343 L0.161660,0.200603 L0.161679,0.201605 L0.161766,0.201920 L0.161846,0.202159 L0.161962,0.202335 L0.162002,0.202474 L0.162141,0.202510 L0.162330,0.202482 L0.162594,0.202402 L0.162972,0.202346 L0.163568,0.202528 L0.164389,0.202567 L0.165443,0.202970 L0.166790,0.203635 L0.166474,0.205021 L0.166581,0.206159 L0.169829,0.214290 L0.166042,0.216437 L0.159855,0.215136 L0.159316,0.216347 L0.161211,0.220913 L0.156376,0.221792 L0.155677,0.220498 Z">
    <title>Lagjia 14</title>
  </path>
</svg>
