<?xml version="1.0" encoding="UTF-8"?>
<svg xmlns="http://www.w3.org/2000/svg" viewBox="0 0 0.533968 0.445545" width="800" height="800">
  <style>
    .boundary {
      fill: none;
      stroke: #000000;
      stroke-width: 0.5;
      vector-effect: non-scaling-stroke;
    }
  </style>
  <path class="boundary" d="M0.068754,0.209372 L0.068821,0.209804 L0.068909,0.210323 L0.069145,0.210836 L0.069260,0.211011 L0.069368,0.211200 L0.069550,0.211456 L0.069577,0.211497 L0.070056,0.211355 L0.070063,0.211355 L0.070359,0.212009 L0.070366,0.212030 L0.070528,0.212158 L0.070859,0.212401 L0.070886,0.212414 L0.070981,0.212691 L0.071041,0.212792 L0.071109,0.212927 L0.071243,0.213082 L0.071270,0.213089 L0.071385,0.213190 L0.071534,0.213372 L0.071635,0.213514 L0.071756,0.213703 L0.071777,0.213723 L0.071844,0.213784 L0.071851,0.213797 L0.071919,0.213851 L0.071932,0.213878 L0.071945,0.213898 L0.072040,0.214047 L0.072107,0.214101 L0.072195,0.214202 L0.072202,0.214215 L0.072236,0.214242 L0.072263,0.214269 L0.072276,0.214276 L0.072356,0.214343 L0.072478,0.214465 L0.072512,0.214553 L0.072519,0.214593 L0.072525,0.214674 L0.072546,0.214802 L0.072593,0.215072 L0.072600,0.215113 L0.072782,0.215328 L0.072822,0.215349 L0.072890,0.215382 L0.073086,0.215511 L0.073113,0.215524 L0.073511,0.215619 L0.073828,0.215619 L0.074563,0.215504 L0.075244,0.215403 L0.075751,0.215362 L0.076277,0.215227 L0.076520,0.215113 L0.076729,0.215059 L0.077019,0.215194 L0.077356,0.215443 L0.077653,0.215760 L0.077869,0.216219 L0.078146,0.216259 L0.078436,0.216381 L0.078773,0.216603 L0.078861,0.216678 L0.079178,0.216927 L0.079320,0.217231 L0.079374,0.217325 L0.079846,0.217818 L0.079907,0.217987 L0.080008,0.218263 L0.080183,0.218526 L0.080278,0.218654 L0.080298,0.218654 L0.080588,0.218729 L0.080898,0.218742 L0.081081,0.218769 L0.081229,0.218776 L0.081337,0.218783 L0.081513,0.218776 L0.081776,0.218870 L0.082113,0.219039 L0.082376,0.219383 L0.082916,0.219680 L0.083354,0.219889 L0.083463,0.219950 L0.083773,0.219943 L0.083786,0.219936 L0.083935,0.219936 L0.084103,0.219923 L0.084326,0.219882 L0.084764,0.220213 L0.085089,0.220705 L0.085500,0.220631 L0.085521,0.220624 L0.085925,0.220409 L0.086290,0.220166 L0.086634,0.220037 L0.086944,0.220031 L0.087430,0.220112 L0.087666,0.220098 L0.087713,0.220085 L0.087976,0.220193 L0.088637,0.220476 L0.088806,0.220543 L0.089163,0.220773 L0.089582,0.220827 L0.089865,0.220645 L0.090216,0.220463 L0.090257,0.220442 L0.090891,0.220355 L0.091026,0.220361 L0.091134,0.220355 L0.091437,0.220516 L0.091565,0.220746 L0.091721,0.221023 L0.092213,0.221299 L0.092854,0.221515 L0.092955,0.221549 L0.093003,0.221549 L0.093414,0.221508 L0.093643,0.221319 L0.093819,0.221225 L0.094143,0.221286 L0.094595,0.221441 L0.094865,0.221448 L0.095101,0.221488 L0.095128,0.221495 L0.095351,0.221360 L0.095513,0.221252 L0.095600,0.221184 L0.095715,0.221090 L0.096045,0.220921 L0.096457,0.220800 L0.096680,0.220712 L0.096929,0.220840 L0.097206,0.221036 L0.097537,0.221292 L0.097955,0.221697 L0.098501,0.222507 L0.098515,0.222527 L0.098664,0.222804 L0.098791,0.223026 L0.098872,0.223148 L0.099075,0.223445 L0.099156,0.223566 L0.099237,0.223728 L0.099446,0.224173 L0.099574,0.225003 L0.099743,0.225806 L0.099696,0.226258 L0.099810,0.226515 L0.100094,0.226825 L0.100310,0.227081 L0.100377,0.227243 L0.100344,0.227507 L0.100715,0.227594 L0.101349,0.227844 L0.102003,0.228100 L0.102111,0.228188 L0.102502,0.228512 L0.102785,0.229025 L0.102880,0.229463 L0.102819,0.229915 L0.102590,0.230496 L0.102523,0.230651 L0.102354,0.231022 L0.102246,0.231326 L0.102327,0.231724 L0.102658,0.232183 L0.102819,0.232635 L0.102887,0.232871 L0.103164,0.233930 L0.103231,0.234126 L0.103305,0.234349 L0.103359,0.234518 L0.103535,0.235051 L0.104088,0.235415 L0.104952,0.235678 L0.105363,0.235712 L0.106098,0.235941 L0.106476,0.235989 L0.106962,0.236097 L0.107313,0.236279 L0.107806,0.236164 L0.108298,0.236238 L0.108426,0.236299 L0.108925,0.236535 L0.109222,0.236677 L0.109674,0.236886 L0.110228,0.236724 L0.110956,0.236515 L0.111949,0.236373 L0.112798,0.236225 L0.113575,0.235989 L0.113709,0.235941 L0.114344,0.235833 L0.114532,0.235847 L0.115335,0.235935 L0.115862,0.235955 L0.116354,0.235995 L0.116462,0.236009 L0.116719,0.236049 L0.116732,0.236272 L0.116752,0.236373 L0.116752,0.236454 L0.116752,0.236583 L0.116719,0.236940 L0.116698,0.237102 L0.116556,0.237561 L0.116368,0.237919 L0.116280,0.238067 L0.116280,0.238148 L0.116273,0.238337 L0.116273,0.238560 L0.116280,0.238722 L0.116314,0.239201 L0.116577,0.240105 L0.116502,0.240510 L0.116570,0.240888 L0.116583,0.240915 L0.116719,0.241320 L0.116502,0.241732 L0.116590,0.242211 L0.116604,0.242251 L0.116746,0.242737 L0.116759,0.243190 L0.116759,0.243898 L0.117015,0.244485 L0.116826,0.244668 L0.116739,0.244843 L0.116556,0.245174 L0.116334,0.245667 L0.116253,0.245842 L0.116125,0.246476 L0.116131,0.246497 L0.116118,0.246652 L0.116111,0.246713 L0.116070,0.247354 L0.115936,0.247840 L0.115889,0.248015 L0.115875,0.248049 L0.115835,0.248130 L0.115578,0.248785 L0.115389,0.249359 L0.115126,0.249899 L0.114991,0.250115 L0.114755,0.250513 L0.114742,0.250520 L0.114296,0.251255 L0.114242,0.251498 L0.114161,0.251883 L0.114114,0.252092 L0.114141,0.252578 L0.114269,0.253078 L0.114283,0.253125 L0.114431,0.253699 L0.114451,0.253753 L0.114586,0.254171 L0.114667,0.254448 L0.114708,0.254570 L0.114971,0.255245 L0.115079,0.255528 L0.115247,0.255872 L0.115322,0.256007 L0.115342,0.256055 L0.115349,0.256075 L0.115382,0.256163 L0.115430,0.256291 L0.115699,0.257000 L0.115706,0.257020 L0.115733,0.257243 L0.115767,0.257513 L0.115652,0.258033 L0.115558,0.258120 L0.115518,0.258154 L0.115497,0.258174 L0.115254,0.258397 L0.114688,0.258701 L0.114553,0.258768 L0.114303,0.258903 L0.113628,0.259045 L0.113055,0.259146 L0.112758,0.259113 L0.111725,0.258991 L0.111557,0.258937 L0.111051,0.258741 L0.110700,0.258613 L0.110538,0.258519 L0.109742,0.258100 L0.109513,0.258060 L0.108656,0.257884 L0.107266,0.257965 L0.107016,0.258087 L0.106349,0.258438 L0.106240,0.258498 L0.104979,0.259558 L0.104750,0.260011 L0.104439,0.260611 L0.104250,0.261928 L0.104237,0.263089 L0.104237,0.263109 L0.104304,0.263737 L0.104338,0.264014 L0.104506,0.264399 L0.104763,0.265006 L0.104965,0.265418 L0.105033,0.265553 L0.105323,0.266154 L0.105356,0.266222 L0.105410,0.266431 L0.105451,0.266559 L0.105592,0.267032 L0.105653,0.267234 L0.105673,0.267288 L0.105626,0.267585 L0.105579,0.267903 L0.105296,0.268288 L0.105181,0.268389 L0.105100,0.268463 L0.105033,0.268517 L0.104750,0.268754 L0.104378,0.268841 L0.104176,0.268889 L0.103454,0.269057 L0.101740,0.269017 L0.101342,0.268963 L0.100795,0.268902 L0.099689,0.268801 L0.098711,0.269105 L0.098616,0.269138 L0.097469,0.269820 L0.096484,0.270685 L0.095513,0.271772 L0.095506,0.271778 L0.094305,0.272710 L0.094109,0.272980 L0.093967,0.273176 L0.093853,0.274027 L0.093765,0.274574 L0.093670,0.275269 L0.093556,0.275546 L0.093455,0.275755 L0.093124,0.276235 L0.093016,0.276383 L0.092976,0.276424 L0.092402,0.276924 L0.092098,0.276991 L0.091255,0.277153 L0.090783,0.276984 L0.090776,0.276984 L0.090486,0.276883 L0.089872,0.276836 L0.089852,0.276843 L0.089278,0.277032 L0.088617,0.277214 L0.088233,0.277214 L0.088037,0.277214 L0.087983,0.277201 L0.087625,0.277079 L0.087504,0.276978 L0.087133,0.276660 L0.086910,0.276417 L0.086593,0.276066 L0.085905,0.275458 L0.085817,0.275384 L0.085136,0.274851 L0.084839,0.275283 L0.084805,0.275323 L0.084784,0.275364 L0.084603,0.275445 L0.084130,0.275647 L0.083725,0.275877 L0.083469,0.276134 L0.083476,0.276843 L0.083436,0.276849 L0.083409,0.276843 L0.082977,0.276775 L0.082882,0.277228 L0.082801,0.277585 L0.082801,0.277599 L0.082781,0.277680 L0.082774,0.277714 L0.082687,0.278004 L0.082653,0.278166 L0.082646,0.278173 L0.082511,0.278139 L0.082295,0.278092 L0.082093,0.278038 L0.081957,0.277997 L0.081891,0.277970 L0.081864,0.277964 L0.081857,0.277957 L0.081722,0.277876 L0.081701,0.277876 L0.081513,0.277761 L0.081506,0.277747 L0.081249,0.277619 L0.081000,0.277491 L0.080959,0.277477 L0.080710,0.277356 L0.080629,0.277315 L0.080419,0.277774 L0.080312,0.277977 L0.080096,0.278389 L0.079921,0.278551 L0.079792,0.278646 L0.079562,0.278700 L0.079435,0.278747 L0.079299,0.278652 L0.079145,0.278490 L0.079070,0.278315 L0.079009,0.278335 L0.078955,0.278477 L0.078753,0.279294 L0.078557,0.279834 L0.078402,0.280395 L0.078240,0.280921 L0.078200,0.281029 L0.078112,0.281245 L0.077829,0.281941 L0.077795,0.282009 L0.077309,0.282751 L0.076938,0.283103 L0.076857,0.283184 L0.076601,0.283596 L0.076587,0.283609 L0.076526,0.283623 L0.075636,0.283839 L0.075009,0.283866 L0.074381,0.283879 L0.074003,0.283879 L0.073733,0.283953 L0.073551,0.284001 L0.073126,0.284136 L0.072930,0.284548 L0.072883,0.284717 L0.072856,0.284784 L0.072917,0.284899 L0.073018,0.285014 L0.073106,0.285183 L0.073234,0.285277 L0.073308,0.285419 L0.073437,0.285622 L0.073409,0.285750 L0.073389,0.285892 L0.073396,0.286047 L0.073491,0.286175 L0.073538,0.286283 L0.073557,0.286587 L0.073564,0.286614 L0.073477,0.287188 L0.073491,0.287790 L0.073213,0.287904 L0.072890,0.288120 L0.072573,0.288357 L0.071500,0.288445 L0.071406,0.288472 L0.070866,0.288627 L0.070137,0.288917 L0.069543,0.289329 L0.069253,0.289431 L0.069165,0.289647 L0.069065,0.289721 L0.068801,0.289708 L0.068794,0.289708 L0.068808,0.289728 L0.068929,0.289863 L0.069098,0.290045 L0.069132,0.290079 L0.069172,0.290093 L0.069368,0.290147 L0.069381,0.290147 L0.069456,0.290194 L0.069476,0.290194 L0.069503,0.290207 L0.069577,0.290268 L0.069658,0.290336 L0.069766,0.290424 L0.069820,0.290464 L0.069840,0.290478 L0.069908,0.290505 L0.069941,0.290511 L0.070036,0.290511 L0.070042,0.290511 L0.070157,0.290545 L0.070171,0.290559 L0.070245,0.290640 L0.070259,0.290653 L0.070279,0.290653 L0.070366,0.290646 L0.070440,0.290586 L0.070508,0.290532 L0.070637,0.290525 L0.070751,0.290525 L0.070791,0.290532 L0.070798,0.290538 L0.070872,0.290606 L0.070879,0.290613 L0.070886,0.290613 L0.070947,0.290707 L0.071035,0.290815 L0.071055,0.290842 L0.071230,0.291038 L0.071365,0.291193 L0.071385,0.291207 L0.071655,0.291376 L0.071925,0.291558 L0.072161,0.291950 L0.072303,0.292436 L0.072444,0.292787 L0.072627,0.293031 L0.072761,0.293112 L0.072896,0.293220 L0.073025,0.293483 L0.073382,0.293801 L0.074543,0.294280 L0.075143,0.294611 L0.075642,0.294962 L0.075696,0.294996 L0.076324,0.295401 L0.076736,0.295739 L0.076911,0.296090 L0.076999,0.296327 L0.077073,0.296536 L0.077060,0.296800 L0.076992,0.297083 L0.076891,0.297455 L0.076769,0.297955 L0.076702,0.298475 L0.076769,0.298509 L0.077006,0.298657 L0.077201,0.298745 L0.077343,0.298887 L0.077377,0.298914 L0.077471,0.299022 L0.077606,0.299137 L0.077646,0.299326 L0.077546,0.299468 L0.077356,0.299697 L0.077160,0.299853 L0.077141,0.299866 L0.076682,0.300245 L0.076371,0.300528 L0.076169,0.300839 L0.075852,0.301163 L0.075893,0.301609 L0.075953,0.301859 L0.075825,0.302095 L0.075582,0.302575 L0.075515,0.302656 L0.075413,0.302791 L0.075170,0.303088 L0.074968,0.303338 L0.074954,0.303352 L0.074644,0.304102 L0.074185,0.304541 L0.073645,0.304987 L0.073524,0.305568 L0.073564,0.306189 L0.073234,0.306581 L0.073220,0.307338 L0.073186,0.308297 L0.073173,0.309175 L0.073126,0.309669 L0.073234,0.310108 L0.073557,0.310310 L0.073504,0.310608 L0.073437,0.311013 L0.073126,0.311432 L0.072748,0.311695 L0.072694,0.311878 L0.072627,0.312162 L0.072188,0.312249 L0.071756,0.312236 L0.071406,0.312803 L0.071210,0.313128 L0.071021,0.313432 L0.070718,0.313493 L0.070440,0.313830 L0.069793,0.314303 L0.069138,0.314756 L0.068727,0.315046 L0.068801,0.315317 L0.068929,0.315601 L0.068848,0.315851 L0.068592,0.315932 L0.068511,0.315952 L0.068457,0.316006 L0.068464,0.315986 L0.068396,0.315952 L0.068322,0.315938 L0.068268,0.315959 L0.068147,0.316033 L0.068012,0.316046 L0.067911,0.316006 L0.067884,0.315898 L0.067816,0.315830 L0.067701,0.315776 L0.067695,0.315769 L0.067634,0.315769 L0.067546,0.315824 L0.067384,0.315817 L0.067269,0.315756 L0.067115,0.315655 L0.067013,0.315607 L0.066885,0.315601 L0.066851,0.315594 L0.066770,0.315567 L0.066723,0.315506 L0.066690,0.315371 L0.066629,0.315310 L0.066541,0.315317 L0.066507,0.315371 L0.066561,0.315526 L0.066568,0.315648 L0.066568,0.315830 L0.066467,0.315851 L0.066372,0.315851 L0.066312,0.315878 L0.066319,0.315932 L0.066278,0.315965 L0.066177,0.315972 L0.065960,0.315945 L0.065846,0.315925 L0.065677,0.315911 L0.065462,0.315925 L0.065326,0.315952 L0.065218,0.315999 L0.065178,0.316060 L0.064949,0.316283 L0.064881,0.316330 L0.064793,0.316337 L0.064726,0.316256 L0.064598,0.316168 L0.064544,0.316141 L0.064496,0.316155 L0.064429,0.316290 L0.064348,0.316371 L0.064265,0.316387 L0.064264,0.316386 L0.064264,0.316386 L0.064229,0.316388 L0.064171,0.316391 L0.064023,0.316350 L0.063751,0.316255 L0.063713,0.316227 L0.063675,0.316193 L0.063665,0.316184 L0.063640,0.316165 L0.063627,0.316155 L0.063636,0.316112 L0.063657,0.316039 L0.063650,0.315975 L0.063658,0.315895 L0.063644,0.315862 L0.063606,0.315819 L0.063571,0.315836 L0.063537,0.315877 L0.063505,0.315953 L0.063497,0.316001 L0.063440,0.316064 L0.063389,0.316079 L0.063341,0.316070 L0.063279,0.316052 L0.063199,0.316044 L0.063060,0.315989 L0.062974,0.315928 L0.062907,0.315896 L0.062783,0.315869 L0.062702,0.315837 L0.062568,0.315801 L0.062478,0.315769 L0.062416,0.315756 L0.062325,0.315705 L0.062276,0.315684 L0.062249,0.315673 L0.062182,0.315650 L0.062063,0.315609 L0.062039,0.315571 L0.062019,0.315490 L0.062013,0.315448 L0.062011,0.315431 L0.062002,0.315362 L0.061973,0.315281 L0.061968,0.315276 L0.061934,0.315230 L0.061911,0.315235 L0.061882,0.315254 L0.061850,0.315279 L0.061804,0.315309 L0.061798,0.315313 L0.061746,0.315332 L0.061732,0.315338 L0.061726,0.315340 L0.061670,0.315361 L0.061666,0.315363 L0.061581,0.315364 L0.061509,0.315351 L0.061404,0.315286 L0.061356,0.315239 L0.061322,0.315230 L0.061247,0.315264 L0.061219,0.315298 L0.061210,0.315332 L0.061202,0.315422 L0.061203,0.315489 L0.061185,0.315565 L0.061162,0.315609 L0.061129,0.315629 L0.061096,0.315648 L0.061074,0.315651 L0.061054,0.315653 L0.061041,0.315654 L0.061027,0.315654 L0.060978,0.315655 L0.060952,0.315629 L0.060939,0.315617 L0.060938,0.315616 L0.060901,0.315589 L0.060882,0.315548 L0.060879,0.315542 L0.060867,0.315518 L0.060843,0.315466 L0.060822,0.315414 L0.060791,0.315372 L0.060784,0.315362 L0.060724,0.315307 L0.060702,0.315287 L0.060698,0.315282 L0.060654,0.315231 L0.060638,0.315131 L0.060640,0.315115 L0.060646,0.315064 L0.060692,0.314939 L0.060695,0.314909 L0.060701,0.314868 L0.060699,0.314782 L0.060683,0.314706 L0.060659,0.314635 L0.060620,0.314574 L0.060620,0.314573 L0.060571,0.314512 L0.060538,0.314465 L0.060508,0.314432 L0.060447,0.314457 L0.060424,0.314486 L0.060336,0.314568 L0.060273,0.314569 L0.060236,0.314570 L0.060226,0.314570 L0.060193,0.314532 L0.060168,0.314485 L0.060096,0.314420 L0.060001,0.314383 L0.059892,0.314385 L0.059835,0.314414 L0.059808,0.314467 L0.059790,0.314539 L0.059867,0.314652 L0.059916,0.314723 L0.059916,0.314789 L0.059894,0.314828 L0.059870,0.314828 L0.059808,0.314801 L0.059803,0.314792 L0.059784,0.314758 L0.059725,0.314726 L0.059717,0.314721 L0.059650,0.314722 L0.059589,0.314733 L0.059484,0.314706 L0.059394,0.314674 L0.059379,0.314604 L0.059378,0.314598 L0.059363,0.314560 L0.059291,0.314475 L0.059242,0.314409 L0.059246,0.314352 L0.059292,0.314299 L0.059363,0.314255 L0.059476,0.314239 L0.059557,0.314223 L0.059604,0.314218 L0.059670,0.314197 L0.059732,0.314154 L0.059802,0.314076 L0.059838,0.314042 L0.059880,0.313999 L0.059904,0.313932 L0.059922,0.313869 L0.059932,0.313815 L0.059939,0.313779 L0.059971,0.313697 L0.059994,0.313639 L0.059995,0.313625 L0.059998,0.313568 L0.059996,0.313506 L0.059977,0.313440 L0.059923,0.313378 L0.059902,0.313358 L0.059898,0.313354 L0.059875,0.313332 L0.059874,0.313332 L0.059814,0.313332 L0.059786,0.313376 L0.059772,0.313424 L0.059763,0.313476 L0.059755,0.313538 L0.059742,0.313634 L0.059724,0.313706 L0.059702,0.313763 L0.059669,0.313797 L0.059617,0.313803 L0.059560,0.313785 L0.059532,0.313685 L0.059532,0.313674 L0.059530,0.313578 L0.059543,0.313499 L0.059556,0.313413 L0.059530,0.313381 L0.059491,0.313335 L0.059388,0.313316 L0.059384,0.313315 L0.059313,0.313302 L0.059223,0.313304 L0.059199,0.313304 L0.059013,0.313235 L0.058898,0.313159 L0.058776,0.313046 L0.058696,0.312969 L0.058603,0.312942 L0.058568,0.312964 L0.058362,0.313031 L0.058142,0.313028 L0.058133,0.312949 L0.058142,0.312918 L0.058160,0.312848 L0.058163,0.312818 L0.058166,0.312791 L0.058187,0.312727 L0.058186,0.312662 L0.058178,0.312612 L0.058166,0.312564 L0.058163,0.312548 L0.058098,0.312492 L0.058097,0.312491 L0.057983,0.312408 L0.057979,0.312405 L0.057889,0.312324 L0.057739,0.312290 L0.057712,0.312304 L0.057711,0.312305 L0.057705,0.312355 L0.057720,0.312426 L0.057757,0.312526 L0.057802,0.312675 L0.057833,0.312832 L0.057790,0.312867 L0.057770,0.312883 L0.057727,0.312884 L0.057638,0.312869 L0.057606,0.312864 L0.057277,0.312755 L0.057169,0.312650 L0.057163,0.312642 L0.057096,0.312558 L0.057030,0.312423 L0.056979,0.312338 L0.056922,0.312328 L0.056829,0.312312 L0.056787,0.312327 L0.056738,0.312370 L0.056661,0.312450 L0.056505,0.312531 L0.056451,0.312525 L0.056398,0.312519 L0.056348,0.312477 L0.056317,0.312341 L0.056316,0.312256 L0.056301,0.312206 L0.056299,0.312203 L0.056235,0.312107 L0.056235,0.312103 L0.056235,0.312035 L0.056255,0.311992 L0.056353,0.311941 L0.056393,0.311920 L0.056396,0.311918 L0.056398,0.311916 L0.056438,0.311853 L0.056437,0.311796 L0.056414,0.311725 L0.056402,0.311697 L0.056377,0.311640 L0.056320,0.311609 L0.056299,0.311598 L0.056220,0.311606 L0.056121,0.311637 L0.056065,0.311673 L0.055976,0.311744 L0.055948,0.311766 L0.055946,0.311768 L0.055875,0.311798 L0.055755,0.311821 L0.055548,0.311831 L0.055243,0.311808 L0.055107,0.311753 L0.055089,0.311742 L0.054977,0.311676 L0.054891,0.311620 L0.054748,0.311544 L0.054567,0.311404 L0.054466,0.311284 L0.054251,0.311187 L0.054093,0.311145 L0.054072,0.311140 L0.054051,0.311130 L0.053915,0.311064 L0.053785,0.310958 L0.053797,0.310900 L0.053805,0.310858 L0.053903,0.310792 L0.054023,0.310719 L0.054100,0.310687 L0.054150,0.310667 L0.054249,0.310594 L0.054256,0.310558 L0.054250,0.310552 L0.054190,0.310487 L0.054140,0.310481 L0.053899,0.310528 L0.053728,0.310530 L0.053558,0.310512 L0.053463,0.310473 L0.053442,0.310465 L0.053372,0.310436 L0.053270,0.310337 L0.053182,0.310182 L0.053178,0.310129 L0.053174,0.310089 L0.053179,0.310032 L0.053180,0.310017 L0.053214,0.309938 L0.053263,0.309866 L0.053318,0.309772 L0.053360,0.309671 L0.053398,0.309577 L0.053400,0.309570 L0.053428,0.309484 L0.053426,0.309398 L0.053411,0.309306 L0.053388,0.309249 L0.053284,0.309129 L0.053274,0.309072 L0.053073,0.308908 L0.052829,0.308760 L0.052723,0.308661 L0.052536,0.308550 L0.052487,0.308469 L0.052346,0.308276 L0.052226,0.308154 L0.052051,0.307890 L0.052006,0.307734 L0.052026,0.307476 L0.052002,0.307176 L0.052050,0.306956 L0.052217,0.306677 L0.052315,0.306547 L0.052452,0.306277 L0.052483,0.306082 L0.052421,0.306073 L0.052289,0.306094 L0.052246,0.306128 L0.052176,0.306177 L0.052105,0.306216 L0.052044,0.306279 L0.052017,0.306346 L0.052014,0.306399 L0.052000,0.306461 L0.051963,0.306519 L0.051921,0.306558 L0.051893,0.306610 L0.051861,0.306682 L0.051834,0.306735 L0.051801,0.306788 L0.051769,0.306813 L0.051721,0.306828 L0.051641,0.306829 L0.051580,0.306830 L0.051484,0.306836 L0.051409,0.306852 L0.051366,0.306867 L0.051305,0.306896 L0.051267,0.306887 L0.051157,0.306789 L0.051041,0.306700 L0.050979,0.306668 L0.050907,0.306645 L0.050822,0.306642 L0.050727,0.306600 L0.050664,0.306549 L0.050639,0.306478 L0.050590,0.306336 L0.050528,0.306313 L0.050409,0.306319 L0.050277,0.306355 L0.050183,0.306380 L0.050078,0.306387 L0.049874,0.306366 L0.049842,0.306400 L0.049768,0.306554 L0.049727,0.306630 L0.049718,0.306644 L0.049634,0.306784 L0.049523,0.306963 L0.049462,0.306987 L0.049439,0.306996 L0.049410,0.307007 L0.049397,0.307002 L0.049344,0.306980 L0.049314,0.306942 L0.049285,0.306890 L0.049279,0.306819 L0.049282,0.306723 L0.049295,0.306604 L0.049278,0.306447 L0.049214,0.306338 L0.049204,0.306335 L0.049100,0.306302 L0.048852,0.306225 L0.048586,0.306148 L0.048501,0.306173 L0.048383,0.306213 L0.048231,0.306216 L0.048251,0.306287 L0.048253,0.306392 L0.048231,0.306487 L0.048157,0.306613 L0.048020,0.306700 L0.047844,0.306679 L0.047748,0.306605 L0.047657,0.306487 L0.047603,0.306397 L0.047121,0.306486 L0.047057,0.306482 L0.047018,0.306479 L0.047011,0.306479 L0.046859,0.306561 L0.046852,0.306565 L0.046805,0.306560 L0.046791,0.306548 L0.046778,0.306537 L0.046745,0.306510 L0.046704,0.306446 L0.046702,0.306442 L0.046682,0.306417 L0.046654,0.306383 L0.046599,0.306310 L0.046576,0.306264 L0.046565,0.306245 L0.046514,0.306195 L0.046454,0.306145 L0.046450,0.306144 L0.046408,0.306128 L0.046398,0.306125 L0.046348,0.306128 L0.046339,0.306129 L0.046309,0.306142 L0.046297,0.306148 L0.046290,0.306158 L0.046263,0.306193 L0.046207,0.306253 L0.046164,0.306328 L0.046103,0.306374 L0.046075,0.306354 L0.046019,0.306313 L0.045937,0.306285 L0.045902,0.306273 L0.045831,0.306235 L0.045771,0.306207 L0.045714,0.306202 L0.045661,0.306220 L0.045632,0.306251 L0.045600,0.306305 L0.045519,0.306407 L0.045489,0.306446 L0.045458,0.306486 L0.045442,0.306519 L0.045427,0.306549 L0.045397,0.306594 L0.045291,0.306596 L0.045104,0.306482 L0.045056,0.306459 L0.044992,0.306441 L0.044923,0.306409 L0.044858,0.306384 L0.044826,0.306375 L0.044815,0.306373 L0.044740,0.306364 L0.044673,0.306356 L0.044578,0.306338 L0.044516,0.306327 L0.044432,0.306291 L0.044385,0.306275 L0.044353,0.306261 L0.044304,0.306240 L0.044283,0.306215 L0.044195,0.306111 L0.044185,0.306082 L0.044184,0.306028 L0.044195,0.305980 L0.044209,0.305944 L0.044253,0.305879 L0.044335,0.305813 L0.044358,0.305784 L0.044416,0.305712 L0.044430,0.305695 L0.044462,0.305647 L0.044469,0.305623 L0.044478,0.305592 L0.044477,0.305534 L0.044460,0.305494 L0.044417,0.305445 L0.044394,0.305431 L0.044384,0.305424 L0.044364,0.305412 L0.044311,0.305373 L0.044269,0.305373 L0.044236,0.305383 L0.044184,0.305401 L0.044175,0.305405 L0.044139,0.305423 L0.044064,0.305448 L0.043971,0.305473 L0.043910,0.305491 L0.043839,0.305499 L0.043810,0.305493 L0.043796,0.305461 L0.043795,0.305459 L0.043790,0.305407 L0.043786,0.305396 L0.043771,0.305357 L0.043757,0.305338 L0.043741,0.305315 L0.043706,0.305299 L0.043691,0.305292 L0.043632,0.305286 L0.043551,0.305294 L0.043483,0.305312 L0.043400,0.305347 L0.043340,0.305400 L0.043314,0.305458 L0.043303,0.305505 L0.043292,0.305575 L0.043270,0.305694 L0.043233,0.305711 L0.043207,0.305729 L0.043158,0.305741 L0.043113,0.305740 L0.042976,0.305682 L0.042919,0.305640 L0.042884,0.305611 L0.042869,0.305598 L0.042772,0.305552 L0.042710,0.305558 L0.042690,0.305560 L0.042664,0.305559 L0.042602,0.305560 L0.042576,0.305560 L0.042517,0.305570 L0.042456,0.305595 L0.042446,0.305598 L0.042389,0.305620 L0.042385,0.305623 L0.042338,0.305654 L0.042322,0.305676 L0.042294,0.305712 L0.042277,0.305760 L0.042274,0.305772 L0.042268,0.305777 L0.042256,0.305790 L0.042225,0.305823 L0.042175,0.305867 L0.042126,0.305877 L0.042099,0.305882 L0.042068,0.305888 L0.042029,0.305895 L0.041953,0.305875 L0.041885,0.305880 L0.041830,0.305884 L0.041797,0.305897 L0.041785,0.305901 L0.041777,0.305906 L0.041721,0.305938 L0.041711,0.305957 L0.041698,0.305981 L0.041680,0.306013 L0.041690,0.306051 L0.041693,0.306054 L0.041731,0.306088 L0.041779,0.306137 L0.041830,0.306187 L0.041882,0.306224 L0.041928,0.306276 L0.041936,0.306314 L0.041931,0.306397 L0.041929,0.306490 L0.041904,0.306553 L0.041827,0.306611 L0.041720,0.306631 L0.041659,0.306642 L0.041636,0.306649 L0.041569,0.306670 L0.041451,0.306698 L0.041340,0.306714 L0.041274,0.306729 L0.041174,0.306745 L0.041046,0.306745 L0.040965,0.306737 L0.040883,0.306726 L0.040762,0.306721 L0.040700,0.306724 L0.040608,0.306735 L0.040554,0.306770 L0.040511,0.306787 L0.040450,0.306826 L0.040371,0.306868 L0.040269,0.306910 L0.040158,0.306936 L0.040047,0.306949 L0.039969,0.306972 L0.039888,0.306980 L0.039775,0.306987 L0.039668,0.306989 L0.039511,0.306991 L0.039388,0.306993 L0.039310,0.306992 L0.039182,0.306994 L0.039115,0.306988 L0.039073,0.306985 L0.039056,0.306984 L0.038999,0.306969 L0.038944,0.306955 L0.038808,0.306893 L0.038768,0.306903 L0.038732,0.306941 L0.038726,0.306947 L0.038701,0.307007 L0.038687,0.307052 L0.038672,0.307098 L0.038648,0.307136 L0.038641,0.307143 L0.038621,0.307160 L0.038585,0.307178 L0.038554,0.307200 L0.038512,0.307210 L0.038460,0.307227 L0.038358,0.307253 L0.038324,0.307296 L0.038322,0.307304 L0.038310,0.307342 L0.038231,0.307415 L0.038177,0.307435 L0.038070,0.307441 L0.038017,0.307430 L0.037939,0.307412 L0.037846,0.307409 L0.037713,0.307399 L0.037640,0.307391 L0.037574,0.307377 L0.037513,0.307352 L0.037466,0.307334 L0.037414,0.307332 L0.037305,0.307346 L0.037232,0.307357 L0.037148,0.307365 L0.037100,0.307414 L0.037075,0.307471 L0.037047,0.307548 L0.037009,0.307637 L0.036986,0.307713 L0.036958,0.307766 L0.036935,0.307788 L0.036919,0.307802 L0.036919,0.307803 L0.036890,0.307801 L0.036859,0.307796 L0.036804,0.307797 L0.036759,0.307793 L0.036727,0.307784 L0.036714,0.307780 L0.036659,0.307766 L0.036609,0.307751 L0.036586,0.307744 L0.036526,0.307718 L0.036469,0.307696 L0.036451,0.307683 L0.036380,0.307633 L0.036312,0.307612 L0.036285,0.307603 L0.036206,0.307581 L0.036118,0.307549 L0.036039,0.307512 L0.035977,0.307467 L0.035929,0.307435 L0.035866,0.307407 L0.035805,0.307389 L0.035727,0.307393 L0.035658,0.307396 L0.035570,0.307410 L0.035523,0.307430 L0.035483,0.307449 L0.035443,0.307490 L0.035407,0.307539 L0.035369,0.307589 L0.035325,0.307640 L0.035307,0.307683 L0.035268,0.307751 L0.035226,0.307796 L0.035205,0.307821 L0.035193,0.307831 L0.035181,0.307843 L0.035151,0.307848 L0.035108,0.307849 L0.035081,0.307831 L0.035069,0.307823 L0.035048,0.307790 L0.034994,0.307748 L0.034946,0.307701 L0.034892,0.307660 L0.034846,0.307624 L0.034762,0.307570 L0.034698,0.307538 L0.034614,0.307539 L0.034567,0.307562 L0.034497,0.307608 L0.034453,0.307659 L0.034402,0.307734 L0.034342,0.307818 L0.034283,0.307883 L0.034220,0.307953 L0.034194,0.307980 L0.034178,0.307997 L0.034143,0.308017 L0.034107,0.308024 L0.034080,0.308030 L0.034045,0.308030 L0.034034,0.308030 L0.033994,0.308024 L0.033965,0.308003 L0.033964,0.308001 L0.033957,0.307992 L0.033943,0.307975 L0.033939,0.307942 L0.033932,0.307896 L0.033925,0.307851 L0.033924,0.307808 L0.033916,0.307768 L0.033904,0.307723 L0.033902,0.307712 L0.033896,0.307677 L0.033900,0.307649 L0.033902,0.307634 L0.033913,0.307556 L0.033926,0.307493 L0.033932,0.307441 L0.033934,0.307403 L0.033931,0.307362 L0.033926,0.307319 L0.033908,0.307279 L0.033896,0.307236 L0.033884,0.307210 L0.033856,0.307168 L0.033828,0.307130 L0.033818,0.307122 L0.033806,0.307112 L0.033768,0.307091 L0.033687,0.307056 L0.033646,0.307052 L0.033589,0.307048 L0.033552,0.307047 L0.033513,0.307047 L0.033461,0.307048 L0.033412,0.307058 L0.033331,0.307081 L0.033292,0.307101 L0.033254,0.307125 L0.033193,0.307160 L0.033129,0.307206 L0.033071,0.307252 L0.033034,0.307300 L0.032992,0.307363 L0.032945,0.307404 L0.032913,0.307450 L0.032880,0.307489 L0.032858,0.307513 L0.032849,0.307524 L0.032834,0.307540 L0.032823,0.307542 L0.032810,0.307545 L0.032779,0.307538 L0.032741,0.307512 L0.032736,0.307508 L0.032714,0.307482 L0.032695,0.307454 L0.032683,0.307411 L0.032665,0.307364 L0.032647,0.307309 L0.032618,0.307262 L0.032586,0.307224 L0.032559,0.307192 L0.032558,0.307191 L0.032517,0.307161 L0.032474,0.307162 L0.032448,0.307167 L0.032415,0.307186 L0.032395,0.307244 L0.032388,0.307277 L0.032392,0.307323 L0.032397,0.307358 L0.032398,0.307401 L0.032393,0.307447 L0.032380,0.307485 L0.032369,0.307521 L0.032357,0.307557 L0.032325,0.307600 L0.032292,0.307615 L0.032242,0.307618 L0.032242,0.307618 L0.032188,0.307624 L0.032117,0.307632 L0.032064,0.307626 L0.032043,0.307598 L0.032013,0.307543 L0.031983,0.307465 L0.031968,0.307382 L0.031950,0.307304 L0.031942,0.307247 L0.031939,0.307182 L0.031937,0.307108 L0.031932,0.307058 L0.031886,0.306957 L0.031880,0.306949 L0.031849,0.306907 L0.031821,0.306885 L0.031818,0.306882 L0.031816,0.306881 L0.031784,0.306873 L0.031716,0.306886 L0.031655,0.306925 L0.031601,0.306983 L0.031554,0.307007 L0.031505,0.307056 L0.031429,0.307162 L0.031397,0.307234 L0.031352,0.307304 L0.031301,0.307352 L0.031243,0.307408 L0.031126,0.307522 L0.031053,0.307578 L0.031016,0.307602 L0.030943,0.307623 L0.030872,0.307643 L0.030811,0.307677 L0.030699,0.307779 L0.030633,0.307806 L0.030569,0.307843 L0.030530,0.307901 L0.030477,0.307969 L0.030359,0.308061 L0.030218,0.308120 L0.030162,0.308148 L0.030098,0.308196 L0.030017,0.308281 L0.030006,0.308275 L0.029947,0.308244 L0.029854,0.308203 L0.029825,0.308198 L0.029738,0.308202 L0.029652,0.308175 L0.029599,0.308145 L0.029478,0.307997 L0.029088,0.306262 L0.028956,0.306283 L0.028790,0.306343 L0.028579,0.306418 L0.028325,0.306551 L0.028292,0.306499 L0.028232,0.306404 L0.028163,0.306248 L0.028137,0.306106 L0.028216,0.305706 L0.028284,0.305474 L0.028380,0.305244 L0.028438,0.305066 L0.028411,0.304998 L0.028367,0.304917 L0.028397,0.304848 L0.028451,0.304692 L0.028591,0.304382 L0.028660,0.304236 L0.028739,0.304122 L0.028790,0.304076 L0.028831,0.303992 L0.028896,0.303865 L0.028897,0.303805 L0.028916,0.303638 L0.028914,0.303543 L0.028965,0.303328 L0.029071,0.302947 L0.029071,0.302956 L0.029138,0.302867 L0.029338,0.302597 L0.029424,0.302512 L0.029508,0.302423 L0.029521,0.302368 L0.029578,0.302205 L0.029696,0.301969 L0.029869,0.301568 L0.029907,0.301565 L0.030053,0.301227 L0.030104,0.301157 L0.030175,0.301118 L0.030251,0.301102 L0.030333,0.301079 L0.030369,0.300972 L0.030444,0.300863 L0.030531,0.300714 L0.030600,0.300577 L0.030659,0.300438 L0.030685,0.300256 L0.030689,0.300058 L0.030643,0.299687 L0.030625,0.299630 L0.030562,0.299503 L0.030502,0.299349 L0.030501,0.299287 L0.030495,0.299049 L0.030497,0.298748 L0.030533,0.298593 L0.030606,0.298430 L0.030700,0.298223 L0.030616,0.298194 L0.030534,0.298198 L0.030441,0.298164 L0.030395,0.298101 L0.030357,0.298019 L0.030284,0.297906 L0.030201,0.297789 L0.030139,0.297733 L0.030078,0.297670 L0.030003,0.297639 L0.029889,0.297630 L0.029708,0.297643 L0.029700,0.297593 L0.029706,0.297536 L0.029734,0.297489 L0.029804,0.297456 L0.029825,0.297391 L0.029824,0.297331 L0.029808,0.297274 L0.029775,0.297192 L0.029761,0.297167 L0.029664,0.297126 L0.029609,0.297069 L0.029587,0.297034 L0.029579,0.296966 L0.029599,0.296891 L0.029641,0.296772 L0.029664,0.296715 L0.029702,0.296660 L0.029762,0.296574 L0.029798,0.296441 L0.029811,0.296315 L0.029743,0.296088 L0.029604,0.295883 L0.029258,0.295733 L0.028899,0.295537 L0.028648,0.295433 L0.028209,0.295441 L0.028090,0.295454 L0.027746,0.295448 L0.027438,0.295417 L0.027110,0.295029 L0.027067,0.294951 L0.027033,0.294845 L0.026966,0.294664 L0.026895,0.294429 L0.026844,0.294412 L0.026790,0.294377 L0.026687,0.294346 L0.026584,0.294337 L0.026487,0.294314 L0.026387,0.294280 L0.026308,0.294238 L0.026257,0.294182 L0.026199,0.294104 L0.026137,0.294001 L0.026057,0.293935 L0.025874,0.293813 L0.025722,0.293679 L0.025588,0.293474 L0.025466,0.293233 L0.025334,0.292956 L0.025263,0.292793 L0.025202,0.292708 L0.025086,0.292606 L0.025085,0.292549 L0.025104,0.292381 L0.025126,0.292184 L0.025055,0.292167 L0.024780,0.291968 L0.024560,0.291750 L0.024548,0.291664 L0.024522,0.291597 L0.024503,0.291525 L0.024502,0.291415 L0.024474,0.291240 L0.024385,0.291041 L0.024349,0.290824 L0.024271,0.290287 L0.024293,0.290082 L0.024291,0.289933 L0.024295,0.289778 L0.024304,0.289605 L0.024319,0.289474 L0.024352,0.289324 L0.024403,0.289133 L0.024447,0.288953 L0.024505,0.288869 L0.024546,0.288821 L0.024616,0.288742 L0.024680,0.288658 L0.024714,0.288550 L0.024712,0.288478 L0.024729,0.288395 L0.024775,0.288334 L0.024870,0.288315 L0.025023,0.288289 L0.025106,0.288275 L0.025195,0.288250 L0.025359,0.288146 L0.025411,0.288098 L0.025458,0.288013 L0.025473,0.287779 L0.025447,0.287486 L0.025393,0.287265 L0.025348,0.287109 L0.025296,0.286952 L0.025228,0.286717 L0.025203,0.286482 L0.025186,0.286289 L0.025169,0.286111 L0.025159,0.285975 L0.025143,0.285811 L0.025083,0.285669 L0.025032,0.285584 L0.024981,0.285492 L0.024915,0.285385 L0.024955,0.285270 L0.024990,0.285231 L0.024998,0.285222 L0.025019,0.285198 L0.025103,0.285089 L0.025172,0.284967 L0.025227,0.284866 L0.025268,0.284779 L0.025330,0.284664 L0.025399,0.284534 L0.025475,0.284404 L0.025559,0.284288 L0.025664,0.284172 L0.025896,0.283990 L0.025993,0.283867 L0.026063,0.283772 L0.026126,0.283678 L0.026196,0.283584 L0.026263,0.283493 L0.026265,0.283490 L0.026283,0.283468 L0.026363,0.283367 L0.026453,0.283258 L0.026537,0.283157 L0.026628,0.283055 L0.026733,0.282947 L0.026824,0.282874 L0.026902,0.282794 L0.027028,0.282691 L0.027196,0.282546 L0.027273,0.282444 L0.027349,0.282343 L0.027483,0.282248 L0.027667,0.282173 L0.027794,0.282114 L0.027949,0.282019 L0.028012,0.281911 L0.028101,0.281730 L0.028176,0.281536 L0.028244,0.281342 L0.028312,0.281126 L0.028353,0.280983 L0.028413,0.280760 L0.028425,0.280631 L0.028459,0.280516 L0.028513,0.280379 L0.028597,0.280235 L0.028701,0.280076 L0.028904,0.279873 L0.029038,0.279756 L0.029214,0.279675 L0.029441,0.279628 L0.029632,0.279603 L0.029917,0.279392 L0.029967,0.279164 L0.029981,0.278920 L0.029965,0.278652 L0.029933,0.278492 L0.029880,0.278165 L0.029860,0.278022 L0.029858,0.277879 L0.029862,0.277766 L0.029901,0.277598 L0.029940,0.277461 L0.030003,0.277305 L0.030083,0.277155 L0.030147,0.277046 L0.030239,0.276914 L0.030403,0.276762 L0.030596,0.276610 L0.030696,0.276519 L0.030865,0.276338 L0.030987,0.276199 L0.031132,0.276029 L0.031237,0.275849 L0.031288,0.275717 L0.031315,0.275556 L0.031342,0.275389 L0.031370,0.275269 L0.031450,0.275113 L0.031578,0.274932 L0.031805,0.274666 L0.031951,0.274550 L0.032132,0.274387 L0.032260,0.274259 L0.032348,0.274169 L0.032459,0.274066 L0.032623,0.273950 L0.032746,0.273858 L0.032905,0.273749 L0.033017,0.273681 L0.033204,0.273541 L0.033392,0.273371 L0.033612,0.273106 L0.033687,0.272967 L0.033780,0.272811 L0.033869,0.272565 L0.033929,0.272421 L0.034031,0.272324 L0.034206,0.272236 L0.034332,0.272115 L0.034430,0.272022 L0.034514,0.271897 L0.034615,0.271710 L0.034692,0.271499 L0.034764,0.271226 L0.034829,0.270848 L0.034820,0.270605 L0.034825,0.270329 L0.034848,0.269957 L0.034847,0.269618 L0.034834,0.269390 L0.034869,0.269170 L0.034885,0.269046 L0.034916,0.268883 L0.034947,0.268716 L0.034991,0.268534 L0.035060,0.268399 L0.035134,0.268274 L0.035208,0.268163 L0.035272,0.268000 L0.035273,0.267776 L0.035204,0.267582 L0.035144,0.267406 L0.035094,0.267279 L0.035049,0.267132 L0.034918,0.266891 L0.034836,0.266758 L0.034746,0.266659 L0.034655,0.266571 L0.034569,0.266381 L0.034494,0.266168 L0.034396,0.265973 L0.034251,0.265761 L0.034142,0.265650 L0.033986,0.265527 L0.033818,0.265422 L0.033687,0.265353 L0.033549,0.265248 L0.033591,0.265132 L0.033624,0.265102 L0.033628,0.265098 L0.033633,0.265094 L0.033684,0.265059 L0.033787,0.264992 L0.033835,0.264942 L0.033840,0.264937 L0.033913,0.264882 L0.033914,0.264881 L0.033947,0.264841 L0.033977,0.264801 L0.033980,0.264793 L0.033990,0.264763 L0.033993,0.264728 L0.033988,0.264688 L0.033970,0.264651 L0.033941,0.264611 L0.033902,0.264569 L0.033904,0.264565 L0.033925,0.264526 L0.033939,0.264505 L0.033950,0.264488 L0.033967,0.264470 L0.033985,0.264449 L0.034003,0.264424 L0.034019,0.264385 L0.034017,0.264361 L0.034013,0.264360 L0.033977,0.264346 L0.033965,0.264332 L0.033957,0.264323 L0.033836,0.264186 L0.033818,0.264159 L0.033800,0.264131 L0.033822,0.264082 L0.033835,0.264049 L0.033835,0.264017 L0.033827,0.263979 L0.033793,0.263949 L0.033751,0.263920 L0.033708,0.263908 L0.033652,0.263899 L0.033619,0.263893 L0.033687,0.263822 L0.033950,0.263612 L0.034354,0.263297 L0.034532,0.263155 L0.034596,0.263075 L0.034602,0.263050 L0.034617,0.263029 L0.034647,0.262998 L0.034701,0.262967 L0.034840,0.262910 L0.034940,0.262859 L0.035014,0.262806 L0.035021,0.262800 L0.035041,0.262782 L0.035086,0.262752 L0.035120,0.262732 L0.035156,0.262712 L0.035194,0.262692 L0.035219,0.262680 L0.035252,0.262667 L0.035278,0.262649 L0.035294,0.262636 L0.035325,0.262615 L0.035356,0.262593 L0.035384,0.262573 L0.035416,0.262541 L0.035440,0.262512 L0.035457,0.262486 L0.035459,0.262484 L0.035480,0.262463 L0.035488,0.262460 L0.035522,0.262448 L0.035547,0.262423 L0.035577,0.262383 L0.035627,0.262312 L0.035681,0.262238 L0.035813,0.262045 L0.035852,0.261992 L0.035897,0.261948 L0.035996,0.261883 L0.036007,0.261866 L0.036038,0.261837 L0.036070,0.261810 L0.036110,0.261778 L0.036138,0.261754 L0.036152,0.261735 L0.036171,0.261687 L0.036189,0.261651 L0.036216,0.261610 L0.036249,0.261573 L0.036279,0.261549 L0.036336,0.261510 L0.036422,0.261437 L0.036496,0.261398 L0.036530,0.261246 L0.036584,0.261102 L0.036640,0.260966 L0.036665,0.260878 L0.036677,0.260789 L0.036681,0.260695 L0.036674,0.260618 L0.036646,0.260542 L0.036623,0.260480 L0.036654,0.260425 L0.036715,0.260318 L0.036763,0.260211 L0.036762,0.260166 L0.036693,0.260130 L0.036593,0.260093 L0.036470,0.260043 L0.036381,0.259989 L0.036310,0.259914 L0.036262,0.259846 L0.036175,0.259763 L0.036072,0.259662 L0.036002,0.259536 L0.035970,0.259396 L0.035962,0.259248 L0.035974,0.259143 L0.035968,0.258983 L0.035970,0.258935 L0.036062,0.258695 L0.036177,0.258419 L0.036258,0.258186 L0.036323,0.258076 L0.036505,0.257769 L0.036853,0.257222 L0.037196,0.256691 L0.037607,0.256028 L0.037943,0.255385 L0.038283,0.254963 L0.038538,0.255054 L0.038901,0.255149 L0.039152,0.255149 L0.039275,0.255149 L0.039560,0.255174 L0.039882,0.255270 L0.040234,0.255390 L0.040618,0.255634 L0.040788,0.255917 L0.040935,0.256231 L0.041031,0.256465 L0.041077,0.256580 L0.041336,0.257154 L0.041596,0.257525 L0.042245,0.258211 L0.042441,0.258362 L0.042606,0.258489 L0.042640,0.258531 L0.042827,0.258756 L0.043107,0.258931 L0.043322,0.259011 L0.043584,0.259054 L0.043786,0.259093 L0.043883,0.259101 L0.044066,0.259118 L0.044250,0.259121 L0.044399,0.259154 L0.044549,0.259259 L0.044661,0.259387 L0.044694,0.259424 L0.045077,0.259686 L0.045273,0.259740 L0.045441,0.259430 L0.045639,0.259396 L0.045737,0.259412 L0.045796,0.259218 L0.045842,0.259122 L0.045894,0.258978 L0.045936,0.258840 L0.046020,0.258711 L0.046034,0.258499 L0.046037,0.258308 L0.046085,0.258147 L0.046158,0.258032 L0.046271,0.257873 L0.046350,0.257794 L0.046502,0.257693 L0.046576,0.257647 L0.046613,0.257611 L0.046624,0.257516 L0.046675,0.257378 L0.046665,0.257291 L0.046808,0.257146 L0.046927,0.257022 L0.046984,0.256842 L0.047069,0.256752 L0.047177,0.256664 L0.047239,0.256630 L0.047503,0.256581 L0.047401,0.256397 L0.046910,0.255370 L0.047424,0.255148 L0.047603,0.255068 L0.047852,0.254902 L0.048077,0.254694 L0.048321,0.254542 L0.048481,0.254492 L0.048675,0.254417 L0.048783,0.254368 L0.048908,0.254452 L0.049051,0.254464 L0.049169,0.254414 L0.049244,0.254366 L0.049374,0.254410 L0.049497,0.254456 L0.049565,0.254458 L0.049698,0.254429 L0.049819,0.254377 L0.050043,0.254281 L0.050239,0.254126 L0.050291,0.254038 L0.050234,0.253968 L0.050173,0.253882 L0.050149,0.253832 L0.050242,0.253735 L0.050426,0.253554 L0.050560,0.253435 L0.050768,0.253647 L0.051018,0.253440 L0.051224,0.253317 L0.051410,0.253148 L0.051516,0.253070 L0.051906,0.252751 L0.052129,0.252582 L0.052327,0.252357 L0.052397,0.252203 L0.052560,0.251967 L0.052465,0.251720 L0.052448,0.251520 L0.052460,0.251377 L0.052440,0.251263 L0.052418,0.251101 L0.052434,0.250910 L0.052455,0.250710 L0.052437,0.250505 L0.052310,0.250317 L0.052189,0.250190 L0.052108,0.250091 L0.051981,0.249921 L0.051950,0.249727 L0.051996,0.249611 L0.052164,0.249447 L0.052313,0.249306 L0.052567,0.249159 L0.052984,0.249067 L0.053160,0.248806 L0.053306,0.248385 L0.053363,0.248174 L0.053471,0.248072 L0.053692,0.247935 L0.054050,0.247729 L0.054429,0.247390 L0.054465,0.247303 L0.054464,0.247218 L0.054320,0.246839 L0.054488,0.246602 L0.054650,0.246343 L0.054696,0.246246 L0.054730,0.245989 L0.054896,0.245662 L0.055001,0.245446 L0.055152,0.245043 L0.055239,0.244837 L0.055274,0.244688 L0.055584,0.244431 L0.055697,0.244400 L0.055827,0.244203 L0.055769,0.244147 L0.055605,0.243992 L0.055472,0.243713 L0.055445,0.243489 L0.055428,0.243318 L0.055336,0.243214 L0.055207,0.243126 L0.055059,0.243038 L0.054862,0.242941 L0.054724,0.242862 L0.055267,0.242138 L0.055291,0.242100 L0.054322,0.241505 L0.054559,0.241182 L0.054944,0.240909 L0.055094,0.240792 L0.055014,0.240574 L0.054992,0.240394 L0.055125,0.240282 L0.055142,0.240267 L0.055293,0.240189 L0.055584,0.240012 L0.055746,0.239884 L0.056024,0.239798 L0.056407,0.239644 L0.056552,0.239552 L0.056765,0.239505 L0.057034,0.239430 L0.057629,0.239196 L0.057902,0.239082 L0.058100,0.238965 L0.058151,0.238664 L0.058167,0.238491 L0.058140,0.238418 L0.058108,0.238170 L0.057991,0.238009 L0.057871,0.237951 L0.057549,0.237979 L0.057140,0.238028 L0.056916,0.238069 L0.056652,0.238079 L0.056577,0.238053 L0.056575,0.237999 L0.056654,0.237873 L0.056730,0.237700 L0.056807,0.237558 L0.056886,0.237426 L0.057014,0.237277 L0.057122,0.237110 L0.057243,0.236919 L0.057356,0.236725 L0.057488,0.236507 L0.057582,0.236348 L0.057665,0.236243 L0.057716,0.236166 L0.057775,0.236019 L0.057849,0.235794 L0.057929,0.235634 L0.058024,0.235431 L0.058073,0.235299 L0.058124,0.235179 L0.058179,0.234934 L0.058223,0.234737 L0.058287,0.234525 L0.058341,0.234319 L0.058389,0.234135 L0.058402,0.233959 L0.058413,0.233835 L0.058459,0.233658 L0.058511,0.233531 L0.058572,0.233407 L0.058596,0.233271 L0.058565,0.233119 L0.058520,0.232976 L0.058515,0.232845 L0.058548,0.232714 L0.058587,0.232556 L0.058610,0.232415 L0.058598,0.232290 L0.058537,0.232184 L0.058501,0.232111 L0.058489,0.232040 L0.058506,0.231995 L0.058571,0.231879 L0.058624,0.231794 L0.058666,0.231665 L0.058724,0.231552 L0.058764,0.231292 L0.058803,0.231190 L0.058888,0.231054 L0.058972,0.230929 L0.059039,0.230857 L0.059065,0.230803 L0.059053,0.230644 L0.059041,0.230520 L0.059056,0.230405 L0.059067,0.230309 L0.059050,0.230130 L0.059041,0.229974 L0.059044,0.229920 L0.059093,0.229779 L0.059121,0.229655 L0.059138,0.229532 L0.059138,0.229395 L0.059156,0.229332 L0.059221,0.229181 L0.059269,0.229003 L0.059306,0.228839 L0.059353,0.228605 L0.059394,0.228322 L0.059439,0.228011 L0.059472,0.227780 L0.059465,0.227414 L0.059445,0.226974 L0.059436,0.226698 L0.059482,0.226314 L0.059539,0.226048 L0.059557,0.225915 L0.059583,0.225638 L0.059615,0.225358 L0.059625,0.225129 L0.059641,0.224931 L0.059735,0.224675 L0.059801,0.224521 L0.059811,0.224426 L0.059766,0.224281 L0.059644,0.224071 L0.059582,0.224039 L0.059580,0.223598 L0.059522,0.223195 L0.059391,0.222560 L0.059401,0.222194 L0.059306,0.221873 L0.059229,0.221558 L0.059193,0.221352 L0.059229,0.221257 L0.059281,0.221213 L0.059316,0.221171 L0.059378,0.221060 L0.059400,0.220858 L0.059452,0.220797 L0.059572,0.220744 L0.059723,0.220417 L0.059872,0.219944 L0.060794,0.219890 L0.060847,0.219732 L0.060825,0.218969 L0.061029,0.218906 L0.061181,0.218717 L0.061359,0.218643 L0.061518,0.218592 L0.061706,0.218581 L0.061729,0.218727 L0.062046,0.218703 L0.062153,0.218612 L0.062448,0.218379 L0.062602,0.218408 L0.062717,0.218373 L0.062832,0.218259 L0.062889,0.218095 L0.062916,0.217961 L0.062903,0.217858 L0.062818,0.217765 L0.062800,0.217679 L0.062782,0.217571 L0.062874,0.217490 L0.063060,0.217393 L0.063220,0.217299 L0.063283,0.217223 L0.063275,0.217158 L0.063285,0.217087 L0.063342,0.217014 L0.063432,0.216953 L0.063480,0.216859 L0.063467,0.216759 L0.063497,0.216683 L0.063647,0.216642 L0.063635,0.216512 L0.063632,0.216250 L0.063709,0.216013 L0.063756,0.215874 L0.063911,0.215634 L0.063932,0.215233 L0.063917,0.214169 L0.063848,0.213011 L0.063768,0.211643 L0.063748,0.211315 L0.063745,0.211268 L0.063754,0.211245 L0.063797,0.211182 L0.063845,0.211145 L0.063885,0.211115 L0.063914,0.211055 L0.063939,0.210935 L0.063956,0.210870 L0.064026,0.210806 L0.064090,0.210748 L0.064113,0.210676 L0.064130,0.210617 L0.064162,0.210551 L0.064188,0.210517 L0.064241,0.210496 L0.064303,0.210486 L0.064352,0.210399 L0.064384,0.210321 L0.064417,0.210248 L0.064441,0.210195 L0.064431,0.210138 L0.064490,0.210099 L0.064596,0.210082 L0.064692,0.210086 L0.064736,0.210059 L0.064762,0.210032 L0.064872,0.210039 L0.064934,0.210020 L0.064982,0.210013 L0.065079,0.210030 L0.065175,0.210034 L0.065278,0.210024 L0.065340,0.209969 L0.065401,0.209870 L0.065414,0.209798 L0.065491,0.209764 L0.065589,0.209736 L0.065663,0.209732 L0.065767,0.209730 L0.065853,0.209723 L0.065930,0.209697 L0.065970,0.209683 L0.066122,0.209587 L0.066283,0.209417 L0.066477,0.209206 L0.066602,0.209012 L0.066714,0.208901 L0.066823,0.208858 L0.067064,0.208820 L0.067289,0.208770 L0.067500,0.208682 L0.067597,0.208628 L0.067689,0.208579 L0.067714,0.208560 L0.067714,0.208560 L0.067752,0.208532 L0.067829,0.208450 L0.067927,0.208365 L0.068008,0.208321 L0.068099,0.208284 L0.068202,0.208268 L0.068287,0.208281 L0.068467,0.208395 L0.068635,0.208511 L0.068796,0.208614 L0.068908,0.208676 L0.068963,0.208706 L0.068963,0.208706 L0.068978,0.208715 L0.068977,0.208717 L0.068977,0.208717 L0.068754,0.209021 L0.068707,0.209183 L0.068754,0.209372 Z">
    <title>Ndroqi</title>
  </path>
</svg>