<?xml version="1.0" encoding="UTF-8"?>
<svg xmlns="http://www.w3.org/2000/svg" viewBox="0 0 0.533968 0.445545" width="800" height="800">
  <style>
    .boundary {
      fill: #dddddd;
      stroke: #222222;
      stroke-width: 1;
      vector-effect: non-scaling-stroke;
    }
  </style>
  <path class="boundary" d="M0.226057,0.200846 L0.226016,0.202789 L0.227482,0.203078 L0.228230,0.203031 L0.229974,0.203464 L0.230438,0.203279 L0.231094,0.203284 L0.231779,0.203460 L0.231290,0.204584 L0.231204,0.204877 L0.231197,0.204899 L0.231191,0.204922 L0.231186,0.204944 L0.231181,0.204971 L0.231176,0.204998 L0.231173,0.205024 L0.231170,0.205051 L0.231169,0.205078 L0.231168,0.205105 L0.231169,0.205132 L0.231169,0.205158 L0.231172,0.205184 L0.231175,0.205210 L0.231178,0.205236 L0.231184,0.205262 L0.231189,0.205288 L0.231196,0.205313 L0.231203,0.205339 L0.231211,0.205364 L0.231220,0.205388 L0.231230,0.205413 L0.231242,0.205437 L0.231253,0.205460 L0.231266,0.205484 L0.231278,0.205506 L0.231293,0.205529 L0.231307,0.205550 L0.231323,0.205572 L0.231339,0.205592 L0.231356,0.205613 L0.231374,0.205632 L0.231389,0.205649 L0.231406,0.205661 L0.231423,0.205672 L0.231440,0.205683 L0.231458,0.205693 L0.231476,0.205702 L0.231494,0.205711 L0.231513,0.205720 L0.231531,0.205727 L0.231551,0.205734 L0.231570,0.205740 L0.231590,0.205746 L0.231610,0.205751 L0.231629,0.205755 L0.231649,0.205759 L0.231670,0.205761 L0.231690,0.205763 L0.231710,0.205765 L0.231730,0.205766 L0.231751,0.205766 L0.231771,0.205765 L0.231791,0.205763 L0.231812,0.205761 L0.231832,0.205759 L0.231852,0.205755 L0.231872,0.205751 L0.231891,0.205746 L0.231911,0.205740 L0.231930,0.205734 L0.231950,0.205727 L0.231969,0.205720 L0.231987,0.205711 L0.232005,0.205702 L0.232023,0.205693 L0.232041,0.205683 L0.232058,0.205672 L0.232075,0.205661 L0.232092,0.205649 L0.232473,0.205321 L0.233909,0.205410 L0.234157,0.205730 L0.234090,0.206594 L0.233737,0.206967 L0.233876,0.207588 L0.233755,0.208291 L0.233622,0.209067 L0.232916,0.209378 L0.230033,0.208577 L0.229501,0.208599 L0.229534,0.208974 L0.229423,0.209717 L0.229019,0.210689 L0.228122,0.211460 L0.227395,0.211879 L0.227685,0.212175 L0.227844,0.212360 L0.227850,0.212578 L0.227407,0.212692 L0.226877,0.212528 L0.226400,0.213017 L0.226044,0.213331 L0.225747,0.213609 L0.225822,0.214022 L0.224170,0.215790 L0.223846,0.214033 L0.223733,0.213088 L0.223512,0.212029 L0.223436,0.212074 L0.221590,0.212424 L0.220129,0.212546 L0.218835,0.212462 L0.218895,0.212701 L0.218965,0.212901 L0.218992,0.213057 L0.219100,0.213319 L0.219182,0.213488 L0.219393,0.213799 L0.219429,0.213938 L0.219411,0.214106 L0.219360,0.214416 L0.219354,0.214554 L0.219038,0.214661 L0.218850,0.214779 L0.218696,0.214802 L0.218461,0.214842 L0.218184,0.214924 L0.218049,0.214974 L0.217993,0.215033 L0.217869,0.215246 L0.217735,0.215403 L0.217636,0.215443 L0.217575,0.215420 L0.217513,0.215345 L0.217387,0.215219 L0.217284,0.215159 L0.217163,0.215137 L0.217021,0.215136 L0.216846,0.215108 L0.216749,0.215091 L0.216631,0.215111 L0.216505,0.215188 L0.216421,0.215216 L0.216240,0.215007 L0.216046,0.214691 L0.215940,0.214452 L0.215868,0.214293 L0.215820,0.214105 L0.215840,0.213966 L0.215923,0.213692 L0.215945,0.213513 L0.215900,0.213265 L0.215739,0.212998 L0.215641,0.212841 L0.215457,0.212653 L0.215112,0.212409 L0.214869,0.212254 L0.213804,0.212268 L0.213122,0.212277 L0.212762,0.212403 L0.212448,0.212620 L0.212249,0.212644 L0.212139,0.212826 L0.212128,0.213072 L0.212068,0.213238 L0.211872,0.213474 L0.211610,0.213859 L0.211394,0.214054 L0.211207,0.213904 L0.211120,0.213808 L0.210785,0.213668 L0.210412,0.213453 L0.210171,0.213362 L0.210060,0.213326 L0.210007,0.213396 L0.209931,0.213417 L0.209834,0.213433 L0.209762,0.213449 L0.209638,0.213651 L0.209539,0.213593 L0.209254,0.213411 L0.209119,0.213327 L0.208995,0.213276 L0.208884,0.213283 L0.208736,0.213339 L0.208528,0.213406 L0.208348,0.213469 L0.208093,0.212921 L0.207867,0.212834 L0.207677,0.212809 L0.207441,0.212820 L0.207248,0.212825 L0.207034,0.212820 L0.206833,0.212856 L0.206621,0.212964 L0.206500,0.212988 L0.206409,0.212838 L0.206262,0.212910 L0.205906,0.212958 L0.205582,0.212962 L0.205245,0.213013 L0.205128,0.213037 L0.204953,0.213129 L0.204923,0.212925 L0.204755,0.212870 L0.204529,0.212870 L0.204473,0.212894 L0.204454,0.212954 L0.204381,0.213051 L0.204303,0.213121 L0.204235,0.213009 L0.204193,0.212931 L0.204101,0.212806 L0.204073,0.212704 L0.203969,0.212598 L0.203809,0.212501 L0.203774,0.212522 L0.203718,0.212475 L0.203513,0.212274 L0.203815,0.212035 L0.203762,0.211993 L0.203606,0.211932 L0.203281,0.211895 L0.202988,0.211885 L0.202738,0.211886 L0.202495,0.211911 L0.202303,0.212010 L0.202195,0.212067 L0.202091,0.212142 L0.201978,0.212203 L0.201932,0.212173 L0.201888,0.212087 L0.201911,0.212001 L0.201857,0.211924 L0.201688,0.211978 L0.201649,0.212075 L0.201495,0.212167 L0.201393,0.212138 L0.201273,0.212165 L0.201180,0.212214 L0.201075,0.212121 L0.201024,0.212078 L0.200986,0.212110 L0.200921,0.212128 L0.200851,0.212194 L0.200802,0.212259 L0.200722,0.212347 L0.200638,0.212422 L0.200589,0.212403 L0.200498,0.212524 L0.200055,0.213024 L0.199484,0.213670 L0.199436,0.213746 L0.199639,0.213845 L0.199790,0.213919 L0.199768,0.214013 L0.199592,0.214254 L0.199439,0.214433 L0.199114,0.214609 L0.198927,0.214700 L0.198791,0.214768 L0.198589,0.214803 L0.198524,0.214771 L0.198584,0.214493 L0.198572,0.214302 L0.198509,0.214092 L0.198885,0.213680 L0.199552,0.212958 L0.200183,0.212235 L0.200704,0.211641 L0.200854,0.211505 L0.201624,0.211081 L0.203475,0.210017 L0.204957,0.209173 L0.205446,0.208895 L0.205448,0.208894 L0.206351,0.208395 L0.206850,0.208100 L0.207363,0.207808 L0.207620,0.207663 L0.207921,0.207457 L0.208102,0.207346 L0.208174,0.207313 L0.208218,0.207261 L0.208280,0.207214 L0.208389,0.207164 L0.208485,0.207134 L0.208646,0.207059 L0.208792,0.207010 L0.208893,0.207029 L0.208929,0.207026 L0.208955,0.206996 L0.209013,0.206921 L0.209059,0.206885 L0.209143,0.206842 L0.209209,0.206802 L0.209249,0.206741 L0.209288,0.206709 L0.209431,0.206672 L0.209557,0.206641 L0.209696,0.206601 L0.209782,0.206571 L0.209816,0.206529 L0.209850,0.206481 L0.209868,0.206432 L0.209862,0.206375 L0.209862,0.206339 L0.209868,0.206314 L0.209886,0.206273 L0.209921,0.206210 L0.209956,0.206136 L0.209975,0.206093 L0.210002,0.206052 L0.210036,0.206002 L0.210088,0.205974 L0.210153,0.205956 L0.210235,0.205969 L0.210314,0.205989 L0.210353,0.206019 L0.210380,0.206082 L0.210395,0.206163 L0.210421,0.206219 L0.210462,0.206287 L0.210498,0.206310 L0.210587,0.206326 L0.210782,0.206382 L0.210961,0.206430 L0.211115,0.206455 L0.211273,0.206489 L0.211417,0.206546 L0.211553,0.206572 L0.211705,0.206567 L0.211779,0.206574 L0.211841,0.206671 L0.211937,0.206815 L0.212039,0.206927 L0.212124,0.206989 L0.212188,0.207017 L0.212261,0.207013 L0.212335,0.206972 L0.212404,0.206925 L0.212456,0.206872 L0.212495,0.206788 L0.212528,0.206702 L0.212548,0.206610 L0.212565,0.206529 L0.212578,0.206445 L0.212613,0.206360 L0.212647,0.206304 L0.212707,0.206223 L0.212795,0.206127 L0.212871,0.206031 L0.212928,0.205950 L0.212981,0.205887 L0.213038,0.205858 L0.213100,0.205844 L0.213158,0.205860 L0.213232,0.205902 L0.213277,0.205925 L0.213329,0.205901 L0.213382,0.205850 L0.213467,0.205810 L0.213558,0.205769 L0.213616,0.205697 L0.213675,0.205641 L0.213750,0.205569 L0.213853,0.205483 L0.213915,0.205448 L0.214022,0.205427 L0.214110,0.205398 L0.214171,0.205367 L0.214227,0.205346 L0.214303,0.205356 L0.214373,0.205409 L0.214444,0.205498 L0.214511,0.205582 L0.214610,0.205649 L0.214676,0.205711 L0.214741,0.205767 L0.214827,0.205833 L0.214909,0.205866 L0.214974,0.205873 L0.215040,0.205859 L0.215075,0.205832 L0.215132,0.205784 L0.215229,0.205720 L0.215345,0.205648 L0.215437,0.205590 L0.215515,0.205534 L0.215612,0.205452 L0.215706,0.205399 L0.215817,0.205365 L0.215949,0.205327 L0.216029,0.205287 L0.216256,0.205145 L0.216315,0.205119 L0.216384,0.205114 L0.216478,0.205045 L0.216381,0.204933 L0.216259,0.204767 L0.216166,0.204630 L0.216101,0.204478 L0.215966,0.204307 L0.215757,0.204165 L0.215522,0.204044 L0.215439,0.204009 L0.215478,0.203885 L0.215733,0.203735 L0.216012,0.203588 L0.216077,0.203554 L0.216205,0.203484 L0.216330,0.203412 L0.216438,0.203321 L0.216534,0.203285 L0.216659,0.203335 L0.216751,0.203359 L0.216813,0.203366 L0.216924,0.203318 L0.216973,0.203302 L0.217015,0.203278 L0.217099,0.203191 L0.217199,0.203130 L0.217317,0.203078 L0.217468,0.203038 L0.217736,0.202963 L0.217721,0.202728 L0.217875,0.202705 L0.218056,0.202676 L0.218189,0.202663 L0.218267,0.202629 L0.218326,0.202549 L0.218821,0.202268 L0.218915,0.202167 L0.219222,0.202000 L0.219423,0.201894 L0.219775,0.201787 L0.219857,0.201616 L0.219884,0.201516 L0.219910,0.201331 L0.219963,0.201295 L0.220108,0.201286 L0.220249,0.201265 L0.220361,0.201254 L0.220428,0.201271 L0.220505,0.201396 L0.220612,0.201633 L0.220779,0.201828 L0.220930,0.201987 L0.220995,0.202009 L0.221086,0.202042 L0.221641,0.201977 L0.221903,0.201932 L0.222329,0.201473 L0.224139,0.201015 L0.224864,0.200680 L0.224881,0.200687 L0.226057,0.200846 Z">
    <title>Njësia 1</title>
  </path>
</svg>
