<?xml version="1.0" encoding="UTF-8"?>
<svg xmlns="http://www.w3.org/2000/svg" viewBox="0 0 0.533968 0.445545" width="800" height="800">
  <style>
    .boundary {
      fill: #dddddd;
      stroke: #222222;
      stroke-width: 1;
      vector-effect: non-scaling-stroke;
    }
  </style>
  <path class="boundary" d="M0.221789,0.198763 L0.221936,0.198766 L0.222009,0.198764 L0.222083,0.198759 L0.222157,0.198751 L0.222229,0.198742 L0.222641,0.198597 L0.222671,0.198789 L0.222609,0.199717 L0.224864,0.200680 L0.224139,0.201015 L0.222329,0.201473 L0.221903,0.201932 L0.221641,0.201977 L0.221086,0.202042 L0.220995,0.202009 L0.220930,0.201987 L0.220779,0.201828 L0.220612,0.201633 L0.220505,0.201396 L0.220428,0.201271 L0.220361,0.201254 L0.220249,0.201265 L0.220108,0.201286 L0.219963,0.201295 L0.219910,0.201331 L0.219884,0.201516 L0.219857,0.201616 L0.219775,0.201787 L0.219423,0.201894 L0.219222,0.202000 L0.218915,0.202167 L0.218821,0.202268 L0.218326,0.202549 L0.218267,0.202629 L0.218189,0.202663 L0.218056,0.202676 L0.217875,0.202705 L0.217721,0.202728 L0.217736,0.202963 L0.217468,0.203038 L0.217317,0.203078 L0.217199,0.203130 L0.217099,0.203191 L0.217015,0.203278 L0.216973,0.203302 L0.216924,0.203318 L0.216813,0.203366 L0.216751,0.203359 L0.216659,0.203335 L0.216534,0.203285 L0.216438,0.203321 L0.216330,0.203412 L0.216205,0.203484 L0.216077,0.203554 L0.216012,0.203588 L0.215733,0.203735 L0.215478,0.203885 L0.215439,0.204009 L0.215522,0.204044 L0.215757,0.204165 L0.215966,0.204307 L0.216101,0.204478 L0.216166,0.204630 L0.216259,0.204767 L0.216381,0.204933 L0.216478,0.205045 L0.216384,0.205114 L0.216315,0.205119 L0.216256,0.205145 L0.216029,0.205287 L0.215949,0.205327 L0.215817,0.205365 L0.215706,0.205399 L0.215612,0.205452 L0.215515,0.205534 L0.215437,0.205590 L0.215345,0.205648 L0.215229,0.205720 L0.215132,0.205784 L0.215075,0.205832 L0.215040,0.205859 L0.214974,0.205873 L0.214909,0.205866 L0.214827,0.205833 L0.214741,0.205767 L0.214676,0.205711 L0.214610,0.205649 L0.214511,0.205582 L0.214444,0.205498 L0.214373,0.205409 L0.214303,0.205356 L0.214227,0.205346 L0.214171,0.205367 L0.214110,0.205398 L0.214022,0.205427 L0.213915,0.205448 L0.213853,0.205483 L0.213750,0.205569 L0.213675,0.205641 L0.213616,0.205697 L0.213558,0.205769 L0.213467,0.205810 L0.213382,0.205850 L0.213329,0.205901 L0.213277,0.205925 L0.213232,0.205902 L0.213158,0.205860 L0.213100,0.205844 L0.213038,0.205858 L0.212981,0.205887 L0.212928,0.205950 L0.212871,0.206031 L0.212795,0.206127 L0.212707,0.206223 L0.212647,0.206304 L0.212613,0.206360 L0.212578,0.206445 L0.212565,0.206529 L0.212548,0.206610 L0.212528,0.206702 L0.212495,0.206788 L0.212456,0.206872 L0.212404,0.206925 L0.212335,0.206972 L0.212261,0.207013 L0.212188,0.207017 L0.212124,0.206989 L0.212039,0.206927 L0.211937,0.206815 L0.211841,0.206671 L0.211779,0.206574 L0.211705,0.206567 L0.211553,0.206572 L0.211417,0.206546 L0.211273,0.206489 L0.211115,0.206455 L0.210961,0.206430 L0.210782,0.206382 L0.210587,0.206326 L0.210498,0.206310 L0.210462,0.206287 L0.210421,0.206219 L0.210395,0.206163 L0.210380,0.206082 L0.210353,0.206019 L0.210314,0.205989 L0.210235,0.205969 L0.210153,0.205956 L0.210088,0.205974 L0.210036,0.206002 L0.210002,0.206052 L0.209975,0.206093 L0.209956,0.206136 L0.209921,0.206210 L0.209886,0.206273 L0.209868,0.206314 L0.209862,0.206339 L0.209862,0.206375 L0.209868,0.206432 L0.209850,0.206481 L0.209816,0.206529 L0.209782,0.206571 L0.209696,0.206601 L0.209557,0.206641 L0.209431,0.206672 L0.209288,0.206709 L0.209249,0.206741 L0.209209,0.206802 L0.209143,0.206842 L0.209059,0.206885 L0.209013,0.206921 L0.208955,0.206996 L0.208929,0.207026 L0.208893,0.207029 L0.208792,0.207010 L0.208646,0.207059 L0.208485,0.207134 L0.208389,0.207164 L0.208280,0.207214 L0.208218,0.207261 L0.208174,0.207313 L0.208102,0.207346 L0.207921,0.207457 L0.207620,0.207663 L0.207363,0.207808 L0.206850,0.208100 L0.206351,0.208395 L0.205448,0.208894 L0.205446,0.208895 L0.205404,0.208467 L0.205309,0.207918 L0.205147,0.206841 L0.205081,0.206393 L0.204969,0.206059 L0.204811,0.205759 L0.204274,0.204710 L0.204254,0.204669 L0.204195,0.204549 L0.203815,0.203907 L0.203410,0.203094 L0.203000,0.202279 L0.202622,0.201573 L0.202065,0.200502 L0.201896,0.200182 L0.201565,0.199545 L0.201486,0.199376 L0.201451,0.199323 L0.204232,0.197441 L0.204930,0.196974 L0.205025,0.196921 L0.205139,0.197019 L0.205197,0.197075 L0.205281,0.197187 L0.205400,0.197253 L0.205520,0.197429 L0.206060,0.197899 L0.206133,0.197875 L0.206179,0.197901 L0.206271,0.198064 L0.206447,0.198335 L0.207126,0.199394 L0.207200,0.199517 L0.207300,0.199697 L0.207507,0.199571 L0.209305,0.198548 L0.210531,0.197850 L0.210633,0.197793 L0.210727,0.197954 L0.211784,0.199714 L0.211841,0.199720 L0.212128,0.199379 L0.212189,0.199308 L0.212531,0.198927 L0.212856,0.198540 L0.213542,0.197730 L0.214053,0.197127 L0.214220,0.196936 L0.214378,0.196792 L0.214648,0.196550 L0.214885,0.196346 L0.215274,0.196063 L0.215856,0.195564 L0.216561,0.194961 L0.217443,0.194404 L0.217604,0.194295 L0.217674,0.194209 L0.217866,0.194084 L0.218070,0.193972 L0.218624,0.193713 L0.219450,0.193350 L0.220386,0.193230 L0.220403,0.193230 L0.221320,0.193215 L0.220988,0.193605 L0.220814,0.193862 L0.220894,0.194556 L0.221020,0.195644 L0.222011,0.197110 L0.221396,0.198683 L0.221408,0.198690 L0.221420,0.198697 L0.221432,0.198703 L0.221445,0.198709 L0.221457,0.198715 L0.221469,0.198720 L0.221482,0.198725 L0.221496,0.198729 L0.221568,0.198741 L0.221641,0.198751 L0.221789,0.198763 Z">
    <title>Njësia 3</title>
  </path>
</svg>
