<?xml version="1.0" encoding="UTF-8"?>
<svg xmlns="http://www.w3.org/2000/svg" viewBox="0 0 0.533968 0.445545" width="800" height="800">
  <style>
    .boundary {
      fill: #222222;
      stroke: #222222;
      stroke-width: 0.5;
      vector-effect: non-scaling-stroke;
    }
  </style>
  <path class="boundary" d="M0.148632,0.173972 L0.148573,0.174126 L0.148542,0.174260 L0.148539,0.174379 L0.148527,0.174655 L0.148530,0.174803 L0.148556,0.174913 L0.148571,0.175084 L0.148641,0.175178 L0.148704,0.175277 L0.148782,0.175443 L0.148821,0.175528 L0.148880,0.175613 L0.149124,0.175739 L0.149229,0.175799 L0.149311,0.175865 L0.149422,0.175973 L0.149538,0.176085 L0.149605,0.176161 L0.149725,0.176273 L0.149797,0.176344 L0.150057,0.176722 L0.150147,0.176854 L0.150331,0.177156 L0.150654,0.177714 L0.150959,0.178196 L0.150971,0.178208 L0.151327,0.178013 L0.151638,0.177837 L0.151979,0.177653 L0.152238,0.177516 L0.152537,0.177353 L0.152602,0.177308 L0.152597,0.177292 L0.152733,0.177214 L0.152828,0.177179 L0.152843,0.177169 L0.153030,0.177131 L0.152975,0.176866 L0.152931,0.176399 L0.152734,0.176417 L0.152447,0.176445 L0.152425,0.176397 L0.152375,0.176344 L0.152295,0.176233 L0.152298,0.176229 L0.152129,0.175949 L0.152278,0.175879 L0.152464,0.175514 L0.152635,0.175412 L0.152910,0.175406 L0.153175,0.175363 L0.153372,0.175670 L0.153638,0.175485 L0.153787,0.175354 L0.153946,0.175206 L0.154201,0.175328 L0.154372,0.175409 L0.154480,0.175475 L0.154540,0.175513 L0.154735,0.175513 L0.154914,0.175516 L0.155070,0.175535 L0.155174,0.175548 L0.155302,0.175586 L0.155305,0.175608 L0.155376,0.175592 L0.155384,0.175411 L0.155403,0.175313 L0.155475,0.175027 L0.155483,0.174986 L0.155522,0.175000 L0.155553,0.174979 L0.155620,0.175050 L0.155952,0.174775 L0.156200,0.174808 L0.156413,0.174795 L0.156664,0.174727 L0.156724,0.174709 L0.156912,0.174939 L0.157131,0.175187 L0.157349,0.175445 L0.157560,0.175430 L0.157798,0.175399 L0.157947,0.175371 L0.158033,0.175578 L0.158152,0.175906 L0.158207,0.176100 L0.158206,0.176369 L0.158203,0.176575 L0.158221,0.176912 L0.158237,0.177148 L0.158262,0.177253 L0.158327,0.177471 L0.158437,0.177807 L0.158502,0.178071 L0.158638,0.178052 L0.158759,0.178018 L0.158861,0.177999 L0.158945,0.177988 L0.159008,0.177986 L0.159069,0.178000 L0.159149,0.178023 L0.159238,0.178021 L0.159353,0.177993 L0.159488,0.177937 L0.159546,0.177905 L0.159596,0.177896 L0.159691,0.177881 L0.159824,0.177842 L0.159964,0.177810 L0.160122,0.177774 L0.160157,0.177745 L0.160183,0.177763 L0.160318,0.177728 L0.160545,0.177646 L0.160711,0.177561 L0.160721,0.177569 L0.160885,0.177504 L0.160885,0.177495 L0.161039,0.177433 L0.161046,0.177445 L0.161119,0.177411 L0.161154,0.177400 L0.161252,0.177365 L0.161281,0.177354 L0.161409,0.177312 L0.161517,0.177285 L0.161659,0.177259 L0.161679,0.177256 L0.161842,0.177225 L0.162013,0.177174 L0.162104,0.177144 L0.162213,0.177109 L0.162261,0.177077 L0.162328,0.177067 L0.162440,0.177026 L0.162567,0.176980 L0.162662,0.176973 L0.162843,0.176938 L0.162965,0.176906 L0.163019,0.176874 L0.163069,0.176770 L0.163106,0.176559 L0.163113,0.176307 L0.163111,0.176283 L0.163144,0.176164 L0.163320,0.175750 L0.163351,0.175662 L0.163401,0.175640 L0.163503,0.175335 L0.163649,0.175316 L0.163659,0.175381 L0.163757,0.175446 L0.163947,0.175586 L0.164139,0.175742 L0.164186,0.175812 L0.164463,0.176112 L0.164580,0.176237 L0.164684,0.176387 L0.164732,0.176446 L0.164748,0.176506 L0.164784,0.176671 L0.164803,0.176799 L0.164831,0.176935 L0.164883,0.177107 L0.164912,0.177222 L0.164925,0.177318 L0.164944,0.177432 L0.164949,0.177462 L0.164955,0.177500 L0.164967,0.177570 L0.164968,0.177593 L0.164950,0.177649 L0.164943,0.177671 L0.164989,0.177862 L0.165026,0.177983 L0.165061,0.178037 L0.165111,0.178074 L0.165167,0.178147 L0.165164,0.178367 L0.165162,0.178706 L0.165142,0.178863 L0.165115,0.179006 L0.165107,0.179117 L0.165095,0.179210 L0.165088,0.179345 L0.165064,0.179520 L0.165036,0.179612 L0.164987,0.179692 L0.164935,0.179736 L0.164858,0.179757 L0.164808,0.179776 L0.164799,0.179787 L0.164781,0.179925 L0.164781,0.179970 L0.165029,0.180001 L0.165130,0.180018 L0.165206,0.180021 L0.165299,0.179995 L0.165360,0.179960 L0.165407,0.179924 L0.165512,0.179883 L0.165574,0.179930 L0.165727,0.180051 L0.165794,0.180128 L0.165825,0.180167 L0.165975,0.180298 L0.166010,0.180350 L0.166018,0.180360 L0.165976,0.180396 L0.165918,0.180447 L0.165864,0.180518 L0.165770,0.180676 L0.165734,0.180737 L0.165698,0.180790 L0.165578,0.180969 L0.165550,0.181012 L0.165432,0.181206 L0.165255,0.181333 L0.165065,0.181465 L0.164863,0.181616 L0.164778,0.181676 L0.164728,0.181715 L0.164668,0.181758 L0.164573,0.181804 L0.164250,0.181924 L0.164102,0.181982 L0.163933,0.182035 L0.163741,0.182088 L0.163610,0.182119 L0.163398,0.182157 L0.163377,0.182140 L0.163369,0.182133 L0.163339,0.182110 L0.163331,0.182094 L0.163316,0.182065 L0.163268,0.182029 L0.163246,0.182012 L0.163131,0.182118 L0.162967,0.182259 L0.162811,0.182394 L0.162698,0.182487 L0.162694,0.182489 L0.162822,0.182669 L0.162934,0.182830 L0.162955,0.182866 L0.162960,0.182918 L0.162967,0.182934 L0.163009,0.183010 L0.163021,0.183031 L0.163048,0.183095 L0.163072,0.183117 L0.163244,0.183502 L0.163341,0.183727 L0.163350,0.183745 L0.163409,0.183713 L0.163569,0.183850 L0.163622,0.183909 L0.163810,0.184054 L0.163863,0.184094 L0.164142,0.184311 L0.164288,0.184417 L0.164391,0.184487 L0.164394,0.184493 L0.164411,0.184523 L0.164450,0.184555 L0.164461,0.184541 L0.164473,0.184528 L0.164583,0.184603 L0.164694,0.184686 L0.164820,0.184768 L0.164920,0.184852 L0.164992,0.184921 L0.165046,0.184973 L0.165210,0.185133 L0.164934,0.185426 L0.164780,0.185611 L0.164755,0.185596 L0.164611,0.185762 L0.164302,0.186110 L0.164255,0.186178 L0.164160,0.186276 L0.164139,0.186297 L0.164076,0.186285 L0.163875,0.186218 L0.163859,0.186209 L0.163805,0.186190 L0.163629,0.186391 L0.163432,0.186598 L0.163188,0.186871 L0.163194,0.186878 L0.163021,0.187054 L0.162755,0.187346 L0.162639,0.187464 L0.162560,0.187562 L0.162399,0.187763 L0.162258,0.187903 L0.162122,0.188047 L0.162025,0.188163 L0.162494,0.188362 L0.162899,0.188543 L0.163112,0.188662 L0.163334,0.188815 L0.163571,0.189020 L0.163702,0.189130 L0.163788,0.189186 L0.163891,0.189234 L0.163958,0.189266 L0.164031,0.189282 L0.164101,0.189289 L0.164189,0.189289 L0.164328,0.189306 L0.164501,0.189380 L0.164836,0.189534 L0.164989,0.189625 L0.165097,0.189665 L0.165275,0.189707 L0.165523,0.189724 L0.165660,0.189726 L0.165764,0.189727 L0.165864,0.189739 L0.165966,0.189764 L0.166098,0.189812 L0.166199,0.189860 L0.166293,0.189910 L0.166362,0.189935 L0.166484,0.189936 L0.166599,0.189911 L0.166688,0.189871 L0.166761,0.189819 L0.166802,0.189765 L0.166842,0.189690 L0.166854,0.189624 L0.166850,0.189562 L0.166846,0.189493 L0.166838,0.189413 L0.166882,0.189326 L0.166938,0.189274 L0.167002,0.189217 L0.167079,0.189168 L0.167161,0.189128 L0.167250,0.189115 L0.167351,0.189123 L0.167462,0.189157 L0.167575,0.189212 L0.167749,0.189322 L0.168096,0.189490 L0.168305,0.189580 L0.168561,0.189660 L0.168749,0.189702 L0.168842,0.189754 L0.168955,0.189806 L0.169149,0.189845 L0.169446,0.189883 L0.169770,0.189899 L0.170139,0.189920 L0.170445,0.189940 L0.170683,0.189999 L0.170811,0.190018 L0.170948,0.189990 L0.171240,0.189899 L0.171615,0.189739 L0.171831,0.189664 L0.171932,0.189648 L0.172059,0.189667 L0.172176,0.189716 L0.172382,0.189835 L0.172616,0.189993 L0.173199,0.190289 L0.173654,0.190506 L0.173821,0.190596 L0.173959,0.190698 L0.174109,0.190779 L0.174237,0.190825 L0.174332,0.190839 L0.174445,0.190816 L0.174527,0.190780 L0.174628,0.190739 L0.174701,0.190709 L0.174763,0.190666 L0.174792,0.190633 L0.174837,0.190620 L0.174929,0.190649 L0.175139,0.190822 L0.175365,0.191015 L0.175599,0.191173 L0.175794,0.191292 L0.175946,0.191362 L0.176101,0.191416 L0.176205,0.191459 L0.176262,0.191473 L0.176307,0.191470 L0.176360,0.191439 L0.176386,0.191415 L0.176466,0.191387 L0.176694,0.191351 L0.176860,0.191319 L0.176998,0.191260 L0.177131,0.191202 L0.177371,0.191106 L0.177577,0.191026 L0.178109,0.190831 L0.178478,0.190647 L0.178763,0.190426 L0.178889,0.190312 L0.178998,0.190974 L0.179106,0.191618 L0.179170,0.191830 L0.179212,0.192095 L0.179076,0.192166 L0.179186,0.192670 L0.179300,0.192764 L0.179480,0.192971 L0.179541,0.193176 L0.179595,0.193256 L0.179659,0.193466 L0.179694,0.193645 L0.179690,0.193747 L0.179737,0.193958 L0.179773,0.194194 L0.179793,0.194321 L0.179856,0.194532 L0.179902,0.194692 L0.179924,0.195087 L0.179912,0.195245 L0.179921,0.195288 L0.179972,0.195310 L0.179951,0.195433 L0.179870,0.195523 L0.179858,0.195693 L0.179905,0.196299 L0.179934,0.196564 L0.180070,0.196569 L0.180078,0.196834 L0.180373,0.197384 L0.180776,0.198231 L0.181430,0.199565 L0.182483,0.201700 L0.182802,0.202307 L0.182935,0.202577 L0.183018,0.202736 L0.183087,0.202872 L0.183147,0.202985 L0.183187,0.203054 L0.183269,0.203221 L0.183343,0.203371 L0.183466,0.203661 L0.183578,0.203915 L0.183699,0.204183 L0.183820,0.204477 L0.184025,0.204887 L0.184135,0.205070 L0.184181,0.205176 L0.183719,0.205510 L0.183584,0.205696 L0.183243,0.206469 L0.183188,0.206443 L0.183096,0.206400 L0.182350,0.206049 L0.181839,0.205828 L0.181427,0.205642 L0.181017,0.205460 L0.180622,0.205274 L0.180433,0.205198 L0.180208,0.205096 L0.179925,0.204964 L0.179233,0.204625 L0.178558,0.204299 L0.178309,0.204182 L0.178011,0.204039 L0.177773,0.203926 L0.176074,0.203147 L0.174646,0.202495 L0.174059,0.202248 L0.173637,0.202079 L0.173291,0.201938 L0.172686,0.201642 L0.172045,0.201329 L0.171530,0.201078 L0.170794,0.200730 L0.169842,0.200298 L0.168561,0.199679 L0.166207,0.198534 L0.163495,0.197309 L0.164985,0.193683 L0.163686,0.192929 L0.162271,0.191973 L0.160203,0.190381 L0.158607,0.189162 L0.157472,0.188090 L0.155343,0.186591 L0.146732,0.184142 L0.146578,0.184087 L0.146155,0.183953 L0.145953,0.183899 L0.145913,0.183885 L0.145178,0.183683 L0.145022,0.183629 L0.144523,0.183494 L0.144523,0.183487 L0.144509,0.183427 L0.144505,0.183422 L0.144574,0.183440 L0.144828,0.182518 L0.145235,0.181046 L0.145733,0.179226 L0.145975,0.178321 L0.146098,0.177900 L0.146188,0.177609 L0.146203,0.177596 L0.146224,0.177584 L0.146243,0.177522 L0.146238,0.177516 L0.146234,0.177500 L0.146270,0.177377 L0.146261,0.177375 L0.146332,0.177098 L0.146372,0.176948 L0.146494,0.176484 L0.146508,0.176422 L0.146571,0.176307 L0.146620,0.176251 L0.146639,0.176191 L0.146613,0.176171 L0.146587,0.176133 L0.146585,0.176068 L0.146596,0.176006 L0.146671,0.175727 L0.146685,0.175657 L0.146689,0.175629 L0.146722,0.175490 L0.146740,0.175445 L0.146762,0.175375 L0.146863,0.175006 L0.146874,0.174997 L0.146904,0.174989 L0.146911,0.174944 L0.146964,0.174664 L0.146966,0.174654 L0.146940,0.174645 L0.147037,0.174355 L0.147071,0.174246 L0.147144,0.174044 L0.147183,0.173939 L0.147215,0.173836 L0.147239,0.173795 L0.147270,0.173772 L0.147329,0.173755 L0.147361,0.173755 L0.147392,0.173777 L0.147449,0.173901 L0.147498,0.174005 L0.147503,0.174016 L0.147504,0.174030 L0.147572,0.174075 L0.147606,0.174045 L0.147660,0.174000 L0.147751,0.173910 L0.147742,0.173863 L0.147742,0.173685 L0.147740,0.173448 L0.147869,0.173439 L0.148067,0.173438 L0.148190,0.173443 L0.148279,0.173454 L0.148310,0.173473 L0.148341,0.173506 L0.148410,0.173524 L0.148496,0.173527 L0.148567,0.173536 L0.148774,0.173552 L0.148748,0.173756 L0.148679,0.173877 L0.148632,0.173972 Z">
    <title>Njësia 11</title>
  </path>
</svg>
