<?xml version="1.0" encoding="UTF-8"?>
<svg xmlns="http://www.w3.org/2000/svg" viewBox="0 0 0.533968 0.445545" width="800" height="800">
  <style>
    .boundary {
      fill: #222222;
      stroke: #222222;
      stroke-width: 0.5;
      vector-effect: non-scaling-stroke;
    }
  </style>
  <path class="boundary" d="M0.146285,0.223122 L0.150661,0.221063 L0.151212,0.220815 L0.153768,0.219410 L0.153801,0.218168 L0.154390,0.217906 L0.154764,0.217552 L0.155460,0.216940 L0.157117,0.217949 L0.155677,0.220498 L0.156376,0.221792 L0.161211,0.220913 L0.159316,0.216347 L0.159855,0.215136 L0.166042,0.216437 L0.169829,0.214290 L0.166581,0.206159 L0.166474,0.205021 L0.166790,0.203635 L0.167113,0.203556 L0.167478,0.203705 L0.167813,0.203864 L0.168302,0.204113 L0.168596,0.204260 L0.168701,0.204420 L0.168812,0.204824 L0.168891,0.204953 L0.169139,0.205094 L0.169332,0.205262 L0.169539,0.205470 L0.169681,0.205661 L0.169780,0.205780 L0.169938,0.205911 L0.170078,0.206002 L0.170094,0.206129 L0.170080,0.206270 L0.169911,0.206443 L0.169887,0.206572 L0.170043,0.206689 L0.170227,0.206710 L0.170644,0.206559 L0.170830,0.206660 L0.171093,0.207334 L0.171523,0.207585 L0.171793,0.207968 L0.171962,0.208011 L0.172118,0.208098 L0.172245,0.208210 L0.172339,0.208304 L0.172424,0.208414 L0.172461,0.208509 L0.172438,0.208592 L0.172379,0.208658 L0.172318,0.208696 L0.172231,0.208723 L0.172157,0.208771 L0.172072,0.208794 L0.171982,0.208788 L0.171885,0.208817 L0.171831,0.208879 L0.171787,0.208987 L0.171741,0.209135 L0.171718,0.209250 L0.171701,0.209354 L0.171660,0.209519 L0.171636,0.209639 L0.171586,0.209787 L0.171548,0.209921 L0.171473,0.210093 L0.171379,0.210314 L0.171330,0.210442 L0.171263,0.210604 L0.171208,0.210755 L0.171147,0.210941 L0.171122,0.211036 L0.171136,0.211110 L0.171124,0.211261 L0.171110,0.211403 L0.171111,0.211549 L0.171106,0.211713 L0.171106,0.211876 L0.171105,0.212022 L0.171129,0.212142 L0.171165,0.212260 L0.171219,0.212413 L0.171240,0.212542 L0.171236,0.212676 L0.171245,0.212806 L0.171266,0.212905 L0.171242,0.213028 L0.171181,0.213189 L0.171113,0.213342 L0.171111,0.213420 L0.171168,0.213475 L0.171295,0.213591 L0.171414,0.213723 L0.171530,0.213846 L0.171669,0.213951 L0.171762,0.214033 L0.171804,0.214128 L0.171856,0.214207 L0.171877,0.214309 L0.171850,0.214396 L0.171763,0.214526 L0.171699,0.214609 L0.171616,0.214703 L0.171541,0.214789 L0.171479,0.214869 L0.171446,0.214966 L0.171446,0.215047 L0.171490,0.215142 L0.171557,0.215206 L0.171659,0.215251 L0.171775,0.215235 L0.171907,0.215254 L0.172097,0.215281 L0.172285,0.215291 L0.172385,0.215259 L0.172466,0.215244 L0.172574,0.215273 L0.172675,0.215369 L0.172697,0.215491 L0.172701,0.215777 L0.172692,0.216003 L0.172746,0.216167 L0.172999,0.216308 L0.173287,0.216607 L0.173443,0.217010 L0.173287,0.217058 L0.172998,0.217163 L0.172514,0.217338 L0.172410,0.217379 L0.172202,0.217471 L0.171898,0.217604 L0.171657,0.217721 L0.171395,0.217830 L0.171023,0.218008 L0.171133,0.218127 L0.171804,0.218868 L0.172539,0.219638 L0.172706,0.219745 L0.172826,0.219800 L0.173062,0.219941 L0.173283,0.220051 L0.174438,0.220704 L0.174420,0.220727 L0.174324,0.220829 L0.174162,0.221000 L0.174025,0.221135 L0.173917,0.221316 L0.173703,0.221537 L0.173693,0.221553 L0.173667,0.221569 L0.173587,0.221627 L0.173562,0.221666 L0.173602,0.221718 L0.173551,0.221772 L0.173485,0.221831 L0.173380,0.221851 L0.173229,0.221951 L0.172988,0.222185 L0.172315,0.222828 L0.171287,0.223753 L0.170897,0.224105 L0.170688,0.224279 L0.170513,0.224455 L0.170263,0.224698 L0.170018,0.224902 L0.169954,0.224836 L0.169774,0.224642 L0.169674,0.224536 L0.169529,0.224399 L0.169385,0.224271 L0.169192,0.224124 L0.169198,0.224674 L0.169212,0.224978 L0.169221,0.225195 L0.169237,0.225485 L0.169243,0.225601 L0.169220,0.225678 L0.169196,0.225782 L0.169165,0.225871 L0.169054,0.225963 L0.168938,0.226038 L0.168857,0.226106 L0.169045,0.226174 L0.169185,0.226217 L0.169281,0.226250 L0.169317,0.226276 L0.169323,0.226374 L0.169352,0.226468 L0.169400,0.226601 L0.169261,0.226622 L0.169252,0.226748 L0.169236,0.227036 L0.169235,0.227050 L0.169214,0.227696 L0.169579,0.228115 L0.168902,0.228087 L0.168699,0.228142 L0.168786,0.228858 L0.168610,0.228925 L0.168304,0.228833 L0.168042,0.228748 L0.167953,0.228743 L0.167890,0.228769 L0.167724,0.228728 L0.167649,0.228704 L0.167604,0.228669 L0.167531,0.228628 L0.167499,0.228601 L0.167379,0.228552 L0.167320,0.228534 L0.167236,0.228494 L0.167188,0.228455 L0.167146,0.228440 L0.167079,0.228429 L0.167026,0.228422 L0.166977,0.228416 L0.166977,0.228416 L0.166975,0.228416 L0.166974,0.228417 L0.166973,0.228417 L0.166971,0.228418 L0.166964,0.228419 L0.166964,0.228419 L0.166962,0.228419 L0.166962,0.228420 L0.166956,0.228421 L0.166955,0.228421 L0.166942,0.228425 L0.166929,0.228427 L0.166929,0.228428 L0.166927,0.228428 L0.166894,0.228434 L0.166890,0.228434 L0.166889,0.228434 L0.166887,0.228434 L0.166887,0.228435 L0.166886,0.228436 L0.166881,0.228441 L0.166878,0.228442 L0.166775,0.228466 L0.166630,0.228532 L0.166480,0.228649 L0.166327,0.228568 L0.166157,0.228679 L0.165966,0.228843 L0.165517,0.228783 L0.165161,0.228680 L0.164950,0.228524 L0.164842,0.228617 L0.164751,0.228708 L0.164536,0.228925 L0.164301,0.229291 L0.164273,0.229610 L0.164656,0.229745 L0.164880,0.229875 L0.165015,0.230045 L0.165004,0.230173 L0.164982,0.230370 L0.164762,0.230520 L0.164472,0.230690 L0.164042,0.231275 L0.164853,0.232117 L0.166155,0.233024 L0.166699,0.233530 L0.167128,0.233672 L0.167394,0.233916 L0.167350,0.234345 L0.167288,0.234609 L0.166883,0.234928 L0.166608,0.235212 L0.166465,0.235576 L0.166519,0.235954 L0.166228,0.236222 L0.165934,0.236325 L0.165590,0.236362 L0.165230,0.236417 L0.164919,0.236438 L0.164444,0.236494 L0.163906,0.236781 L0.163483,0.236985 L0.163138,0.236940 L0.162618,0.237385 L0.162440,0.237653 L0.161433,0.237675 L0.161102,0.237533 L0.160802,0.237643 L0.160473,0.237601 L0.159648,0.236917 L0.159298,0.236913 L0.158955,0.236756 L0.158147,0.236382 L0.157865,0.236018 L0.157760,0.235754 L0.157353,0.235557 L0.157119,0.235041 L0.156731,0.234163 L0.156350,0.233830 L0.156214,0.233495 L0.155995,0.233232 L0.155625,0.232895 L0.155116,0.232611 L0.155287,0.233116 L0.155445,0.233620 L0.155462,0.233911 L0.155379,0.234293 L0.155485,0.234659 L0.155540,0.234949 L0.155443,0.235217 L0.155295,0.235485 L0.155300,0.235814 L0.155554,0.235975 L0.155896,0.236034 L0.156027,0.236323 L0.155940,0.236489 L0.155267,0.237056 L0.154581,0.237598 L0.154142,0.237794 L0.153375,0.238021 L0.152832,0.237965 L0.152432,0.238237 L0.151790,0.238335 L0.151071,0.238396 L0.150464,0.238240 L0.149690,0.237960 L0.149004,0.236591 L0.147801,0.234889 L0.147566,0.234244 L0.147380,0.233483 L0.147583,0.233307 L0.147718,0.233129 L0.147530,0.232498 L0.147687,0.232002 L0.148249,0.230695 L0.145277,0.227608 L0.145994,0.226597 L0.146027,0.225368 L0.146285,0.223122 Z">
    <title>Njësia 6</title>
  </path>
</svg>
