<?xml version="1.0" encoding="UTF-8"?>
<svg xmlns="http://www.w3.org/2000/svg" viewBox="0 0 0.533968 0.445545" width="800" height="800">
  <style>
    .boundary {
      fill: #222222;
      stroke: #222222;
      stroke-width: 0.5;
      vector-effect: non-scaling-stroke;
    }
  </style>
  <path class="boundary" d="M0.193273,0.210279 L0.193487,0.211299 L0.193723,0.212479 L0.193915,0.213339 L0.194091,0.214261 L0.194211,0.214817 L0.194362,0.215569 L0.193860,0.215681 L0.191430,0.216185 L0.189729,0.216538 L0.188949,0.216707 L0.187858,0.216939 L0.187500,0.217024 L0.187425,0.216579 L0.187330,0.216008 L0.187366,0.215887 L0.187338,0.215714 L0.187272,0.215356 L0.187229,0.215098 L0.187248,0.215046 L0.187264,0.215032 L0.187234,0.214835 L0.187228,0.214802 L0.187034,0.214846 L0.186999,0.214572 L0.187100,0.214567 L0.187154,0.214593 L0.187139,0.214521 L0.187136,0.214471 L0.187132,0.214428 L0.187132,0.214378 L0.187125,0.214306 L0.187132,0.214270 L0.187132,0.214201 L0.187161,0.214124 L0.187154,0.214065 L0.187111,0.214072 L0.187033,0.214079 L0.186991,0.214085 L0.186961,0.214089 L0.186952,0.214052 L0.186943,0.214004 L0.186928,0.213964 L0.186828,0.213918 L0.186774,0.213929 L0.186679,0.213942 L0.186648,0.213944 L0.186565,0.213967 L0.186548,0.213906 L0.186533,0.213823 L0.186508,0.213763 L0.186484,0.213679 L0.186487,0.213652 L0.186488,0.213647 L0.186443,0.213561 L0.186422,0.213572 L0.186408,0.213568 L0.186399,0.213543 L0.186449,0.213495 L0.186455,0.213473 L0.186434,0.213441 L0.186397,0.213392 L0.186339,0.213335 L0.186321,0.213313 L0.186294,0.213314 L0.186243,0.213330 L0.186204,0.213331 L0.186140,0.213323 L0.186107,0.213320 L0.186045,0.213345 L0.185948,0.213396 L0.185904,0.213406 L0.185886,0.213406 L0.185835,0.213411 L0.185802,0.213332 L0.185742,0.213214 L0.185682,0.213182 L0.185637,0.213184 L0.185542,0.213208 L0.185509,0.213207 L0.185449,0.213184 L0.185342,0.213161 L0.185254,0.213183 L0.185153,0.213198 L0.185134,0.213198 L0.185118,0.213199 L0.185093,0.213198 L0.185081,0.213195 L0.185067,0.213193 L0.185040,0.213201 L0.185032,0.213181 L0.184948,0.213202 L0.184924,0.213211 L0.184904,0.213201 L0.184855,0.213046 L0.184827,0.212988 L0.184788,0.213024 L0.184756,0.213022 L0.184738,0.212982 L0.184732,0.212968 L0.184670,0.212992 L0.184659,0.213005 L0.184634,0.213020 L0.184602,0.213034 L0.184577,0.212925 L0.184387,0.212980 L0.184295,0.212720 L0.184600,0.212597 L0.184686,0.212563 L0.184752,0.212532 L0.184871,0.212482 L0.185332,0.212278 L0.185518,0.212191 L0.186140,0.211952 L0.186111,0.211854 L0.186025,0.211561 L0.185868,0.210913 L0.185760,0.210351 L0.185606,0.209612 L0.185325,0.208344 L0.185194,0.207816 L0.185099,0.207344 L0.184209,0.206929 L0.183243,0.206469 L0.183584,0.205696 L0.183719,0.205510 L0.184181,0.205176 L0.184267,0.205373 L0.184438,0.205665 L0.184610,0.205806 L0.184807,0.205895 L0.185815,0.206296 L0.186749,0.206674 L0.187078,0.206824 L0.187603,0.207203 L0.188272,0.207679 L0.189110,0.208285 L0.189688,0.208717 L0.190286,0.209271 L0.190690,0.209692 L0.191013,0.210075 L0.191272,0.210183 L0.191643,0.210366 L0.192195,0.210592 L0.192895,0.210466 L0.193273,0.210279 Z">
    <title>Njësia 10</title>
  </path>
</svg>
