<?xml version="1.0" encoding="UTF-8"?>
<svg xmlns="http://www.w3.org/2000/svg" viewBox="0 0 0.533968 0.445545" width="800" height="800">
  <style>
    .boundary {
      fill: none;
      stroke: #000000;
      stroke-width: 0.5;
      vector-effect: non-scaling-stroke;
    }
  </style>
  <path class="boundary" d="M0.174059,0.202248 L0.174646,0.202495 L0.176074,0.203147 L0.177773,0.203926 L0.178011,0.204039 L0.178309,0.204182 L0.178558,0.204299 L0.179233,0.204625 L0.179925,0.204964 L0.180208,0.205096 L0.180433,0.205198 L0.180622,0.205274 L0.181017,0.205460 L0.181427,0.205642 L0.181839,0.205828 L0.182350,0.206049 L0.183096,0.206400 L0.183188,0.206443 L0.183243,0.206469 L0.184209,0.206929 L0.185099,0.207344 L0.185194,0.207816 L0.185325,0.208344 L0.185606,0.209612 L0.185760,0.210351 L0.185868,0.210913 L0.186025,0.211561 L0.186111,0.211854 L0.186140,0.211952 L0.185518,0.212191 L0.185332,0.212278 L0.184871,0.212482 L0.184752,0.212532 L0.184686,0.212563 L0.184600,0.212597 L0.184295,0.212720 L0.184387,0.212980 L0.184577,0.212925 L0.184602,0.213034 L0.184634,0.213020 L0.184659,0.213005 L0.184670,0.212992 L0.184732,0.212968 L0.184738,0.212982 L0.184756,0.213022 L0.184788,0.213024 L0.184827,0.212988 L0.184855,0.213046 L0.184904,0.213201 L0.184924,0.213211 L0.184948,0.213202 L0.185032,0.213181 L0.185040,0.213201 L0.185067,0.213193 L0.185081,0.213195 L0.185093,0.213198 L0.185118,0.213199 L0.185134,0.213198 L0.185153,0.213198 L0.185254,0.213183 L0.185342,0.213161 L0.185449,0.213184 L0.185509,0.213207 L0.185542,0.213208 L0.185637,0.213184 L0.185682,0.213182 L0.185742,0.213214 L0.185802,0.213332 L0.185835,0.213411 L0.185886,0.213406 L0.185904,0.213406 L0.185948,0.213396 L0.186045,0.213345 L0.186107,0.213320 L0.186140,0.213323 L0.186204,0.213331 L0.186243,0.213330 L0.186294,0.213314 L0.186321,0.213313 L0.186339,0.213335 L0.186397,0.213392 L0.186434,0.213441 L0.186455,0.213473 L0.186449,0.213495 L0.186399,0.213543 L0.186408,0.213568 L0.186422,0.213572 L0.186443,0.213561 L0.186488,0.213647 L0.186487,0.213652 L0.186484,0.213679 L0.186508,0.213763 L0.186533,0.213823 L0.186548,0.213906 L0.186565,0.213967 L0.186648,0.213944 L0.186679,0.213942 L0.186774,0.213929 L0.186828,0.213918 L0.186928,0.213964 L0.186943,0.214004 L0.186952,0.214052 L0.186961,0.214089 L0.186991,0.214085 L0.187033,0.214079 L0.187111,0.214072 L0.187154,0.214065 L0.187161,0.214124 L0.187132,0.214201 L0.187132,0.214270 L0.187125,0.214306 L0.187132,0.214378 L0.187132,0.214428 L0.187136,0.214471 L0.187139,0.214521 L0.187154,0.214593 L0.187100,0.214567 L0.186999,0.214572 L0.187034,0.214846 L0.187228,0.214802 L0.187234,0.214835 L0.187264,0.215032 L0.187248,0.215046 L0.187229,0.215098 L0.187272,0.215356 L0.187338,0.215714 L0.187366,0.215887 L0.187330,0.216008 L0.187425,0.216579 L0.187500,0.217024 L0.187053,0.217117 L0.186540,0.217223 L0.185549,0.217427 L0.184097,0.217731 L0.183658,0.217808 L0.183244,0.217899 L0.182510,0.218050 L0.181919,0.218175 L0.181247,0.218321 L0.179797,0.218617 L0.179339,0.218721 L0.179086,0.218771 L0.178915,0.218799 L0.178772,0.218832 L0.178566,0.218877 L0.178253,0.218935 L0.178065,0.218974 L0.177833,0.219016 L0.177594,0.219042 L0.177310,0.219053 L0.177007,0.219010 L0.176703,0.218962 L0.176475,0.218909 L0.176249,0.218823 L0.176047,0.218750 L0.175863,0.218677 L0.175610,0.218572 L0.175329,0.218445 L0.175101,0.218345 L0.174733,0.218183 L0.174463,0.218058 L0.174151,0.217817 L0.173967,0.217639 L0.173735,0.217408 L0.173571,0.217220 L0.173443,0.217010 L0.173287,0.216607 L0.172999,0.216308 L0.172746,0.216167 L0.172692,0.216003 L0.172701,0.215777 L0.172697,0.215491 L0.172675,0.215369 L0.172574,0.215273 L0.172466,0.215244 L0.172385,0.215259 L0.172285,0.215291 L0.172097,0.215281 L0.171907,0.215254 L0.171775,0.215235 L0.171659,0.215251 L0.171557,0.215206 L0.171490,0.215142 L0.171446,0.215047 L0.171446,0.214966 L0.171479,0.214869 L0.171541,0.214789 L0.171616,0.214703 L0.171699,0.214609 L0.171763,0.214526 L0.171850,0.214396 L0.171877,0.214309 L0.171856,0.214207 L0.171804,0.214128 L0.171762,0.214033 L0.171669,0.213951 L0.171530,0.213846 L0.171414,0.213723 L0.171295,0.213591 L0.171168,0.213475 L0.171111,0.213420 L0.171113,0.213342 L0.171181,0.213189 L0.171242,0.213028 L0.171266,0.212905 L0.171245,0.212806 L0.171236,0.212676 L0.171240,0.212542 L0.171219,0.212413 L0.171165,0.212260 L0.171129,0.212142 L0.171105,0.212022 L0.171106,0.211876 L0.171106,0.211713 L0.171111,0.211549 L0.171110,0.211403 L0.171124,0.211261 L0.171136,0.211110 L0.171122,0.211036 L0.171147,0.210941 L0.171208,0.210755 L0.171263,0.210604 L0.171330,0.210442 L0.171379,0.210314 L0.171473,0.210093 L0.171548,0.209921 L0.171586,0.209787 L0.171636,0.209639 L0.171660,0.209519 L0.171701,0.209354 L0.171718,0.209250 L0.171741,0.209135 L0.171787,0.208987 L0.171831,0.208879 L0.171885,0.208817 L0.171982,0.208788 L0.172072,0.208794 L0.172157,0.208771 L0.172231,0.208723 L0.172318,0.208696 L0.172379,0.208658 L0.172438,0.208592 L0.172461,0.208509 L0.172424,0.208414 L0.172339,0.208304 L0.172245,0.208210 L0.172118,0.208098 L0.171962,0.208011 L0.171793,0.207968 L0.171523,0.207585 L0.171093,0.207334 L0.170830,0.206660 L0.170644,0.206559 L0.170227,0.206710 L0.170043,0.206689 L0.169887,0.206572 L0.169911,0.206443 L0.170080,0.206270 L0.170094,0.206129 L0.170078,0.206002 L0.169938,0.205911 L0.169780,0.205780 L0.169681,0.205661 L0.169539,0.205470 L0.169332,0.205262 L0.169139,0.205094 L0.168891,0.204953 L0.168812,0.204824 L0.168701,0.204420 L0.168596,0.204260 L0.168302,0.204113 L0.167813,0.203864 L0.167478,0.203705 L0.167113,0.203556 L0.166790,0.203635 L0.165443,0.202970 L0.164389,0.202567 L0.163568,0.202528 L0.162972,0.202346 L0.162594,0.202402 L0.162330,0.202482 L0.162141,0.202510 L0.162002,0.202474 L0.161962,0.202335 L0.161846,0.202159 L0.161766,0.201920 L0.161679,0.201605 L0.161660,0.200603 L0.161278,0.200343 L0.162771,0.196964 L0.163495,0.197309 L0.166207,0.198534 L0.168561,0.199679 L0.169842,0.200298 L0.170794,0.200730 L0.171530,0.201078 L0.172045,0.201329 L0.172686,0.201642 L0.173291,0.201938 L0.173637,0.202079 L0.174059,0.202248 Z">
    <title>Njësia 7</title>
  </path>
</svg>