<?xml version="1.0" encoding="UTF-8"?>
<svg xmlns="http://www.w3.org/2000/svg" viewBox="0 0 0.533968 0.445545" width="800" height="800">
  <style>
    .boundary {
      fill: none;
      stroke: #000000;
      stroke-width: 0.5;
      vector-effect: non-scaling-stroke;
    }
  </style>
  <path class="boundary" d="M0.196773,0.187696 L0.196981,0.188684 L0.197097,0.189534 L0.197092,0.189778 L0.197080,0.190022 L0.197267,0.190069 L0.197498,0.190565 L0.197666,0.191121 L0.197830,0.191757 L0.198064,0.192660 L0.198315,0.193620 L0.198463,0.194159 L0.198834,0.196083 L0.198914,0.196462 L0.199126,0.197324 L0.199334,0.198395 L0.199361,0.198866 L0.199363,0.199135 L0.199386,0.199251 L0.199446,0.199243 L0.199603,0.199207 L0.199862,0.199163 L0.200539,0.199111 L0.200945,0.199123 L0.201203,0.199119 L0.201308,0.199147 L0.201384,0.199225 L0.201451,0.199323 L0.201486,0.199376 L0.201565,0.199545 L0.201896,0.200182 L0.202065,0.200502 L0.202622,0.201573 L0.203000,0.202279 L0.203410,0.203094 L0.203815,0.203907 L0.204195,0.204549 L0.204254,0.204669 L0.204274,0.204710 L0.204030,0.204854 L0.203270,0.205302 L0.202762,0.205602 L0.202327,0.205856 L0.201974,0.206061 L0.201788,0.206170 L0.201217,0.206495 L0.200807,0.206733 L0.200333,0.207010 L0.199729,0.207361 L0.199132,0.207711 L0.198713,0.207903 L0.198156,0.208150 L0.197581,0.208399 L0.196986,0.208652 L0.195813,0.209161 L0.195441,0.209341 L0.195219,0.208743 L0.195158,0.208563 L0.195497,0.208215 L0.195889,0.207734 L0.196213,0.207258 L0.196567,0.206592 L0.196776,0.206175 L0.196727,0.206064 L0.196464,0.205599 L0.195769,0.204303 L0.195210,0.203270 L0.194849,0.202599 L0.194674,0.202283 L0.194525,0.202124 L0.194170,0.201530 L0.193886,0.201123 L0.193733,0.200787 L0.193676,0.200490 L0.193499,0.200197 L0.193152,0.199524 L0.192815,0.198932 L0.192494,0.198372 L0.192171,0.197776 L0.191803,0.196957 L0.191391,0.195936 L0.190998,0.194931 L0.190592,0.193981 L0.190265,0.193040 L0.189779,0.191848 L0.189528,0.191466 L0.189281,0.191382 L0.189050,0.190949 L0.188729,0.190485 L0.188360,0.189818 L0.188487,0.189410 L0.188535,0.189128 L0.188538,0.189025 L0.188549,0.188856 L0.188529,0.188784 L0.188473,0.188701 L0.188392,0.188620 L0.188268,0.188535 L0.187896,0.188164 L0.187895,0.188139 L0.187878,0.187211 L0.187998,0.187218 L0.188340,0.187284 L0.188677,0.187396 L0.188898,0.187470 L0.189008,0.187493 L0.189148,0.187479 L0.189337,0.187444 L0.189535,0.187423 L0.189716,0.187417 L0.189848,0.187434 L0.189972,0.187471 L0.190086,0.187505 L0.190190,0.187503 L0.190309,0.187493 L0.190403,0.187503 L0.190579,0.187549 L0.190774,0.187638 L0.191073,0.187759 L0.191242,0.187799 L0.191367,0.187815 L0.191471,0.187831 L0.191596,0.187865 L0.191770,0.187970 L0.191900,0.188123 L0.192048,0.188276 L0.192311,0.188487 L0.192614,0.188647 L0.192891,0.188744 L0.193144,0.188803 L0.193374,0.188875 L0.193580,0.188926 L0.193698,0.188927 L0.193867,0.188925 L0.194027,0.188896 L0.194163,0.188837 L0.194491,0.188696 L0.194941,0.188436 L0.195442,0.188137 L0.195807,0.187912 L0.196020,0.187811 L0.196182,0.187752 L0.196339,0.187717 L0.196467,0.187709 L0.196573,0.187711 L0.196770,0.187696 L0.196773,0.187696 Z">
    <title>Njësia 8</title>
  </path>
</svg>