<?xml version="1.0" encoding="UTF-8"?>
<svg xmlns="http://www.w3.org/2000/svg" viewBox="0 0 0.533968 0.445545" width="800" height="800">
  <style>
    .boundary {
      fill: #222222;
      stroke: #222222;
      stroke-width: 0.5;
      vector-effect: non-scaling-stroke;
    }
  </style>
  <path class="boundary" d="M0.204957,0.209173 L0.203475,0.210017 L0.201624,0.211081 L0.200854,0.211505 L0.200704,0.211641 L0.200183,0.212235 L0.199552,0.212958 L0.198885,0.213680 L0.198509,0.214092 L0.198572,0.214302 L0.198584,0.214493 L0.198524,0.214771 L0.198589,0.214803 L0.198791,0.214768 L0.198927,0.214700 L0.199114,0.214609 L0.199439,0.214433 L0.199592,0.214254 L0.199768,0.214013 L0.199790,0.213919 L0.199639,0.213845 L0.199436,0.213746 L0.199484,0.213670 L0.200055,0.213024 L0.200498,0.212524 L0.200589,0.212403 L0.200638,0.212422 L0.200722,0.212347 L0.200802,0.212259 L0.200851,0.212194 L0.200921,0.212128 L0.200986,0.212110 L0.201024,0.212078 L0.201075,0.212121 L0.201180,0.212214 L0.201273,0.212165 L0.201393,0.212138 L0.201495,0.212167 L0.201649,0.212075 L0.201688,0.211978 L0.201857,0.211924 L0.201911,0.212001 L0.201888,0.212087 L0.201932,0.212173 L0.201978,0.212203 L0.202091,0.212142 L0.202195,0.212067 L0.202303,0.212010 L0.202495,0.211911 L0.202738,0.211886 L0.202988,0.211885 L0.203281,0.211895 L0.203606,0.211932 L0.203762,0.211993 L0.203815,0.212035 L0.203513,0.212274 L0.203718,0.212475 L0.203774,0.212522 L0.203809,0.212501 L0.203969,0.212598 L0.204073,0.212704 L0.204101,0.212806 L0.204193,0.212931 L0.204235,0.213009 L0.204303,0.213121 L0.204381,0.213051 L0.204454,0.212954 L0.204473,0.212894 L0.204529,0.212870 L0.204755,0.212870 L0.204923,0.212925 L0.204953,0.213129 L0.205128,0.213037 L0.205245,0.213013 L0.205582,0.212962 L0.205906,0.212958 L0.206262,0.212910 L0.206409,0.212838 L0.206500,0.212988 L0.206621,0.212964 L0.206833,0.212856 L0.207034,0.212820 L0.207248,0.212825 L0.207441,0.212820 L0.207677,0.212809 L0.207867,0.212834 L0.208093,0.212921 L0.208348,0.213469 L0.208528,0.213406 L0.208736,0.213339 L0.208884,0.213283 L0.208995,0.213276 L0.209119,0.213327 L0.209254,0.213411 L0.209539,0.213593 L0.209638,0.213651 L0.209762,0.213449 L0.209834,0.213433 L0.209931,0.213417 L0.210007,0.213396 L0.210060,0.213326 L0.210171,0.213362 L0.210412,0.213453 L0.210785,0.213668 L0.211120,0.213808 L0.211207,0.213904 L0.211394,0.214054 L0.211610,0.213859 L0.211872,0.213474 L0.212068,0.213238 L0.212128,0.213072 L0.212139,0.212826 L0.212249,0.212644 L0.212448,0.212620 L0.212762,0.212403 L0.213122,0.212277 L0.213804,0.212268 L0.214869,0.212254 L0.215112,0.212409 L0.215457,0.212653 L0.215641,0.212841 L0.215739,0.212998 L0.215900,0.213265 L0.215945,0.213513 L0.215923,0.213692 L0.215840,0.213966 L0.215820,0.214105 L0.215868,0.214293 L0.215940,0.214452 L0.216046,0.214691 L0.216240,0.215007 L0.216421,0.215216 L0.216505,0.215188 L0.216631,0.215111 L0.216749,0.215091 L0.216846,0.215108 L0.217021,0.215136 L0.217163,0.215137 L0.217284,0.215159 L0.217387,0.215219 L0.217513,0.215345 L0.217575,0.215420 L0.217636,0.215443 L0.217735,0.215403 L0.217869,0.215246 L0.217993,0.215033 L0.218049,0.214974 L0.218184,0.214924 L0.218461,0.214842 L0.218696,0.214802 L0.218850,0.214779 L0.219038,0.214661 L0.219354,0.214554 L0.219360,0.214416 L0.219411,0.214106 L0.219429,0.213938 L0.219393,0.213799 L0.219182,0.213488 L0.219100,0.213319 L0.218992,0.213057 L0.218965,0.212901 L0.218895,0.212701 L0.218835,0.212462 L0.220129,0.212546 L0.221590,0.212424 L0.223436,0.212074 L0.223512,0.212029 L0.223733,0.213088 L0.223846,0.214033 L0.224170,0.215790 L0.224421,0.216253 L0.224270,0.216568 L0.223822,0.217195 L0.223077,0.218033 L0.222644,0.218041 L0.221634,0.218494 L0.220756,0.218718 L0.221610,0.220321 L0.220901,0.221019 L0.220516,0.221172 L0.219897,0.221649 L0.217767,0.222841 L0.218070,0.223472 L0.216269,0.225803 L0.215414,0.228455 L0.215321,0.230117 L0.215372,0.230287 L0.215425,0.230535 L0.215588,0.230883 L0.215663,0.231590 L0.215911,0.232136 L0.215952,0.233399 L0.216212,0.233879 L0.216451,0.234150 L0.216756,0.235172 L0.217036,0.235710 L0.216804,0.235949 L0.216641,0.236117 L0.216586,0.236258 L0.216639,0.236435 L0.216807,0.236631 L0.217026,0.236870 L0.217062,0.237285 L0.217140,0.237473 L0.217264,0.237547 L0.217491,0.237573 L0.217681,0.237627 L0.217786,0.237730 L0.217826,0.237900 L0.217848,0.238109 L0.217832,0.238346 L0.217854,0.238602 L0.217838,0.238830 L0.217682,0.239164 L0.217581,0.239392 L0.217470,0.239546 L0.217330,0.239671 L0.217171,0.239806 L0.217440,0.240125 L0.216983,0.240569 L0.216629,0.240713 L0.216961,0.241841 L0.214856,0.242822 L0.213854,0.243332 L0.213920,0.243788 L0.213265,0.243698 L0.212768,0.243526 L0.212252,0.243354 L0.211817,0.243360 L0.211303,0.243386 L0.210948,0.243490 L0.210525,0.242999 L0.209578,0.241701 L0.209081,0.241469 L0.208230,0.241481 L0.207677,0.241528 L0.207019,0.241635 L0.206754,0.241834 L0.206544,0.241976 L0.206339,0.242094 L0.206178,0.242172 L0.205911,0.242264 L0.205594,0.242402 L0.205348,0.242488 L0.205052,0.242547 L0.204810,0.242558 L0.204599,0.242613 L0.204457,0.242724 L0.204343,0.242750 L0.204159,0.242824 L0.204052,0.243001 L0.204012,0.243103 L0.203925,0.243250 L0.203848,0.243292 L0.203758,0.243338 L0.203557,0.243396 L0.203392,0.243427 L0.203268,0.243446 L0.203087,0.243477 L0.202874,0.243514 L0.202633,0.243614 L0.202446,0.243747 L0.202179,0.243976 L0.201943,0.243844 L0.201762,0.243740 L0.201673,0.243684 L0.201588,0.243628 L0.201488,0.243569 L0.201282,0.243476 L0.201183,0.243428 L0.201171,0.243331 L0.201169,0.243266 L0.201177,0.243192 L0.201229,0.243086 L0.201285,0.242980 L0.201346,0.242844 L0.201360,0.242659 L0.201335,0.242481 L0.201297,0.242328 L0.201058,0.242233 L0.201038,0.242194 L0.200943,0.242123 L0.200378,0.241706 L0.199520,0.241121 L0.199690,0.240568 L0.199360,0.239940 L0.199403,0.239699 L0.199465,0.239365 L0.199378,0.239058 L0.198895,0.238682 L0.199051,0.238032 L0.198696,0.237517 L0.198401,0.237372 L0.198346,0.236764 L0.197661,0.236649 L0.196930,0.236451 L0.195820,0.235985 L0.194198,0.235124 L0.193938,0.235030 L0.192803,0.234617 L0.190774,0.233491 L0.189639,0.232522 L0.189228,0.232143 L0.188768,0.231748 L0.188552,0.231562 L0.188383,0.231416 L0.188191,0.231227 L0.188105,0.231134 L0.187953,0.230867 L0.187910,0.230669 L0.187802,0.230346 L0.187679,0.230123 L0.187531,0.229866 L0.187470,0.229762 L0.188392,0.229150 L0.188852,0.228736 L0.190138,0.227531 L0.190915,0.226850 L0.191951,0.226086 L0.192070,0.226003 L0.192426,0.225710 L0.192817,0.225499 L0.193026,0.225417 L0.193157,0.225061 L0.193273,0.224857 L0.193372,0.224651 L0.193535,0.224367 L0.193648,0.224258 L0.193847,0.224135 L0.194078,0.223923 L0.194203,0.223734 L0.194254,0.223498 L0.194258,0.223276 L0.194144,0.222804 L0.194126,0.222706 L0.194075,0.222377 L0.194087,0.222316 L0.194225,0.222280 L0.194552,0.222222 L0.195102,0.222121 L0.195672,0.222002 L0.195513,0.221175 L0.195393,0.220607 L0.195258,0.219825 L0.195113,0.219094 L0.195041,0.218757 L0.194885,0.218021 L0.194649,0.216812 L0.194513,0.216262 L0.194392,0.215722 L0.194362,0.215569 L0.194211,0.214817 L0.194091,0.214261 L0.193915,0.213339 L0.193723,0.212479 L0.193487,0.211299 L0.193273,0.210279 L0.193569,0.210132 L0.193723,0.210051 L0.194001,0.209832 L0.194180,0.209680 L0.194537,0.209278 L0.194978,0.208773 L0.195079,0.208662 L0.195158,0.208563 L0.195219,0.208743 L0.195441,0.209341 L0.195813,0.209161 L0.196986,0.208652 L0.197581,0.208399 L0.198156,0.208150 L0.198713,0.207903 L0.199132,0.207711 L0.199729,0.207361 L0.200333,0.207010 L0.200807,0.206733 L0.201217,0.206495 L0.201788,0.206170 L0.201974,0.206061 L0.202327,0.205856 L0.202762,0.205602 L0.203270,0.205302 L0.204030,0.204854 L0.204274,0.204710 L0.204811,0.205759 L0.204969,0.206059 L0.205081,0.206393 L0.205147,0.206841 L0.205309,0.207918 L0.205404,0.208467 L0.205446,0.208895 L0.204957,0.209173 Z">
    <title>Njësia 2</title>
  </path>
</svg>
