<?xml version="1.0" encoding="UTF-8"?>
<svg xmlns="http://www.w3.org/2000/svg" viewBox="0 0 0.533968 0.445545" width="800" height="800">
  <style>
    .boundary {
      fill: none;
      stroke: #222222;
      stroke-width: 0.5;
      vector-effect: non-scaling-stroke;
    }
  </style>
  <path class="boundary" d="M0.292195,0.242056 L0.291877,0.245309 L0.291804,0.246105 L0.292437,0.247691 L0.292559,0.247982 L0.293915,0.248900 L0.295264,0.250040 L0.296088,0.250722 L0.296324,0.251438 L0.296661,0.252423 L0.297410,0.253463 L0.297835,0.254468 L0.298085,0.255062 L0.298334,0.255832 L0.298496,0.256109 L0.298996,0.256912 L0.299772,0.257803 L0.299839,0.257918 L0.300223,0.258552 L0.300514,0.259207 L0.300723,0.259410 L0.300729,0.259423 L0.301053,0.259720 L0.301134,0.259801 L0.301809,0.260287 L0.301917,0.260362 L0.302220,0.261347 L0.302274,0.262495 L0.302281,0.262670 L0.302315,0.263508 L0.302699,0.265844 L0.302794,0.266478 L0.302828,0.266721 L0.303192,0.267876 L0.303529,0.269098 L0.304184,0.270205 L0.305270,0.271279 L0.305270,0.271285 L0.306903,0.272967 L0.307449,0.273379 L0.307557,0.273460 L0.307787,0.273845 L0.307928,0.274250 L0.308023,0.274527 L0.308522,0.274830 L0.309022,0.275182 L0.309305,0.275445 L0.309527,0.275661 L0.309663,0.275796 L0.309676,0.275809 L0.309805,0.275897 L0.310479,0.276356 L0.311680,0.277747 L0.310823,0.278355 L0.309548,0.279247 L0.309292,0.279422 L0.308617,0.279868 L0.307908,0.280131 L0.307476,0.280016 L0.307044,0.279827 L0.306775,0.279767 L0.306431,0.279767 L0.306329,0.279773 L0.305432,0.279821 L0.304717,0.279800 L0.304164,0.279983 L0.303678,0.280469 L0.302956,0.281023 L0.302497,0.281448 L0.302113,0.281543 L0.301796,0.281637 L0.301532,0.281738 L0.301242,0.281948 L0.300770,0.282218 L0.300541,0.282353 L0.300068,0.282529 L0.299799,0.282677 L0.299643,0.282839 L0.299447,0.283049 L0.299394,0.283116 L0.299151,0.283379 L0.299009,0.283461 L0.298611,0.283515 L0.298179,0.283656 L0.297977,0.283798 L0.297673,0.284122 L0.297416,0.284379 L0.296782,0.284696 L0.296020,0.284912 L0.294961,0.284973 L0.294286,0.285075 L0.294104,0.285264 L0.293969,0.285561 L0.293874,0.285892 L0.293720,0.286054 L0.293288,0.286331 L0.293159,0.286452 L0.292761,0.286790 L0.292464,0.287195 L0.292275,0.287506 L0.292248,0.287540 L0.291972,0.287695 L0.291716,0.287729 L0.291553,0.287762 L0.291061,0.287810 L0.290832,0.287844 L0.290589,0.287925 L0.290278,0.287985 L0.290008,0.287810 L0.289543,0.287479 L0.289064,0.287351 L0.288693,0.287317 L0.288457,0.287452 L0.288174,0.287992 L0.287937,0.288472 L0.287525,0.289154 L0.287350,0.289458 L0.287249,0.289627 L0.286723,0.290194 L0.286709,0.290201 L0.285893,0.290538 L0.285718,0.290606 L0.284793,0.290991 L0.284429,0.291085 L0.284010,0.291214 L0.283565,0.291315 L0.283518,0.291322 L0.283052,0.291423 L0.282607,0.291889 L0.282222,0.292396 L0.281993,0.293172 L0.281690,0.294044 L0.281190,0.294875 L0.280745,0.295820 L0.280509,0.296057 L0.279935,0.296685 L0.279908,0.296705 L0.279166,0.297387 L0.278444,0.295239 L0.278127,0.294030 L0.277904,0.293564 L0.277182,0.293814 L0.276562,0.293828 L0.276197,0.293828 L0.275583,0.293787 L0.274767,0.293963 L0.273964,0.294145 L0.273883,0.294199 L0.273485,0.294456 L0.273424,0.294503 L0.273404,0.294517 L0.273242,0.294571 L0.272561,0.294794 L0.272541,0.294800 L0.272257,0.294841 L0.271252,0.295104 L0.270219,0.295604 L0.269079,0.295631 L0.268215,0.295685 L0.267717,0.296151 L0.266907,0.296516 L0.265955,0.296489 L0.265503,0.296212 L0.264585,0.295462 L0.263621,0.294132 L0.263216,0.293213 L0.263020,0.292754 L0.262535,0.291768 L0.261556,0.291065 L0.260672,0.289863 L0.260106,0.288830 L0.259876,0.288640 L0.259566,0.288370 L0.258716,0.288026 L0.257501,0.287756 L0.256375,0.287310 L0.255329,0.287087 L0.254593,0.286999 L0.254486,0.286986 L0.253507,0.286891 L0.252846,0.286601 L0.252610,0.286432 L0.252252,0.286182 L0.252064,0.285642 L0.252091,0.284899 L0.252252,0.283974 L0.252157,0.283217 L0.251901,0.282819 L0.251193,0.282562 L0.251207,0.282488 L0.251632,0.281043 L0.251854,0.280280 L0.251733,0.279699 L0.251152,0.279449 L0.250485,0.279638 L0.250282,0.279571 L0.250228,0.279550 L0.249823,0.279186 L0.249668,0.279240 L0.249034,0.278700 L0.248508,0.278497 L0.247468,0.278159 L0.246909,0.277916 L0.246430,0.277430 L0.246288,0.277369 L0.246254,0.277288 L0.246240,0.277255 L0.246207,0.277221 L0.246173,0.277228 L0.245607,0.277234 L0.245222,0.276890 L0.244412,0.276437 L0.243886,0.276586 L0.243198,0.277059 L0.242597,0.277005 L0.241282,0.278038 L0.240695,0.277869 L0.240627,0.277970 L0.240411,0.278288 L0.240128,0.278578 L0.239703,0.279024 L0.239217,0.278727 L0.238502,0.278119 L0.238016,0.277896 L0.237888,0.277842 L0.237733,0.277862 L0.237261,0.277916 L0.236525,0.277997 L0.235803,0.277727 L0.235364,0.277552 L0.235331,0.277538 L0.235324,0.277531 L0.234899,0.277356 L0.234886,0.277396 L0.234832,0.277511 L0.234420,0.278382 L0.233900,0.278605 L0.233873,0.278612 L0.233792,0.278625 L0.233070,0.278794 L0.232996,0.278814 L0.232578,0.278902 L0.232409,0.278916 L0.232261,0.278922 L0.232227,0.278929 L0.232032,0.278895 L0.231910,0.278929 L0.231910,0.278943 L0.231910,0.279003 L0.231910,0.279024 L0.232038,0.279159 L0.232139,0.279274 L0.232227,0.279355 L0.232301,0.279496 L0.232409,0.279692 L0.232423,0.279956 L0.232416,0.279962 L0.231910,0.280631 L0.231654,0.281637 L0.231559,0.281982 L0.231256,0.283332 L0.231370,0.284784 L0.231890,0.285115 L0.232079,0.285318 L0.232247,0.285480 L0.232315,0.285547 L0.232544,0.286189 L0.232841,0.286695 L0.232949,0.287067 L0.233070,0.287513 L0.233138,0.287627 L0.233604,0.288472 L0.233671,0.288593 L0.233921,0.289059 L0.233927,0.289073 L0.234258,0.289215 L0.234319,0.289242 L0.235074,0.289660 L0.235081,0.289660 L0.235291,0.289883 L0.235547,0.290153 L0.236437,0.290653 L0.237496,0.291619 L0.238144,0.292524 L0.238860,0.293402 L0.239480,0.294530 L0.239602,0.294719 L0.240101,0.295415 L0.240202,0.295564 L0.240998,0.296435 L0.241504,0.296773 L0.242665,0.297718 L0.243232,0.298265 L0.243913,0.299049 L0.244129,0.299387 L0.244331,0.299718 L0.244919,0.300157 L0.245485,0.300623 L0.246389,0.301488 L0.247556,0.302589 L0.247880,0.302818 L0.248346,0.303122 L0.249452,0.303906 L0.250565,0.304838 L0.250727,0.304973 L0.251281,0.305379 L0.252111,0.305980 L0.253116,0.306926 L0.253143,0.306946 L0.253763,0.307594 L0.253973,0.308202 L0.254027,0.308588 L0.254061,0.308871 L0.254061,0.308892 L0.254054,0.309216 L0.254040,0.309439 L0.254074,0.309601 L0.254283,0.309790 L0.254432,0.310121 L0.254566,0.310506 L0.254620,0.310729 L0.255275,0.311270 L0.255396,0.311412 L0.255700,0.311783 L0.255720,0.312729 L0.255504,0.313351 L0.255018,0.313810 L0.254836,0.314351 L0.254040,0.314972 L0.253568,0.315128 L0.252960,0.315533 L0.252299,0.315918 L0.251436,0.316080 L0.250808,0.316006 L0.250012,0.315878 L0.249291,0.315972 L0.249128,0.316040 L0.248568,0.316263 L0.247779,0.316188 L0.247138,0.316364 L0.246639,0.316898 L0.245775,0.317296 L0.244723,0.317628 L0.244055,0.317878 L0.243205,0.318114 L0.243015,0.318202 L0.242665,0.318357 L0.242624,0.318384 L0.242402,0.318574 L0.242172,0.318783 L0.241868,0.319175 L0.241531,0.320060 L0.241113,0.321040 L0.240674,0.321553 L0.240627,0.321607 L0.240034,0.322107 L0.239527,0.322330 L0.237632,0.322445 L0.236012,0.322540 L0.235776,0.322553 L0.235115,0.322567 L0.234690,0.322574 L0.234170,0.322486 L0.233738,0.322702 L0.233455,0.322770 L0.233097,0.322743 L0.232942,0.322831 L0.232929,0.322837 L0.232611,0.322939 L0.232605,0.322952 L0.232120,0.323067 L0.230527,0.322972 L0.229218,0.322425 L0.227572,0.321141 L0.226634,0.320364 L0.225838,0.319702 L0.225014,0.318783 L0.225001,0.318763 L0.224380,0.318128 L0.223759,0.317553 L0.222997,0.316445 L0.222734,0.315790 L0.222525,0.315290 L0.221655,0.313553 L0.220690,0.311736 L0.220366,0.311445 L0.219839,0.311249 L0.219529,0.311135 L0.219475,0.311121 L0.218996,0.310999 L0.218025,0.310472 L0.217269,0.310162 L0.216668,0.309898 L0.216162,0.309587 L0.215967,0.309371 L0.215751,0.309142 L0.215724,0.309121 L0.215691,0.309087 L0.215684,0.309067 L0.215373,0.308729 L0.215299,0.308709 L0.214914,0.308601 L0.214503,0.308405 L0.214463,0.308378 L0.214044,0.308243 L0.213956,0.308209 L0.213943,0.308202 L0.213497,0.308034 L0.213302,0.307898 L0.213079,0.307743 L0.213038,0.307716 L0.212647,0.307594 L0.212613,0.307581 L0.211973,0.307270 L0.211966,0.307257 L0.210016,0.306318 L0.208714,0.305541 L0.207405,0.304750 L0.207384,0.304723 L0.207364,0.304676 L0.207324,0.304568 L0.207324,0.304561 L0.207310,0.304541 L0.207108,0.304325 L0.206886,0.304149 L0.206757,0.304048 L0.206622,0.303899 L0.206447,0.303703 L0.206305,0.303440 L0.206265,0.303365 L0.206090,0.303156 L0.206083,0.303143 L0.206008,0.302994 L0.206008,0.302778 L0.206002,0.302764 L0.205981,0.302717 L0.205927,0.302602 L0.205799,0.302454 L0.205556,0.302406 L0.205347,0.302406 L0.205179,0.302318 L0.205151,0.302170 L0.205212,0.302068 L0.205239,0.302021 L0.205394,0.301846 L0.205516,0.301528 L0.205516,0.301521 L0.205543,0.301339 L0.205543,0.301292 L0.205482,0.301238 L0.205455,0.301211 L0.205158,0.300927 L0.205050,0.300819 L0.205016,0.300785 L0.204922,0.300650 L0.204895,0.300616 L0.204875,0.300562 L0.204753,0.300278 L0.204740,0.300258 L0.204537,0.300022 L0.204274,0.299927 L0.204240,0.299914 L0.204234,0.299914 L0.204045,0.299833 L0.203815,0.299468 L0.203775,0.299441 L0.203634,0.299360 L0.203600,0.299346 L0.203336,0.299089 L0.203215,0.298900 L0.203263,0.298630 L0.203269,0.298529 L0.203296,0.298488 L0.203329,0.298427 L0.203397,0.298319 L0.203438,0.298252 L0.203410,0.298130 L0.203397,0.298069 L0.203363,0.297921 L0.203336,0.297826 L0.203316,0.297786 L0.203222,0.297637 L0.203195,0.297590 L0.203046,0.297387 L0.202972,0.297340 L0.202938,0.297320 L0.202790,0.297225 L0.202675,0.297164 L0.202554,0.296995 L0.202426,0.296867 L0.201960,0.296610 L0.201724,0.296401 L0.201447,0.296165 L0.201400,0.296124 L0.201420,0.296084 L0.201481,0.295955 L0.201515,0.295888 L0.201589,0.295739 L0.201940,0.295023 L0.203181,0.293584 L0.203127,0.292294 L0.202945,0.291173 L0.202790,0.290478 L0.202695,0.290086 L0.201636,0.289471 L0.201137,0.289255 L0.200415,0.288951 L0.199153,0.288438 L0.197838,0.287985 L0.197500,0.287871 L0.196394,0.287479 L0.196266,0.287432 L0.196245,0.287432 L0.195996,0.287269 L0.195490,0.286959 L0.195402,0.286891 L0.195173,0.286749 L0.195119,0.286716 L0.194896,0.286614 L0.194370,0.286378 L0.194248,0.286331 L0.193918,0.286128 L0.193668,0.285986 L0.193445,0.285851 L0.193088,0.285649 L0.193115,0.285615 L0.193128,0.285568 L0.193196,0.285426 L0.193344,0.285108 L0.193513,0.284750 L0.194639,0.283575 L0.195051,0.282177 L0.195274,0.281678 L0.195288,0.281644 L0.195314,0.281590 L0.195625,0.280854 L0.196030,0.279746 L0.196144,0.279449 L0.196421,0.278774 L0.196501,0.278409 L0.196582,0.278065 L0.196704,0.277464 L0.197109,0.277201 L0.197150,0.277180 L0.197723,0.276870 L0.197939,0.276701 L0.198263,0.276559 L0.198425,0.276451 L0.198532,0.276235 L0.198553,0.276201 L0.198553,0.276161 L0.198573,0.276100 L0.198640,0.275972 L0.198755,0.275877 L0.198937,0.275560 L0.198991,0.275465 L0.199113,0.275269 L0.199282,0.275013 L0.199565,0.274520 L0.199787,0.274142 L0.200287,0.273298 L0.199754,0.273028 L0.199443,0.272865 L0.199403,0.272845 L0.199221,0.272710 L0.199194,0.272697 L0.199052,0.272555 L0.199045,0.272163 L0.199045,0.271900 L0.199052,0.271637 L0.198782,0.271643 L0.198627,0.271589 L0.198512,0.271542 L0.198357,0.271414 L0.198256,0.271326 L0.198127,0.271218 L0.197622,0.270853 L0.197446,0.270509 L0.197453,0.270468 L0.197521,0.269922 L0.197656,0.269159 L0.197656,0.269138 L0.197683,0.268477 L0.197379,0.268166 L0.197258,0.268051 L0.196347,0.267883 L0.195625,0.267889 L0.194869,0.267889 L0.194815,0.267889 L0.193310,0.267430 L0.193297,0.267423 L0.193277,0.267417 L0.193149,0.267390 L0.192676,0.267282 L0.192136,0.267153 L0.191812,0.267282 L0.191529,0.267396 L0.191489,0.267403 L0.191057,0.267849 L0.190740,0.268186 L0.190281,0.268193 L0.189903,0.268200 L0.189336,0.267579 L0.189256,0.267464 L0.189215,0.267423 L0.189202,0.267396 L0.188716,0.266742 L0.187974,0.266579 L0.187899,0.266606 L0.187771,0.266660 L0.187353,0.266816 L0.187238,0.266890 L0.186988,0.267052 L0.186658,0.267261 L0.185814,0.268058 L0.185693,0.268173 L0.183595,0.268409 L0.182320,0.267700 L0.181996,0.267518 L0.179762,0.266080 L0.179432,0.265850 L0.177489,0.265567 L0.176342,0.266019 L0.176092,0.266188 L0.176092,0.266195 L0.174608,0.267180 L0.173650,0.267558 L0.173447,0.267639 L0.172827,0.267876 L0.172152,0.267950 L0.170998,0.268072 L0.170937,0.268072 L0.170843,0.268045 L0.169865,0.267687 L0.169615,0.267309 L0.169204,0.266681 L0.169204,0.266417 L0.169197,0.265094 L0.169197,0.264986 L0.169575,0.263933 L0.169696,0.263609 L0.169966,0.262812 L0.170121,0.262373 L0.170498,0.261239 L0.170708,0.260625 L0.170722,0.260564 L0.170688,0.260389 L0.170573,0.259828 L0.170182,0.259140 L0.170100,0.258444 L0.170060,0.258188 L0.169919,0.257337 L0.169851,0.256439 L0.169790,0.255960 L0.169696,0.255704 L0.169729,0.255339 L0.169763,0.255002 L0.169824,0.254644 L0.169939,0.254205 L0.170054,0.253922 L0.170121,0.253638 L0.170127,0.253604 L0.170209,0.253206 L0.170317,0.252983 L0.170371,0.252680 L0.170458,0.252308 L0.170492,0.252187 L0.170498,0.252140 L0.170593,0.251856 L0.170688,0.251741 L0.170897,0.251613 L0.171140,0.251613 L0.171416,0.251728 L0.171666,0.251849 L0.171895,0.251991 L0.172212,0.252113 L0.173083,0.251924 L0.173488,0.251863 L0.173576,0.251836 L0.173603,0.251829 L0.174028,0.251708 L0.174851,0.251728 L0.175188,0.251755 L0.175478,0.251741 L0.175788,0.251525 L0.175957,0.251424 L0.176085,0.251100 L0.176132,0.250985 L0.176389,0.250540 L0.176605,0.250236 L0.176976,0.250229 L0.177097,0.250229 L0.177326,0.250223 L0.177360,0.250175 L0.177752,0.249615 L0.178156,0.249244 L0.178400,0.248940 L0.178764,0.248387 L0.178885,0.247934 L0.178905,0.247853 L0.178898,0.247523 L0.178946,0.247286 L0.178966,0.247151 L0.179013,0.246868 L0.179230,0.246659 L0.179405,0.246456 L0.179594,0.246254 L0.179655,0.245916 L0.179648,0.245484 L0.179628,0.245221 L0.179708,0.244965 L0.179803,0.244782 L0.180026,0.244755 L0.180235,0.244755 L0.180363,0.244614 L0.180437,0.244242 L0.180552,0.243898 L0.180599,0.243730 L0.180775,0.243581 L0.180909,0.243480 L0.180997,0.243325 L0.181112,0.243196 L0.181273,0.243061 L0.181327,0.243028 L0.181368,0.242987 L0.181611,0.242960 L0.181652,0.242974 L0.181840,0.243048 L0.182043,0.243109 L0.182252,0.243109 L0.182259,0.243102 L0.182347,0.243034 L0.182367,0.243014 L0.182501,0.242899 L0.182637,0.242812 L0.182718,0.242791 L0.182745,0.242785 L0.182812,0.242771 L0.182974,0.242751 L0.183102,0.242785 L0.183143,0.242798 L0.183210,0.242839 L0.183277,0.242872 L0.183406,0.242872 L0.183446,0.242839 L0.183507,0.242771 L0.183521,0.242677 L0.183500,0.242589 L0.183473,0.242494 L0.183460,0.242420 L0.183453,0.242393 L0.183460,0.242380 L0.183487,0.242332 L0.183500,0.242319 L0.183521,0.242285 L0.183561,0.242238 L0.184027,0.242589 L0.184074,0.242650 L0.184127,0.242710 L0.184175,0.242771 L0.184188,0.242785 L0.184283,0.242920 L0.184303,0.242953 L0.184405,0.243041 L0.184492,0.243115 L0.184674,0.243163 L0.184816,0.243210 L0.184890,0.243250 L0.185052,0.243331 L0.185201,0.243385 L0.185255,0.243453 L0.185322,0.243514 L0.185328,0.243662 L0.185301,0.243730 L0.185288,0.243784 L0.185275,0.243811 L0.185160,0.243959 L0.185086,0.244121 L0.185066,0.244155 L0.185045,0.244215 L0.185045,0.244236 L0.185038,0.244296 L0.185052,0.244303 L0.185187,0.244350 L0.185207,0.244364 L0.185335,0.244310 L0.185410,0.244283 L0.185545,0.244188 L0.185626,0.244121 L0.185720,0.244040 L0.185828,0.244026 L0.185855,0.244026 L0.185923,0.244060 L0.185983,0.244202 L0.186051,0.244337 L0.186051,0.244357 L0.186058,0.244485 L0.186051,0.244546 L0.186031,0.244634 L0.185950,0.244722 L0.185936,0.244789 L0.185875,0.244971 L0.185875,0.245181 L0.185895,0.245316 L0.186024,0.245410 L0.186158,0.245424 L0.186260,0.245451 L0.186307,0.245451 L0.186381,0.245511 L0.186395,0.245518 L0.186408,0.245552 L0.186456,0.245640 L0.186489,0.245788 L0.186502,0.245788 L0.186583,0.245937 L0.186583,0.245943 L0.186590,0.245943 L0.186732,0.246011 L0.186779,0.246038 L0.187157,0.246301 L0.187278,0.246362 L0.187447,0.246362 L0.187488,0.246355 L0.187616,0.246348 L0.187703,0.246348 L0.187778,0.246348 L0.187825,0.246348 L0.187852,0.246342 L0.187859,0.246342 L0.187967,0.246476 L0.188014,0.246551 L0.188108,0.246753 L0.188095,0.246780 L0.188048,0.246895 L0.188007,0.246962 L0.187866,0.247124 L0.187913,0.247266 L0.188055,0.247570 L0.188135,0.247725 L0.188176,0.247813 L0.188399,0.248252 L0.188601,0.248576 L0.188695,0.248690 L0.188777,0.248778 L0.188992,0.248717 L0.189215,0.248555 L0.189242,0.248555 L0.189377,0.248508 L0.189410,0.248495 L0.189451,0.248481 L0.189613,0.248481 L0.189829,0.248474 L0.189842,0.248474 L0.190011,0.248461 L0.190207,0.248312 L0.190416,0.248252 L0.190517,0.248218 L0.190571,0.248218 L0.190828,0.248204 L0.191131,0.248171 L0.191381,0.248225 L0.191523,0.248326 L0.191536,0.248333 L0.191644,0.248474 L0.191651,0.248623 L0.191651,0.248846 L0.191772,0.249062 L0.191968,0.249305 L0.192163,0.249541 L0.192332,0.249770 L0.192703,0.250081 L0.192986,0.250344 L0.193303,0.250547 L0.193641,0.250776 L0.193904,0.250992 L0.194255,0.251114 L0.194761,0.251255 L0.194956,0.251269 L0.195314,0.251303 L0.195530,0.251343 L0.195807,0.251404 L0.196171,0.251559 L0.196401,0.251809 L0.196637,0.252099 L0.197062,0.252369 L0.197095,0.252389 L0.197494,0.252680 L0.197521,0.252693 L0.197892,0.252983 L0.198276,0.253294 L0.198391,0.253564 L0.198398,0.253800 L0.198411,0.254117 L0.198519,0.254381 L0.199666,0.255407 L0.200017,0.255717 L0.200402,0.256021 L0.200671,0.256149 L0.200773,0.256196 L0.201110,0.256392 L0.201305,0.256628 L0.201447,0.256858 L0.201542,0.257196 L0.201542,0.257574 L0.201474,0.257911 L0.201467,0.258235 L0.202028,0.258566 L0.202729,0.259059 L0.203356,0.259579 L0.203849,0.260017 L0.204274,0.260301 L0.204301,0.260308 L0.204403,0.260375 L0.205212,0.260794 L0.205961,0.261131 L0.206271,0.261232 L0.206494,0.261300 L0.206811,0.261536 L0.207263,0.261914 L0.207891,0.262394 L0.208923,0.261232 L0.209989,0.260341 L0.210482,0.260024 L0.210555,0.259977 L0.211244,0.259200 L0.211473,0.259403 L0.211676,0.259504 L0.211885,0.259484 L0.211925,0.259484 L0.212074,0.259376 L0.212202,0.259342 L0.212330,0.259423 L0.212459,0.259572 L0.212465,0.259842 L0.212559,0.260004 L0.212708,0.259950 L0.212917,0.259828 L0.213187,0.259842 L0.213335,0.259984 L0.213430,0.260254 L0.213416,0.260470 L0.213295,0.260625 L0.213282,0.260719 L0.213403,0.260888 L0.213726,0.261091 L0.214044,0.261280 L0.214354,0.261462 L0.214631,0.261665 L0.214874,0.261752 L0.215042,0.261752 L0.215144,0.261752 L0.215346,0.261779 L0.215501,0.261746 L0.215778,0.261719 L0.215980,0.261692 L0.216216,0.261678 L0.216419,0.261685 L0.216729,0.261793 L0.216979,0.261908 L0.216999,0.261914 L0.217181,0.262049 L0.217356,0.262157 L0.217444,0.262367 L0.217485,0.262508 L0.217505,0.262556 L0.217559,0.262691 L0.217654,0.262765 L0.217768,0.262819 L0.217883,0.262846 L0.218092,0.262853 L0.218180,0.262859 L0.218328,0.262886 L0.218484,0.263035 L0.218659,0.263217 L0.219158,0.263670 L0.219367,0.263487 L0.219563,0.263366 L0.219590,0.263346 L0.219738,0.263265 L0.219779,0.263231 L0.220022,0.263076 L0.220143,0.262981 L0.220224,0.262900 L0.220278,0.262805 L0.220285,0.262778 L0.220298,0.262691 L0.220305,0.262664 L0.220305,0.262657 L0.220298,0.262508 L0.220312,0.262394 L0.220319,0.262340 L0.220312,0.262313 L0.220339,0.262157 L0.220346,0.262124 L0.220359,0.262063 L0.220366,0.262016 L0.220407,0.261887 L0.220474,0.261651 L0.220541,0.261442 L0.220602,0.261259 L0.220642,0.261037 L0.220669,0.260800 L0.220669,0.260773 L0.220723,0.260571 L0.220791,0.260348 L0.220798,0.260348 L0.221155,0.260294 L0.221425,0.260294 L0.221574,0.260402 L0.221675,0.260578 L0.221614,0.260794 L0.221398,0.260929 L0.221264,0.261064 L0.221203,0.261347 L0.221108,0.261469 L0.220953,0.261611 L0.220865,0.261921 L0.220980,0.262292 L0.220919,0.262454 L0.220892,0.262785 L0.221013,0.263143 L0.220980,0.263285 L0.220959,0.263352 L0.220703,0.263609 L0.220737,0.263784 L0.220926,0.263973 L0.220939,0.263994 L0.221115,0.264176 L0.221270,0.264460 L0.221439,0.264790 L0.221607,0.265054 L0.221857,0.265270 L0.221884,0.265297 L0.222133,0.265317 L0.222282,0.265202 L0.222377,0.265060 L0.222329,0.264790 L0.222356,0.264493 L0.222525,0.264311 L0.222721,0.264304 L0.222917,0.264365 L0.223017,0.264460 L0.223112,0.264608 L0.223125,0.264878 L0.223152,0.265087 L0.223281,0.265222 L0.223469,0.265195 L0.223598,0.265047 L0.223753,0.264871 L0.223895,0.264757 L0.224050,0.264750 L0.224057,0.264757 L0.224225,0.264797 L0.224353,0.264750 L0.224428,0.264642 L0.224535,0.264446 L0.224643,0.264216 L0.224684,0.263899 L0.224799,0.263494 L0.225109,0.263292 L0.225473,0.263069 L0.225710,0.262927 L0.225790,0.262772 L0.225838,0.262677 L0.225905,0.262387 L0.226027,0.262232 L0.226215,0.262218 L0.226256,0.262218 L0.226681,0.262211 L0.226803,0.262124 L0.226897,0.262063 L0.227045,0.261347 L0.227045,0.261340 L0.227302,0.260483 L0.227538,0.260173 L0.227794,0.260267 L0.227760,0.260416 L0.227760,0.260476 L0.227733,0.260760 L0.227733,0.260996 L0.227733,0.261131 L0.227707,0.261388 L0.227754,0.261712 L0.228092,0.261860 L0.228483,0.261739 L0.229069,0.261199 L0.229697,0.260760 L0.230075,0.260348 L0.230392,0.259957 L0.230810,0.260389 L0.231148,0.260645 L0.231458,0.260517 L0.231579,0.260422 L0.231674,0.260341 L0.232146,0.260281 L0.232220,0.260267 L0.232537,0.260456 L0.233260,0.260632 L0.234042,0.260726 L0.234508,0.260935 L0.234980,0.261462 L0.235384,0.262117 L0.235749,0.262650 L0.235803,0.262724 L0.236012,0.263211 L0.236046,0.263622 L0.236046,0.263670 L0.236336,0.264203 L0.236417,0.264277 L0.237085,0.264898 L0.237746,0.264298 L0.238751,0.265121 L0.239210,0.265499 L0.239231,0.265519 L0.239548,0.265357 L0.239561,0.265344 L0.239858,0.265047 L0.239878,0.265027 L0.239898,0.265000 L0.239946,0.264973 L0.240188,0.264831 L0.240432,0.264689 L0.240452,0.264676 L0.241248,0.264304 L0.241855,0.264014 L0.242119,0.263703 L0.242233,0.263575 L0.242273,0.263535 L0.242307,0.263494 L0.242530,0.263285 L0.242665,0.263157 L0.242698,0.263069 L0.242867,0.262738 L0.242942,0.262583 L0.243299,0.262076 L0.243495,0.261860 L0.243764,0.261557 L0.244189,0.261185 L0.244635,0.260780 L0.244797,0.260645 L0.244885,0.260584 L0.245417,0.260348 L0.245438,0.260341 L0.245856,0.260152 L0.246059,0.260058 L0.246625,0.259889 L0.246645,0.259882 L0.246807,0.259822 L0.247151,0.259707 L0.247334,0.259484 L0.247401,0.259389 L0.247334,0.259322 L0.247287,0.259275 L0.247307,0.259261 L0.247226,0.259194 L0.247212,0.259214 L0.247124,0.259119 L0.246645,0.258674 L0.246436,0.258471 L0.246403,0.258444 L0.246247,0.258262 L0.245775,0.257742 L0.245579,0.257452 L0.245438,0.257256 L0.245404,0.257209 L0.245390,0.257175 L0.245256,0.256730 L0.245161,0.256250 L0.245498,0.255710 L0.245424,0.255589 L0.245276,0.255353 L0.244460,0.254387 L0.244028,0.254043 L0.243636,0.253591 L0.243535,0.253267 L0.243427,0.252923 L0.243400,0.252828 L0.243225,0.252713 L0.243225,0.252707 L0.243042,0.252430 L0.242961,0.252214 L0.242954,0.251951 L0.243029,0.251863 L0.243346,0.251694 L0.243569,0.251660 L0.243677,0.251330 L0.243805,0.250884 L0.244041,0.250439 L0.244291,0.250081 L0.244372,0.249777 L0.244243,0.249318 L0.243879,0.248697 L0.243589,0.248272 L0.243697,0.247745 L0.243724,0.247712 L0.243974,0.247448 L0.244062,0.247340 L0.244230,0.247111 L0.244358,0.246942 L0.244520,0.246591 L0.244560,0.246551 L0.244777,0.246328 L0.244797,0.246294 L0.244992,0.246051 L0.245012,0.246038 L0.245039,0.245957 L0.245121,0.245781 L0.245290,0.245430 L0.245492,0.244816 L0.245546,0.244647 L0.245634,0.244411 L0.245647,0.244350 L0.245654,0.244344 L0.245761,0.244215 L0.245890,0.244060 L0.246011,0.243966 L0.246335,0.243723 L0.246416,0.243662 L0.246443,0.243635 L0.247084,0.243217 L0.247138,0.243203 L0.247293,0.243122 L0.247590,0.242980 L0.247839,0.243075 L0.247826,0.243264 L0.247651,0.243561 L0.247441,0.243898 L0.247327,0.244269 L0.247462,0.244553 L0.247961,0.244654 L0.248366,0.244236 L0.249331,0.243945 L0.249493,0.244141 L0.249689,0.244465 L0.250006,0.244789 L0.250471,0.245093 L0.250700,0.245451 L0.250646,0.245916 L0.250519,0.246362 L0.250437,0.246888 L0.250558,0.247010 L0.250829,0.247293 L0.251159,0.247340 L0.251247,0.247347 L0.251321,0.247313 L0.251510,0.247232 L0.251652,0.247178 L0.251840,0.246726 L0.252030,0.246315 L0.252353,0.246315 L0.252987,0.246443 L0.253399,0.246186 L0.253514,0.246105 L0.253750,0.245937 L0.253892,0.245835 L0.254115,0.245667 L0.254459,0.245430 L0.255369,0.245525 L0.255734,0.245633 L0.256422,0.245842 L0.257326,0.246112 L0.257657,0.246092 L0.259357,0.246011 L0.259532,0.245997 L0.260396,0.245410 L0.261921,0.243784 L0.262791,0.243291 L0.263803,0.242717 L0.264559,0.242083 L0.264579,0.242063 L0.264612,0.242029 L0.264957,0.241725 L0.265800,0.240969 L0.266111,0.240578 L0.266401,0.240193 L0.266421,0.240173 L0.266664,0.240011 L0.266806,0.239930 L0.267075,0.239748 L0.267089,0.239781 L0.267433,0.240443 L0.267602,0.241232 L0.268782,0.241914 L0.268965,0.241955 L0.270112,0.242184 L0.270962,0.241988 L0.271440,0.241988 L0.272291,0.242002 L0.272831,0.242879 L0.273296,0.242926 L0.275124,0.243109 L0.276521,0.242845 L0.276595,0.242832 L0.278107,0.242650 L0.278971,0.242366 L0.279611,0.242157 L0.281608,0.241745 L0.281959,0.241671 L0.283241,0.241273 L0.283349,0.241232 L0.284253,0.240902 L0.288167,0.239626 L0.290292,0.239080 L0.292761,0.238459 L0.292694,0.238837 L0.292275,0.241151 L0.292195,0.242056 Z">
    <title>Petrela</title>
  </path>
</svg>
