<?xml version="1.0" encoding="UTF-8"?>
<svg xmlns="http://www.w3.org/2000/svg" viewBox="0 0 0.533968 0.445545" width="800" height="800">
  <style>
    .boundary {
      fill: none;
      stroke: #222222;
      stroke-width: 0.5;
      vector-effect: non-scaling-stroke;
    }
  </style>
  <path class="boundary" d="M0.120807,0.245208 L0.121259,0.245518 L0.121603,0.245511 L0.121630,0.245518 L0.121657,0.245518 L0.121975,0.245545 L0.122285,0.245727 L0.122319,0.245741 L0.122541,0.246018 L0.122602,0.246099 L0.122615,0.246105 L0.122737,0.246476 L0.123000,0.246767 L0.123013,0.246780 L0.123054,0.246821 L0.123122,0.246895 L0.123411,0.247185 L0.123466,0.247246 L0.123580,0.247806 L0.123701,0.248393 L0.123708,0.248481 L0.123782,0.248805 L0.123809,0.248859 L0.123918,0.249068 L0.124194,0.249561 L0.124497,0.250135 L0.124660,0.250425 L0.124727,0.250553 L0.124821,0.250729 L0.124828,0.250742 L0.125065,0.251201 L0.125166,0.251411 L0.125240,0.251546 L0.125354,0.251789 L0.125644,0.252241 L0.125813,0.252518 L0.125820,0.252531 L0.125827,0.252531 L0.125840,0.252545 L0.125996,0.252842 L0.125861,0.253307 L0.125854,0.253361 L0.125665,0.253618 L0.125240,0.254198 L0.125246,0.254468 L0.125246,0.254522 L0.125253,0.254549 L0.125584,0.254819 L0.125591,0.254826 L0.125638,0.254860 L0.125949,0.255110 L0.126110,0.255258 L0.126124,0.255299 L0.126130,0.255319 L0.126124,0.255332 L0.126171,0.255461 L0.126225,0.255501 L0.126279,0.255629 L0.126488,0.255704 L0.126555,0.255731 L0.126852,0.256055 L0.127035,0.256770 L0.127075,0.257121 L0.127216,0.257405 L0.127494,0.257628 L0.127621,0.257911 L0.127743,0.258363 L0.127858,0.258600 L0.127892,0.258667 L0.127851,0.259329 L0.127844,0.259389 L0.127831,0.259599 L0.127729,0.259754 L0.127487,0.260159 L0.127466,0.260287 L0.127460,0.260348 L0.127635,0.260645 L0.127655,0.260672 L0.127682,0.260699 L0.128026,0.260996 L0.128080,0.261442 L0.129187,0.261759 L0.129606,0.261928 L0.129909,0.262049 L0.130414,0.262265 L0.131137,0.262488 L0.131636,0.262677 L0.132655,0.263076 L0.133539,0.263049 L0.134071,0.262981 L0.134342,0.263190 L0.134524,0.263622 L0.134733,0.264068 L0.135111,0.264412 L0.135718,0.264824 L0.135725,0.264973 L0.135765,0.265614 L0.135846,0.266343 L0.135907,0.266883 L0.136116,0.267714 L0.136400,0.268274 L0.136771,0.268652 L0.136898,0.268787 L0.137769,0.269435 L0.138477,0.269753 L0.139051,0.270205 L0.139651,0.270793 L0.140029,0.271164 L0.140589,0.272217 L0.140792,0.272508 L0.140960,0.272771 L0.141116,0.272872 L0.141358,0.273021 L0.141817,0.273115 L0.142330,0.273277 L0.142776,0.273406 L0.143093,0.273622 L0.143301,0.274034 L0.143268,0.274614 L0.143261,0.275161 L0.143295,0.275776 L0.143322,0.276107 L0.143410,0.276721 L0.143545,0.277315 L0.143572,0.278166 L0.143855,0.278430 L0.144462,0.278538 L0.144583,0.279091 L0.144610,0.279206 L0.144705,0.279861 L0.144705,0.279908 L0.145157,0.280151 L0.145582,0.280408 L0.145717,0.280476 L0.145778,0.280611 L0.146068,0.281286 L0.146567,0.281387 L0.147492,0.281657 L0.149259,0.281874 L0.149550,0.281907 L0.151297,0.283528 L0.151506,0.284332 L0.151506,0.284338 L0.152714,0.285568 L0.153807,0.286527 L0.154117,0.287074 L0.154218,0.287269 L0.154657,0.288053 L0.155021,0.288364 L0.155756,0.288998 L0.156762,0.289903 L0.157572,0.290984 L0.157679,0.291126 L0.157733,0.291200 L0.158583,0.292301 L0.158610,0.292342 L0.159535,0.293706 L0.159649,0.293875 L0.160513,0.295354 L0.160587,0.295496 L0.161026,0.296577 L0.161127,0.297995 L0.161229,0.298644 L0.161248,0.298786 L0.161417,0.299880 L0.161410,0.301359 L0.161242,0.302035 L0.161175,0.302291 L0.161161,0.302339 L0.160264,0.303386 L0.159744,0.304250 L0.159373,0.304629 L0.159137,0.304879 L0.158644,0.305453 L0.158536,0.306311 L0.158583,0.307648 L0.158590,0.307878 L0.158604,0.307986 L0.158746,0.309000 L0.158752,0.309162 L0.158807,0.310716 L0.158651,0.311337 L0.158415,0.312283 L0.158064,0.313398 L0.157990,0.313621 L0.157916,0.313742 L0.157579,0.314276 L0.157403,0.314776 L0.157221,0.315263 L0.157274,0.315587 L0.157430,0.316553 L0.157457,0.316749 L0.157531,0.317209 L0.157916,0.319357 L0.157922,0.319398 L0.157754,0.320634 L0.158111,0.321797 L0.158260,0.323081 L0.158199,0.323317 L0.157936,0.324391 L0.157679,0.325385 L0.157120,0.325554 L0.156478,0.326081 L0.155588,0.326669 L0.155453,0.326757 L0.154542,0.326993 L0.153719,0.327101 L0.153227,0.327223 L0.152694,0.328149 L0.152066,0.329021 L0.151782,0.329534 L0.151722,0.329649 L0.151688,0.329703 L0.151722,0.330061 L0.151789,0.330926 L0.151965,0.331818 L0.152140,0.332346 L0.152295,0.332819 L0.152383,0.332961 L0.152808,0.333670 L0.152875,0.333778 L0.153044,0.334062 L0.153786,0.335414 L0.154157,0.336482 L0.154806,0.336995 L0.155150,0.337523 L0.155291,0.337746 L0.155325,0.337854 L0.155568,0.339016 L0.155736,0.339456 L0.155871,0.339800 L0.155905,0.339895 L0.156161,0.340686 L0.156344,0.341186 L0.156647,0.342024 L0.156796,0.342660 L0.156883,0.343004 L0.157679,0.344390 L0.158017,0.345269 L0.158300,0.346006 L0.158327,0.346087 L0.159258,0.348317 L0.159305,0.348906 L0.159319,0.349061 L0.159407,0.350339 L0.159427,0.350474 L0.159461,0.350866 L0.159643,0.352597 L0.159569,0.353077 L0.159332,0.354537 L0.158631,0.356146 L0.158327,0.356727 L0.157977,0.357383 L0.157524,0.357944 L0.157099,0.358749 L0.156073,0.359871 L0.155487,0.360777 L0.154286,0.361791 L0.153227,0.362244 L0.152983,0.362346 L0.152518,0.362542 L0.150588,0.363631 L0.150278,0.363800 L0.149057,0.364503 L0.147640,0.365314 L0.146419,0.366572 L0.146210,0.366782 L0.145724,0.367282 L0.145690,0.367309 L0.145407,0.367749 L0.145090,0.368235 L0.145056,0.369574 L0.145171,0.370954 L0.145225,0.371508 L0.145265,0.371603 L0.145603,0.372245 L0.145838,0.372651 L0.146513,0.373767 L0.146526,0.373808 L0.146540,0.373835 L0.146689,0.374247 L0.147094,0.375376 L0.148186,0.377419 L0.148476,0.378075 L0.148517,0.378109 L0.149003,0.378501 L0.149077,0.378555 L0.149259,0.379049 L0.149347,0.379279 L0.149563,0.379772 L0.149650,0.379996 L0.149691,0.380097 L0.149765,0.380266 L0.149846,0.380469 L0.150002,0.380861 L0.150190,0.381342 L0.150238,0.382627 L0.150224,0.382660 L0.149772,0.384047 L0.149374,0.385028 L0.148854,0.386265 L0.148828,0.386401 L0.148652,0.387544 L0.148315,0.388728 L0.148213,0.388951 L0.147991,0.389458 L0.147761,0.389898 L0.147667,0.390250 L0.147458,0.390777 L0.147356,0.391054 L0.147309,0.391102 L0.146985,0.391528 L0.146378,0.392455 L0.145710,0.393368 L0.145312,0.393740 L0.144914,0.393808 L0.144725,0.393841 L0.144678,0.393841 L0.144475,0.393814 L0.144199,0.393781 L0.143821,0.393699 L0.143585,0.393733 L0.143531,0.393747 L0.143247,0.393902 L0.142897,0.394119 L0.142742,0.394153 L0.142546,0.394701 L0.142209,0.394944 L0.142040,0.395012 L0.141892,0.395411 L0.141581,0.396229 L0.141109,0.396804 L0.140232,0.397278 L0.139523,0.397677 L0.139071,0.397900 L0.138909,0.397982 L0.138902,0.398036 L0.138821,0.398435 L0.138766,0.398542 L0.138698,0.398575 L0.138610,0.398626 L0.138539,0.398680 L0.138471,0.398735 L0.138425,0.398785 L0.138387,0.398818 L0.138332,0.398813 L0.138289,0.398802 L0.138172,0.398811 L0.138128,0.398833 L0.138047,0.398870 L0.137972,0.398896 L0.137885,0.398905 L0.137826,0.398885 L0.137749,0.398823 L0.137600,0.398700 L0.137498,0.398613 L0.137436,0.398555 L0.137297,0.398458 L0.137232,0.398430 L0.137182,0.398414 L0.137146,0.398413 L0.137107,0.398434 L0.137064,0.398467 L0.136998,0.398508 L0.136957,0.398520 L0.136891,0.398538 L0.136826,0.398558 L0.136776,0.398584 L0.136706,0.398612 L0.136640,0.398637 L0.136576,0.398667 L0.136527,0.398673 L0.136442,0.398659 L0.136407,0.398650 L0.136370,0.398649 L0.136304,0.398656 L0.136264,0.398671 L0.136224,0.398701 L0.136162,0.398732 L0.136095,0.398758 L0.135999,0.398792 L0.135894,0.398824 L0.135668,0.398863 L0.135520,0.398863 L0.135470,0.398813 L0.135428,0.398767 L0.135401,0.398726 L0.135393,0.398678 L0.135396,0.398636 L0.135406,0.398598 L0.135426,0.398556 L0.135451,0.398527 L0.135490,0.398494 L0.135516,0.398465 L0.135527,0.398427 L0.135511,0.398391 L0.135489,0.398378 L0.135468,0.398382 L0.135435,0.398386 L0.135388,0.398396 L0.135339,0.398406 L0.135294,0.398413 L0.135254,0.398421 L0.135198,0.398437 L0.135139,0.398444 L0.135037,0.398434 L0.134952,0.398376 L0.134900,0.398392 L0.134847,0.398417 L0.134802,0.398454 L0.134772,0.398487 L0.134743,0.398541 L0.134715,0.398625 L0.134706,0.398658 L0.134677,0.398710 L0.134623,0.398770 L0.134571,0.398824 L0.134502,0.398891 L0.134455,0.398957 L0.134388,0.399038 L0.134358,0.399090 L0.134328,0.399157 L0.134277,0.399242 L0.134203,0.399338 L0.134116,0.399441 L0.134006,0.399575 L0.133953,0.399636 L0.133880,0.399713 L0.133799,0.399774 L0.133742,0.399807 L0.133637,0.399820 L0.133569,0.399821 L0.133498,0.399829 L0.133424,0.399876 L0.133368,0.399959 L0.133305,0.400039 L0.133204,0.400112 L0.133109,0.400156 L0.133017,0.400197 L0.132903,0.400238 L0.132783,0.400279 L0.132670,0.400313 L0.132522,0.400383 L0.132367,0.400460 L0.132204,0.400534 L0.132000,0.400623 L0.131876,0.400678 L0.131721,0.400738 L0.131591,0.400811 L0.131510,0.400845 L0.131422,0.400900 L0.131309,0.400973 L0.131207,0.401056 L0.131078,0.401176 L0.130954,0.401289 L0.130819,0.401434 L0.130696,0.401568 L0.130584,0.401688 L0.130433,0.401840 L0.130282,0.401946 L0.130092,0.402049 L0.129922,0.402130 L0.129841,0.402163 L0.129792,0.402196 L0.129729,0.402247 L0.129677,0.402305 L0.129639,0.402356 L0.129561,0.402453 L0.129492,0.402554 L0.129447,0.402655 L0.129420,0.402752 L0.129379,0.402896 L0.129343,0.403043 L0.129306,0.403176 L0.129279,0.403283 L0.129217,0.403441 L0.129162,0.403599 L0.129123,0.403768 L0.129117,0.403879 L0.129118,0.403943 L0.129074,0.404080 L0.129053,0.404152 L0.129065,0.404219 L0.129087,0.404410 L0.129071,0.404481 L0.129044,0.404549 L0.129011,0.404625 L0.128961,0.404721 L0.128897,0.404839 L0.128857,0.404949 L0.128852,0.405066 L0.128863,0.405199 L0.128901,0.405304 L0.128933,0.405420 L0.128935,0.405527 L0.128915,0.405616 L0.128873,0.405712 L0.128865,0.405783 L0.128840,0.405877 L0.128809,0.405927 L0.128787,0.405963 L0.128727,0.406024 L0.128647,0.406113 L0.128589,0.406181 L0.128528,0.406279 L0.128498,0.406313 L0.128483,0.406366 L0.128481,0.406423 L0.128460,0.406464 L0.128437,0.406490 L0.128417,0.406519 L0.128422,0.406574 L0.128425,0.406600 L0.128408,0.406639 L0.128378,0.406694 L0.128346,0.406744 L0.128293,0.406805 L0.128243,0.406836 L0.128206,0.406880 L0.128205,0.406951 L0.128253,0.407005 L0.128305,0.407059 L0.128309,0.407112 L0.128275,0.407181 L0.128254,0.407213 L0.128221,0.407247 L0.128177,0.407309 L0.128204,0.407373 L0.128242,0.407406 L0.128304,0.407487 L0.128278,0.407559 L0.128230,0.407625 L0.128151,0.407701 L0.128109,0.407743 L0.128093,0.407797 L0.128094,0.407842 L0.128014,0.407873 L0.127929,0.407918 L0.127721,0.407921 L0.127556,0.407971 L0.127447,0.408025 L0.127442,0.408076 L0.127422,0.408162 L0.127406,0.408222 L0.127388,0.408282 L0.127372,0.408336 L0.127364,0.408384 L0.127323,0.408473 L0.127286,0.408599 L0.127201,0.408833 L0.127150,0.408965 L0.127073,0.409162 L0.127001,0.409318 L0.126941,0.409468 L0.126878,0.409630 L0.126794,0.409771 L0.126713,0.409889 L0.126637,0.409961 L0.126535,0.410037 L0.126362,0.410105 L0.126264,0.410128 L0.126122,0.410124 L0.125997,0.410111 L0.125881,0.410056 L0.125810,0.410018 L0.125713,0.409912 L0.125647,0.409821 L0.125623,0.409765 L0.125592,0.409697 L0.125562,0.409634 L0.125501,0.409528 L0.125434,0.409446 L0.125345,0.409387 L0.125220,0.409359 L0.125155,0.409360 L0.125039,0.409335 L0.124971,0.409280 L0.124943,0.409209 L0.124945,0.409155 L0.124959,0.409095 L0.124991,0.409044 L0.125008,0.409008 L0.125036,0.408933 L0.125059,0.408867 L0.125076,0.408781 L0.125075,0.408736 L0.125029,0.408662 L0.124984,0.408588 L0.124962,0.408550 L0.124941,0.408506 L0.124899,0.408435 L0.124847,0.408361 L0.124784,0.408293 L0.124719,0.408259 L0.124663,0.408247 L0.124597,0.408216 L0.124573,0.408180 L0.124542,0.408112 L0.124505,0.408023 L0.124439,0.407929 L0.124362,0.407924 L0.124312,0.407973 L0.124248,0.408066 L0.124176,0.408198 L0.124108,0.408348 L0.123994,0.408463 L0.123908,0.408449 L0.123860,0.408387 L0.123826,0.408334 L0.123742,0.408237 L0.123658,0.408146 L0.123615,0.408081 L0.123555,0.407999 L0.123459,0.407932 L0.123345,0.407850 L0.123256,0.407780 L0.123109,0.407698 L0.122984,0.407629 L0.122919,0.407579 L0.122841,0.407497 L0.122747,0.407418 L0.122682,0.407404 L0.122609,0.407414 L0.122540,0.407415 L0.122489,0.407359 L0.122455,0.407276 L0.122455,0.407246 L0.122442,0.407196 L0.122409,0.407146 L0.122355,0.407099 L0.122249,0.407068 L0.122239,0.407065 L0.122162,0.407039 L0.122090,0.407007 L0.122026,0.406931 L0.122005,0.406881 L0.121847,0.406868 L0.121698,0.406876 L0.121523,0.406942 L0.121371,0.407002 L0.121206,0.407044 L0.120996,0.407030 L0.120762,0.406965 L0.120624,0.406858 L0.120505,0.406658 L0.120386,0.406484 L0.120270,0.406349 L0.120171,0.406312 L0.120076,0.406277 L0.119890,0.406320 L0.119686,0.406386 L0.119540,0.406474 L0.119552,0.406565 L0.119679,0.406649 L0.119816,0.406722 L0.119937,0.406803 L0.119909,0.406808 L0.119745,0.406911 L0.119467,0.406938 L0.119337,0.406997 L0.119134,0.407092 L0.118976,0.407157 L0.118744,0.407172 L0.118549,0.407118 L0.118430,0.407097 L0.118186,0.407134 L0.117941,0.407127 L0.117788,0.407135 L0.117636,0.407183 L0.117461,0.407237 L0.117256,0.407285 L0.117053,0.407323 L0.116866,0.407337 L0.116625,0.407220 L0.116487,0.407085 L0.116372,0.406961 L0.116291,0.406854 L0.116215,0.406758 L0.116168,0.406638 L0.116139,0.406570 L0.116040,0.406475 L0.115944,0.406419 L0.115886,0.406334 L0.115877,0.406197 L0.115904,0.406036 L0.115963,0.405841 L0.116017,0.405640 L0.116026,0.405457 L0.116022,0.405245 L0.115974,0.405057 L0.115915,0.404875 L0.115918,0.404687 L0.115904,0.404510 L0.115874,0.404419 L0.115768,0.404301 L0.115627,0.404219 L0.115555,0.404164 L0.115478,0.404108 L0.115367,0.404053 L0.115177,0.403961 L0.115086,0.403836 L0.115073,0.403750 L0.115056,0.403667 L0.115029,0.403604 L0.114969,0.403513 L0.114921,0.403478 L0.114837,0.403437 L0.114703,0.403383 L0.114664,0.403357 L0.114625,0.403301 L0.114615,0.403226 L0.114585,0.403167 L0.114552,0.403141 L0.114521,0.403082 L0.114504,0.402960 L0.114492,0.402891 L0.114476,0.402835 L0.114461,0.402788 L0.114433,0.402731 L0.114403,0.402687 L0.114337,0.402640 L0.114254,0.402615 L0.114212,0.402604 L0.114165,0.402589 L0.114141,0.402569 L0.114116,0.402522 L0.114103,0.402456 L0.114079,0.402409 L0.114046,0.402314 L0.114033,0.402270 L0.114018,0.402240 L0.113982,0.402208 L0.113943,0.402191 L0.113868,0.402144 L0.113859,0.402120 L0.113859,0.402082 L0.113849,0.402031 L0.113780,0.401996 L0.113753,0.401982 L0.113690,0.401941 L0.113684,0.401891 L0.113662,0.401840 L0.113644,0.401814 L0.113611,0.401781 L0.113570,0.401770 L0.113542,0.401726 L0.113524,0.401678 L0.113506,0.401616 L0.113481,0.401551 L0.113430,0.401483 L0.113385,0.401445 L0.113354,0.401386 L0.113335,0.401315 L0.113319,0.401214 L0.113303,0.401131 L0.113277,0.401000 L0.113243,0.400890 L0.113183,0.400799 L0.113101,0.400693 L0.113017,0.400566 L0.112971,0.400507 L0.112935,0.400451 L0.112880,0.400368 L0.112836,0.400324 L0.112790,0.400271 L0.112766,0.400203 L0.112743,0.400123 L0.112718,0.399834 L0.112715,0.399775 L0.112711,0.399727 L0.112709,0.399635 L0.112738,0.399527 L0.112745,0.399429 L0.112738,0.399352 L0.112663,0.399370 L0.112561,0.399398 L0.112486,0.399426 L0.112392,0.399454 L0.112332,0.399478 L0.112260,0.399506 L0.112169,0.399526 L0.112086,0.399546 L0.112018,0.399578 L0.111951,0.399625 L0.111857,0.399676 L0.111700,0.399788 L0.111651,0.399835 L0.111566,0.399909 L0.111333,0.400091 L0.111249,0.400070 L0.111170,0.400029 L0.111124,0.400014 L0.111025,0.399997 L0.110926,0.399972 L0.110835,0.399935 L0.110748,0.399928 L0.110649,0.399945 L0.110567,0.399981 L0.110506,0.400012 L0.110371,0.400094 L0.110265,0.400046 L0.110196,0.399975 L0.110134,0.399919 L0.110054,0.399920 L0.109924,0.399834 L0.109847,0.399786 L0.109706,0.399666 L0.109602,0.399538 L0.109483,0.399395 L0.109345,0.399301 L0.109235,0.399288 L0.109148,0.399320 L0.109043,0.399416 L0.108973,0.399482 L0.108921,0.399571 L0.108816,0.399630 L0.108746,0.399547 L0.108597,0.399511 L0.108446,0.399452 L0.108350,0.399412 L0.108289,0.399348 L0.108322,0.399252 L0.108155,0.399228 L0.108026,0.399199 L0.107998,0.399123 L0.107947,0.398998 L0.107807,0.398768 L0.107717,0.398583 L0.107631,0.398382 L0.107560,0.398188 L0.107474,0.398007 L0.107365,0.397818 L0.107295,0.397697 L0.107274,0.397556 L0.107275,0.397477 L0.107282,0.397339 L0.107212,0.397252 L0.107083,0.397244 L0.107070,0.397227 L0.106963,0.397275 L0.106876,0.397253 L0.106866,0.397139 L0.106875,0.396991 L0.106813,0.396916 L0.106653,0.396722 L0.106483,0.396592 L0.106384,0.396506 L0.106231,0.396417 L0.106044,0.396355 L0.105975,0.396303 L0.105834,0.396228 L0.105754,0.396172 L0.105707,0.396112 L0.105714,0.396032 L0.105724,0.395959 L0.105749,0.395868 L0.105797,0.395806 L0.105851,0.395749 L0.105920,0.395678 L0.106018,0.395620 L0.106071,0.395585 L0.106055,0.395550 L0.105895,0.395465 L0.105803,0.395402 L0.105730,0.395327 L0.105684,0.395270 L0.105641,0.395225 L0.105584,0.395173 L0.105489,0.395147 L0.105384,0.395115 L0.105287,0.395066 L0.105328,0.394983 L0.105483,0.394800 L0.105565,0.394715 L0.105700,0.394622 L0.105904,0.394558 L0.106228,0.394446 L0.106544,0.394297 L0.106731,0.394126 L0.106880,0.394010 L0.107053,0.393877 L0.107225,0.393745 L0.107435,0.393582 L0.107492,0.393540 L0.107485,0.393407 L0.107464,0.393245 L0.107428,0.393088 L0.107411,0.392908 L0.107464,0.392616 L0.107477,0.392535 L0.107503,0.392368 L0.107519,0.392229 L0.107551,0.392110 L0.107625,0.391994 L0.107718,0.391888 L0.107821,0.391810 L0.107972,0.391746 L0.108071,0.391711 L0.108136,0.391644 L0.108210,0.391557 L0.108289,0.391356 L0.108313,0.391288 L0.108331,0.391187 L0.108328,0.391136 L0.108320,0.390999 L0.108327,0.390879 L0.108365,0.390775 L0.108406,0.390689 L0.108476,0.390610 L0.108581,0.390577 L0.108654,0.390545 L0.108690,0.390507 L0.108767,0.390483 L0.108846,0.390448 L0.108877,0.390419 L0.109004,0.390371 L0.109080,0.390361 L0.109225,0.390376 L0.109368,0.390403 L0.109513,0.390435 L0.109667,0.390467 L0.109830,0.390496 L0.109918,0.390506 L0.110022,0.390484 L0.110112,0.390432 L0.110183,0.390379 L0.110241,0.390319 L0.110303,0.390229 L0.110379,0.390167 L0.110455,0.390139 L0.110519,0.390102 L0.110559,0.390068 L0.110603,0.390024 L0.110628,0.389969 L0.110684,0.389920 L0.110747,0.389899 L0.110826,0.389895 L0.110902,0.389885 L0.110950,0.389867 L0.110987,0.389844 L0.111012,0.389809 L0.111031,0.389780 L0.111048,0.389743 L0.111054,0.389667 L0.111068,0.389574 L0.111089,0.389456 L0.111137,0.389374 L0.111136,0.389338 L0.111143,0.389297 L0.111154,0.389263 L0.111179,0.389207 L0.111194,0.389165 L0.111212,0.389127 L0.111216,0.389106 L0.111219,0.389083 L0.111202,0.389051 L0.111200,0.389048 L0.111182,0.389030 L0.111150,0.388992 L0.111115,0.388951 L0.111110,0.388898 L0.111119,0.388831 L0.111135,0.388771 L0.111170,0.388717 L0.111198,0.388687 L0.111204,0.388681 L0.111228,0.388652 L0.111249,0.388615 L0.111273,0.388565 L0.111282,0.388536 L0.111283,0.388533 L0.111292,0.388492 L0.111294,0.388483 L0.111286,0.388443 L0.111279,0.388396 L0.111271,0.388344 L0.111265,0.388297 L0.111276,0.388254 L0.111286,0.388216 L0.111295,0.388184 L0.111309,0.388117 L0.111327,0.388061 L0.111349,0.388006 L0.111365,0.387978 L0.111375,0.387959 L0.111403,0.387911 L0.111400,0.387858 L0.111360,0.387832 L0.111296,0.387818 L0.111279,0.387814 L0.111225,0.387817 L0.111220,0.387817 L0.111128,0.387847 L0.111062,0.387878 L0.111022,0.387897 L0.110995,0.387910 L0.110907,0.387947 L0.110829,0.387951 L0.110730,0.387943 L0.110669,0.387927 L0.110611,0.387891 L0.110585,0.387848 L0.110577,0.387818 L0.110576,0.387770 L0.110582,0.387713 L0.110596,0.387663 L0.110612,0.387600 L0.110612,0.387598 L0.110632,0.387548 L0.110645,0.387494 L0.110645,0.387441 L0.110625,0.387334 L0.110588,0.387280 L0.110500,0.387230 L0.110434,0.387232 L0.110395,0.387243 L0.110372,0.387254 L0.110377,0.387294 L0.110386,0.387327 L0.110404,0.387385 L0.110408,0.387418 L0.110409,0.387450 L0.110395,0.387504 L0.110371,0.387563 L0.110371,0.387563 L0.110358,0.387596 L0.110347,0.387623 L0.110314,0.387698 L0.110285,0.387755 L0.110271,0.387780 L0.110201,0.387852 L0.110161,0.387873 L0.110065,0.387884 L0.109999,0.387885 L0.109896,0.387862 L0.109789,0.387803 L0.109758,0.387757 L0.109734,0.387706 L0.109734,0.387659 L0.109744,0.387603 L0.109761,0.387536 L0.109758,0.387526 L0.109752,0.387481 L0.109715,0.387388 L0.109625,0.387287 L0.109595,0.387253 L0.109505,0.387174 L0.109423,0.387118 L0.109394,0.387104 L0.109350,0.387083 L0.109333,0.387085 L0.109330,0.387085 L0.109305,0.387087 L0.109292,0.387114 L0.109288,0.387152 L0.109290,0.387210 L0.109292,0.387251 L0.109295,0.387322 L0.109292,0.387345 L0.109288,0.387383 L0.109234,0.387426 L0.109182,0.387423 L0.109139,0.387408 L0.109078,0.387377 L0.109036,0.387347 L0.109007,0.387296 L0.108980,0.387248 L0.108947,0.387205 L0.108895,0.387172 L0.108835,0.387148 L0.108788,0.387133 L0.108718,0.387123 L0.108630,0.387088 L0.108613,0.387064 L0.108594,0.387037 L0.108579,0.386982 L0.108573,0.386930 L0.108566,0.386879 L0.108564,0.386839 L0.108550,0.386792 L0.108524,0.386729 L0.108484,0.386667 L0.108447,0.386614 L0.108399,0.386569 L0.108342,0.386554 L0.108297,0.386574 L0.108261,0.386601 L0.108244,0.386613 L0.108218,0.386631 L0.108144,0.386670 L0.108081,0.386688 L0.107954,0.386673 L0.107860,0.386647 L0.107789,0.386607 L0.107713,0.386570 L0.107646,0.386487 L0.107543,0.386332 L0.107511,0.386239 L0.107510,0.386195 L0.107522,0.386157 L0.107551,0.386118 L0.107574,0.386101 L0.107601,0.386093 L0.107604,0.386093 L0.107647,0.386092 L0.107691,0.386090 L0.107694,0.386089 L0.107697,0.386090 L0.107744,0.386104 L0.107782,0.386128 L0.107823,0.386158 L0.107865,0.386182 L0.107910,0.386187 L0.107927,0.386185 L0.107963,0.386183 L0.108001,0.386173 L0.108037,0.386161 L0.108065,0.386145 L0.108106,0.386112 L0.108132,0.386087 L0.108153,0.386056 L0.108165,0.386019 L0.108165,0.386018 L0.108163,0.385979 L0.108159,0.385934 L0.108158,0.385886 L0.108165,0.385838 L0.108186,0.385792 L0.108214,0.385752 L0.108250,0.385713 L0.108287,0.385680 L0.108325,0.385659 L0.108357,0.385656 L0.108418,0.385659 L0.108428,0.385659 L0.108482,0.385656 L0.108533,0.385655 L0.108592,0.385634 L0.108660,0.385600 L0.108678,0.385571 L0.108689,0.385537 L0.108688,0.385493 L0.108680,0.385459 L0.108663,0.385423 L0.108637,0.385397 L0.108590,0.385363 L0.108515,0.385324 L0.108458,0.385291 L0.108376,0.385265 L0.108301,0.385246 L0.108279,0.385240 L0.108162,0.385236 L0.108038,0.385240 L0.107938,0.385226 L0.107845,0.385201 L0.107752,0.385183 L0.107690,0.385174 L0.107586,0.385159 L0.107516,0.385145 L0.107440,0.385130 L0.107411,0.385113 L0.107363,0.385084 L0.107335,0.385057 L0.107331,0.385052 L0.107299,0.385005 L0.107272,0.384959 L0.107245,0.384905 L0.107231,0.384859 L0.107221,0.384835 L0.107215,0.384825 L0.107181,0.384789 L0.107160,0.384769 L0.107131,0.384738 L0.107064,0.384703 L0.107010,0.384699 L0.106986,0.384697 L0.106869,0.384714 L0.106775,0.384746 L0.106693,0.384753 L0.106646,0.384727 L0.106635,0.384679 L0.106635,0.384643 L0.106629,0.384609 L0.106584,0.384546 L0.106483,0.384466 L0.106442,0.384432 L0.106389,0.384397 L0.106337,0.384344 L0.106296,0.384276 L0.106274,0.384210 L0.106276,0.384168 L0.106282,0.384120 L0.106300,0.384085 L0.106318,0.384074 L0.106331,0.384066 L0.106361,0.384048 L0.106367,0.384044 L0.106430,0.384023 L0.106464,0.384001 L0.106515,0.383968 L0.106575,0.383927 L0.106620,0.383896 L0.106650,0.383874 L0.106656,0.383870 L0.106667,0.383861 L0.106672,0.383857 L0.106712,0.383826 L0.106741,0.383781 L0.106758,0.383730 L0.106757,0.383695 L0.106742,0.383663 L0.106713,0.383641 L0.106669,0.383640 L0.106661,0.383639 L0.106629,0.383638 L0.106608,0.383619 L0.106605,0.383591 L0.106604,0.383589 L0.106608,0.383558 L0.106633,0.383485 L0.106644,0.383454 L0.106672,0.383405 L0.106708,0.383346 L0.106752,0.383274 L0.106780,0.383224 L0.106786,0.383202 L0.106787,0.383169 L0.106776,0.383121 L0.106766,0.383084 L0.106753,0.383057 L0.106754,0.383011 L0.106767,0.382972 L0.106772,0.382935 L0.106771,0.382906 L0.106762,0.382863 L0.106747,0.382821 L0.106709,0.382785 L0.106674,0.382769 L0.106621,0.382771 L0.106563,0.382801 L0.106512,0.382849 L0.106478,0.382898 L0.106442,0.382958 L0.106417,0.383015 L0.106385,0.383079 L0.106362,0.383100 L0.106361,0.383100 L0.106335,0.383123 L0.106283,0.383143 L0.106197,0.383144 L0.106081,0.383144 L0.105954,0.383143 L0.105831,0.383131 L0.105730,0.383119 L0.105694,0.383115 L0.105608,0.383099 L0.105535,0.383073 L0.105490,0.383033 L0.105476,0.382987 L0.105474,0.382929 L0.105476,0.382892 L0.105493,0.382835 L0.105540,0.382727 L0.105580,0.382657 L0.105623,0.382590 L0.105630,0.382580 L0.105670,0.382518 L0.105715,0.382450 L0.105727,0.382432 L0.105749,0.382395 L0.105769,0.382343 L0.105776,0.382304 L0.105777,0.382208 L0.105754,0.382162 L0.105727,0.382135 L0.105667,0.382108 L0.105601,0.382084 L0.105534,0.382069 L0.105454,0.382067 L0.105434,0.382072 L0.105388,0.382083 L0.105353,0.382104 L0.105353,0.382105 L0.105319,0.382140 L0.105272,0.382192 L0.105225,0.382248 L0.105208,0.382270 L0.105184,0.382300 L0.105141,0.382339 L0.105097,0.382356 L0.105048,0.382343 L0.105022,0.382326 L0.104991,0.382290 L0.104965,0.382242 L0.104955,0.382198 L0.104952,0.382113 L0.104959,0.382070 L0.104964,0.382027 L0.104979,0.381976 L0.104995,0.381938 L0.105005,0.381903 L0.105073,0.381763 L0.105080,0.381745 L0.105098,0.381700 L0.105118,0.381641 L0.105132,0.381599 L0.105148,0.381558 L0.105175,0.381486 L0.105174,0.381439 L0.105163,0.381407 L0.105127,0.381372 L0.105090,0.381352 L0.105041,0.381337 L0.105015,0.381338 L0.104986,0.381339 L0.104934,0.381352 L0.104879,0.381365 L0.104811,0.381362 L0.104762,0.381346 L0.104715,0.381321 L0.104681,0.381298 L0.104653,0.381263 L0.104635,0.381230 L0.104607,0.381142 L0.104601,0.381088 L0.104604,0.381032 L0.104617,0.380975 L0.104634,0.380907 L0.104653,0.380841 L0.104665,0.380715 L0.104686,0.380636 L0.104714,0.380559 L0.104756,0.380493 L0.104789,0.380453 L0.104825,0.380424 L0.104864,0.380404 L0.104900,0.380391 L0.104976,0.380388 L0.104977,0.380388 L0.105025,0.380383 L0.105047,0.380383 L0.105086,0.380383 L0.105125,0.380379 L0.105179,0.380363 L0.105206,0.380346 L0.105230,0.380315 L0.105235,0.380257 L0.105226,0.380227 L0.105189,0.380175 L0.105166,0.380140 L0.105148,0.380102 L0.105130,0.380061 L0.105119,0.380023 L0.105105,0.379972 L0.105097,0.379954 L0.105051,0.379857 L0.105005,0.379825 L0.104973,0.379814 L0.104937,0.379811 L0.104853,0.379812 L0.104759,0.379815 L0.104680,0.379808 L0.104633,0.379795 L0.104603,0.379771 L0.104593,0.379743 L0.104595,0.379710 L0.104605,0.379677 L0.104606,0.379674 L0.104633,0.379627 L0.104665,0.379582 L0.104713,0.379531 L0.104750,0.379493 L0.104798,0.379456 L0.104834,0.379432 L0.104875,0.379406 L0.104985,0.379307 L0.105021,0.379276 L0.105041,0.379260 L0.105039,0.379243 L0.105039,0.379233 L0.105011,0.379195 L0.104982,0.379156 L0.104961,0.379116 L0.104952,0.379083 L0.104928,0.379007 L0.104916,0.378983 L0.104886,0.378928 L0.104844,0.378887 L0.104812,0.378866 L0.104761,0.378847 L0.104744,0.378844 L0.104716,0.378840 L0.104710,0.378838 L0.104646,0.378817 L0.104566,0.378789 L0.104467,0.378753 L0.104393,0.378718 L0.104300,0.378673 L0.104237,0.378630 L0.104141,0.378544 L0.104134,0.378537 L0.104134,0.378535 L0.104114,0.378491 L0.104111,0.378484 L0.104112,0.378449 L0.104111,0.378413 L0.104110,0.378366 L0.104110,0.378353 L0.104110,0.378323 L0.104110,0.378321 L0.104101,0.378285 L0.104091,0.378256 L0.104085,0.378241 L0.104063,0.378206 L0.104026,0.378166 L0.103721,0.377949 L0.103617,0.377886 L0.103516,0.377823 L0.103457,0.377788 L0.103427,0.377783 L0.103402,0.377793 L0.103392,0.377812 L0.103380,0.377850 L0.103374,0.377893 L0.103369,0.377942 L0.103359,0.378014 L0.103345,0.378075 L0.103344,0.378080 L0.103306,0.378172 L0.103286,0.378192 L0.103217,0.378264 L0.103136,0.378320 L0.103074,0.378340 L0.103065,0.378342 L0.103000,0.378341 L0.102955,0.378318 L0.102933,0.378293 L0.102915,0.378247 L0.102904,0.378215 L0.102899,0.378169 L0.102900,0.378135 L0.102900,0.378099 L0.102903,0.378082 L0.102914,0.378008 L0.102943,0.377923 L0.102951,0.377903 L0.102960,0.377869 L0.102981,0.377792 L0.102994,0.377661 L0.102974,0.377517 L0.102958,0.377419 L0.102929,0.377326 L0.102892,0.377259 L0.102861,0.377222 L0.102825,0.377221 L0.102811,0.377220 L0.102777,0.377234 L0.102748,0.377252 L0.102706,0.377298 L0.102649,0.377356 L0.102592,0.377439 L0.102549,0.377516 L0.102504,0.377599 L0.102449,0.377663 L0.102447,0.377665 L0.102398,0.377694 L0.102349,0.377695 L0.102281,0.377677 L0.102242,0.377645 L0.102214,0.377597 L0.102204,0.377564 L0.102200,0.377527 L0.102194,0.377493 L0.102193,0.377473 L0.102191,0.377446 L0.102184,0.377418 L0.102160,0.377366 L0.102124,0.377314 L0.102088,0.377262 L0.102043,0.377148 L0.102021,0.377099 L0.102015,0.377050 L0.102023,0.377014 L0.102037,0.376990 L0.102064,0.376961 L0.102089,0.376941 L0.102131,0.376922 L0.102193,0.376902 L0.102247,0.376893 L0.102310,0.376890 L0.102369,0.376890 L0.102445,0.376888 L0.102555,0.376867 L0.102630,0.376840 L0.102674,0.376825 L0.102784,0.376769 L0.102837,0.376732 L0.102876,0.376697 L0.102918,0.376655 L0.102948,0.376620 L0.102969,0.376585 L0.102975,0.376550 L0.102966,0.376521 L0.102937,0.376484 L0.102876,0.376430 L0.102843,0.376409 L0.102820,0.376394 L0.102763,0.376365 L0.102692,0.376347 L0.102618,0.376344 L0.102580,0.376344 L0.102486,0.376346 L0.102456,0.376346 L0.102399,0.376347 L0.102394,0.376347 L0.102327,0.376348 L0.102263,0.376330 L0.102145,0.376271 L0.102119,0.376257 L0.101969,0.376187 L0.101851,0.376150 L0.101833,0.376146 L0.101794,0.376136 L0.101699,0.376139 L0.101617,0.376153 L0.101528,0.376177 L0.101497,0.376184 L0.101420,0.376204 L0.101400,0.376211 L0.101313,0.376238 L0.101264,0.376239 L0.101234,0.376206 L0.101220,0.376184 L0.101211,0.376169 L0.101204,0.376158 L0.101189,0.376101 L0.101189,0.376079 L0.101189,0.376046 L0.101205,0.375950 L0.101220,0.375907 L0.101238,0.375843 L0.101266,0.375742 L0.101319,0.375515 L0.101363,0.375308 L0.101370,0.375251 L0.101370,0.375193 L0.101365,0.375165 L0.101348,0.375132 L0.101343,0.375127 L0.101325,0.375109 L0.101321,0.375105 L0.101308,0.375099 L0.101286,0.375087 L0.101266,0.375088 L0.101225,0.375097 L0.101189,0.375118 L0.101146,0.375153 L0.101100,0.375198 L0.101033,0.375277 L0.100939,0.375380 L0.100862,0.375408 L0.100772,0.375406 L0.100688,0.375386 L0.100642,0.375363 L0.100577,0.375356 L0.100489,0.375357 L0.100424,0.375365 L0.100360,0.375374 L0.100281,0.375404 L0.100134,0.375449 L0.100091,0.375455 L0.100055,0.375450 L0.100009,0.375438 L0.099964,0.375417 L0.099895,0.375375 L0.099779,0.375304 L0.099590,0.375167 L0.099376,0.374982 L0.099286,0.374900 L0.099140,0.374777 L0.098923,0.374595 L0.098888,0.374545 L0.098872,0.374514 L0.098872,0.374477 L0.098887,0.374450 L0.098913,0.374424 L0.099007,0.374338 L0.099110,0.374223 L0.099137,0.374182 L0.099141,0.374131 L0.099134,0.374092 L0.099101,0.374017 L0.099056,0.373944 L0.099028,0.373910 L0.098972,0.373864 L0.098916,0.373828 L0.098816,0.373797 L0.098751,0.373786 L0.098688,0.373790 L0.098631,0.373798 L0.098575,0.373825 L0.098513,0.373858 L0.098437,0.373898 L0.098344,0.373945 L0.098219,0.373991 L0.098126,0.374014 L0.098050,0.374031 L0.097937,0.374035 L0.097855,0.374029 L0.097792,0.374019 L0.097708,0.373993 L0.097657,0.373963 L0.097608,0.373922 L0.097584,0.373885 L0.097562,0.373831 L0.097551,0.373774 L0.097518,0.373707 L0.097457,0.373601 L0.097397,0.373427 L0.097360,0.373347 L0.097337,0.373314 L0.097298,0.373282 L0.097245,0.373255 L0.097204,0.373243 L0.097152,0.373243 L0.097104,0.373249 L0.097047,0.373263 L0.097001,0.373273 L0.096917,0.373277 L0.096850,0.373272 L0.096772,0.373254 L0.096741,0.373232 L0.096672,0.373177 L0.096604,0.373122 L0.096566,0.373079 L0.096540,0.372979 L0.096568,0.372969 L0.096601,0.372940 L0.096639,0.372916 L0.096681,0.372901 L0.096714,0.372872 L0.096737,0.372862 L0.096760,0.372823 L0.096774,0.372766 L0.096792,0.372727 L0.096815,0.372698 L0.096820,0.372660 L0.096819,0.372636 L0.096832,0.372584 L0.096865,0.372569 L0.096908,0.372564 L0.096965,0.372544 L0.097002,0.372538 L0.097031,0.372519 L0.097044,0.372466 L0.097039,0.372433 L0.097005,0.372386 L0.096971,0.372348 L0.096971,0.372291 L0.096989,0.372252 L0.097017,0.372233 L0.097074,0.372213 L0.097130,0.372184 L0.097205,0.372163 L0.097332,0.372061 L0.097364,0.372018 L0.097378,0.371965 L0.097387,0.371918 L0.097414,0.371869 L0.097451,0.371845 L0.097552,0.371877 L0.097618,0.371876 L0.097636,0.371847 L0.097659,0.371809 L0.097678,0.371765 L0.097739,0.371750 L0.097782,0.371726 L0.097781,0.371688 L0.097785,0.371654 L0.097827,0.371615 L0.097851,0.371591 L0.097995,0.371427 L0.098047,0.371421 L0.098099,0.371421 L0.098195,0.371491 L0.098214,0.371509 L0.098262,0.371509 L0.098294,0.371465 L0.098341,0.371446 L0.098407,0.371464 L0.098450,0.371463 L0.098493,0.371458 L0.098540,0.371457 L0.098588,0.371442 L0.098634,0.371422 L0.098696,0.371397 L0.098771,0.371353 L0.098884,0.371304 L0.098941,0.371284 L0.098963,0.371250 L0.098996,0.371202 L0.099024,0.371168 L0.099028,0.371111 L0.099027,0.371054 L0.099012,0.371006 L0.098983,0.370973 L0.098949,0.370926 L0.098902,0.370894 L0.098863,0.370856 L0.098834,0.370823 L0.098833,0.370747 L0.098837,0.370718 L0.098893,0.370670 L0.098944,0.370593 L0.099090,0.370422 L0.099128,0.370368 L0.099223,0.370206 L0.099297,0.370163 L0.099362,0.370162 L0.099430,0.370131 L0.099479,0.370095 L0.099535,0.370034 L0.099590,0.369929 L0.099627,0.369878 L0.099668,0.369821 L0.099723,0.369772 L0.099791,0.369757 L0.099841,0.369747 L0.099912,0.369728 L0.099962,0.369697 L0.100032,0.369634 L0.100070,0.369597 L0.100099,0.369555 L0.100139,0.369480 L0.100174,0.369432 L0.100218,0.369416 L0.100247,0.369339 L0.100204,0.369274 L0.100168,0.369224 L0.100134,0.369147 L0.100083,0.369094 L0.100029,0.369038 L0.099999,0.368994 L0.099986,0.368943 L0.100000,0.368898 L0.100056,0.368841 L0.100094,0.368799 L0.100131,0.368741 L0.100136,0.368694 L0.100136,0.368622 L0.100129,0.368581 L0.100125,0.368539 L0.100118,0.368488 L0.100100,0.368444 L0.100091,0.368417 L0.100105,0.368372 L0.100134,0.368348 L0.100178,0.368336 L0.100270,0.368316 L0.100305,0.368298 L0.100343,0.368268 L0.100361,0.368240 L0.100372,0.368205 L0.100384,0.368175 L0.100404,0.368136 L0.100426,0.368085 L0.100459,0.368051 L0.100485,0.368039 L0.100529,0.368009 L0.100571,0.367993 L0.100626,0.367968 L0.100688,0.367953 L0.100738,0.367952 L0.100797,0.367950 L0.100794,0.367683 L0.100773,0.367531 L0.100599,0.367324 L0.100595,0.367057 L0.100554,0.366867 L0.100475,0.366640 L0.100378,0.366469 L0.100203,0.366224 L0.099760,0.365716 L0.099471,0.365415 L0.099258,0.365133 L0.099313,0.364979 L0.099407,0.364959 L0.099576,0.364861 L0.099726,0.364706 L0.099723,0.364477 L0.099644,0.364326 L0.099507,0.364023 L0.099407,0.363662 L0.099308,0.363397 L0.099248,0.363169 L0.099131,0.362942 L0.098977,0.362754 L0.098785,0.362642 L0.098631,0.362454 L0.098459,0.362323 L0.098171,0.362118 L0.097922,0.361931 L0.097730,0.361781 L0.097569,0.361497 L0.097469,0.361470 L0.097305,0.361501 L0.097245,0.361407 L0.097230,0.361205 L0.097228,0.361050 L0.097225,0.360931 L0.097212,0.360776 L0.097162,0.360634 L0.096969,0.360422 L0.096776,0.360199 L0.096619,0.359975 L0.096448,0.359644 L0.096362,0.359466 L0.096288,0.359217 L0.096202,0.358980 L0.096127,0.358755 L0.096064,0.358505 L0.095978,0.358316 L0.095915,0.358079 L0.095814,0.357663 L0.095785,0.357330 L0.095828,0.357019 L0.095837,0.356793 L0.095915,0.356482 L0.096030,0.356266 L0.096170,0.356109 L0.096405,0.355974 L0.096593,0.355876 L0.096733,0.355743 L0.096850,0.355610 L0.096944,0.355537 L0.097191,0.355450 L0.097732,0.355203 L0.097801,0.355059 L0.097810,0.354821 L0.097759,0.354619 L0.097673,0.354382 L0.097575,0.354205 L0.097418,0.353992 L0.097309,0.353851 L0.097211,0.353638 L0.097113,0.353377 L0.097110,0.353175 L0.097154,0.352972 L0.097154,0.352960 L0.097186,0.352757 L0.097243,0.352589 L0.097288,0.352445 L0.097286,0.352302 L0.097224,0.352101 L0.097139,0.351995 L0.097007,0.351842 L0.096924,0.351855 L0.096676,0.351930 L0.096594,0.351979 L0.096429,0.352029 L0.096240,0.352056 L0.095942,0.351965 L0.095752,0.351932 L0.095622,0.351922 L0.095313,0.351891 L0.095159,0.351894 L0.094769,0.351900 L0.094639,0.351925 L0.094449,0.351940 L0.094283,0.351967 L0.094153,0.351969 L0.094034,0.351935 L0.093856,0.351890 L0.093737,0.351891 L0.093560,0.351918 L0.093383,0.351956 L0.093063,0.351937 L0.092997,0.351831 L0.092867,0.351683 L0.092759,0.351563 L0.092564,0.351402 L0.092420,0.351261 L0.092291,0.351170 L0.092133,0.351094 L0.092033,0.351059 L0.091954,0.351039 L0.091826,0.350998 L0.091684,0.350979 L0.091491,0.350932 L0.091448,0.350940 L0.091377,0.350912 L0.091262,0.350849 L0.091204,0.350757 L0.091130,0.350573 L0.091056,0.350395 L0.090976,0.350246 L0.090887,0.350011 L0.090756,0.349897 L0.090677,0.349793 L0.090591,0.349709 L0.090541,0.349659 L0.090374,0.349462 L0.090265,0.349327 L0.090171,0.349207 L0.090012,0.349045 L0.089860,0.348883 L0.089745,0.348756 L0.089701,0.348678 L0.089569,0.348409 L0.089524,0.348223 L0.089515,0.348123 L0.089535,0.348044 L0.089597,0.347951 L0.089606,0.347920 L0.089611,0.347900 L0.089618,0.347854 L0.089624,0.347807 L0.089687,0.347728 L0.089689,0.347721 L0.089721,0.347613 L0.089719,0.347498 L0.089709,0.347305 L0.089649,0.347106 L0.089540,0.346943 L0.089473,0.346787 L0.089358,0.346667 L0.089207,0.346527 L0.089012,0.346315 L0.088916,0.346116 L0.088891,0.345859 L0.088924,0.345702 L0.088972,0.345572 L0.089039,0.345307 L0.089016,0.345192 L0.088942,0.345022 L0.088884,0.344916 L0.088810,0.344781 L0.088773,0.344703 L0.088651,0.344597 L0.088523,0.344542 L0.088415,0.344508 L0.088266,0.344510 L0.088131,0.344520 L0.087862,0.344538 L0.087642,0.344570 L0.087400,0.344574 L0.087236,0.344562 L0.087014,0.344501 L0.086836,0.344439 L0.086685,0.344356 L0.086513,0.344280 L0.086263,0.344119 L0.086090,0.343986 L0.085853,0.343875 L0.085638,0.343764 L0.085481,0.343659 L0.085252,0.343584 L0.085074,0.343558 L0.084889,0.343533 L0.084825,0.343555 L0.084775,0.343599 L0.084748,0.343678 L0.084708,0.343807 L0.084651,0.343799 L0.084557,0.343787 L0.084515,0.343792 L0.084443,0.343793 L0.084362,0.343761 L0.084305,0.343762 L0.084196,0.343735 L0.084124,0.343698 L0.084076,0.343637 L0.084042,0.343532 L0.084035,0.343437 L0.084087,0.343160 L0.084164,0.342858 L0.084190,0.342701 L0.084226,0.342610 L0.084264,0.342566 L0.084320,0.342541 L0.084419,0.342521 L0.084495,0.342482 L0.084546,0.342457 L0.084646,0.342413 L0.084745,0.342246 L0.084769,0.342028 L0.084812,0.341923 L0.084825,0.341804 L0.084806,0.341670 L0.084821,0.341527 L0.084819,0.341420 L0.084812,0.341339 L0.084790,0.341262 L0.084766,0.341209 L0.084723,0.341129 L0.084700,0.341031 L0.084687,0.340921 L0.084725,0.340873 L0.084769,0.340845 L0.084825,0.340830 L0.084878,0.340790 L0.084926,0.340697 L0.084926,0.340626 L0.084908,0.340593 L0.084827,0.340550 L0.084734,0.340518 L0.084666,0.340498 L0.084579,0.340455 L0.084546,0.340378 L0.084531,0.340241 L0.084538,0.340080 L0.084534,0.340018 L0.084425,0.339888 L0.084344,0.339785 L0.084276,0.339599 L0.084285,0.339578 L0.084314,0.339515 L0.084371,0.339448 L0.084465,0.339369 L0.084538,0.339297 L0.084552,0.339231 L0.084551,0.339160 L0.084529,0.339080 L0.084457,0.339018 L0.084403,0.338986 L0.084383,0.338992 L0.084350,0.339002 L0.084329,0.339020 L0.084313,0.339083 L0.084281,0.339149 L0.084235,0.339209 L0.084184,0.339240 L0.084138,0.339249 L0.084108,0.339229 L0.084074,0.339161 L0.084039,0.339016 L0.083986,0.338838 L0.083945,0.338645 L0.083928,0.338502 L0.083934,0.338356 L0.083909,0.338246 L0.083864,0.338214 L0.083759,0.338123 L0.083636,0.338006 L0.083572,0.337891 L0.083545,0.337885 L0.083477,0.337874 L0.083399,0.337837 L0.083348,0.337802 L0.083342,0.337736 L0.083341,0.337701 L0.083369,0.337617 L0.083439,0.337541 L0.083513,0.337507 L0.083581,0.337476 L0.083615,0.337440 L0.083626,0.337386 L0.083594,0.337211 L0.083540,0.336986 L0.083536,0.336902 L0.083520,0.336822 L0.083504,0.336736 L0.083468,0.336719 L0.083427,0.336773 L0.083345,0.336843 L0.083246,0.336883 L0.083138,0.336831 L0.083065,0.336743 L0.083016,0.336565 L0.083050,0.336472 L0.083125,0.336348 L0.083193,0.336181 L0.083270,0.336010 L0.083276,0.335777 L0.083241,0.335731 L0.083202,0.335679 L0.083155,0.335578 L0.083120,0.335407 L0.083115,0.335235 L0.083134,0.335063 L0.083113,0.334930 L0.083083,0.334811 L0.083033,0.334698 L0.082989,0.334596 L0.082908,0.334366 L0.082911,0.334256 L0.082906,0.334132 L0.082936,0.333925 L0.082922,0.333765 L0.082909,0.333710 L0.082878,0.333680 L0.082830,0.333666 L0.082720,0.333699 L0.082670,0.333712 L0.082594,0.333734 L0.082490,0.333717 L0.082434,0.333658 L0.082413,0.333608 L0.082414,0.333558 L0.082451,0.333513 L0.082549,0.333428 L0.082598,0.333363 L0.082652,0.333309 L0.082720,0.333263 L0.082766,0.333222 L0.082773,0.333191 L0.082761,0.333162 L0.082718,0.333120 L0.082665,0.333085 L0.082558,0.333049 L0.082472,0.333012 L0.082429,0.332986 L0.082381,0.332949 L0.082342,0.332902 L0.082297,0.332881 L0.082191,0.332911 L0.082132,0.332926 L0.081992,0.332921 L0.081888,0.332911 L0.081813,0.332881 L0.081739,0.332830 L0.081710,0.332764 L0.081687,0.332683 L0.081665,0.332598 L0.081616,0.332505 L0.081581,0.332399 L0.081556,0.332330 L0.081488,0.332228 L0.081435,0.332163 L0.081354,0.332099 L0.081291,0.332055 L0.081227,0.331997 L0.081135,0.331926 L0.081061,0.331859 L0.081027,0.331823 L0.081007,0.331781 L0.080921,0.331706 L0.080863,0.331635 L0.080791,0.331596 L0.080744,0.331599 L0.080644,0.331584 L0.080575,0.331532 L0.080517,0.331488 L0.080455,0.331427 L0.080409,0.331356 L0.080317,0.331293 L0.080253,0.331239 L0.080166,0.331172 L0.080123,0.331165 L0.080028,0.331143 L0.079992,0.331103 L0.079922,0.331004 L0.079832,0.330843 L0.079739,0.330663 L0.079702,0.330573 L0.079679,0.330495 L0.079669,0.330429 L0.079656,0.330386 L0.079642,0.330360 L0.079613,0.330322 L0.079594,0.330301 L0.079486,0.330265 L0.079415,0.330239 L0.079350,0.330212 L0.079243,0.330147 L0.079180,0.330057 L0.079136,0.329946 L0.079100,0.329787 L0.079088,0.329749 L0.079051,0.329699 L0.079010,0.329671 L0.078958,0.329634 L0.078869,0.329590 L0.078836,0.329574 L0.078759,0.329554 L0.078738,0.329554 L0.078669,0.329538 L0.078607,0.329501 L0.078575,0.329461 L0.078563,0.329406 L0.078564,0.329347 L0.078571,0.329304 L0.078575,0.329228 L0.078567,0.329187 L0.078551,0.329071 L0.078527,0.329033 L0.078502,0.328972 L0.078477,0.328929 L0.078453,0.328870 L0.078406,0.328764 L0.078391,0.328734 L0.078371,0.328700 L0.078370,0.328662 L0.078372,0.328631 L0.078344,0.328582 L0.078270,0.328543 L0.078226,0.328517 L0.078174,0.328495 L0.078079,0.328462 L0.078033,0.328450 L0.077999,0.328443 L0.077961,0.328449 L0.077910,0.328459 L0.077884,0.328452 L0.077860,0.328439 L0.077830,0.328420 L0.077778,0.328383 L0.077753,0.328357 L0.077692,0.328339 L0.077643,0.328326 L0.077615,0.328306 L0.077606,0.328281 L0.077592,0.328254 L0.077584,0.328214 L0.077583,0.328186 L0.077587,0.328159 L0.077597,0.328127 L0.077618,0.328098 L0.077629,0.328075 L0.077634,0.328050 L0.077629,0.327973 L0.077618,0.327890 L0.077600,0.327827 L0.077586,0.327772 L0.077563,0.327736 L0.077519,0.327703 L0.077440,0.327634 L0.077276,0.327592 L0.077239,0.327587 L0.077207,0.327603 L0.077170,0.327632 L0.077145,0.327650 L0.077120,0.327659 L0.077057,0.327623 L0.076999,0.327582 L0.076973,0.327559 L0.076949,0.327533 L0.076935,0.327497 L0.076907,0.327465 L0.076880,0.327441 L0.076841,0.327417 L0.076802,0.327368 L0.076790,0.327341 L0.076780,0.327312 L0.076771,0.327297 L0.076758,0.327280 L0.076742,0.327247 L0.076731,0.327219 L0.076710,0.327189 L0.076692,0.327165 L0.076671,0.327131 L0.076644,0.327107 L0.076620,0.327084 L0.076599,0.327068 L0.076587,0.327045 L0.076585,0.327032 L0.076578,0.327015 L0.076553,0.326997 L0.076546,0.326976 L0.076540,0.326951 L0.076525,0.326930 L0.076506,0.326892 L0.076475,0.326868 L0.076457,0.326841 L0.076449,0.326814 L0.076429,0.326791 L0.076405,0.326786 L0.076362,0.326765 L0.076357,0.326750 L0.076364,0.326722 L0.076363,0.326708 L0.076341,0.326691 L0.076330,0.326677 L0.076329,0.326661 L0.076312,0.326622 L0.076274,0.326608 L0.076210,0.326607 L0.076158,0.326591 L0.076122,0.326576 L0.076079,0.326572 L0.076052,0.326576 L0.076016,0.326568 L0.075983,0.326552 L0.075956,0.326553 L0.075925,0.326563 L0.075890,0.326557 L0.075852,0.326547 L0.075811,0.326531 L0.075737,0.326545 L0.075672,0.326543 L0.075636,0.326542 L0.075593,0.326534 L0.075575,0.326524 L0.075552,0.326508 L0.075521,0.326479 L0.075512,0.326468 L0.075482,0.326441 L0.075470,0.326414 L0.075446,0.326386 L0.075394,0.326327 L0.075382,0.326296 L0.075349,0.326253 L0.075311,0.326228 L0.075281,0.326227 L0.075237,0.326218 L0.075193,0.326191 L0.075162,0.326175 L0.075151,0.326162 L0.075111,0.326147 L0.075066,0.326135 L0.075027,0.326130 L0.075011,0.326134 L0.074970,0.326143 L0.074932,0.326143 L0.074907,0.326136 L0.074872,0.326125 L0.074839,0.326114 L0.074806,0.326112 L0.074782,0.326116 L0.074758,0.326121 L0.074721,0.326136 L0.074695,0.326145 L0.074674,0.326164 L0.074632,0.326191 L0.074597,0.326199 L0.074560,0.326207 L0.074508,0.326209 L0.074475,0.326223 L0.074445,0.326239 L0.074426,0.326246 L0.074401,0.326247 L0.074366,0.326247 L0.074327,0.326262 L0.074308,0.326284 L0.074211,0.326252 L0.074167,0.326210 L0.074141,0.326172 L0.074098,0.326128 L0.074050,0.326095 L0.074009,0.326068 L0.073965,0.326049 L0.073923,0.326037 L0.073833,0.326022 L0.073761,0.326023 L0.073651,0.326024 L0.073560,0.326019 L0.073491,0.326005 L0.073431,0.325970 L0.073387,0.325946 L0.073341,0.325914 L0.073305,0.325889 L0.073262,0.325861 L0.073210,0.325855 L0.073175,0.325858 L0.073125,0.325860 L0.073093,0.325875 L0.073076,0.325901 L0.073071,0.325927 L0.073065,0.325960 L0.073038,0.325983 L0.073011,0.325996 L0.072978,0.326011 L0.072947,0.326022 L0.072897,0.326028 L0.072856,0.326022 L0.072819,0.326009 L0.072740,0.326016 L0.072692,0.326017 L0.072643,0.326025 L0.072599,0.326033 L0.072558,0.326052 L0.072543,0.326067 L0.072500,0.326092 L0.072471,0.326096 L0.072441,0.326082 L0.072424,0.326064 L0.072400,0.326049 L0.072354,0.326049 L0.072326,0.326059 L0.072309,0.326074 L0.072290,0.326098 L0.072263,0.326122 L0.072224,0.326139 L0.072209,0.326149 L0.072191,0.326158 L0.072175,0.326175 L0.072153,0.326191 L0.072121,0.326209 L0.072109,0.326232 L0.072067,0.326258 L0.072045,0.326264 L0.072008,0.326265 L0.071986,0.326260 L0.071966,0.326244 L0.071942,0.326245 L0.071925,0.326255 L0.071884,0.326263 L0.071856,0.326250 L0.071842,0.326228 L0.071796,0.326200 L0.071771,0.326190 L0.071719,0.326159 L0.071696,0.326160 L0.071679,0.326169 L0.071665,0.326192 L0.071659,0.326218 L0.071655,0.326233 L0.071634,0.326262 L0.071608,0.326264 L0.071591,0.326256 L0.071584,0.326240 L0.071586,0.326223 L0.071597,0.326201 L0.071607,0.326180 L0.071601,0.326157 L0.071595,0.326156 L0.071578,0.326156 L0.071561,0.326158 L0.071539,0.326152 L0.071528,0.326140 L0.071518,0.326125 L0.071503,0.326121 L0.071495,0.326126 L0.071495,0.326144 L0.071502,0.326174 L0.071505,0.326196 L0.071503,0.326213 L0.071500,0.326223 L0.071474,0.326229 L0.071466,0.326229 L0.071439,0.326230 L0.071426,0.326234 L0.071410,0.326237 L0.071400,0.326230 L0.071388,0.326220 L0.071365,0.326191 L0.071248,0.326116 L0.071045,0.326119 L0.070908,0.326104 L0.070798,0.326096 L0.070661,0.326091 L0.070528,0.326093 L0.070402,0.326060 L0.070309,0.326009 L0.070145,0.325971 L0.069947,0.325929 L0.069833,0.325904 L0.069714,0.325870 L0.069655,0.325838 L0.069616,0.325805 L0.069547,0.325751 L0.069448,0.325636 L0.069256,0.325506 L0.069146,0.325424 L0.069062,0.325325 L0.068972,0.325236 L0.068870,0.325145 L0.068823,0.325079 L0.068775,0.325034 L0.068744,0.325018 L0.068694,0.325029 L0.068663,0.325036 L0.068614,0.325032 L0.068568,0.325009 L0.068501,0.324960 L0.068406,0.324904 L0.068307,0.324863 L0.068225,0.324845 L0.068120,0.324823 L0.068039,0.324789 L0.067848,0.324696 L0.067743,0.324655 L0.067638,0.324633 L0.067554,0.324563 L0.067513,0.324480 L0.067477,0.324433 L0.067464,0.324385 L0.067403,0.324330 L0.067358,0.324292 L0.067313,0.324273 L0.067237,0.324256 L0.067208,0.324199 L0.067209,0.324125 L0.067197,0.324080 L0.067158,0.324035 L0.067143,0.323985 L0.067125,0.323933 L0.067082,0.323884 L0.067036,0.323808 L0.066977,0.323731 L0.066963,0.323695 L0.066948,0.323664 L0.066912,0.323625 L0.066869,0.323594 L0.066835,0.323554 L0.066794,0.323519 L0.066760,0.323489 L0.066736,0.323456 L0.066712,0.323397 L0.066689,0.323309 L0.066660,0.323243 L0.066642,0.323183 L0.066613,0.323131 L0.066617,0.323081 L0.066642,0.323019 L0.066700,0.322939 L0.066720,0.322891 L0.066691,0.322830 L0.066690,0.322785 L0.066704,0.322730 L0.066672,0.322663 L0.066605,0.322595 L0.066573,0.322539 L0.066512,0.322456 L0.066464,0.322412 L0.066412,0.322375 L0.066352,0.322321 L0.066277,0.322253 L0.066183,0.322159 L0.066135,0.322088 L0.066093,0.322036 L0.066080,0.321925 L0.066077,0.321851 L0.066073,0.321799 L0.066079,0.321706 L0.066080,0.321603 L0.066099,0.321419 L0.066118,0.321321 L0.066087,0.321279 L0.065970,0.321250 L0.065906,0.321244 L0.065868,0.321237 L0.065834,0.321202 L0.065817,0.321162 L0.065812,0.321109 L0.065834,0.321023 L0.065847,0.320954 L0.065834,0.320883 L0.065795,0.320824 L0.065736,0.320803 L0.065672,0.320792 L0.065613,0.320798 L0.065543,0.320754 L0.065474,0.320703 L0.065416,0.320639 L0.065370,0.320606 L0.065277,0.320558 L0.065198,0.320490 L0.065185,0.320438 L0.065180,0.320405 L0.065121,0.320391 L0.065068,0.320402 L0.065028,0.320371 L0.065022,0.320317 L0.065013,0.320224 L0.065007,0.320138 L0.064980,0.320062 L0.064949,0.320022 L0.064910,0.319963 L0.064901,0.319854 L0.064888,0.319747 L0.064859,0.319597 L0.064804,0.319539 L0.064732,0.319478 L0.064669,0.319424 L0.064617,0.319391 L0.064597,0.319342 L0.064601,0.319270 L0.064614,0.319198 L0.064591,0.319125 L0.064550,0.319033 L0.064508,0.318945 L0.064445,0.318846 L0.064411,0.318813 L0.064361,0.318781 L0.064306,0.318734 L0.064279,0.318730 L0.064241,0.318690 L0.064219,0.318633 L0.064222,0.318561 L0.064222,0.318507 L0.064232,0.318416 L0.064236,0.318359 L0.064249,0.318304 L0.064277,0.318298 L0.064328,0.318305 L0.064331,0.318299 L0.064391,0.318301 L0.064455,0.318289 L0.064478,0.318248 L0.064478,0.318210 L0.064484,0.318162 L0.064462,0.318122 L0.064423,0.318060 L0.064392,0.318018 L0.064364,0.317952 L0.064369,0.317923 L0.064376,0.317882 L0.064377,0.317847 L0.064424,0.317813 L0.064515,0.317728 L0.064581,0.317684 L0.064623,0.317643 L0.064634,0.317600 L0.064631,0.317557 L0.064550,0.317520 L0.064466,0.317486 L0.064409,0.317458 L0.064357,0.317430 L0.064322,0.317388 L0.064327,0.317361 L0.064386,0.317344 L0.064457,0.317319 L0.064534,0.317333 L0.064617,0.317283 L0.064652,0.317237 L0.064644,0.317199 L0.064615,0.317171 L0.064599,0.317145 L0.064588,0.317107 L0.064569,0.317084 L0.064538,0.317060 L0.064501,0.317053 L0.064452,0.317055 L0.064388,0.317051 L0.064350,0.317037 L0.064315,0.317016 L0.064271,0.316953 L0.064267,0.316900 L0.064283,0.316855 L0.064325,0.316799 L0.064346,0.316756 L0.064334,0.316699 L0.064305,0.316690 L0.064261,0.316645 L0.064242,0.316596 L0.064264,0.316519 L0.064297,0.316469 L0.064265,0.316387 L0.064348,0.316371 L0.064429,0.316290 L0.064496,0.316155 L0.064544,0.316141 L0.064598,0.316168 L0.064726,0.316256 L0.064793,0.316337 L0.064881,0.316330 L0.064949,0.316283 L0.065178,0.316060 L0.065218,0.315999 L0.065326,0.315952 L0.065462,0.315925 L0.065677,0.315911 L0.065846,0.315925 L0.065960,0.315945 L0.066177,0.315972 L0.066278,0.315965 L0.066319,0.315932 L0.066312,0.315878 L0.066372,0.315851 L0.066467,0.315851 L0.066568,0.315830 L0.066568,0.315648 L0.066561,0.315526 L0.066507,0.315371 L0.066541,0.315317 L0.066629,0.315310 L0.066690,0.315371 L0.066723,0.315506 L0.066770,0.315567 L0.066851,0.315594 L0.066885,0.315601 L0.067013,0.315607 L0.067115,0.315655 L0.067269,0.315756 L0.067384,0.315817 L0.067546,0.315824 L0.067634,0.315769 L0.067695,0.315769 L0.067701,0.315776 L0.067816,0.315830 L0.067884,0.315898 L0.067911,0.316006 L0.068012,0.316046 L0.068147,0.316033 L0.068268,0.315959 L0.068322,0.315938 L0.068396,0.315952 L0.068464,0.315986 L0.068457,0.316006 L0.068511,0.315952 L0.068592,0.315932 L0.068848,0.315851 L0.068929,0.315601 L0.068801,0.315317 L0.068727,0.315046 L0.069138,0.314756 L0.069793,0.314303 L0.070440,0.313830 L0.070718,0.313493 L0.071021,0.313432 L0.071210,0.313128 L0.071406,0.312803 L0.071756,0.312236 L0.072188,0.312249 L0.072627,0.312162 L0.072694,0.311878 L0.072748,0.311695 L0.073126,0.311432 L0.073437,0.311013 L0.073504,0.310608 L0.073557,0.310310 L0.073234,0.310108 L0.073126,0.309669 L0.073173,0.309175 L0.073186,0.308297 L0.073220,0.307338 L0.073234,0.306581 L0.073564,0.306189 L0.073524,0.305568 L0.073645,0.304987 L0.074185,0.304541 L0.074644,0.304102 L0.074954,0.303352 L0.074968,0.303338 L0.075170,0.303088 L0.075413,0.302791 L0.075515,0.302656 L0.075582,0.302575 L0.075825,0.302095 L0.075953,0.301859 L0.075893,0.301609 L0.075852,0.301163 L0.076169,0.300839 L0.076371,0.300528 L0.076682,0.300245 L0.077141,0.299866 L0.077160,0.299853 L0.077356,0.299697 L0.077546,0.299468 L0.077646,0.299326 L0.077606,0.299137 L0.077471,0.299022 L0.077377,0.298914 L0.077343,0.298887 L0.077201,0.298745 L0.077006,0.298657 L0.076769,0.298509 L0.076702,0.298475 L0.076769,0.297955 L0.076891,0.297455 L0.076992,0.297083 L0.077060,0.296800 L0.077073,0.296536 L0.076999,0.296327 L0.076911,0.296090 L0.076736,0.295739 L0.076324,0.295401 L0.075696,0.294996 L0.075642,0.294962 L0.075143,0.294611 L0.074543,0.294280 L0.073382,0.293801 L0.073025,0.293483 L0.072896,0.293220 L0.072761,0.293112 L0.072627,0.293031 L0.072444,0.292787 L0.072303,0.292436 L0.072161,0.291950 L0.071925,0.291558 L0.071655,0.291376 L0.071385,0.291207 L0.071365,0.291193 L0.071230,0.291038 L0.071055,0.290842 L0.071035,0.290815 L0.070947,0.290707 L0.070886,0.290613 L0.070879,0.290613 L0.070872,0.290606 L0.070798,0.290538 L0.070791,0.290532 L0.070751,0.290525 L0.070637,0.290525 L0.070508,0.290532 L0.070440,0.290586 L0.070366,0.290646 L0.070279,0.290653 L0.070259,0.290653 L0.070245,0.290640 L0.070171,0.290559 L0.070157,0.290545 L0.070042,0.290511 L0.070036,0.290511 L0.069941,0.290511 L0.069908,0.290505 L0.069840,0.290478 L0.069820,0.290464 L0.069766,0.290424 L0.069658,0.290336 L0.069577,0.290268 L0.069503,0.290207 L0.069476,0.290194 L0.069456,0.290194 L0.069381,0.290147 L0.069368,0.290147 L0.069172,0.290093 L0.069132,0.290079 L0.069098,0.290045 L0.068929,0.289863 L0.068808,0.289728 L0.068794,0.289708 L0.068801,0.289708 L0.069065,0.289721 L0.069165,0.289647 L0.069253,0.289431 L0.069543,0.289329 L0.070137,0.288917 L0.070866,0.288627 L0.071406,0.288472 L0.071500,0.288445 L0.072573,0.288357 L0.072890,0.288120 L0.073213,0.287904 L0.073491,0.287790 L0.073477,0.287188 L0.073564,0.286614 L0.073557,0.286587 L0.073538,0.286283 L0.073491,0.286175 L0.073396,0.286047 L0.073389,0.285892 L0.073409,0.285750 L0.073437,0.285622 L0.073308,0.285419 L0.073234,0.285277 L0.073106,0.285183 L0.073018,0.285014 L0.072917,0.284899 L0.072856,0.284784 L0.072883,0.284717 L0.072930,0.284548 L0.073126,0.284136 L0.073551,0.284001 L0.073733,0.283953 L0.074003,0.283879 L0.074381,0.283879 L0.075009,0.283866 L0.075636,0.283839 L0.076526,0.283623 L0.076587,0.283609 L0.076601,0.283596 L0.076857,0.283184 L0.076938,0.283103 L0.077309,0.282751 L0.077795,0.282009 L0.077829,0.281941 L0.078112,0.281245 L0.078200,0.281029 L0.078240,0.280921 L0.078402,0.280395 L0.078557,0.279834 L0.078753,0.279294 L0.078955,0.278477 L0.079009,0.278335 L0.079070,0.278315 L0.079145,0.278490 L0.079299,0.278652 L0.079435,0.278747 L0.079562,0.278700 L0.079792,0.278646 L0.079921,0.278551 L0.080096,0.278389 L0.080312,0.277977 L0.080419,0.277774 L0.080629,0.277315 L0.080710,0.277356 L0.080959,0.277477 L0.081000,0.277491 L0.081249,0.277619 L0.081506,0.277747 L0.081513,0.277761 L0.081701,0.277876 L0.081722,0.277876 L0.081857,0.277957 L0.081864,0.277964 L0.081891,0.277970 L0.081957,0.277997 L0.082093,0.278038 L0.082295,0.278092 L0.082511,0.278139 L0.082646,0.278173 L0.082653,0.278166 L0.082687,0.278004 L0.082774,0.277714 L0.082781,0.277680 L0.082801,0.277599 L0.082801,0.277585 L0.082882,0.277228 L0.082977,0.276775 L0.083409,0.276843 L0.083436,0.276849 L0.083476,0.276843 L0.083469,0.276134 L0.083725,0.275877 L0.084130,0.275647 L0.084603,0.275445 L0.084784,0.275364 L0.084805,0.275323 L0.084839,0.275283 L0.085136,0.274851 L0.085817,0.275384 L0.085905,0.275458 L0.086593,0.276066 L0.086910,0.276417 L0.087133,0.276660 L0.087504,0.276978 L0.087625,0.277079 L0.087983,0.277201 L0.088037,0.277214 L0.088233,0.277214 L0.088617,0.277214 L0.089278,0.277032 L0.089852,0.276843 L0.089872,0.276836 L0.090486,0.276883 L0.090776,0.276984 L0.090783,0.276984 L0.091255,0.277153 L0.092098,0.276991 L0.092402,0.276924 L0.092976,0.276424 L0.093016,0.276383 L0.093124,0.276235 L0.093455,0.275755 L0.093556,0.275546 L0.093670,0.275269 L0.093765,0.274574 L0.093853,0.274027 L0.093967,0.273176 L0.094109,0.272980 L0.094305,0.272710 L0.095506,0.271778 L0.095513,0.271772 L0.096484,0.270685 L0.097469,0.269820 L0.098616,0.269138 L0.098711,0.269105 L0.099689,0.268801 L0.100795,0.268902 L0.101342,0.268963 L0.101740,0.269017 L0.103454,0.269057 L0.104176,0.268889 L0.104378,0.268841 L0.104750,0.268754 L0.105033,0.268517 L0.105100,0.268463 L0.105181,0.268389 L0.105296,0.268288 L0.105579,0.267903 L0.105626,0.267585 L0.105673,0.267288 L0.105653,0.267234 L0.105592,0.267032 L0.105451,0.266559 L0.105410,0.266431 L0.105356,0.266222 L0.105323,0.266154 L0.105033,0.265553 L0.104965,0.265418 L0.104763,0.265006 L0.104506,0.264399 L0.104338,0.264014 L0.104304,0.263737 L0.104237,0.263109 L0.104237,0.263089 L0.104250,0.261928 L0.104439,0.260611 L0.104750,0.260011 L0.104979,0.259558 L0.106240,0.258498 L0.106349,0.258438 L0.107016,0.258087 L0.107266,0.257965 L0.108656,0.257884 L0.109513,0.258060 L0.109742,0.258100 L0.110538,0.258519 L0.110700,0.258613 L0.111051,0.258741 L0.111557,0.258937 L0.111725,0.258991 L0.112758,0.259113 L0.113055,0.259146 L0.113628,0.259045 L0.114303,0.258903 L0.114553,0.258768 L0.114688,0.258701 L0.115254,0.258397 L0.115497,0.258174 L0.115518,0.258154 L0.115558,0.258120 L0.115652,0.258033 L0.115767,0.257513 L0.115733,0.257243 L0.115706,0.257020 L0.115699,0.257000 L0.115430,0.256291 L0.115382,0.256163 L0.115349,0.256075 L0.115342,0.256055 L0.115322,0.256007 L0.115247,0.255872 L0.115079,0.255528 L0.114971,0.255245 L0.114708,0.254570 L0.114667,0.254448 L0.114586,0.254171 L0.114451,0.253753 L0.114431,0.253699 L0.114283,0.253125 L0.114269,0.253078 L0.114141,0.252578 L0.114114,0.252092 L0.114161,0.251883 L0.114242,0.251498 L0.114296,0.251255 L0.114742,0.250520 L0.114755,0.250513 L0.114991,0.250115 L0.115126,0.249899 L0.115389,0.249359 L0.115578,0.248785 L0.115835,0.248130 L0.115875,0.248049 L0.115889,0.248015 L0.115936,0.247840 L0.116070,0.247354 L0.116111,0.246713 L0.116118,0.246652 L0.116131,0.246497 L0.116125,0.246476 L0.116253,0.245842 L0.116334,0.245667 L0.116556,0.245174 L0.116739,0.244843 L0.116826,0.244668 L0.117015,0.244485 L0.117386,0.244134 L0.117413,0.244101 L0.118081,0.243797 L0.118810,0.243804 L0.119356,0.244047 L0.119546,0.244134 L0.119910,0.244506 L0.120159,0.244762 L0.120301,0.244857 L0.120524,0.245005 L0.120638,0.245086 L0.120807,0.245208 Z">
    <title>Peza</title>
  </path>
</svg>
