<?xml version="1.0" encoding="UTF-8"?>
<svg xmlns="http://www.w3.org/2000/svg" viewBox="0 0 0.533968 0.445545" width="800" height="800">
  <style>
    .boundary {
      fill: none;
      stroke: #222222;
      stroke-width: 0.5;
      vector-effect: non-scaling-stroke;
    }
  </style>
  <path class="boundary" d="M0.400477,0.134554 L0.401576,0.135114 L0.402099,0.135061 L0.402573,0.134913 L0.403712,0.134711 L0.404233,0.134562 L0.404848,0.134270 L0.405702,0.134023 L0.406941,0.134296 L0.407700,0.134192 L0.408080,0.134093 L0.408885,0.133846 L0.409217,0.133652 L0.409881,0.133378 L0.410164,0.133261 L0.410455,0.133028 L0.410395,0.133603 L0.410310,0.134409 L0.409877,0.135793 L0.409914,0.136690 L0.410324,0.137658 L0.411806,0.137585 L0.413113,0.138030 L0.414178,0.137846 L0.415183,0.137927 L0.416552,0.137913 L0.417920,0.137899 L0.418744,0.138165 L0.419364,0.137859 L0.419490,0.137797 L0.421047,0.137376 L0.421947,0.137575 L0.422094,0.137931 L0.422334,0.138214 L0.422573,0.138354 L0.423003,0.138493 L0.423429,0.138393 L0.423712,0.138224 L0.424019,0.138078 L0.424494,0.137954 L0.424928,0.138000 L0.425754,0.137989 L0.426280,0.138341 L0.426569,0.138767 L0.426693,0.139194 L0.426550,0.139895 L0.427000,0.140610 L0.427272,0.141043 L0.427427,0.141290 L0.426955,0.141741 L0.427103,0.142216 L0.427416,0.142570 L0.427561,0.142854 L0.427802,0.143185 L0.428232,0.143419 L0.428863,0.143574 L0.429158,0.144044 L0.429511,0.144570 L0.429508,0.145145 L0.429513,0.145598 L0.429514,0.145714 L0.429516,0.145884 L0.429496,0.146337 L0.429548,0.146741 L0.429788,0.146977 L0.430143,0.146807 L0.430425,0.146542 L0.430611,0.146582 L0.430935,0.146652 L0.431427,0.146889 L0.431646,0.147299 L0.431864,0.147814 L0.432081,0.148145 L0.432072,0.148216 L0.432015,0.148670 L0.432398,0.148952 L0.432725,0.148949 L0.432968,0.148946 L0.433514,0.148893 L0.434178,0.148863 L0.434986,0.148807 L0.435386,0.148469 L0.435453,0.148016 L0.435950,0.147725 L0.436542,0.147624 L0.436945,0.147525 L0.437612,0.147614 L0.438041,0.147728 L0.438919,0.147696 L0.439458,0.147087 L0.440050,0.146684 L0.440403,0.146442 L0.440901,0.146271 L0.441471,0.146194 L0.441922,0.146237 L0.442134,0.146546 L0.442319,0.146792 L0.442004,0.147284 L0.441936,0.147619 L0.442106,0.147998 L0.442300,0.148425 L0.442659,0.148683 L0.442850,0.148777 L0.443042,0.148989 L0.443073,0.149339 L0.442826,0.149751 L0.442889,0.150301 L0.442916,0.150634 L0.442799,0.150898 L0.442557,0.151198 L0.442331,0.151522 L0.442237,0.151761 L0.442857,0.152136 L0.442497,0.153226 L0.441706,0.153948 L0.441454,0.154437 L0.441118,0.155012 L0.441127,0.156041 L0.441507,0.156952 L0.440916,0.157701 L0.440950,0.158272 L0.441444,0.159182 L0.442334,0.159945 L0.443196,0.160537 L0.443743,0.161075 L0.444405,0.161783 L0.445497,0.162716 L0.446697,0.163537 L0.447767,0.164496 L0.449076,0.164900 L0.449910,0.165017 L0.450096,0.165959 L0.450254,0.167660 L0.450362,0.168423 L0.450444,0.169006 L0.450454,0.170106 L0.450412,0.170652 L0.450344,0.171544 L0.450595,0.172203 L0.450630,0.172296 L0.449705,0.173790 L0.448598,0.174415 L0.447908,0.174913 L0.447433,0.175272 L0.446789,0.175873 L0.446508,0.176345 L0.446063,0.176782 L0.447092,0.177162 L0.448052,0.177806 L0.448552,0.178141 L0.449778,0.178964 L0.450867,0.179566 L0.452097,0.180108 L0.453410,0.180424 L0.454728,0.180564 L0.455703,0.180555 L0.455906,0.180522 L0.456382,0.179445 L0.456904,0.178876 L0.457239,0.177822 L0.457915,0.177098 L0.458552,0.176699 L0.459261,0.176227 L0.459861,0.175614 L0.460496,0.174964 L0.460989,0.174352 L0.461979,0.173556 L0.462616,0.172978 L0.463253,0.172578 L0.464197,0.171935 L0.464209,0.171926 L0.464954,0.171490 L0.465881,0.171553 L0.467094,0.171720 L0.468056,0.171639 L0.468270,0.171709 L0.468628,0.171848 L0.468952,0.172167 L0.469278,0.172700 L0.469425,0.173199 L0.469426,0.173306 L0.469431,0.173807 L0.470122,0.173880 L0.471607,0.174037 L0.473214,0.174379 L0.474183,0.175085 L0.475332,0.176004 L0.475870,0.176356 L0.476407,0.176673 L0.477050,0.176881 L0.478086,0.177122 L0.479155,0.177076 L0.481080,0.177130 L0.481941,0.177730 L0.482300,0.178120 L0.483697,0.178786 L0.485665,0.179662 L0.487526,0.180539 L0.488206,0.180854 L0.489566,0.181485 L0.490173,0.181694 L0.491315,0.181791 L0.491962,0.182429 L0.492430,0.183032 L0.492435,0.183042 L0.492612,0.183388 L0.492831,0.183958 L0.493261,0.184204 L0.493654,0.184415 L0.494443,0.184909 L0.495455,0.186508 L0.495463,0.187366 L0.495469,0.188045 L0.494704,0.190233 L0.494499,0.191164 L0.494753,0.191627 L0.495323,0.191586 L0.496068,0.191364 L0.497737,0.190634 L0.498942,0.189944 L0.499686,0.189401 L0.500600,0.187999 L0.501601,0.187349 L0.501708,0.187280 L0.503011,0.186762 L0.504751,0.185996 L0.505639,0.185631 L0.506637,0.185693 L0.507676,0.186256 L0.508007,0.187469 L0.509207,0.189430 L0.509479,0.190095 L0.509692,0.190512 L0.509697,0.191065 L0.509398,0.191773 L0.509269,0.192213 L0.509105,0.192881 L0.508956,0.193340 L0.508902,0.193608 L0.508810,0.193971 L0.508493,0.194660 L0.507835,0.195428 L0.507722,0.195601 L0.506969,0.196485 L0.506568,0.196859 L0.506307,0.197126 L0.505997,0.197425 L0.505904,0.197616 L0.505853,0.197783 L0.505787,0.197932 L0.505693,0.198105 L0.505675,0.198138 L0.505726,0.198281 L0.505811,0.198365 L0.505873,0.198455 L0.505835,0.198532 L0.505751,0.198604 L0.505572,0.198739 L0.505496,0.198778 L0.505419,0.198793 L0.505330,0.198822 L0.505283,0.198865 L0.505255,0.198932 L0.505195,0.199085 L0.505135,0.199248 L0.505102,0.199396 L0.505108,0.199524 L0.505090,0.199648 L0.505078,0.199820 L0.504985,0.200102 L0.504844,0.200246 L0.504764,0.200380 L0.504661,0.200462 L0.504600,0.200529 L0.504553,0.200654 L0.504516,0.200768 L0.504465,0.200931 L0.504372,0.201070 L0.504254,0.201166 L0.504151,0.201348 L0.504163,0.201577 L0.504226,0.201729 L0.504284,0.201809 L0.504332,0.201933 L0.504323,0.202047 L0.504372,0.202180 L0.504430,0.202327 L0.504517,0.202455 L0.504494,0.202570 L0.504432,0.202712 L0.504459,0.202807 L0.504514,0.203000 L0.504679,0.203059 L0.504765,0.203158 L0.504895,0.203314 L0.504940,0.203566 L0.504984,0.203752 L0.504971,0.203900 L0.504935,0.204062 L0.504955,0.204205 L0.505080,0.204404 L0.505100,0.204484 L0.505115,0.204642 L0.505074,0.204794 L0.504999,0.204957 L0.504956,0.205182 L0.505002,0.205453 L0.505113,0.205772 L0.504991,0.206051 L0.504964,0.206112 L0.504703,0.206572 L0.504664,0.206644 L0.504497,0.206955 L0.504349,0.207414 L0.504030,0.207874 L0.503994,0.207903 L0.503634,0.208202 L0.502953,0.208532 L0.502708,0.208725 L0.502500,0.208879 L0.502457,0.208901 L0.502235,0.209015 L0.501850,0.209056 L0.501647,0.209078 L0.501260,0.209095 L0.501115,0.209101 L0.500489,0.209240 L0.500020,0.209798 L0.499566,0.210126 L0.498564,0.210611 L0.497879,0.210560 L0.497157,0.210471 L0.496700,0.210418 L0.495635,0.210218 L0.495007,0.210109 L0.494627,0.210113 L0.494077,0.210156 L0.493241,0.210183 L0.492386,0.210190 L0.491760,0.210215 L0.491948,0.210099 L0.491434,0.210027 L0.490731,0.209958 L0.489894,0.209851 L0.489020,0.209802 L0.488621,0.209824 L0.488033,0.209944 L0.487197,0.209933 L0.486627,0.209919 L0.485810,0.209869 L0.485296,0.209778 L0.484898,0.209820 L0.484805,0.210164 L0.484791,0.210622 L0.484888,0.210888 L0.484910,0.211193 L0.484837,0.211518 L0.484817,0.211630 L0.484747,0.212014 L0.484676,0.212260 L0.484600,0.212530 L0.484316,0.212800 L0.484111,0.213183 L0.483812,0.213720 L0.483663,0.213988 L0.483477,0.214504 L0.483254,0.214945 L0.483202,0.215029 L0.482991,0.215367 L0.482765,0.215560 L0.482349,0.215697 L0.482044,0.215700 L0.481266,0.215707 L0.481076,0.215709 L0.480335,0.215716 L0.480136,0.215717 L0.479803,0.215720 L0.479405,0.215762 L0.478816,0.215806 L0.478514,0.215980 L0.478194,0.216269 L0.478103,0.216372 L0.478006,0.216481 L0.477591,0.216751 L0.477308,0.217078 L0.476613,0.217866 L0.476312,0.218193 L0.476107,0.218653 L0.475827,0.219189 L0.475320,0.219785 L0.474715,0.220077 L0.474261,0.220272 L0.473728,0.220219 L0.473424,0.220108 L0.473213,0.219976 L0.473059,0.219730 L0.472866,0.219427 L0.472579,0.219143 L0.472271,0.218670 L0.472212,0.218619 L0.471964,0.218406 L0.471276,0.217973 L0.470303,0.217525 L0.469332,0.217229 L0.468571,0.217160 L0.467128,0.217231 L0.466711,0.217311 L0.466065,0.217336 L0.465914,0.217376 L0.465420,0.217380 L0.464434,0.217580 L0.464187,0.217583 L0.463845,0.217605 L0.463447,0.217647 L0.463162,0.217650 L0.462652,0.217883 L0.461949,0.217909 L0.461550,0.217875 L0.461322,0.217972 L0.460698,0.218226 L0.460376,0.218325 L0.459846,0.218482 L0.459298,0.218792 L0.459034,0.219005 L0.458620,0.219390 L0.458017,0.219911 L0.457659,0.220219 L0.457243,0.220490 L0.456998,0.220664 L0.456639,0.220858 L0.456186,0.221129 L0.455790,0.221400 L0.455375,0.221690 L0.455034,0.221865 L0.454638,0.222117 L0.454373,0.222291 L0.453956,0.222352 L0.453329,0.222301 L0.452949,0.222305 L0.452475,0.222328 L0.452134,0.222503 L0.452118,0.222789 L0.452237,0.223246 L0.452354,0.223626 L0.452453,0.224063 L0.452305,0.224262 L0.452102,0.224509 L0.451968,0.224785 L0.451702,0.225068 L0.451599,0.225230 L0.451510,0.225393 L0.451339,0.225556 L0.451059,0.225903 L0.450909,0.226172 L0.450766,0.226426 L0.450419,0.226704 L0.450302,0.226899 L0.450119,0.227137 L0.450067,0.227319 L0.449978,0.227515 L0.449855,0.227716 L0.449789,0.227939 L0.449744,0.228106 L0.449667,0.228295 L0.449703,0.228495 L0.449505,0.228932 L0.449496,0.229164 L0.449295,0.229368 L0.449104,0.229576 L0.448883,0.229670 L0.448724,0.229717 L0.448450,0.229827 L0.448315,0.229984 L0.448321,0.230230 L0.448314,0.230389 L0.448190,0.230454 L0.447735,0.230527 L0.447336,0.230490 L0.447131,0.230679 L0.446869,0.230771 L0.446750,0.230901 L0.446467,0.230988 L0.446444,0.230995 L0.446182,0.231075 L0.445861,0.231082 L0.445480,0.231143 L0.445096,0.231127 L0.444519,0.231253 L0.444089,0.231363 L0.443936,0.231662 L0.443834,0.231777 L0.443733,0.231858 L0.443506,0.231940 L0.443302,0.231999 L0.443052,0.232082 L0.442859,0.232210 L0.442600,0.232464 L0.442249,0.232673 L0.441953,0.232733 L0.441806,0.232792 L0.441748,0.232829 L0.441707,0.232856 L0.441591,0.232931 L0.441229,0.233232 L0.440675,0.233257 L0.440629,0.233293 L0.439891,0.233889 L0.439294,0.234126 L0.438840,0.234264 L0.438253,0.234441 L0.437476,0.234639 L0.437079,0.234796 L0.436683,0.235105 L0.436062,0.235645 L0.435438,0.236309 L0.435156,0.236598 L0.435041,0.236880 L0.434887,0.237060 L0.434883,0.237064 L0.434679,0.237249 L0.434465,0.237366 L0.434215,0.237483 L0.433852,0.237566 L0.433305,0.237560 L0.432678,0.237487 L0.432338,0.237719 L0.431799,0.238119 L0.431427,0.239293 L0.431493,0.240190 L0.431979,0.241093 L0.432302,0.241859 L0.432428,0.242224 L0.432631,0.242809 L0.433012,0.244121 L0.433302,0.244633 L0.433442,0.245376 L0.433225,0.246407 L0.433116,0.246847 L0.433119,0.247190 L0.433483,0.247511 L0.433942,0.247906 L0.434001,0.248135 L0.433928,0.248421 L0.433761,0.248804 L0.433536,0.249112 L0.433331,0.249457 L0.433032,0.249860 L0.432787,0.250130 L0.432430,0.250514 L0.432356,0.250744 L0.432231,0.251451 L0.432237,0.252061 L0.432242,0.252633 L0.432248,0.253243 L0.432047,0.254026 L0.431696,0.254983 L0.431402,0.255959 L0.431165,0.256971 L0.431073,0.259127 L0.430673,0.259017 L0.430028,0.259042 L0.429876,0.259101 L0.429688,0.259255 L0.429577,0.259466 L0.429425,0.259544 L0.429046,0.259548 L0.428799,0.259512 L0.428536,0.259526 L0.428199,0.259405 L0.427809,0.259236 L0.427069,0.259262 L0.426611,0.259076 L0.426477,0.258982 L0.425579,0.258654 L0.424844,0.258721 L0.424632,0.258843 L0.424324,0.258846 L0.424133,0.258752 L0.424062,0.258753 L0.423683,0.258852 L0.423599,0.258956 L0.423566,0.258996 L0.423287,0.259571 L0.423285,0.259608 L0.423267,0.259929 L0.423270,0.260215 L0.423273,0.260572 L0.423181,0.260907 L0.423042,0.261123 L0.422546,0.261414 L0.421485,0.262020 L0.420942,0.262360 L0.420211,0.262820 L0.419598,0.263207 L0.418986,0.263690 L0.418282,0.264436 L0.417508,0.265302 L0.416926,0.265598 L0.415643,0.266251 L0.414744,0.266498 L0.414126,0.266457 L0.413721,0.266271 L0.413387,0.266083 L0.412888,0.265993 L0.412557,0.266163 L0.412039,0.266550 L0.411709,0.266792 L0.411356,0.267081 L0.411075,0.267442 L0.410943,0.267652 L0.410772,0.267922 L0.410610,0.268305 L0.410354,0.268831 L0.409742,0.269243 L0.409482,0.269436 L0.408939,0.269680 L0.408373,0.269972 L0.407832,0.270359 L0.407384,0.270674 L0.406960,0.271035 L0.406537,0.271421 L0.406208,0.271663 L0.405521,0.271789 L0.405095,0.271913 L0.404670,0.272036 L0.404054,0.272210 L0.403605,0.272357 L0.403203,0.272409 L0.402539,0.272440 L0.401399,0.272428 L0.401094,0.272646 L0.400741,0.273031 L0.400794,0.273507 L0.400892,0.273863 L0.400970,0.274411 L0.401045,0.274815 L0.401170,0.275386 L0.401270,0.275933 L0.401370,0.276480 L0.401306,0.277148 L0.401126,0.278079 L0.401320,0.278435 L0.401443,0.278862 L0.401425,0.279458 L0.401312,0.279960 L0.401176,0.280557 L0.400968,0.281179 L0.400666,0.281707 L0.400339,0.282211 L0.400082,0.282642 L0.399752,0.282860 L0.399471,0.283149 L0.398931,0.283655 L0.398411,0.283875 L0.397939,0.284119 L0.397727,0.284311 L0.397424,0.284791 L0.396885,0.285345 L0.396580,0.285730 L0.396418,0.286065 L0.395759,0.286620 L0.395334,0.286863 L0.394911,0.287153 L0.393866,0.287069 L0.393371,0.287313 L0.392849,0.287318 L0.392256,0.287324 L0.391615,0.287236 L0.391140,0.287146 L0.390593,0.287032 L0.390094,0.286990 L0.389379,0.286640 L0.388833,0.286646 L0.387959,0.286941 L0.387840,0.286942 L0.387580,0.286945 L0.387341,0.286805 L0.387101,0.286593 L0.386790,0.286310 L0.386419,0.286074 L0.386313,0.286005 L0.386038,0.285995 L0.385924,0.285991 L0.383845,0.285913 L0.383226,0.285776 L0.382632,0.285616 L0.382132,0.285454 L0.381491,0.285390 L0.380161,0.285190 L0.379114,0.284915 L0.378233,0.284639 L0.377789,0.284405 L0.376945,0.283961 L0.375704,0.283331 L0.375274,0.282979 L0.374938,0.282577 L0.374762,0.282249 L0.374672,0.282079 L0.374404,0.281510 L0.374162,0.281084 L0.373970,0.280848 L0.373375,0.280592 L0.372826,0.280288 L0.372662,0.280229 L0.372445,0.280149 L0.372159,0.280057 L0.371872,0.279870 L0.371607,0.279491 L0.370681,0.279382 L0.370159,0.279388 L0.369115,0.279423 L0.368855,0.279426 L0.368191,0.279433 L0.367194,0.279444 L0.366815,0.279496 L0.366031,0.279314 L0.365025,0.279117 L0.364363,0.279001 L0.364192,0.279098 L0.363967,0.279184 L0.363742,0.279139 L0.363599,0.279045 L0.363502,0.278975 L0.363336,0.278881 L0.363276,0.278822 L0.363156,0.278728 L0.363120,0.278693 L0.362894,0.278636 L0.362716,0.278650 L0.362515,0.278664 L0.362314,0.278666 L0.362112,0.278645 L0.361814,0.278541 L0.361671,0.278483 L0.361528,0.278413 L0.361361,0.278391 L0.361088,0.278299 L0.360825,0.278111 L0.360669,0.277934 L0.360537,0.277792 L0.360368,0.277627 L0.360261,0.277533 L0.360011,0.277452 L0.359916,0.277477 L0.359704,0.277575 L0.359550,0.277636 L0.359339,0.277770 L0.359161,0.277843 L0.359090,0.277856 L0.358959,0.277857 L0.358829,0.277847 L0.358687,0.277837 L0.358557,0.277945 L0.358429,0.278114 L0.358395,0.278316 L0.358410,0.278567 L0.358268,0.278640 L0.358090,0.278582 L0.357947,0.278488 L0.357755,0.278347 L0.357671,0.278277 L0.357504,0.278195 L0.357398,0.278173 L0.357136,0.278164 L0.357006,0.278177 L0.356923,0.278202 L0.356877,0.278262 L0.356807,0.278418 L0.356785,0.278549 L0.356774,0.278644 L0.356680,0.278693 L0.356632,0.278706 L0.356526,0.278707 L0.356430,0.278684 L0.356335,0.278637 L0.356264,0.278662 L0.356229,0.278710 L0.356230,0.278770 L0.356207,0.278841 L0.356183,0.278865 L0.355983,0.278951 L0.355697,0.278914 L0.355151,0.278949 L0.355265,0.278808 L0.355245,0.278490 L0.355191,0.278166 L0.355178,0.278072 L0.355070,0.277619 L0.355016,0.277450 L0.354935,0.277309 L0.354874,0.277255 L0.354854,0.277241 L0.354786,0.277207 L0.354685,0.277146 L0.354665,0.277072 L0.354698,0.276843 L0.354692,0.276647 L0.354672,0.276309 L0.354725,0.276154 L0.354739,0.276093 L0.354725,0.276086 L0.354712,0.276066 L0.354645,0.275999 L0.354598,0.275809 L0.354537,0.275755 L0.354503,0.275546 L0.354409,0.275330 L0.354227,0.275168 L0.354031,0.274965 L0.353748,0.274932 L0.353538,0.274925 L0.353120,0.274878 L0.352945,0.274803 L0.352675,0.274790 L0.352472,0.274655 L0.352513,0.274473 L0.352594,0.274290 L0.352594,0.274209 L0.352587,0.274047 L0.352688,0.273851 L0.352816,0.273905 L0.353113,0.273851 L0.353491,0.273845 L0.353707,0.273696 L0.353916,0.273304 L0.353889,0.272899 L0.354004,0.272906 L0.354490,0.273001 L0.354908,0.273055 L0.355333,0.273041 L0.355488,0.272879 L0.355616,0.272717 L0.355758,0.272663 L0.355860,0.272683 L0.355940,0.272548 L0.356035,0.272454 L0.356190,0.272379 L0.356358,0.272312 L0.356507,0.272265 L0.356581,0.272082 L0.356588,0.271974 L0.356561,0.271826 L0.356527,0.271664 L0.356534,0.271535 L0.356480,0.271394 L0.356460,0.271312 L0.356527,0.271164 L0.356588,0.271063 L0.356702,0.270725 L0.356696,0.270651 L0.356656,0.270563 L0.356649,0.270455 L0.356656,0.270401 L0.356770,0.270313 L0.356770,0.270212 L0.356777,0.270084 L0.356837,0.270016 L0.356919,0.269915 L0.356952,0.269874 L0.357006,0.269820 L0.357074,0.269793 L0.357114,0.269726 L0.357168,0.269638 L0.357236,0.269429 L0.357175,0.269375 L0.356986,0.269213 L0.356973,0.268976 L0.357013,0.268652 L0.357195,0.268240 L0.357290,0.268011 L0.357236,0.267390 L0.357020,0.267187 L0.356871,0.267086 L0.356729,0.267039 L0.356534,0.267045 L0.356379,0.267167 L0.356190,0.267322 L0.355947,0.267430 L0.355765,0.267423 L0.355609,0.267417 L0.355414,0.267498 L0.355238,0.267592 L0.355023,0.267639 L0.354861,0.267835 L0.354739,0.268011 L0.354544,0.268112 L0.354388,0.268254 L0.354361,0.268402 L0.354287,0.268585 L0.354146,0.268625 L0.354024,0.268605 L0.353902,0.268578 L0.353781,0.268544 L0.353687,0.268571 L0.353565,0.268625 L0.353437,0.268618 L0.353235,0.268787 L0.353026,0.268943 L0.352911,0.269030 L0.352816,0.269037 L0.352722,0.269152 L0.352641,0.269307 L0.352560,0.269375 L0.352520,0.269570 L0.352493,0.269685 L0.352425,0.269868 L0.352351,0.269955 L0.352176,0.270070 L0.352101,0.270084 L0.352013,0.270097 L0.351892,0.270192 L0.351683,0.270502 L0.351568,0.270651 L0.351413,0.270948 L0.351332,0.270928 L0.351042,0.270860 L0.350927,0.270799 L0.350799,0.270779 L0.350671,0.270813 L0.350590,0.270793 L0.350536,0.270671 L0.350455,0.270651 L0.350360,0.270577 L0.350286,0.270421 L0.350299,0.270300 L0.350306,0.270273 L0.350299,0.270043 L0.350320,0.269861 L0.350380,0.269699 L0.350353,0.269557 L0.350273,0.269429 L0.350253,0.269361 L0.350239,0.269267 L0.350286,0.269186 L0.350306,0.269159 L0.350306,0.269138 L0.350340,0.269071 L0.350347,0.269057 L0.350340,0.268943 L0.350293,0.268875 L0.350286,0.268855 L0.350138,0.268781 L0.350104,0.268787 L0.350070,0.268781 L0.349996,0.268787 L0.349821,0.268848 L0.349686,0.268828 L0.349672,0.268828 L0.349659,0.268828 L0.349611,0.268801 L0.349490,0.268747 L0.349349,0.268639 L0.349281,0.268585 L0.349213,0.268564 L0.349152,0.268578 L0.349078,0.268659 L0.349078,0.268666 L0.349065,0.268666 L0.348991,0.268699 L0.348883,0.268693 L0.348781,0.268645 L0.348754,0.268571 L0.348748,0.268537 L0.348647,0.268274 L0.348606,0.268105 L0.348600,0.268072 L0.348593,0.268018 L0.348593,0.267970 L0.348593,0.267835 L0.348546,0.267633 L0.348485,0.267511 L0.348471,0.267403 L0.348505,0.267282 L0.348519,0.267255 L0.348566,0.267140 L0.348579,0.267059 L0.348579,0.266991 L0.348579,0.266917 L0.348573,0.266877 L0.348532,0.266546 L0.348519,0.266505 L0.348451,0.266343 L0.348424,0.266269 L0.348329,0.266006 L0.348302,0.265979 L0.348195,0.265844 L0.347972,0.265655 L0.347729,0.265445 L0.347540,0.265276 L0.347486,0.265141 L0.347392,0.264939 L0.347345,0.264804 L0.347378,0.264622 L0.347345,0.264392 L0.347223,0.264048 L0.347169,0.263589 L0.347169,0.263575 L0.346872,0.262873 L0.346751,0.262657 L0.346603,0.262454 L0.346521,0.262259 L0.346542,0.262036 L0.346663,0.261779 L0.346670,0.261779 L0.346778,0.261543 L0.346562,0.261354 L0.346130,0.261259 L0.345692,0.261023 L0.345556,0.260929 L0.345233,0.260719 L0.344794,0.260537 L0.344484,0.260389 L0.344201,0.260564 L0.343978,0.260544 L0.343701,0.260301 L0.343459,0.260247 L0.343303,0.260598 L0.343229,0.260854 L0.342892,0.260834 L0.342716,0.260503 L0.342608,0.260321 L0.342163,0.259984 L0.341765,0.259639 L0.341462,0.259626 L0.341124,0.259545 L0.340915,0.259356 L0.340746,0.258971 L0.340544,0.258728 L0.340449,0.258613 L0.340179,0.258303 L0.339868,0.258127 L0.339653,0.257607 L0.339741,0.257142 L0.339902,0.256318 L0.340530,0.255785 L0.341252,0.255481 L0.341677,0.254860 L0.342345,0.254313 L0.342446,0.254057 L0.342568,0.253766 L0.342581,0.253753 L0.342534,0.253638 L0.342318,0.253152 L0.341616,0.252207 L0.341144,0.250499 L0.340510,0.248677 L0.339842,0.247529 L0.339458,0.247199 L0.339451,0.247185 L0.339235,0.246902 L0.339167,0.246821 L0.338601,0.246665 L0.338357,0.246591 L0.338230,0.246557 L0.337683,0.245842 L0.337669,0.245586 L0.337663,0.245282 L0.337494,0.244884 L0.337210,0.244708 L0.337183,0.244708 L0.336583,0.244755 L0.335753,0.245052 L0.335490,0.245437 L0.335112,0.245491 L0.334309,0.245478 L0.334161,0.245491 L0.334046,0.245498 L0.333594,0.245525 L0.332305,0.246024 L0.331422,0.246591 L0.331097,0.246800 L0.330747,0.246956 L0.329451,0.247516 L0.327920,0.247739 L0.327394,0.247543 L0.327151,0.247739 L0.327023,0.247847 L0.326807,0.247678 L0.326698,0.247590 L0.326692,0.247590 L0.326334,0.247435 L0.326051,0.247313 L0.325963,0.247273 L0.325606,0.247205 L0.325235,0.247516 L0.324965,0.247644 L0.324958,0.247637 L0.324499,0.247536 L0.324149,0.247577 L0.324040,0.247590 L0.323952,0.247604 L0.323636,0.247165 L0.323379,0.246665 L0.322833,0.245687 L0.322522,0.245187 L0.322482,0.245127 L0.322475,0.245113 L0.322313,0.244755 L0.322124,0.244512 L0.322077,0.244452 L0.321989,0.244249 L0.321821,0.243905 L0.321544,0.243298 L0.321369,0.242602 L0.321139,0.241712 L0.321240,0.241415 L0.321294,0.241043 L0.321726,0.239417 L0.322192,0.238425 L0.323002,0.236421 L0.323048,0.236313 L0.323460,0.235165 L0.323460,0.233816 L0.323163,0.232061 L0.323116,0.231818 L0.322948,0.231002 L0.322604,0.229524 L0.322421,0.228282 L0.322380,0.227459 L0.322293,0.226994 L0.322394,0.226299 L0.322414,0.226110 L0.322711,0.225523 L0.323433,0.225037 L0.323865,0.224639 L0.324378,0.223849 L0.325072,0.222783 L0.325336,0.221097 L0.324985,0.220503 L0.323878,0.218661 L0.322111,0.216165 L0.321928,0.215963 L0.321301,0.215261 L0.320323,0.214155 L0.320127,0.213925 L0.319985,0.213757 L0.319972,0.213736 L0.319641,0.213534 L0.319614,0.213520 L0.319601,0.213493 L0.319499,0.213224 L0.319479,0.213170 L0.319479,0.213075 L0.319493,0.212967 L0.319486,0.212947 L0.319466,0.212893 L0.319365,0.212859 L0.319351,0.212859 L0.319047,0.212907 L0.319054,0.212900 L0.318960,0.212826 L0.318940,0.212704 L0.318933,0.212664 L0.318940,0.212657 L0.318778,0.212407 L0.318838,0.212279 L0.318852,0.212266 L0.318947,0.212138 L0.318953,0.212131 L0.318953,0.212124 L0.318967,0.211969 L0.318974,0.211969 L0.319203,0.211901 L0.319196,0.211874 L0.320087,0.211645 L0.320687,0.211490 L0.320687,0.211517 L0.322435,0.211288 L0.322435,0.211328 L0.323224,0.211159 L0.321976,0.209271 L0.321551,0.208468 L0.321159,0.208117 L0.320532,0.207503 L0.320175,0.206883 L0.319857,0.205905 L0.319574,0.204380 L0.318784,0.203200 L0.317348,0.201817 L0.316328,0.200846 L0.315600,0.199902 L0.315425,0.199369 L0.315444,0.198242 L0.315566,0.197318 L0.315559,0.196853 L0.315391,0.196381 L0.315175,0.196051 L0.315006,0.195578 L0.314824,0.194675 L0.314959,0.194216 L0.314966,0.194021 L0.314575,0.193555 L0.313589,0.192732 L0.312557,0.191579 L0.311748,0.190500 L0.311929,0.190446 L0.312678,0.190183 L0.313313,0.190258 L0.313879,0.190264 L0.314270,0.190048 L0.314392,0.189988 L0.314419,0.189900 L0.314723,0.188848 L0.314763,0.187176 L0.314946,0.186400 L0.315384,0.185685 L0.315917,0.184714 L0.316254,0.184276 L0.316558,0.183872 L0.317070,0.183245 L0.317786,0.183231 L0.318339,0.183838 L0.318791,0.183824 L0.319486,0.183615 L0.320060,0.183420 L0.320444,0.182388 L0.320849,0.181107 L0.321247,0.179442 L0.321173,0.179185 L0.321166,0.179165 L0.321005,0.179206 L0.320815,0.179253 L0.320694,0.179239 L0.319945,0.179165 L0.319378,0.179071 L0.319155,0.179044 L0.319028,0.178990 L0.318467,0.178747 L0.318198,0.178633 L0.317961,0.178552 L0.317820,0.178504 L0.317489,0.178255 L0.317280,0.178127 L0.317152,0.178053 L0.317138,0.178046 L0.317131,0.178032 L0.317091,0.177965 L0.317024,0.177844 L0.316855,0.177547 L0.316382,0.177062 L0.316335,0.177014 L0.316281,0.176981 L0.316153,0.176920 L0.316072,0.176873 L0.315769,0.176812 L0.315667,0.176799 L0.315593,0.176704 L0.315580,0.176677 L0.315290,0.176293 L0.315276,0.176273 L0.314878,0.176064 L0.314851,0.176050 L0.314149,0.175605 L0.314082,0.175538 L0.313967,0.175416 L0.313913,0.175369 L0.313920,0.175356 L0.313872,0.174769 L0.313872,0.174695 L0.313866,0.174675 L0.314237,0.174115 L0.314966,0.173340 L0.315168,0.172821 L0.315242,0.171708 L0.316018,0.170023 L0.316281,0.168459 L0.316369,0.168250 L0.316672,0.167488 L0.316963,0.167158 L0.317800,0.166221 L0.318980,0.165587 L0.319338,0.165392 L0.321119,0.165392 L0.321220,0.165385 L0.326955,0.165722 L0.329148,0.166268 L0.329181,0.166275 L0.329330,0.166268 L0.329654,0.166241 L0.329735,0.166234 L0.330140,0.165965 L0.330160,0.165951 L0.330180,0.165944 L0.330753,0.165776 L0.331097,0.165742 L0.331348,0.165709 L0.331402,0.165709 L0.331429,0.165722 L0.331995,0.165924 L0.332117,0.165971 L0.332434,0.166174 L0.332744,0.166383 L0.332784,0.166403 L0.333243,0.166517 L0.333250,0.166524 L0.334141,0.165722 L0.335146,0.164839 L0.336529,0.163538 L0.339552,0.162136 L0.340173,0.161839 L0.341333,0.160983 L0.342865,0.159864 L0.344308,0.159022 L0.346974,0.157478 L0.349530,0.156083 L0.351554,0.154964 L0.351602,0.154930 L0.352755,0.154243 L0.359024,0.150462 L0.360380,0.149653 L0.364192,0.147348 L0.364475,0.147342 L0.367700,0.147187 L0.369191,0.147476 L0.369501,0.147537 L0.371236,0.147874 L0.371432,0.147908 L0.371957,0.148191 L0.372787,0.148616 L0.372829,0.148658 L0.372871,0.148660 L0.373959,0.148705 L0.374730,0.148607 L0.375330,0.149107 L0.375482,0.149433 L0.375665,0.149848 L0.376057,0.150410 L0.376686,0.150910 L0.377195,0.151172 L0.378621,0.151246 L0.379065,0.151122 L0.379660,0.151116 L0.380167,0.151289 L0.380495,0.151405 L0.380763,0.151461 L0.381181,0.151636 L0.381964,0.153096 L0.381980,0.153126 L0.383902,0.155042 L0.385300,0.156129 L0.386641,0.156656 L0.387921,0.155698 L0.388695,0.155361 L0.389349,0.155128 L0.390000,0.154896 L0.390443,0.154152 L0.391131,0.153488 L0.391868,0.152603 L0.392212,0.151467 L0.392621,0.151009 L0.392936,0.149642 L0.393518,0.148811 L0.393872,0.147943 L0.394158,0.147127 L0.393856,0.146366 L0.393659,0.144928 L0.393650,0.144122 L0.393657,0.142735 L0.393838,0.141896 L0.394043,0.141385 L0.394212,0.141020 L0.394043,0.140710 L0.393883,0.140155 L0.393756,0.139817 L0.393727,0.139532 L0.393895,0.139176 L0.393968,0.138699 L0.394383,0.138380 L0.394456,0.138074 L0.394482,0.137708 L0.394447,0.137312 L0.393971,0.136784 L0.394281,0.136308 L0.394278,0.136018 L0.394446,0.135742 L0.394550,0.135497 L0.394577,0.135222 L0.394266,0.134920 L0.394264,0.134733 L0.394231,0.134183 L0.394207,0.133786 L0.394221,0.133264 L0.394365,0.132329 L0.394523,0.131988 L0.394752,0.131496 L0.395404,0.131417 L0.395583,0.131034 L0.395778,0.130790 L0.396590,0.131115 L0.397163,0.131347 L0.397928,0.131816 L0.398312,0.132146 L0.398840,0.132712 L0.399274,0.133232 L0.399805,0.133941 L0.399997,0.134177 L0.400477,0.134554 Z">
    <title>Shëngjergji</title>
  </path>
</svg>
