<?xml version="1.0" encoding="UTF-8"?>
<svg xmlns="http://www.w3.org/2000/svg" viewBox="0 0 0.533968 0.445545" width="800" height="800">
  <style>
    .boundary {
      fill: none;
      stroke: #222222;
      stroke-width: 0.5;
      vector-effect: non-scaling-stroke;
    }
  </style>
  <path class="boundary" d="M0.127291,0.200556 L0.127480,0.200583 L0.127763,0.200529 L0.127912,0.200542 L0.127973,0.200536 L0.128141,0.200617 L0.128296,0.200569 L0.128364,0.200515 L0.128431,0.200482 L0.128532,0.200522 L0.128661,0.200549 L0.128836,0.200563 L0.129052,0.200590 L0.129281,0.200367 L0.129430,0.200192 L0.129679,0.199989 L0.129943,0.199949 L0.130199,0.199935 L0.130543,0.199922 L0.130887,0.199935 L0.131265,0.200030 L0.131636,0.200171 L0.131872,0.200266 L0.132810,0.200542 L0.133323,0.200003 L0.133660,0.199848 L0.133667,0.199848 L0.133869,0.200043 L0.134699,0.201116 L0.134720,0.201149 L0.135428,0.202080 L0.135462,0.202121 L0.135900,0.202701 L0.135894,0.202714 L0.134274,0.204373 L0.134267,0.204380 L0.134261,0.204387 L0.134227,0.204448 L0.134207,0.204481 L0.134207,0.204495 L0.134200,0.204522 L0.134207,0.204556 L0.134274,0.204630 L0.134908,0.205500 L0.135064,0.205723 L0.135212,0.205925 L0.135583,0.206444 L0.135570,0.206464 L0.135340,0.206788 L0.135172,0.207085 L0.135037,0.207240 L0.135016,0.207254 L0.134881,0.207443 L0.134483,0.207503 L0.133984,0.207658 L0.133883,0.207699 L0.133680,0.207773 L0.133552,0.207827 L0.133498,0.207854 L0.133451,0.207874 L0.133404,0.207888 L0.133404,0.207895 L0.133363,0.207921 L0.133316,0.207948 L0.133248,0.207996 L0.133241,0.207996 L0.133221,0.208002 L0.133214,0.208009 L0.133039,0.207996 L0.133012,0.208002 L0.132843,0.207996 L0.132608,0.208070 L0.132513,0.208124 L0.132412,0.208185 L0.132297,0.208252 L0.132088,0.208481 L0.131987,0.208603 L0.131642,0.208940 L0.131589,0.208994 L0.131603,0.209028 L0.131622,0.209028 L0.131697,0.209014 L0.131703,0.209014 L0.131724,0.209008 L0.131771,0.208994 L0.131879,0.208981 L0.131960,0.208974 L0.132189,0.208974 L0.132345,0.209021 L0.132445,0.209088 L0.132466,0.209102 L0.132493,0.209109 L0.132540,0.209115 L0.132574,0.209068 L0.132587,0.209021 L0.132594,0.209014 L0.132662,0.208940 L0.132682,0.208920 L0.132709,0.208900 L0.132736,0.208913 L0.132736,0.208920 L0.132743,0.208927 L0.132736,0.208994 L0.132743,0.209014 L0.132756,0.209115 L0.132777,0.209169 L0.132790,0.209183 L0.132810,0.209210 L0.132830,0.209230 L0.132857,0.209264 L0.132864,0.209291 L0.132870,0.209311 L0.132877,0.209318 L0.132870,0.209338 L0.132877,0.209399 L0.132857,0.209534 L0.132857,0.209547 L0.132864,0.209702 L0.132870,0.209750 L0.132877,0.209777 L0.132877,0.209830 L0.132877,0.209857 L0.132877,0.209905 L0.132830,0.210235 L0.132904,0.210390 L0.132958,0.210431 L0.133107,0.210552 L0.133309,0.210741 L0.133336,0.210761 L0.133525,0.210944 L0.133741,0.211072 L0.134024,0.211180 L0.134254,0.211321 L0.134537,0.211449 L0.134847,0.211686 L0.134935,0.211800 L0.135111,0.212016 L0.135272,0.212198 L0.135550,0.212488 L0.135866,0.212853 L0.135961,0.212954 L0.136041,0.213028 L0.136278,0.213251 L0.136581,0.213487 L0.136703,0.213574 L0.136817,0.213676 L0.137337,0.214006 L0.137533,0.214134 L0.137574,0.214148 L0.137580,0.214155 L0.137620,0.214188 L0.138248,0.214613 L0.138268,0.214620 L0.138289,0.214613 L0.138430,0.214593 L0.138437,0.214593 L0.138639,0.214559 L0.138802,0.214573 L0.138882,0.214580 L0.139024,0.214607 L0.139200,0.214559 L0.139327,0.214559 L0.139381,0.214553 L0.139658,0.214620 L0.140022,0.214748 L0.140144,0.214802 L0.140326,0.214849 L0.140434,0.214876 L0.140603,0.214944 L0.140758,0.215045 L0.140778,0.215059 L0.140792,0.215106 L0.140852,0.215315 L0.140819,0.215592 L0.140731,0.215834 L0.140711,0.215895 L0.140684,0.215963 L0.140569,0.216232 L0.140582,0.216266 L0.140623,0.216448 L0.140745,0.216644 L0.140886,0.216880 L0.141008,0.217089 L0.141116,0.217163 L0.141243,0.217265 L0.141453,0.217400 L0.141548,0.217508 L0.141851,0.217811 L0.141925,0.217899 L0.142087,0.218094 L0.142202,0.218263 L0.142418,0.218594 L0.142505,0.218742 L0.142519,0.218742 L0.142391,0.218870 L0.142411,0.219025 L0.142438,0.219046 L0.142546,0.219127 L0.142627,0.219194 L0.142755,0.219302 L0.142823,0.219410 L0.142842,0.219424 L0.142856,0.219451 L0.142964,0.219626 L0.142971,0.219646 L0.143011,0.219768 L0.143018,0.219788 L0.143032,0.219970 L0.143099,0.220139 L0.143227,0.220287 L0.143241,0.220307 L0.143288,0.220328 L0.143369,0.220361 L0.143382,0.220361 L0.143585,0.220388 L0.143720,0.220382 L0.143821,0.220287 L0.143909,0.220260 L0.144010,0.220307 L0.144125,0.220456 L0.144125,0.220618 L0.144179,0.220726 L0.144388,0.220989 L0.144354,0.221049 L0.144307,0.221130 L0.144287,0.221171 L0.144246,0.221252 L0.144206,0.221306 L0.144219,0.221326 L0.144212,0.221340 L0.144233,0.221441 L0.144314,0.221542 L0.144368,0.221603 L0.144402,0.221643 L0.144631,0.221893 L0.144685,0.221846 L0.144725,0.221798 L0.144813,0.221643 L0.144840,0.221556 L0.144880,0.221461 L0.144894,0.221407 L0.144927,0.221279 L0.144934,0.221259 L0.144934,0.221252 L0.144982,0.221083 L0.145002,0.221002 L0.145022,0.220874 L0.145029,0.220854 L0.145049,0.220739 L0.145090,0.220543 L0.145110,0.220469 L0.145110,0.220456 L0.145117,0.220402 L0.145137,0.220348 L0.145150,0.220334 L0.145164,0.220314 L0.145292,0.220186 L0.145305,0.220172 L0.145312,0.220166 L0.145407,0.220105 L0.145420,0.220085 L0.145501,0.220031 L0.145522,0.220024 L0.145549,0.220010 L0.145562,0.220010 L0.145737,0.219943 L0.145940,0.219835 L0.146122,0.219741 L0.146135,0.219734 L0.146493,0.220445 L0.146710,0.220877 L0.146733,0.220922 L0.146770,0.220989 L0.146804,0.221058 L0.147053,0.221549 L0.146736,0.221724 L0.146506,0.221690 L0.146285,0.223122 L0.146027,0.225368 L0.145994,0.226597 L0.145277,0.227608 L0.148249,0.230695 L0.147687,0.232002 L0.147530,0.232498 L0.147718,0.233129 L0.147583,0.233307 L0.147380,0.233483 L0.147566,0.234244 L0.147801,0.234889 L0.149004,0.236591 L0.149690,0.237960 L0.150464,0.238240 L0.151071,0.238396 L0.151790,0.238335 L0.152432,0.238237 L0.152832,0.237965 L0.153375,0.238021 L0.154142,0.237794 L0.154581,0.237598 L0.155267,0.237056 L0.155940,0.236489 L0.156027,0.236323 L0.155896,0.236034 L0.155554,0.235975 L0.155300,0.235814 L0.155295,0.235485 L0.155443,0.235217 L0.155540,0.234949 L0.155485,0.234659 L0.155379,0.234293 L0.155462,0.233911 L0.155445,0.233620 L0.155287,0.233116 L0.155116,0.232611 L0.155625,0.232895 L0.155995,0.233232 L0.156214,0.233495 L0.156350,0.233830 L0.156731,0.234163 L0.157119,0.235041 L0.157353,0.235557 L0.157760,0.235754 L0.157865,0.236018 L0.158147,0.236382 L0.158955,0.236756 L0.159298,0.236913 L0.159648,0.236917 L0.160473,0.237601 L0.160802,0.237643 L0.161102,0.237533 L0.161433,0.237675 L0.162440,0.237653 L0.162618,0.237385 L0.163138,0.236940 L0.163483,0.236985 L0.163906,0.236781 L0.164444,0.236494 L0.164919,0.236438 L0.165230,0.236417 L0.165590,0.236362 L0.165934,0.236325 L0.166228,0.236222 L0.166519,0.235954 L0.166465,0.235576 L0.166608,0.235212 L0.166883,0.234928 L0.167288,0.234609 L0.167350,0.234345 L0.167394,0.233916 L0.167128,0.233672 L0.166699,0.233530 L0.166155,0.233024 L0.164853,0.232117 L0.164042,0.231275 L0.164472,0.230690 L0.164762,0.230520 L0.164982,0.230370 L0.165004,0.230173 L0.165015,0.230045 L0.164880,0.229875 L0.164656,0.229745 L0.164273,0.229610 L0.164301,0.229291 L0.164536,0.228925 L0.164751,0.228708 L0.164842,0.228617 L0.164950,0.228524 L0.165161,0.228680 L0.165517,0.228783 L0.165966,0.228843 L0.166157,0.228679 L0.166327,0.228568 L0.166480,0.228649 L0.166630,0.228532 L0.166775,0.228466 L0.166878,0.228442 L0.166881,0.228441 L0.166886,0.228436 L0.166887,0.228435 L0.166887,0.228434 L0.166889,0.228434 L0.166890,0.228434 L0.166894,0.228434 L0.166927,0.228428 L0.166929,0.228428 L0.166929,0.228427 L0.166942,0.228425 L0.166955,0.228421 L0.166956,0.228421 L0.166962,0.228420 L0.166962,0.228419 L0.166964,0.228419 L0.166964,0.228419 L0.166971,0.228418 L0.166973,0.228417 L0.166974,0.228417 L0.166975,0.228416 L0.166977,0.228416 L0.166977,0.228416 L0.167026,0.228422 L0.167173,0.228562 L0.167418,0.228792 L0.167605,0.228960 L0.167955,0.229227 L0.168279,0.229470 L0.168444,0.229635 L0.168676,0.229863 L0.168863,0.230017 L0.169297,0.230334 L0.169554,0.230320 L0.169797,0.230273 L0.169973,0.230239 L0.170229,0.230354 L0.170310,0.230475 L0.170317,0.230604 L0.170330,0.230712 L0.170371,0.230759 L0.170452,0.230739 L0.170620,0.230745 L0.170843,0.230799 L0.171376,0.231015 L0.172070,0.231299 L0.172442,0.231569 L0.172589,0.231732 L0.172697,0.231851 L0.172820,0.231987 L0.172875,0.232048 L0.172988,0.232135 L0.173117,0.232203 L0.173717,0.232925 L0.173778,0.233007 L0.174095,0.233532 L0.174768,0.234344 L0.175122,0.234724 L0.175397,0.235010 L0.175692,0.235246 L0.176105,0.235599 L0.176284,0.235743 L0.176349,0.235793 L0.176551,0.235935 L0.176977,0.236368 L0.177307,0.236698 L0.177520,0.236902 L0.177969,0.237271 L0.178024,0.237314 L0.178286,0.237511 L0.178865,0.237939 L0.178986,0.238040 L0.179276,0.238378 L0.179430,0.238623 L0.179493,0.238722 L0.179540,0.238816 L0.179823,0.238979 L0.180235,0.239214 L0.180573,0.239512 L0.180707,0.239640 L0.181085,0.239990 L0.181391,0.240294 L0.181766,0.240652 L0.181854,0.240746 L0.182071,0.240879 L0.182389,0.241074 L0.182616,0.241212 L0.182866,0.241428 L0.183123,0.241698 L0.183276,0.241860 L0.183421,0.242028 L0.183561,0.242238 L0.183521,0.242285 L0.183500,0.242319 L0.183487,0.242332 L0.183460,0.242380 L0.183453,0.242393 L0.183460,0.242420 L0.183473,0.242494 L0.183500,0.242589 L0.183521,0.242677 L0.183507,0.242771 L0.183446,0.242839 L0.183406,0.242872 L0.183277,0.242872 L0.183210,0.242839 L0.183143,0.242798 L0.183102,0.242785 L0.182974,0.242751 L0.182812,0.242771 L0.182745,0.242785 L0.182718,0.242791 L0.182637,0.242812 L0.182501,0.242899 L0.182367,0.243014 L0.182347,0.243034 L0.182259,0.243102 L0.182252,0.243109 L0.182043,0.243109 L0.181840,0.243048 L0.181652,0.242974 L0.181611,0.242960 L0.181368,0.242987 L0.181327,0.243028 L0.181273,0.243061 L0.181112,0.243196 L0.180997,0.243325 L0.180909,0.243480 L0.180775,0.243581 L0.180599,0.243730 L0.180552,0.243898 L0.180437,0.244242 L0.180363,0.244614 L0.180235,0.244755 L0.180026,0.244755 L0.179803,0.244782 L0.179708,0.244965 L0.179628,0.245221 L0.179648,0.245484 L0.179655,0.245916 L0.179594,0.246254 L0.179405,0.246456 L0.179230,0.246659 L0.179013,0.246868 L0.178966,0.247151 L0.178946,0.247286 L0.178898,0.247523 L0.178905,0.247853 L0.178885,0.247934 L0.178764,0.248387 L0.178400,0.248940 L0.178156,0.249244 L0.177752,0.249615 L0.177360,0.250175 L0.177326,0.250223 L0.177097,0.250229 L0.176976,0.250229 L0.176605,0.250236 L0.176389,0.250540 L0.176132,0.250985 L0.176085,0.251100 L0.175957,0.251424 L0.175788,0.251525 L0.175478,0.251741 L0.175188,0.251755 L0.174851,0.251728 L0.174028,0.251708 L0.173603,0.251829 L0.173576,0.251836 L0.173488,0.251863 L0.173083,0.251924 L0.172212,0.252113 L0.171895,0.251991 L0.171666,0.251849 L0.171416,0.251728 L0.171140,0.251613 L0.170897,0.251613 L0.170688,0.251741 L0.170593,0.251856 L0.170498,0.252140 L0.170492,0.252187 L0.170458,0.252308 L0.170371,0.252680 L0.170317,0.252983 L0.170209,0.253206 L0.170127,0.253604 L0.170121,0.253638 L0.170054,0.253922 L0.169939,0.254205 L0.169824,0.254644 L0.169763,0.255002 L0.169729,0.255339 L0.169696,0.255704 L0.169790,0.255960 L0.169851,0.256439 L0.169919,0.257337 L0.170060,0.258188 L0.170100,0.258444 L0.170182,0.259140 L0.170573,0.259828 L0.170688,0.260389 L0.170722,0.260564 L0.170708,0.260625 L0.170498,0.261239 L0.170121,0.262373 L0.169966,0.262812 L0.169696,0.263609 L0.169575,0.263933 L0.169197,0.264986 L0.169197,0.265094 L0.169204,0.266417 L0.169204,0.266681 L0.169615,0.267309 L0.169865,0.267687 L0.170843,0.268045 L0.170937,0.268072 L0.170998,0.268072 L0.172152,0.267950 L0.172827,0.267876 L0.173447,0.267639 L0.173650,0.267558 L0.174608,0.267180 L0.176092,0.266195 L0.176092,0.266188 L0.176342,0.266019 L0.177489,0.265567 L0.179432,0.265850 L0.179762,0.266080 L0.181996,0.267518 L0.182320,0.267700 L0.183595,0.268409 L0.185693,0.268173 L0.185814,0.268058 L0.186658,0.267261 L0.186988,0.267052 L0.187238,0.266890 L0.187353,0.266816 L0.187771,0.266660 L0.187899,0.266606 L0.187974,0.266579 L0.188716,0.266742 L0.189202,0.267396 L0.189215,0.267423 L0.189256,0.267464 L0.189336,0.267579 L0.189903,0.268200 L0.190281,0.268193 L0.190740,0.268186 L0.191057,0.267849 L0.191489,0.267403 L0.191529,0.267396 L0.191812,0.267282 L0.192136,0.267153 L0.192676,0.267282 L0.193149,0.267390 L0.193277,0.267417 L0.193297,0.267423 L0.193310,0.267430 L0.194815,0.267889 L0.194869,0.267889 L0.195625,0.267889 L0.196347,0.267883 L0.197258,0.268051 L0.197379,0.268166 L0.197683,0.268477 L0.197656,0.269138 L0.197656,0.269159 L0.197521,0.269922 L0.197453,0.270468 L0.197446,0.270509 L0.197622,0.270853 L0.198127,0.271218 L0.198256,0.271326 L0.198357,0.271414 L0.198512,0.271542 L0.198627,0.271589 L0.198782,0.271643 L0.199052,0.271637 L0.199045,0.271900 L0.199045,0.272163 L0.199052,0.272555 L0.199194,0.272697 L0.199221,0.272710 L0.199403,0.272845 L0.199443,0.272865 L0.199754,0.273028 L0.200287,0.273298 L0.199787,0.274142 L0.199565,0.274520 L0.199282,0.275013 L0.199113,0.275269 L0.198991,0.275465 L0.198937,0.275560 L0.198755,0.275877 L0.198640,0.275972 L0.198573,0.276100 L0.198553,0.276161 L0.198553,0.276201 L0.198532,0.276235 L0.198425,0.276451 L0.198263,0.276559 L0.197939,0.276701 L0.197723,0.276870 L0.197150,0.277180 L0.197109,0.277201 L0.196704,0.277464 L0.196582,0.278065 L0.196501,0.278409 L0.196421,0.278774 L0.196144,0.279449 L0.196030,0.279746 L0.195625,0.280854 L0.195314,0.281590 L0.195288,0.281644 L0.195274,0.281678 L0.195051,0.282177 L0.194639,0.283575 L0.193513,0.284750 L0.193344,0.285108 L0.193196,0.285426 L0.193128,0.285568 L0.193020,0.285541 L0.192912,0.285493 L0.192764,0.285453 L0.192366,0.285345 L0.192258,0.285318 L0.192224,0.285297 L0.192224,0.285291 L0.192156,0.285250 L0.192089,0.285203 L0.192083,0.285196 L0.192015,0.285149 L0.191792,0.284994 L0.191610,0.284885 L0.191590,0.284879 L0.191495,0.284818 L0.190767,0.284359 L0.190389,0.284338 L0.190382,0.284332 L0.190254,0.284325 L0.189512,0.284284 L0.189263,0.284257 L0.189012,0.284230 L0.188999,0.284224 L0.188817,0.284203 L0.188641,0.284278 L0.188453,0.284365 L0.188365,0.284399 L0.188345,0.284406 L0.188257,0.284453 L0.188216,0.284480 L0.188007,0.284595 L0.187859,0.284683 L0.187724,0.285149 L0.187434,0.285041 L0.187332,0.284980 L0.187272,0.284933 L0.187218,0.284926 L0.187096,0.284892 L0.186847,0.284649 L0.186752,0.284683 L0.186509,0.284764 L0.186388,0.284811 L0.185889,0.284980 L0.185760,0.284980 L0.185747,0.284987 L0.185733,0.284987 L0.185328,0.284987 L0.184694,0.285102 L0.184620,0.285122 L0.183817,0.285250 L0.183433,0.285048 L0.183277,0.284278 L0.183028,0.283683 L0.182535,0.283690 L0.182320,0.283791 L0.182157,0.283866 L0.182097,0.284507 L0.181753,0.284933 L0.180943,0.285122 L0.179931,0.285237 L0.179384,0.285270 L0.178778,0.285291 L0.177779,0.284939 L0.177590,0.284683 L0.177016,0.283913 L0.176780,0.283670 L0.176497,0.283366 L0.175829,0.282637 L0.175336,0.282299 L0.174877,0.282056 L0.174702,0.281961 L0.174655,0.281955 L0.174506,0.281961 L0.174291,0.281961 L0.173778,0.281874 L0.173703,0.281860 L0.173663,0.281860 L0.173582,0.281786 L0.173508,0.281718 L0.173319,0.281543 L0.173022,0.281428 L0.172752,0.281455 L0.172658,0.281462 L0.172624,0.281468 L0.172368,0.281468 L0.172185,0.281421 L0.172165,0.281414 L0.172077,0.281360 L0.171875,0.281212 L0.171828,0.281225 L0.171558,0.281252 L0.171099,0.281083 L0.170492,0.280834 L0.170351,0.280780 L0.169291,0.280712 L0.167908,0.280489 L0.167098,0.280246 L0.166862,0.280037 L0.166727,0.279908 L0.166491,0.279395 L0.166410,0.279382 L0.165830,0.279321 L0.165681,0.279361 L0.165000,0.279591 L0.164521,0.280057 L0.163826,0.280300 L0.163664,0.280354 L0.162490,0.280746 L0.161579,0.281077 L0.161188,0.281772 L0.160824,0.282407 L0.160291,0.282738 L0.159576,0.283204 L0.158665,0.283481 L0.158226,0.283427 L0.158172,0.283420 L0.158010,0.283427 L0.157511,0.283433 L0.157086,0.283764 L0.156661,0.283798 L0.156053,0.283352 L0.155204,0.283717 L0.154394,0.284372 L0.153834,0.284352 L0.153085,0.284365 L0.152889,0.284365 L0.152045,0.284183 L0.151506,0.284332 L0.151297,0.283528 L0.149550,0.281907 L0.149259,0.281874 L0.147492,0.281657 L0.146567,0.281387 L0.146068,0.281286 L0.145778,0.280611 L0.145717,0.280476 L0.145582,0.280408 L0.145157,0.280151 L0.144705,0.279908 L0.144705,0.279861 L0.144610,0.279206 L0.144583,0.279091 L0.144462,0.278538 L0.143855,0.278430 L0.143572,0.278166 L0.143545,0.277315 L0.143410,0.276721 L0.143322,0.276107 L0.143295,0.275776 L0.143261,0.275161 L0.143268,0.274614 L0.143301,0.274034 L0.143093,0.273622 L0.142776,0.273406 L0.142330,0.273277 L0.141817,0.273115 L0.141358,0.273021 L0.141116,0.272872 L0.140960,0.272771 L0.140792,0.272508 L0.140589,0.272217 L0.140029,0.271164 L0.139651,0.270793 L0.139051,0.270205 L0.138477,0.269753 L0.137769,0.269435 L0.136898,0.268787 L0.136771,0.268652 L0.136400,0.268274 L0.136116,0.267714 L0.135907,0.266883 L0.135846,0.266343 L0.135765,0.265614 L0.135725,0.264973 L0.135718,0.264824 L0.135111,0.264412 L0.134733,0.264068 L0.134524,0.263622 L0.134342,0.263190 L0.134071,0.262981 L0.133539,0.263049 L0.132655,0.263076 L0.131636,0.262677 L0.131137,0.262488 L0.130414,0.262265 L0.129909,0.262049 L0.129606,0.261928 L0.129187,0.261759 L0.128080,0.261442 L0.128026,0.260996 L0.127682,0.260699 L0.127655,0.260672 L0.127635,0.260645 L0.127460,0.260348 L0.127466,0.260287 L0.127487,0.260159 L0.127729,0.259754 L0.127831,0.259599 L0.127844,0.259389 L0.127851,0.259329 L0.127892,0.258667 L0.127858,0.258600 L0.127743,0.258363 L0.127621,0.257911 L0.127494,0.257628 L0.127216,0.257405 L0.127075,0.257121 L0.127035,0.256770 L0.126852,0.256055 L0.126555,0.255731 L0.126488,0.255704 L0.126279,0.255629 L0.126225,0.255501 L0.126171,0.255461 L0.126124,0.255332 L0.126130,0.255319 L0.126124,0.255299 L0.126110,0.255258 L0.125949,0.255110 L0.125638,0.254860 L0.125591,0.254826 L0.125584,0.254819 L0.125253,0.254549 L0.125246,0.254522 L0.125246,0.254468 L0.125240,0.254198 L0.125665,0.253618 L0.125854,0.253361 L0.125861,0.253307 L0.125996,0.252842 L0.125840,0.252545 L0.125827,0.252531 L0.125820,0.252531 L0.125813,0.252518 L0.125644,0.252241 L0.125354,0.251789 L0.125240,0.251546 L0.125166,0.251411 L0.125065,0.251201 L0.124828,0.250742 L0.124821,0.250729 L0.124727,0.250553 L0.124660,0.250425 L0.124497,0.250135 L0.124194,0.249561 L0.123918,0.249068 L0.123809,0.248859 L0.123782,0.248805 L0.123708,0.248481 L0.123701,0.248393 L0.123580,0.247806 L0.123466,0.247246 L0.123411,0.247185 L0.123122,0.246895 L0.123054,0.246821 L0.123013,0.246780 L0.123000,0.246767 L0.122737,0.246476 L0.122615,0.246105 L0.122602,0.246099 L0.122541,0.246018 L0.122319,0.245741 L0.122285,0.245727 L0.121975,0.245545 L0.121657,0.245518 L0.121630,0.245518 L0.121603,0.245511 L0.121259,0.245518 L0.120807,0.245208 L0.120638,0.245086 L0.120524,0.245005 L0.120301,0.244857 L0.120159,0.244762 L0.119910,0.244506 L0.119546,0.244134 L0.119356,0.244047 L0.118810,0.243804 L0.118081,0.243797 L0.117413,0.244101 L0.117386,0.244134 L0.117015,0.244485 L0.116759,0.243898 L0.116759,0.243190 L0.116746,0.242737 L0.116604,0.242251 L0.116590,0.242211 L0.116502,0.241732 L0.116719,0.241320 L0.116583,0.240915 L0.116570,0.240888 L0.116502,0.240510 L0.116577,0.240105 L0.116314,0.239201 L0.116280,0.238722 L0.116273,0.238560 L0.116273,0.238337 L0.116280,0.238148 L0.116280,0.238067 L0.116368,0.237919 L0.116556,0.237561 L0.116698,0.237102 L0.116719,0.236940 L0.116752,0.236583 L0.116752,0.236454 L0.116752,0.236373 L0.116732,0.236272 L0.116719,0.236049 L0.116462,0.236009 L0.116354,0.235995 L0.115862,0.235955 L0.115335,0.235935 L0.114532,0.235847 L0.114344,0.235833 L0.113709,0.235941 L0.113575,0.235989 L0.112798,0.236225 L0.111949,0.236373 L0.110956,0.236515 L0.110228,0.236724 L0.109674,0.236886 L0.109222,0.236677 L0.108925,0.236535 L0.108426,0.236299 L0.108298,0.236238 L0.107806,0.236164 L0.107313,0.236279 L0.106962,0.236097 L0.106476,0.235989 L0.106098,0.235941 L0.105363,0.235712 L0.104952,0.235678 L0.104088,0.235415 L0.103535,0.235051 L0.103359,0.234518 L0.103305,0.234349 L0.103231,0.234126 L0.103164,0.233930 L0.102887,0.232871 L0.102819,0.232635 L0.102658,0.232183 L0.102327,0.231724 L0.102246,0.231326 L0.102354,0.231022 L0.102523,0.230651 L0.102590,0.230496 L0.102819,0.229915 L0.102880,0.229463 L0.102785,0.229025 L0.102502,0.228512 L0.102111,0.228188 L0.102003,0.228100 L0.101349,0.227844 L0.100715,0.227594 L0.100344,0.227507 L0.100377,0.227243 L0.100310,0.227081 L0.100094,0.226825 L0.099810,0.226515 L0.099696,0.226258 L0.099743,0.225806 L0.099574,0.225003 L0.099446,0.224173 L0.099237,0.223728 L0.099156,0.223566 L0.099075,0.223445 L0.098872,0.223148 L0.098791,0.223026 L0.098664,0.222804 L0.098515,0.222527 L0.098501,0.222507 L0.097955,0.221697 L0.097537,0.221292 L0.097206,0.221036 L0.096929,0.220840 L0.096680,0.220712 L0.096457,0.220800 L0.096045,0.220921 L0.095715,0.221090 L0.095600,0.221184 L0.095513,0.221252 L0.095351,0.221360 L0.095128,0.221495 L0.095101,0.221488 L0.095047,0.220948 L0.094878,0.220172 L0.094568,0.219437 L0.094197,0.218762 L0.093725,0.218344 L0.093677,0.217683 L0.094150,0.217427 L0.094784,0.216995 L0.095215,0.216684 L0.095283,0.216624 L0.095613,0.216253 L0.095931,0.215841 L0.096059,0.215693 L0.096282,0.215099 L0.096633,0.214849 L0.096855,0.214735 L0.096923,0.214708 L0.097065,0.214654 L0.097071,0.214654 L0.097125,0.214593 L0.097260,0.214458 L0.097395,0.214411 L0.097415,0.214404 L0.097429,0.214411 L0.097780,0.214364 L0.097834,0.214343 L0.098056,0.214269 L0.098063,0.214276 L0.098360,0.214209 L0.098386,0.214209 L0.098657,0.214080 L0.098758,0.214026 L0.098872,0.214013 L0.098981,0.213993 L0.099203,0.213966 L0.099304,0.213952 L0.099419,0.213932 L0.099594,0.213912 L0.099614,0.213905 L0.099858,0.213831 L0.099871,0.213838 L0.099885,0.213838 L0.099939,0.213851 L0.099979,0.213865 L0.100012,0.213892 L0.100148,0.213945 L0.100256,0.213952 L0.100330,0.213925 L0.100344,0.213912 L0.100371,0.213918 L0.100411,0.213885 L0.100417,0.213878 L0.100539,0.213804 L0.100600,0.213723 L0.100634,0.213689 L0.100762,0.213561 L0.100809,0.213487 L0.100829,0.213453 L0.100863,0.213419 L0.100890,0.213419 L0.100930,0.213419 L0.100930,0.213507 L0.100930,0.213547 L0.100917,0.213642 L0.100917,0.213709 L0.100957,0.213743 L0.100991,0.213763 L0.101059,0.213797 L0.101308,0.213905 L0.101443,0.213966 L0.101572,0.213972 L0.101639,0.213932 L0.101706,0.213892 L0.101835,0.213730 L0.101936,0.213467 L0.102016,0.213197 L0.102097,0.213136 L0.102226,0.213143 L0.102401,0.213203 L0.102644,0.213224 L0.102812,0.213251 L0.102853,0.213257 L0.102873,0.213264 L0.102894,0.213264 L0.102934,0.213264 L0.102975,0.213264 L0.103009,0.213264 L0.103036,0.213257 L0.103063,0.213244 L0.103096,0.213230 L0.103150,0.213217 L0.103150,0.213210 L0.103184,0.213210 L0.103211,0.213224 L0.103231,0.213224 L0.103251,0.213251 L0.103278,0.213257 L0.103400,0.213318 L0.103407,0.213332 L0.103413,0.213332 L0.103549,0.213406 L0.103669,0.213440 L0.103730,0.213453 L0.103974,0.213493 L0.103980,0.213500 L0.103986,0.213514 L0.104034,0.213588 L0.104095,0.213682 L0.104108,0.213696 L0.104135,0.213709 L0.104162,0.213709 L0.104203,0.213709 L0.104216,0.213709 L0.104243,0.213716 L0.104412,0.213730 L0.104641,0.213777 L0.104789,0.213622 L0.104789,0.213601 L0.104979,0.213399 L0.104985,0.213392 L0.105019,0.213359 L0.105100,0.213278 L0.105134,0.213264 L0.105154,0.213244 L0.105201,0.213230 L0.105241,0.213210 L0.105269,0.213190 L0.105309,0.213176 L0.105336,0.213163 L0.105383,0.213170 L0.105437,0.213176 L0.105451,0.213183 L0.105498,0.213197 L0.105539,0.213217 L0.105546,0.213217 L0.105592,0.213244 L0.105748,0.213379 L0.105829,0.213493 L0.105869,0.213534 L0.106038,0.213662 L0.106132,0.213696 L0.106234,0.213689 L0.106349,0.213669 L0.106369,0.213669 L0.106463,0.213703 L0.106551,0.213723 L0.106625,0.213743 L0.106693,0.213750 L0.106726,0.213750 L0.106868,0.213777 L0.107009,0.213804 L0.107097,0.213831 L0.107172,0.213851 L0.107184,0.213851 L0.107293,0.213838 L0.107408,0.213716 L0.107516,0.213628 L0.107529,0.213622 L0.107589,0.213460 L0.107596,0.213426 L0.107603,0.213197 L0.107616,0.213136 L0.107616,0.212981 L0.107616,0.212819 L0.107643,0.212495 L0.107812,0.212266 L0.107994,0.212036 L0.108041,0.211928 L0.108055,0.211901 L0.108163,0.211632 L0.108325,0.211308 L0.108379,0.211227 L0.108642,0.210748 L0.108663,0.210687 L0.108730,0.210485 L0.108723,0.210215 L0.108703,0.209878 L0.108804,0.209615 L0.108778,0.208839 L0.108784,0.208819 L0.108790,0.208495 L0.108784,0.208009 L0.108838,0.207645 L0.108919,0.207530 L0.109215,0.207598 L0.109668,0.207888 L0.110187,0.208239 L0.110585,0.208367 L0.110882,0.208346 L0.111159,0.208313 L0.111496,0.208353 L0.111766,0.208346 L0.112184,0.208272 L0.112205,0.208239 L0.112441,0.207915 L0.112691,0.207355 L0.112758,0.207227 L0.112940,0.206916 L0.112960,0.206889 L0.113385,0.206377 L0.113662,0.205918 L0.113999,0.205520 L0.114181,0.205163 L0.114384,0.204987 L0.114546,0.204846 L0.114876,0.204596 L0.115153,0.204367 L0.115295,0.204293 L0.115376,0.204259 L0.115585,0.204198 L0.115753,0.204070 L0.115841,0.203874 L0.115963,0.203618 L0.116138,0.203368 L0.116226,0.203173 L0.116260,0.202930 L0.116260,0.202923 L0.116266,0.202667 L0.116334,0.202323 L0.116408,0.202087 L0.116523,0.201783 L0.116719,0.201379 L0.117049,0.200846 L0.117271,0.200542 L0.117461,0.200286 L0.117690,0.200171 L0.117926,0.200090 L0.118155,0.200165 L0.118324,0.200286 L0.118418,0.200536 L0.118513,0.200913 L0.118547,0.201129 L0.118553,0.201338 L0.118513,0.201534 L0.118445,0.201689 L0.118526,0.202006 L0.118614,0.202417 L0.118668,0.202944 L0.118857,0.203220 L0.119039,0.203564 L0.119262,0.203773 L0.119707,0.203989 L0.120396,0.204272 L0.120753,0.204360 L0.121239,0.204522 L0.121502,0.204576 L0.121697,0.204684 L0.121941,0.204724 L0.122224,0.204738 L0.122500,0.204717 L0.122798,0.204630 L0.123094,0.204515 L0.123283,0.204434 L0.123587,0.204434 L0.123803,0.204387 L0.123809,0.204380 L0.123891,0.204360 L0.124012,0.204333 L0.124201,0.204286 L0.124545,0.204110 L0.124950,0.203739 L0.124956,0.203618 L0.124916,0.203524 L0.124875,0.203402 L0.124835,0.203274 L0.124775,0.203105 L0.124768,0.202984 L0.124775,0.202971 L0.124700,0.202869 L0.124673,0.202802 L0.124680,0.202653 L0.124484,0.202336 L0.124363,0.202094 L0.124322,0.201966 L0.124484,0.201756 L0.124606,0.201547 L0.124660,0.201406 L0.124626,0.201203 L0.124579,0.200947 L0.124511,0.200724 L0.124694,0.200428 L0.124963,0.200212 L0.125092,0.200124 L0.125314,0.199983 L0.125604,0.199821 L0.125969,0.199740 L0.126434,0.199800 L0.126474,0.199807 L0.126772,0.199881 L0.127021,0.200144 L0.127143,0.200441 L0.127291,0.200556 Z">
    <title>Vaqarri</title>
  </path>
</svg>
