<?xml version="1.0" encoding="UTF-8"?>
<svg xmlns="http://www.w3.org/2000/svg" viewBox="0 0 0.533968 0.445545" width="800" height="800">
  <style>
    .boundary {
      fill: none;
      stroke: #000000;
      stroke-width: 0.5;
      vector-effect: non-scaling-stroke;
    }
  </style>
  <path class="boundary" d="M0.228004,0.093485 L0.228273,0.093663 L0.228502,0.093660 L0.228759,0.093695 L0.229006,0.093644 L0.229185,0.093527 L0.229431,0.093419 L0.229563,0.093331 L0.229891,0.093349 L0.232600,0.093495 L0.231094,0.093834 L0.230925,0.093855 L0.229474,0.093989 L0.229407,0.093996 L0.229245,0.094030 L0.229029,0.094063 L0.228915,0.094104 L0.228779,0.094137 L0.228604,0.094211 L0.228556,0.094238 L0.228510,0.094285 L0.228354,0.094440 L0.228024,0.094784 L0.227720,0.095262 L0.227700,0.095296 L0.227693,0.095316 L0.227626,0.095726 L0.227693,0.096104 L0.227720,0.096299 L0.227794,0.096804 L0.227801,0.097067 L0.227599,0.097269 L0.227545,0.097316 L0.227302,0.097612 L0.227187,0.098157 L0.227255,0.098521 L0.227255,0.098595 L0.227221,0.098972 L0.227086,0.099383 L0.227039,0.099538 L0.226918,0.099740 L0.226667,0.100171 L0.226566,0.100541 L0.226532,0.100676 L0.226532,0.100683 L0.226506,0.100791 L0.226384,0.101235 L0.226357,0.101370 L0.226303,0.101619 L0.226256,0.101848 L0.226209,0.102124 L0.226182,0.102710 L0.226256,0.102999 L0.226459,0.103929 L0.226918,0.105592 L0.227093,0.106670 L0.227174,0.107236 L0.227302,0.107707 L0.227335,0.108111 L0.227355,0.108340 L0.227201,0.108933 L0.226964,0.110280 L0.226870,0.111041 L0.226884,0.111782 L0.227045,0.112759 L0.227410,0.113526 L0.227814,0.113904 L0.227929,0.114496 L0.228098,0.114901 L0.228550,0.115392 L0.229022,0.115641 L0.229434,0.115965 L0.229886,0.116073 L0.230284,0.116450 L0.230419,0.116578 L0.230864,0.117514 L0.231161,0.118760 L0.231276,0.119198 L0.231350,0.119441 L0.231330,0.119602 L0.231188,0.120539 L0.231033,0.120956 L0.231073,0.121576 L0.231249,0.122196 L0.231512,0.122486 L0.231991,0.123031 L0.232288,0.123584 L0.231917,0.124237 L0.231539,0.125423 L0.231012,0.126864 L0.230487,0.127875 L0.230082,0.128380 L0.230062,0.128394 L0.229420,0.130166 L0.228752,0.131405 L0.228354,0.132126 L0.227646,0.133386 L0.227255,0.133838 L0.226924,0.134208 L0.226323,0.134896 L0.226027,0.135253 L0.225878,0.135812 L0.225331,0.135846 L0.224974,0.136007 L0.224914,0.136034 L0.224765,0.136432 L0.224495,0.136526 L0.224353,0.137227 L0.224421,0.137496 L0.224448,0.137712 L0.224272,0.137988 L0.223901,0.138305 L0.223759,0.138420 L0.223442,0.138595 L0.223254,0.138703 L0.222795,0.138770 L0.222214,0.138770 L0.221716,0.139060 L0.221040,0.139370 L0.220508,0.139646 L0.220136,0.139868 L0.219785,0.140091 L0.219246,0.140879 L0.219043,0.141465 L0.218949,0.141762 L0.218686,0.142597 L0.218638,0.142773 L0.218443,0.143905 L0.218517,0.145448 L0.218524,0.145589 L0.218625,0.146695 L0.218652,0.147261 L0.218557,0.147503 L0.218369,0.147995 L0.218261,0.148184 L0.217842,0.148885 L0.217903,0.149107 L0.217930,0.149336 L0.217917,0.149545 L0.217607,0.149768 L0.217579,0.150017 L0.217397,0.150381 L0.217390,0.150388 L0.217114,0.150657 L0.216655,0.150907 L0.216648,0.150907 L0.216426,0.150988 L0.216365,0.150994 L0.216109,0.151035 L0.215757,0.151183 L0.215643,0.151264 L0.215508,0.151365 L0.215413,0.151406 L0.215346,0.151439 L0.215312,0.151439 L0.215218,0.151466 L0.215184,0.151466 L0.214995,0.151507 L0.214752,0.151574 L0.214556,0.151635 L0.214463,0.151682 L0.214354,0.151823 L0.214260,0.151911 L0.214239,0.151945 L0.214158,0.152005 L0.213983,0.152113 L0.213733,0.152261 L0.213693,0.152288 L0.213673,0.152288 L0.213599,0.152342 L0.213376,0.152464 L0.213362,0.152477 L0.213194,0.152545 L0.213174,0.152551 L0.213126,0.152558 L0.212978,0.152598 L0.212634,0.152605 L0.212627,0.152605 L0.212546,0.152814 L0.212398,0.153144 L0.212290,0.153232 L0.212222,0.153286 L0.212209,0.153306 L0.212040,0.153481 L0.211905,0.153582 L0.211723,0.153724 L0.211642,0.153805 L0.211608,0.153845 L0.211588,0.153886 L0.211561,0.153953 L0.211507,0.153973 L0.211426,0.154014 L0.211379,0.154021 L0.211258,0.154054 L0.211136,0.154088 L0.211082,0.154176 L0.211068,0.154203 L0.211089,0.154263 L0.211116,0.154418 L0.211123,0.154425 L0.211136,0.154647 L0.211129,0.154816 L0.211075,0.154937 L0.211074,0.154937 L0.210981,0.154897 L0.210812,0.154804 L0.210693,0.154710 L0.210444,0.154761 L0.210374,0.154893 L0.210281,0.155073 L0.210225,0.155312 L0.210131,0.155634 L0.210127,0.155642 L0.210050,0.155802 L0.209993,0.155952 L0.209952,0.156078 L0.209919,0.156227 L0.209915,0.156334 L0.209905,0.156525 L0.209901,0.156638 L0.209873,0.156764 L0.209815,0.156896 L0.209763,0.156998 L0.209713,0.157055 L0.209652,0.157124 L0.209559,0.157257 L0.209436,0.157384 L0.209271,0.157529 L0.209119,0.157668 L0.208977,0.157765 L0.208835,0.157827 L0.208735,0.157858 L0.208622,0.157865 L0.208455,0.157873 L0.208241,0.157876 L0.208016,0.157873 L0.207677,0.157890 L0.207429,0.157971 L0.207281,0.158008 L0.207146,0.158111 L0.206986,0.158191 L0.206774,0.158277 L0.206685,0.158338 L0.206591,0.158435 L0.206521,0.158513 L0.206434,0.158598 L0.206407,0.158620 L0.206298,0.158713 L0.206174,0.158714 L0.206126,0.158715 L0.206067,0.158757 L0.205991,0.158872 L0.205897,0.158939 L0.205827,0.158987 L0.205750,0.159042 L0.205626,0.159115 L0.205538,0.159194 L0.205432,0.159296 L0.205285,0.159388 L0.205233,0.159448 L0.205176,0.159604 L0.205160,0.159771 L0.205149,0.159890 L0.205080,0.160016 L0.205104,0.160063 L0.205106,0.160171 L0.205029,0.160231 L0.204935,0.160292 L0.204800,0.160413 L0.204694,0.160480 L0.204648,0.160576 L0.204589,0.160630 L0.204513,0.160709 L0.204436,0.160758 L0.204354,0.160830 L0.204331,0.160884 L0.204285,0.160974 L0.204161,0.161035 L0.204126,0.161054 L0.204096,0.161114 L0.204032,0.161156 L0.203955,0.161169 L0.203878,0.161266 L0.203827,0.161350 L0.203786,0.161434 L0.203751,0.161523 L0.203693,0.161602 L0.203646,0.161674 L0.203570,0.161746 L0.203513,0.161866 L0.203484,0.161974 L0.203438,0.162016 L0.203378,0.162059 L0.203296,0.162084 L0.203207,0.162097 L0.203118,0.162122 L0.203077,0.162158 L0.203018,0.162177 L0.202970,0.162201 L0.202858,0.162280 L0.202747,0.162359 L0.202570,0.162469 L0.202446,0.162554 L0.202323,0.162627 L0.202182,0.162724 L0.202143,0.162759 L0.202070,0.162827 L0.201959,0.162954 L0.201848,0.163074 L0.201784,0.163171 L0.201660,0.163292 L0.201531,0.163400 L0.201414,0.163521 L0.201362,0.163617 L0.201304,0.163725 L0.201293,0.163821 L0.201265,0.163976 L0.201232,0.164102 L0.201199,0.164299 L0.201141,0.164472 L0.200937,0.164530 L0.200873,0.164568 L0.200791,0.164605 L0.200616,0.164635 L0.200451,0.164621 L0.200309,0.164575 L0.200154,0.164520 L0.200073,0.164488 L0.200073,0.164469 L0.200069,0.164438 L0.200044,0.164414 L0.200022,0.164404 L0.199995,0.164402 L0.199966,0.164412 L0.199939,0.164451 L0.199865,0.164538 L0.199730,0.164710 L0.199573,0.164886 L0.199314,0.165161 L0.199177,0.165288 L0.199074,0.165384 L0.198906,0.165479 L0.198810,0.165542 L0.198561,0.165757 L0.198360,0.165970 L0.198178,0.166189 L0.198107,0.166452 L0.198078,0.166601 L0.198057,0.166763 L0.197998,0.167060 L0.197947,0.167199 L0.197865,0.167370 L0.197668,0.167696 L0.197433,0.168118 L0.197168,0.168585 L0.196971,0.168898 L0.196940,0.168882 L0.196870,0.168845 L0.196837,0.168770 L0.196740,0.168725 L0.196651,0.168730 L0.196595,0.168752 L0.196484,0.168786 L0.196374,0.168812 L0.196220,0.168821 L0.196075,0.168813 L0.195964,0.168750 L0.195937,0.168872 L0.195932,0.169079 L0.195978,0.169300 L0.195927,0.169390 L0.195828,0.169567 L0.195207,0.169475 L0.194629,0.169719 L0.194600,0.169891 L0.194514,0.169921 L0.194444,0.170004 L0.194298,0.170017 L0.194102,0.170048 L0.193924,0.170025 L0.193813,0.169941 L0.193772,0.169846 L0.193713,0.169735 L0.193641,0.169676 L0.193550,0.169675 L0.193541,0.169675 L0.193358,0.169668 L0.193151,0.169635 L0.192835,0.169621 L0.192281,0.169612 L0.192011,0.169632 L0.191856,0.169604 L0.191679,0.169576 L0.191537,0.169555 L0.191400,0.169541 L0.191293,0.169549 L0.191160,0.169578 L0.190957,0.169628 L0.190856,0.169620 L0.190683,0.169568 L0.190532,0.169501 L0.190340,0.169397 L0.190182,0.169323 L0.189991,0.169233 L0.189909,0.169214 L0.189652,0.169140 L0.189417,0.169054 L0.189174,0.168964 L0.188965,0.168910 L0.188723,0.168874 L0.188543,0.168856 L0.188242,0.168815 L0.188073,0.168796 L0.187956,0.168796 L0.187790,0.168796 L0.187608,0.168782 L0.187500,0.168758 L0.187408,0.168697 L0.187329,0.168627 L0.187251,0.168588 L0.187146,0.168531 L0.187069,0.168477 L0.186999,0.168383 L0.186991,0.168311 L0.186954,0.168112 L0.186933,0.168067 L0.186867,0.167963 L0.186825,0.167878 L0.186750,0.167774 L0.186631,0.167706 L0.186508,0.167620 L0.186324,0.167565 L0.186513,0.167427 L0.186701,0.167283 L0.186735,0.167200 L0.186786,0.167096 L0.186822,0.167034 L0.186921,0.166892 L0.187018,0.166774 L0.187132,0.166682 L0.187098,0.166396 L0.187043,0.166242 L0.186935,0.165955 L0.186871,0.165898 L0.186805,0.165753 L0.186657,0.165567 L0.186547,0.165374 L0.186466,0.165361 L0.186459,0.165369 L0.186365,0.165471 L0.186321,0.165691 L0.186318,0.165901 L0.186332,0.166098 L0.186339,0.166389 L0.186333,0.166540 L0.186313,0.166619 L0.186293,0.166622 L0.186281,0.166636 L0.186281,0.166683 L0.186307,0.166694 L0.186292,0.166754 L0.186266,0.166830 L0.186196,0.166896 L0.186177,0.166921 L0.186133,0.167018 L0.186072,0.167068 L0.185952,0.167076 L0.185926,0.167064 L0.185775,0.166986 L0.185656,0.166881 L0.185579,0.166862 L0.185479,0.167000 L0.185319,0.166848 L0.185296,0.166826 L0.185167,0.166683 L0.184936,0.166401 L0.184794,0.166179 L0.184680,0.165999 L0.184514,0.165741 L0.184456,0.165626 L0.184447,0.165550 L0.184451,0.165487 L0.184474,0.165424 L0.184503,0.165364 L0.184548,0.165268 L0.184588,0.165133 L0.184615,0.164937 L0.184625,0.164851 L0.184670,0.164684 L0.184773,0.164376 L0.184806,0.164303 L0.184850,0.164251 L0.184803,0.164201 L0.184781,0.164132 L0.184734,0.164013 L0.184654,0.163897 L0.184554,0.163736 L0.184411,0.163542 L0.184299,0.163394 L0.184188,0.163249 L0.184103,0.163127 L0.184045,0.163049 L0.183976,0.162977 L0.183915,0.162895 L0.183839,0.162787 L0.183785,0.162685 L0.183758,0.162626 L0.183699,0.162444 L0.183678,0.162391 L0.183669,0.162363 L0.183602,0.162183 L0.183561,0.162103 L0.183469,0.161985 L0.183367,0.161852 L0.183249,0.161700 L0.182987,0.161346 L0.182950,0.161288 L0.182896,0.161168 L0.182872,0.161096 L0.182843,0.160971 L0.182812,0.160831 L0.182823,0.160747 L0.182833,0.160658 L0.182865,0.160577 L0.182896,0.160514 L0.182946,0.160442 L0.182990,0.160379 L0.183031,0.160333 L0.183077,0.160300 L0.183208,0.160265 L0.183147,0.160117 L0.182859,0.159055 L0.182592,0.158049 L0.182418,0.157426 L0.182221,0.156375 L0.182858,0.154773 L0.182911,0.154641 L0.182511,0.154288 L0.181409,0.153815 L0.181432,0.153937 L0.181116,0.153829 L0.180573,0.153705 L0.180374,0.153765 L0.180335,0.153765 L0.179662,0.153775 L0.179476,0.153634 L0.179229,0.153447 L0.178686,0.153350 L0.177893,0.153059 L0.177072,0.152813 L0.176338,0.152690 L0.175698,0.152480 L0.174949,0.152567 L0.174815,0.152521 L0.174434,0.152507 L0.174292,0.152359 L0.173934,0.152085 L0.173601,0.152071 L0.173018,0.152305 L0.172542,0.152486 L0.172113,0.152368 L0.171632,0.152188 L0.171659,0.152083 L0.171588,0.151741 L0.171186,0.151613 L0.170833,0.151532 L0.170408,0.151719 L0.170316,0.151978 L0.169363,0.151781 L0.168926,0.151678 L0.168736,0.151634 L0.167589,0.151314 L0.167098,0.150949 L0.166717,0.150821 L0.166418,0.150542 L0.166039,0.150283 L0.165393,0.149963 L0.165108,0.150005 L0.164672,0.150068 L0.164288,0.149845 L0.163957,0.149429 L0.163942,0.149147 L0.163646,0.148427 L0.163409,0.147691 L0.163376,0.147542 L0.163256,0.146993 L0.162916,0.146511 L0.162667,0.146381 L0.162254,0.146073 L0.161997,0.145954 L0.161632,0.145786 L0.161392,0.145103 L0.161389,0.145094 L0.161230,0.144447 L0.161107,0.144346 L0.160728,0.144036 L0.160692,0.144007 L0.160669,0.144002 L0.160434,0.143953 L0.159648,0.143488 L0.159310,0.143102 L0.159322,0.142988 L0.159327,0.142949 L0.159190,0.142674 L0.159029,0.142506 L0.158684,0.142119 L0.158659,0.142091 L0.158639,0.142036 L0.158436,0.141472 L0.158260,0.141083 L0.157942,0.140802 L0.157607,0.140659 L0.157231,0.140635 L0.157064,0.140631 L0.156779,0.140623 L0.156409,0.140314 L0.156248,0.139975 L0.156124,0.139717 L0.156095,0.139708 L0.155675,0.139576 L0.155304,0.139506 L0.155261,0.139518 L0.155105,0.139562 L0.154855,0.139742 L0.154594,0.139803 L0.154011,0.139804 L0.153426,0.139834 L0.153270,0.139917 L0.152627,0.139816 L0.152066,0.139453 L0.151997,0.139431 L0.151799,0.139368 L0.151629,0.139444 L0.151366,0.139561 L0.151152,0.139656 L0.150753,0.139657 L0.150374,0.139781 L0.149966,0.139835 L0.149402,0.139667 L0.149147,0.139556 L0.148322,0.139239 L0.148310,0.139167 L0.148286,0.139032 L0.147915,0.138708 L0.147728,0.138610 L0.147353,0.138606 L0.147094,0.138481 L0.146982,0.138311 L0.146626,0.137992 L0.146335,0.137939 L0.146155,0.137994 L0.146083,0.137957 L0.145959,0.137892 L0.145835,0.137880 L0.145647,0.137702 L0.145645,0.137509 L0.145643,0.137398 L0.145633,0.136380 L0.145413,0.135616 L0.144752,0.134595 L0.144404,0.134216 L0.144361,0.134149 L0.144274,0.134079 L0.144193,0.134030 L0.144145,0.134006 L0.144067,0.133975 L0.143876,0.133885 L0.143756,0.133827 L0.143666,0.133760 L0.143594,0.133687 L0.143503,0.133617 L0.143428,0.133573 L0.143260,0.133459 L0.143041,0.133334 L0.142809,0.133251 L0.142632,0.133164 L0.142542,0.133112 L0.142482,0.133056 L0.142386,0.132992 L0.142290,0.132919 L0.142250,0.132889 L0.142067,0.132753 L0.141959,0.132647 L0.141883,0.132553 L0.141847,0.132494 L0.141819,0.132420 L0.141791,0.132337 L0.141772,0.132271 L0.141750,0.132221 L0.141792,0.132177 L0.141832,0.132144 L0.141850,0.132115 L0.141854,0.132066 L0.141853,0.132048 L0.141853,0.132037 L0.141838,0.131995 L0.141821,0.131968 L0.141820,0.131967 L0.141797,0.131931 L0.141777,0.131892 L0.141769,0.131850 L0.141772,0.131822 L0.141774,0.131806 L0.141815,0.131740 L0.141848,0.131658 L0.141866,0.131606 L0.141901,0.131545 L0.141935,0.131498 L0.141969,0.131462 L0.142023,0.131388 L0.142037,0.131312 L0.142041,0.131207 L0.142027,0.131137 L0.142002,0.131004 L0.141942,0.130921 L0.141855,0.130804 L0.141770,0.130729 L0.141702,0.130686 L0.141632,0.130664 L0.141560,0.130644 L0.141491,0.130635 L0.141479,0.130637 L0.141423,0.130659 L0.141385,0.130673 L0.141378,0.130674 L0.141351,0.130676 L0.141309,0.130657 L0.141289,0.130623 L0.141279,0.130595 L0.141265,0.130572 L0.141223,0.130563 L0.141168,0.130560 L0.141122,0.130555 L0.141078,0.130527 L0.141050,0.130491 L0.141028,0.130453 L0.141010,0.130402 L0.141000,0.130357 L0.140996,0.130324 L0.140991,0.130275 L0.140979,0.130241 L0.140963,0.130210 L0.140935,0.130184 L0.140909,0.130152 L0.140892,0.130126 L0.140878,0.130082 L0.140864,0.130038 L0.140857,0.129937 L0.140842,0.129838 L0.140838,0.129798 L0.140826,0.129762 L0.140815,0.129707 L0.140811,0.129656 L0.140810,0.129599 L0.140794,0.129447 L0.140745,0.129298 L0.140664,0.129178 L0.140404,0.128888 L0.140198,0.128691 L0.139898,0.128467 L0.139604,0.128299 L0.139492,0.128204 L0.139412,0.128091 L0.139356,0.127967 L0.139297,0.127828 L0.139100,0.127611 L0.138991,0.127454 L0.138951,0.127363 L0.138947,0.127288 L0.138946,0.127220 L0.138998,0.127139 L0.139057,0.127075 L0.139110,0.127015 L0.139194,0.126927 L0.139273,0.126858 L0.139315,0.126824 L0.139347,0.126776 L0.139366,0.126689 L0.139365,0.126599 L0.139365,0.126591 L0.139343,0.126541 L0.139331,0.126520 L0.139258,0.126396 L0.139152,0.126293 L0.139098,0.126217 L0.139052,0.126131 L0.139039,0.126072 L0.139032,0.125994 L0.139025,0.125929 L0.139019,0.125913 L0.138988,0.125843 L0.138959,0.125777 L0.138899,0.125729 L0.138889,0.125720 L0.138773,0.125634 L0.138655,0.125543 L0.138543,0.125447 L0.138499,0.125421 L0.138488,0.125397 L0.138536,0.125336 L0.138566,0.125298 L0.138615,0.125175 L0.138678,0.124983 L0.138692,0.124930 L0.138716,0.124836 L0.138721,0.124740 L0.138741,0.124658 L0.138750,0.124606 L0.138767,0.124547 L0.138796,0.124501 L0.138848,0.124439 L0.138867,0.124425 L0.138893,0.124406 L0.138949,0.124375 L0.138987,0.124357 L0.139051,0.124327 L0.139131,0.124292 L0.139155,0.124273 L0.139198,0.124232 L0.139234,0.124195 L0.139273,0.124153 L0.139317,0.124112 L0.139351,0.124080 L0.139373,0.124042 L0.139388,0.123990 L0.139412,0.123947 L0.139650,0.123781 L0.140101,0.123483 L0.140435,0.123293 L0.140462,0.123280 L0.140502,0.123277 L0.140558,0.123284 L0.140646,0.123305 L0.140906,0.123317 L0.141255,0.123324 L0.141409,0.123331 L0.141485,0.123343 L0.141518,0.123362 L0.141558,0.123386 L0.141595,0.123416 L0.141681,0.123389 L0.141679,0.123361 L0.141695,0.123343 L0.141753,0.123316 L0.141815,0.123284 L0.141869,0.123257 L0.141902,0.123230 L0.141978,0.123210 L0.142035,0.123206 L0.142091,0.123205 L0.142137,0.123207 L0.142204,0.123207 L0.142275,0.123214 L0.142331,0.123218 L0.142373,0.123221 L0.142402,0.123221 L0.142435,0.123205 L0.142468,0.123172 L0.142471,0.123126 L0.142468,0.123065 L0.142437,0.122962 L0.142257,0.122364 L0.142255,0.122357 L0.142131,0.117570 L0.143045,0.114030 L0.143586,0.113422 L0.143679,0.113376 L0.143836,0.113329 L0.144043,0.113266 L0.144206,0.113215 L0.144471,0.113105 L0.144597,0.113042 L0.144651,0.112984 L0.144734,0.112928 L0.144800,0.112890 L0.144870,0.112859 L0.144923,0.112837 L0.144948,0.112827 L0.145014,0.112811 L0.145054,0.112791 L0.145091,0.112762 L0.145131,0.112718 L0.145166,0.112649 L0.145173,0.112597 L0.145172,0.112557 L0.145158,0.112470 L0.145157,0.112467 L0.145122,0.112358 L0.145106,0.112310 L0.145093,0.112234 L0.145117,0.112062 L0.145135,0.111965 L0.145161,0.111896 L0.145198,0.111838 L0.145249,0.111803 L0.145282,0.111764 L0.145288,0.111757 L0.145287,0.111740 L0.145286,0.111713 L0.145280,0.111679 L0.145283,0.111635 L0.145293,0.111600 L0.145286,0.111568 L0.145274,0.111545 L0.145266,0.111522 L0.145265,0.111480 L0.145271,0.111454 L0.145281,0.111419 L0.145292,0.111379 L0.145307,0.111333 L0.145314,0.111297 L0.145326,0.111247 L0.145404,0.111126 L0.145432,0.111047 L0.145470,0.110949 L0.145531,0.110823 L0.145555,0.110772 L0.145567,0.110732 L0.145576,0.110693 L0.145569,0.110654 L0.145558,0.110630 L0.145531,0.110628 L0.145506,0.110631 L0.145483,0.110633 L0.145435,0.110612 L0.145427,0.110594 L0.145415,0.110556 L0.145400,0.110497 L0.145373,0.110421 L0.145199,0.110185 L0.144980,0.109955 L0.144949,0.109911 L0.144936,0.109891 L0.144927,0.109861 L0.144912,0.109841 L0.144884,0.109820 L0.144855,0.109803 L0.144831,0.109782 L0.144809,0.109757 L0.144794,0.109723 L0.144780,0.109680 L0.144761,0.109642 L0.144741,0.109608 L0.144695,0.109538 L0.144594,0.109434 L0.144502,0.109320 L0.144386,0.109220 L0.144303,0.109158 L0.144270,0.109126 L0.144254,0.109122 L0.144236,0.109128 L0.144206,0.109154 L0.144185,0.109181 L0.144140,0.109270 L0.144102,0.109363 L0.144055,0.109450 L0.144009,0.109408 L0.143992,0.109371 L0.143974,0.109343 L0.143953,0.109329 L0.143916,0.109321 L0.143876,0.109316 L0.143811,0.109310 L0.143759,0.109296 L0.143787,0.109261 L0.143823,0.109216 L0.143806,0.109187 L0.143784,0.109145 L0.143766,0.109109 L0.143735,0.109069 L0.143710,0.109044 L0.143699,0.109005 L0.143696,0.108965 L0.143712,0.108928 L0.143763,0.108858 L0.143857,0.108678 L0.143942,0.108520 L0.143972,0.108429 L0.143983,0.108362 L0.143983,0.108303 L0.143971,0.108242 L0.143956,0.108184 L0.143853,0.107998 L0.143817,0.107932 L0.143814,0.107925 L0.143690,0.107724 L0.143644,0.107660 L0.143634,0.107652 L0.143601,0.107622 L0.143563,0.107576 L0.143503,0.107461 L0.143498,0.107454 L0.143334,0.107179 L0.143173,0.106938 L0.143100,0.106840 L0.142969,0.106660 L0.142954,0.106639 L0.142812,0.106438 L0.142783,0.106393 L0.142724,0.106301 L0.142674,0.106229 L0.142605,0.106160 L0.142546,0.106131 L0.142542,0.106129 L0.142448,0.106059 L0.142329,0.105914 L0.142190,0.105745 L0.141987,0.105561 L0.141893,0.105469 L0.141838,0.105419 L0.141780,0.105378 L0.141709,0.105334 L0.141642,0.105289 L0.141603,0.105250 L0.141550,0.105192 L0.141508,0.105158 L0.141457,0.105093 L0.141402,0.105047 L0.141372,0.105029 L0.141328,0.105005 L0.141273,0.104960 L0.141182,0.104891 L0.141016,0.104761 L0.140976,0.104720 L0.140935,0.104691 L0.140914,0.104671 L0.140947,0.104653 L0.141047,0.104619 L0.141107,0.104607 L0.141160,0.104600 L0.141217,0.104598 L0.141288,0.104615 L0.141360,0.104640 L0.141487,0.104702 L0.141554,0.104739 L0.141609,0.104748 L0.141669,0.104771 L0.141714,0.104773 L0.141757,0.104774 L0.141805,0.104807 L0.141824,0.104838 L0.141882,0.104882 L0.141961,0.104910 L0.142112,0.104955 L0.142203,0.104990 L0.142274,0.105024 L0.142353,0.105061 L0.142444,0.105091 L0.142522,0.105109 L0.142589,0.105108 L0.142670,0.105107 L0.142749,0.105101 L0.142797,0.105115 L0.142866,0.105149 L0.142957,0.105231 L0.143057,0.105337 L0.143161,0.105464 L0.143286,0.105570 L0.143420,0.105661 L0.143487,0.105653 L0.143512,0.105607 L0.143497,0.105550 L0.143497,0.105510 L0.143512,0.105459 L0.143521,0.105407 L0.143525,0.105354 L0.143518,0.105311 L0.143495,0.105266 L0.143493,0.105228 L0.143499,0.105173 L0.143498,0.105119 L0.143493,0.105078 L0.143482,0.105024 L0.143438,0.104938 L0.143359,0.104735 L0.143337,0.104675 L0.143291,0.104612 L0.143262,0.104567 L0.143191,0.104437 L0.143140,0.104368 L0.143113,0.104319 L0.143093,0.104264 L0.143086,0.104219 L0.143085,0.104179 L0.143125,0.104149 L0.143187,0.104151 L0.143280,0.104183 L0.143333,0.104220 L0.143381,0.104248 L0.143438,0.104257 L0.143514,0.104241 L0.143542,0.104205 L0.143568,0.104167 L0.143591,0.104126 L0.143612,0.104076 L0.143633,0.104049 L0.143687,0.104046 L0.143754,0.104076 L0.143793,0.104128 L0.143870,0.104201 L0.143904,0.104248 L0.143980,0.104368 L0.144030,0.104544 L0.144101,0.104733 L0.144183,0.104932 L0.144222,0.105049 L0.144263,0.105263 L0.144277,0.105381 L0.144305,0.105472 L0.144332,0.105540 L0.144378,0.105568 L0.144399,0.105556 L0.144438,0.105491 L0.144405,0.105368 L0.144390,0.105235 L0.144361,0.105111 L0.144342,0.105042 L0.144319,0.104959 L0.144315,0.104880 L0.144307,0.104814 L0.144327,0.104659 L0.144353,0.104525 L0.144373,0.104463 L0.144401,0.104384 L0.144450,0.104299 L0.144494,0.104256 L0.144544,0.104222 L0.144613,0.104211 L0.144653,0.104230 L0.144704,0.104324 L0.144741,0.104391 L0.144791,0.104426 L0.144858,0.104439 L0.144960,0.104414 L0.145059,0.104350 L0.145092,0.104319 L0.145139,0.104287 L0.145184,0.104270 L0.145244,0.104274 L0.145284,0.104306 L0.145321,0.104335 L0.145380,0.104346 L0.145492,0.104344 L0.145561,0.104317 L0.145627,0.104299 L0.145675,0.104155 L0.145732,0.104143 L0.145827,0.104146 L0.146008,0.104163 L0.146304,0.104232 L0.146569,0.104281 L0.146747,0.104319 L0.146871,0.104331 L0.147021,0.104329 L0.147171,0.104315 L0.147329,0.104277 L0.147407,0.104243 L0.147498,0.104196 L0.147564,0.104181 L0.147633,0.104187 L0.147683,0.104219 L0.147712,0.104267 L0.147746,0.104314 L0.147787,0.104357 L0.147831,0.104382 L0.147867,0.104395 L0.147879,0.104424 L0.147905,0.104427 L0.147933,0.104455 L0.147970,0.104489 L0.147994,0.104511 L0.148049,0.104531 L0.148122,0.104553 L0.148180,0.104567 L0.148259,0.104591 L0.148325,0.104607 L0.148397,0.104639 L0.148433,0.104668 L0.148478,0.104686 L0.148515,0.104677 L0.148551,0.104669 L0.148605,0.104661 L0.148662,0.104662 L0.148721,0.104668 L0.148754,0.104671 L0.148783,0.104660 L0.148822,0.104628 L0.148849,0.104604 L0.148900,0.104570 L0.148988,0.104544 L0.149046,0.104529 L0.149112,0.104506 L0.149162,0.104463 L0.149194,0.104412 L0.149218,0.104337 L0.149224,0.104262 L0.149212,0.104198 L0.149190,0.104137 L0.149174,0.104059 L0.149173,0.103980 L0.149172,0.103891 L0.149171,0.103819 L0.149173,0.103733 L0.149190,0.103658 L0.149210,0.103594 L0.149231,0.103540 L0.149248,0.103504 L0.149251,0.103443 L0.149229,0.103379 L0.149214,0.103343 L0.149177,0.103258 L0.149147,0.103162 L0.149157,0.102890 L0.149162,0.102704 L0.149195,0.102536 L0.149224,0.102360 L0.149251,0.102235 L0.149293,0.102102 L0.149341,0.101969 L0.149441,0.101789 L0.149479,0.101674 L0.149583,0.101500 L0.149688,0.101349 L0.149758,0.101241 L0.149845,0.101107 L0.149947,0.100977 L0.150049,0.100872 L0.150168,0.100756 L0.150253,0.100676 L0.150387,0.100563 L0.150539,0.100447 L0.150662,0.100291 L0.150756,0.100129 L0.150797,0.100035 L0.150850,0.099952 L0.150927,0.099865 L0.151043,0.099771 L0.151107,0.099709 L0.151162,0.099601 L0.151218,0.099504 L0.151280,0.099378 L0.151290,0.099364 L0.151318,0.099324 L0.151876,0.099176 L0.152165,0.099115 L0.152199,0.099061 L0.152223,0.098985 L0.152257,0.098905 L0.152300,0.098844 L0.152358,0.098776 L0.152392,0.098737 L0.152428,0.098705 L0.152480,0.098675 L0.152539,0.098653 L0.152607,0.098637 L0.152666,0.098632 L0.152767,0.098631 L0.152817,0.098644 L0.152912,0.098671 L0.153007,0.098689 L0.153080,0.098689 L0.153133,0.098677 L0.153165,0.098662 L0.153220,0.098640 L0.153260,0.098632 L0.153327,0.098642 L0.153436,0.098658 L0.153535,0.098670 L0.153609,0.098688 L0.153758,0.098720 L0.153905,0.098758 L0.154046,0.098790 L0.154147,0.098794 L0.154211,0.098793 L0.154292,0.098823 L0.154384,0.098869 L0.154520,0.098905 L0.154594,0.098944 L0.154682,0.098979 L0.154736,0.099001 L0.154772,0.099026 L0.154840,0.099088 L0.154877,0.099133 L0.154923,0.099184 L0.155002,0.099221 L0.155057,0.099229 L0.155162,0.099226 L0.155272,0.099211 L0.155379,0.099200 L0.155468,0.099193 L0.155609,0.099216 L0.155754,0.099248 L0.155847,0.099272 L0.156096,0.099340 L0.156220,0.099358 L0.156311,0.099368 L0.156401,0.099386 L0.156485,0.099396 L0.156559,0.099414 L0.156632,0.099459 L0.156685,0.099515 L0.156770,0.099659 L0.156836,0.099643 L0.156879,0.099585 L0.156929,0.099460 L0.157009,0.099329 L0.157075,0.099277 L0.157087,0.099267 L0.157213,0.099145 L0.157337,0.099052 L0.157419,0.099003 L0.157498,0.098981 L0.157574,0.098976 L0.157630,0.098985 L0.157674,0.099001 L0.157717,0.099014 L0.157775,0.099013 L0.157839,0.099005 L0.157904,0.098996 L0.157953,0.098994 L0.158005,0.099022 L0.158043,0.099061 L0.158081,0.099120 L0.158158,0.099227 L0.158254,0.099380 L0.158327,0.099490 L0.158437,0.099677 L0.158448,0.099687 L0.158481,0.099716 L0.158538,0.099729 L0.158574,0.099728 L0.158609,0.099720 L0.158660,0.099712 L0.158721,0.099707 L0.158770,0.099718 L0.158822,0.099744 L0.158872,0.099764 L0.158961,0.099782 L0.159007,0.099778 L0.159043,0.099769 L0.159106,0.099761 L0.159188,0.099771 L0.159244,0.099789 L0.159304,0.099815 L0.159345,0.099830 L0.159391,0.099845 L0.159400,0.099847 L0.159431,0.099855 L0.159491,0.099870 L0.159591,0.099874 L0.159679,0.099875 L0.159753,0.099866 L0.159798,0.099843 L0.159854,0.099821 L0.159906,0.099809 L0.159963,0.099806 L0.160083,0.099778 L0.160238,0.099737 L0.160336,0.099690 L0.160457,0.099601 L0.160524,0.099542 L0.160577,0.099475 L0.160616,0.099427 L0.160650,0.099388 L0.160676,0.099363 L0.160701,0.099346 L0.160758,0.099347 L0.160804,0.099365 L0.160855,0.099385 L0.160943,0.099432 L0.161053,0.099499 L0.161202,0.099601 L0.161308,0.099661 L0.161474,0.099766 L0.161808,0.099962 L0.161958,0.100053 L0.162113,0.100112 L0.162214,0.100149 L0.162294,0.100186 L0.162360,0.100211 L0.162465,0.100240 L0.162560,0.100256 L0.162617,0.100269 L0.162686,0.100283 L0.162751,0.100286 L0.162804,0.100262 L0.162866,0.100210 L0.162930,0.100161 L0.162984,0.100103 L0.163010,0.100059 L0.163036,0.099996 L0.163058,0.099944 L0.163079,0.099894 L0.163100,0.099844 L0.163127,0.099814 L0.163185,0.099813 L0.163245,0.099816 L0.163317,0.099815 L0.163363,0.099810 L0.163399,0.099796 L0.163471,0.099771 L0.163567,0.099739 L0.163639,0.099717 L0.163725,0.099694 L0.163805,0.099651 L0.163855,0.099587 L0.163888,0.099501 L0.163909,0.099352 L0.163915,0.099247 L0.163935,0.099168 L0.163959,0.099113 L0.163979,0.099078 L0.164036,0.099043 L0.164176,0.099011 L0.164563,0.098896 L0.164743,0.098835 L0.164828,0.098811 L0.164889,0.098804 L0.165016,0.098793 L0.165194,0.098767 L0.165337,0.098750 L0.165512,0.098719 L0.165698,0.098688 L0.165819,0.098648 L0.166021,0.098605 L0.166398,0.098539 L0.166781,0.098493 L0.167073,0.098472 L0.167253,0.098468 L0.167474,0.098463 L0.168031,0.098420 L0.168590,0.098382 L0.168750,0.098386 L0.168782,0.098461 L0.168841,0.098564 L0.168887,0.098608 L0.168933,0.098643 L0.168975,0.098686 L0.168978,0.098688 L0.169013,0.098726 L0.169037,0.098762 L0.169046,0.098775 L0.169094,0.098841 L0.169150,0.098915 L0.169222,0.098996 L0.169328,0.099120 L0.169390,0.099190 L0.169435,0.099267 L0.169492,0.099373 L0.169530,0.099476 L0.169531,0.099481 L0.169535,0.099494 L0.169603,0.099730 L0.169744,0.100001 L0.169920,0.100330 L0.169997,0.100525 L0.170049,0.100618 L0.170124,0.100766 L0.170220,0.100964 L0.170234,0.101040 L0.170226,0.101109 L0.170176,0.101228 L0.170147,0.101309 L0.170129,0.101404 L0.170115,0.101595 L0.170119,0.101791 L0.170188,0.101794 L0.170294,0.101802 L0.170354,0.101792 L0.170499,0.101637 L0.170655,0.101483 L0.170758,0.101382 L0.170794,0.101307 L0.170906,0.101182 L0.171004,0.101093 L0.171114,0.100977 L0.171195,0.100882 L0.171197,0.100876 L0.171222,0.100805 L0.171277,0.100713 L0.171340,0.100596 L0.171358,0.100571 L0.171468,0.100419 L0.171581,0.100293 L0.171751,0.100133 L0.171867,0.100072 L0.172150,0.099942 L0.172349,0.099842 L0.172430,0.099809 L0.172466,0.099772 L0.172514,0.099628 L0.172535,0.099529 L0.172551,0.099475 L0.172579,0.099448 L0.172632,0.099446 L0.172699,0.099467 L0.172813,0.099618 L0.172912,0.099695 L0.172964,0.099711 L0.173007,0.099715 L0.173082,0.099657 L0.173175,0.099615 L0.173224,0.099600 L0.173303,0.099604 L0.173367,0.099612 L0.173464,0.099613 L0.173576,0.099612 L0.173697,0.099593 L0.173769,0.099564 L0.173926,0.099562 L0.173980,0.099551 L0.174062,0.099515 L0.174133,0.099449 L0.174208,0.099381 L0.174363,0.099189 L0.174397,0.099105 L0.174417,0.098973 L0.174454,0.098956 L0.174624,0.099328 L0.174679,0.099384 L0.174739,0.099393 L0.174814,0.099356 L0.174880,0.099276 L0.174889,0.099265 L0.174959,0.099133 L0.175045,0.099022 L0.175158,0.098906 L0.175235,0.098845 L0.175349,0.098791 L0.175498,0.098708 L0.175607,0.098659 L0.175654,0.098646 L0.175727,0.098638 L0.175801,0.098625 L0.175812,0.098634 L0.175863,0.098678 L0.175896,0.098742 L0.175960,0.099009 L0.176046,0.099311 L0.176128,0.099525 L0.176219,0.099731 L0.176355,0.099997 L0.176433,0.100168 L0.176410,0.100368 L0.176370,0.100533 L0.176375,0.100619 L0.176462,0.100743 L0.176534,0.100799 L0.176626,0.100769 L0.176693,0.100625 L0.176744,0.100453 L0.176805,0.100284 L0.176857,0.100158 L0.176931,0.100046 L0.177050,0.099934 L0.177223,0.099788 L0.177411,0.099678 L0.177553,0.099612 L0.177688,0.099575 L0.177869,0.099518 L0.177996,0.099456 L0.178113,0.099393 L0.178226,0.099313 L0.178368,0.099243 L0.178496,0.099195 L0.178578,0.099173 L0.178677,0.099168 L0.178905,0.099132 L0.179037,0.099120 L0.179208,0.099078 L0.179336,0.099023 L0.179474,0.098978 L0.179630,0.098922 L0.179740,0.098888 L0.179868,0.098865 L0.179993,0.098849 L0.180150,0.098829 L0.180364,0.098812 L0.180517,0.098799 L0.180706,0.098782 L0.180881,0.098758 L0.181054,0.098698 L0.181210,0.098618 L0.181348,0.098551 L0.181458,0.098507 L0.181565,0.098477 L0.181714,0.098421 L0.181770,0.098310 L0.181872,0.098212 L0.182138,0.098094 L0.182368,0.097965 L0.182616,0.097844 L0.182818,0.097752 L0.183035,0.097652 L0.183251,0.097563 L0.183620,0.097440 L0.183915,0.097354 L0.184090,0.097341 L0.184229,0.097332 L0.184428,0.097275 L0.184652,0.097215 L0.184897,0.097169 L0.185129,0.097137 L0.185482,0.097107 L0.185699,0.097104 L0.185981,0.097100 L0.186370,0.097106 L0.186741,0.097118 L0.187031,0.097154 L0.187235,0.097194 L0.187504,0.097265 L0.187747,0.097333 L0.188216,0.097481 L0.188482,0.097609 L0.189036,0.097948 L0.189439,0.098147 L0.189577,0.098127 L0.189805,0.098094 L0.190060,0.097976 L0.190400,0.097800 L0.190612,0.097640 L0.190781,0.097437 L0.190964,0.097249 L0.191176,0.097074 L0.191387,0.096928 L0.191586,0.096840 L0.191942,0.096792 L0.192315,0.096887 L0.192687,0.097011 L0.193018,0.097178 L0.193450,0.097415 L0.193881,0.097623 L0.194327,0.097903 L0.194745,0.098198 L0.195048,0.098451 L0.195237,0.098734 L0.195369,0.098976 L0.195558,0.099202 L0.195716,0.099300 L0.196030,0.099353 L0.196416,0.099305 L0.196878,0.099221 L0.197405,0.099142 L0.197761,0.099080 L0.198125,0.099090 L0.198461,0.099135 L0.198718,0.099132 L0.199144,0.098990 L0.199370,0.098823 L0.199631,0.098605 L0.199864,0.098373 L0.200117,0.098119 L0.200411,0.097657 L0.200628,0.097318 L0.200837,0.096951 L0.201017,0.096562 L0.201157,0.096413 L0.201453,0.096099 L0.201601,0.095968 L0.201670,0.095941 L0.201857,0.095865 L0.202149,0.095804 L0.202362,0.095779 L0.202476,0.095756 L0.202660,0.095625 L0.202779,0.095445 L0.202834,0.095308 L0.202946,0.095135 L0.203151,0.094946 L0.203405,0.094807 L0.203625,0.094640 L0.203815,0.094473 L0.203905,0.094336 L0.203990,0.094199 L0.204109,0.094047 L0.204320,0.093844 L0.204569,0.093733 L0.204917,0.093664 L0.205317,0.093644 L0.205595,0.093641 L0.205837,0.093616 L0.206172,0.093604 L0.206422,0.093558 L0.206808,0.093410 L0.207348,0.092950 L0.207688,0.092552 L0.208134,0.092093 L0.208497,0.091683 L0.208862,0.091357 L0.209238,0.091065 L0.209462,0.090884 L0.209697,0.090678 L0.209861,0.090509 L0.210073,0.090363 L0.210203,0.090278 L0.210535,0.090190 L0.210736,0.090128 L0.210998,0.090112 L0.211401,0.090047 L0.211638,0.089937 L0.211922,0.089802 L0.212193,0.089608 L0.212558,0.089329 L0.212816,0.089087 L0.213449,0.088388 L0.213869,0.087786 L0.213803,0.087281 L0.213190,0.085918 L0.212363,0.084053 L0.211595,0.082276 L0.211101,0.080942 L0.210761,0.079993 L0.210542,0.079132 L0.210296,0.078510 L0.210169,0.077916 L0.210102,0.077351 L0.210184,0.076903 L0.210716,0.076627 L0.211635,0.076347 L0.212197,0.076161 L0.212821,0.076033 L0.213594,0.076053 L0.214402,0.076399 L0.215397,0.077399 L0.216368,0.078905 L0.217157,0.080057 L0.218364,0.081411 L0.219089,0.082235 L0.219574,0.082884 L0.220262,0.083233 L0.220802,0.083523 L0.221707,0.084554 L0.222253,0.085321 L0.222799,0.086178 L0.223526,0.087181 L0.224622,0.089073 L0.225349,0.090106 L0.225955,0.090992 L0.226650,0.091817 L0.227345,0.092642 L0.227676,0.093108 L0.228004,0.093485 Z">
    <title>Zall Herr</title>
  </path>
</svg>