<?xml version="1.0" encoding="UTF-8"?>
<svg xmlns="http://www.w3.org/2000/svg" viewBox="0 0 0.098594 0.082349" width="800" height="800">
  <style>
    .boundary {
      fill: none;
      stroke: #222222;
      stroke-width: 1;
      vector-effect: non-scaling-stroke;
    }
  </style>
  <path class="boundary" d="M0.034029,0.036140 L0.034616,0.036387 L0.036043,0.037039 L0.037742,0.037818 L0.037980,0.037931 L0.038278,0.038074 L0.038527,0.038191 L0.039202,0.038517 L0.039894,0.038856 L0.040176,0.038988 L0.040401,0.039090 L0.040591,0.039166 L0.040986,0.039352 L0.041395,0.039534 L0.041807,0.039720 L0.042318,0.039941 L0.043064,0.040292 L0.043156,0.040335 L0.043210,0.040361 L0.044177,0.040821 L0.045066,0.041236 L0.045161,0.041708 L0.045292,0.042236 L0.045573,0.043504 L0.045727,0.044243 L0.045835,0.044805 L0.045992,0.045453 L0.046078,0.045746 L0.046107,0.045844 L0.045486,0.046083 L0.045299,0.046170 L0.044838,0.046374 L0.044719,0.046424 L0.044654,0.046455 L0.044567,0.046489 L0.044262,0.046612 L0.044355,0.046872 L0.044545,0.046817 L0.044570,0.046926 L0.044601,0.046912 L0.044627,0.046897 L0.044637,0.046884 L0.044699,0.046860 L0.044705,0.046874 L0.044724,0.046914 L0.044756,0.046916 L0.044794,0.046880 L0.044823,0.046938 L0.044871,0.047093 L0.044892,0.047103 L0.044915,0.047094 L0.045000,0.047073 L0.045007,0.047093 L0.045034,0.047085 L0.045048,0.047087 L0.045061,0.047090 L0.045085,0.047091 L0.045101,0.047090 L0.045121,0.047090 L0.045221,0.047075 L0.045309,0.047053 L0.045417,0.047076 L0.045477,0.047099 L0.045509,0.047100 L0.045604,0.047076 L0.045649,0.047074 L0.045709,0.047106 L0.045769,0.047224 L0.045803,0.047303 L0.045854,0.047298 L0.045871,0.047298 L0.045915,0.047288 L0.046012,0.047237 L0.046074,0.047212 L0.046107,0.047215 L0.046171,0.047223 L0.046210,0.047222 L0.046261,0.047206 L0.046288,0.047205 L0.046306,0.047227 L0.046364,0.047284 L0.046401,0.047333 L0.046422,0.047365 L0.046416,0.047387 L0.046366,0.047435 L0.046375,0.047460 L0.046389,0.047464 L0.046410,0.047453 L0.046455,0.047539 L0.046454,0.047544 L0.046451,0.047571 L0.046475,0.047655 L0.046500,0.047715 L0.046515,0.047798 L0.046532,0.047859 L0.046615,0.047836 L0.046646,0.047834 L0.046741,0.047821 L0.046795,0.047810 L0.046895,0.047856 L0.046910,0.047896 L0.046919,0.047944 L0.046928,0.047981 L0.046958,0.047977 L0.047000,0.047971 L0.047078,0.047964 L0.047120,0.047957 L0.047128,0.048016 L0.047099,0.048093 L0.047099,0.048162 L0.047092,0.048198 L0.047099,0.048270 L0.047099,0.048320 L0.047103,0.048363 L0.047106,0.048413 L0.047120,0.048485 L0.047067,0.048459 L0.046966,0.048464 L0.047001,0.048738 L0.047195,0.048694 L0.047201,0.048727 L0.047231,0.048924 L0.047215,0.048938 L0.047195,0.048990 L0.047239,0.049248 L0.047305,0.049606 L0.047333,0.049779 L0.047297,0.049900 L0.047391,0.050471 L0.047467,0.050916 L0.047020,0.051009 L0.046507,0.051115 L0.045516,0.051319 L0.044064,0.051623 L0.043626,0.051700 L0.043212,0.051791 L0.042478,0.051942 L0.041887,0.052067 L0.041215,0.052213 L0.039766,0.052509 L0.039308,0.052613 L0.039055,0.052663 L0.038884,0.052691 L0.038741,0.052724 L0.038535,0.052769 L0.038222,0.052827 L0.038034,0.052866 L0.037802,0.052908 L0.037563,0.052934 L0.037279,0.052945 L0.036977,0.052902 L0.036672,0.052854 L0.036444,0.052801 L0.036219,0.052715 L0.036017,0.052642 L0.035832,0.052569 L0.035580,0.052464 L0.035299,0.052337 L0.035071,0.052237 L0.034703,0.052075 L0.034433,0.051950 L0.034121,0.051709 L0.033937,0.051531 L0.033705,0.051300 L0.033541,0.051112 L0.033414,0.050902 L0.033257,0.050499 L0.032969,0.050200 L0.032716,0.050059 L0.032662,0.049895 L0.032672,0.049669 L0.032667,0.049383 L0.032645,0.049261 L0.032545,0.049165 L0.032436,0.049136 L0.032356,0.049151 L0.032256,0.049183 L0.032068,0.049173 L0.031878,0.049146 L0.031746,0.049127 L0.031629,0.049143 L0.031528,0.049098 L0.031460,0.049034 L0.031416,0.048939 L0.031416,0.048858 L0.031450,0.048761 L0.031512,0.048681 L0.031587,0.048595 L0.031670,0.048501 L0.031733,0.048418 L0.031821,0.048288 L0.031847,0.048201 L0.031826,0.048099 L0.031774,0.048020 L0.031732,0.047925 L0.031639,0.047843 L0.031501,0.047738 L0.031385,0.047615 L0.031266,0.047483 L0.031138,0.047367 L0.031081,0.047312 L0.031084,0.047234 L0.031152,0.047081 L0.031213,0.046920 L0.031237,0.046797 L0.031216,0.046698 L0.031207,0.046568 L0.031210,0.046434 L0.031190,0.046305 L0.031136,0.046152 L0.031099,0.046034 L0.031075,0.045914 L0.031077,0.045768 L0.031077,0.045605 L0.031081,0.045441 L0.031081,0.045295 L0.031095,0.045153 L0.031107,0.045002 L0.031093,0.044928 L0.031118,0.044833 L0.031179,0.044647 L0.031234,0.044496 L0.031301,0.044334 L0.031349,0.044206 L0.031444,0.043985 L0.031518,0.043813 L0.031557,0.043679 L0.031606,0.043531 L0.031631,0.043411 L0.031671,0.043246 L0.031689,0.043142 L0.031711,0.043027 L0.031758,0.042879 L0.031801,0.042771 L0.031855,0.042709 L0.031952,0.042680 L0.032042,0.042686 L0.032127,0.042663 L0.032202,0.042615 L0.032288,0.042588 L0.032350,0.042550 L0.032409,0.042484 L0.032431,0.042401 L0.032395,0.042306 L0.032309,0.042196 L0.032215,0.042102 L0.032088,0.041990 L0.031933,0.041903 L0.031763,0.041860 L0.031493,0.041477 L0.031063,0.041226 L0.030800,0.040552 L0.030615,0.040451 L0.030197,0.040602 L0.030014,0.040581 L0.029858,0.040464 L0.029882,0.040335 L0.030051,0.040162 L0.030065,0.040021 L0.030049,0.039894 L0.029909,0.039803 L0.029751,0.039672 L0.029652,0.039553 L0.029510,0.039362 L0.029303,0.039154 L0.029110,0.038986 L0.028862,0.038845 L0.028783,0.038716 L0.028672,0.038312 L0.028567,0.038152 L0.028273,0.038005 L0.027785,0.037756 L0.027449,0.037597 L0.027085,0.037448 L0.026762,0.037527 L0.025415,0.036862 L0.024362,0.036459 L0.023541,0.036420 L0.022945,0.036238 L0.022567,0.036294 L0.022303,0.036374 L0.022114,0.036402 L0.021974,0.036366 L0.021935,0.036227 L0.021819,0.036051 L0.021739,0.035812 L0.021652,0.035497 L0.021633,0.034495 L0.021251,0.034235 L0.022743,0.030856 L0.023467,0.031201 L0.026179,0.032426 L0.028532,0.033571 L0.029813,0.034190 L0.030764,0.034622 L0.031500,0.034970 L0.032015,0.035221 L0.032656,0.035534 L0.033261,0.035830 L0.033607,0.035971 L0.034029,0.036140 Z">
    <title>Njësia 7</title>
  </path>
</svg>
