<?xml version="1.0" encoding="UTF-8"?>
<svg xmlns="http://www.w3.org/2000/svg" viewBox="0 0 0.098594 0.082349" width="800" height="800">
  <style>
    .boundary {
      fill: none;
      stroke: #222222;
      stroke-width: 1;
      vector-effect: non-scaling-stroke;
    }
  </style>
  <path class="boundary" d="M0.008608,0.007864 L0.008549,0.008018 L0.008518,0.008152 L0.008515,0.008271 L0.008503,0.008547 L0.008506,0.008695 L0.008532,0.008805 L0.008547,0.008976 L0.008617,0.009070 L0.008680,0.009169 L0.008758,0.009335 L0.008797,0.009420 L0.008856,0.009505 L0.009100,0.009631 L0.009205,0.009691 L0.009287,0.009757 L0.009398,0.009865 L0.009513,0.009977 L0.009581,0.010053 L0.009701,0.010165 L0.009773,0.010236 L0.010032,0.010614 L0.010122,0.010746 L0.010307,0.011048 L0.010629,0.011606 L0.010935,0.012088 L0.010947,0.012100 L0.011303,0.011905 L0.011613,0.011729 L0.011954,0.011545 L0.012214,0.011408 L0.012512,0.011245 L0.012577,0.011200 L0.012572,0.011184 L0.012708,0.011106 L0.012803,0.011071 L0.012818,0.011061 L0.013005,0.011023 L0.012950,0.010758 L0.012906,0.010291 L0.012709,0.010309 L0.012422,0.010337 L0.012400,0.010289 L0.012350,0.010236 L0.012271,0.010125 L0.012274,0.010121 L0.012105,0.009841 L0.012253,0.009771 L0.012440,0.009406 L0.012610,0.009304 L0.012885,0.009298 L0.013150,0.009255 L0.013347,0.009562 L0.013612,0.009377 L0.013762,0.009246 L0.013921,0.009098 L0.014176,0.009220 L0.014347,0.009301 L0.014454,0.009367 L0.014514,0.009405 L0.014710,0.009405 L0.014888,0.009408 L0.015044,0.009427 L0.015149,0.009440 L0.015276,0.009478 L0.015279,0.009500 L0.015351,0.009484 L0.015358,0.009303 L0.015377,0.009205 L0.015449,0.008919 L0.015457,0.008878 L0.015496,0.008892 L0.015527,0.008871 L0.015595,0.008942 L0.015926,0.008667 L0.016174,0.008700 L0.016387,0.008687 L0.016638,0.008619 L0.016698,0.008601 L0.016886,0.008831 L0.017105,0.009079 L0.017323,0.009337 L0.017534,0.009322 L0.017772,0.009291 L0.017921,0.009263 L0.018007,0.009470 L0.018125,0.009798 L0.018181,0.009992 L0.018179,0.010261 L0.018176,0.010467 L0.018194,0.010804 L0.018211,0.011040 L0.018236,0.011145 L0.018301,0.011363 L0.018411,0.011699 L0.018475,0.011963 L0.018612,0.011944 L0.018733,0.011910 L0.018835,0.011891 L0.018918,0.011880 L0.018981,0.011878 L0.019043,0.011892 L0.019123,0.011915 L0.019212,0.011913 L0.019326,0.011885 L0.019461,0.011829 L0.019520,0.011797 L0.019569,0.011788 L0.019664,0.011773 L0.019798,0.011734 L0.019937,0.011702 L0.020096,0.011666 L0.020130,0.011637 L0.020156,0.011655 L0.020292,0.011620 L0.020518,0.011538 L0.020684,0.011453 L0.020694,0.011461 L0.020858,0.011396 L0.020858,0.011387 L0.021013,0.011325 L0.021019,0.011337 L0.021092,0.011303 L0.021127,0.011292 L0.021225,0.011257 L0.021254,0.011246 L0.021382,0.011204 L0.021490,0.011177 L0.021632,0.011151 L0.021652,0.011148 L0.021814,0.011117 L0.021986,0.011066 L0.022077,0.011036 L0.022186,0.011001 L0.022234,0.010969 L0.022300,0.010959 L0.022413,0.010918 L0.022540,0.010872 L0.022634,0.010865 L0.022815,0.010830 L0.022938,0.010798 L0.022992,0.010766 L0.023041,0.010662 L0.023078,0.010451 L0.023086,0.010199 L0.023083,0.010175 L0.023117,0.010056 L0.023293,0.009642 L0.023324,0.009554 L0.023373,0.009532 L0.023475,0.009227 L0.023621,0.009208 L0.023632,0.009273 L0.023729,0.009338 L0.023919,0.009478 L0.024111,0.009634 L0.024158,0.009704 L0.024435,0.010004 L0.024552,0.010129 L0.024656,0.010279 L0.024704,0.010338 L0.024720,0.010398 L0.024756,0.010563 L0.024775,0.010691 L0.024803,0.010827 L0.024856,0.010999 L0.024884,0.011114 L0.024898,0.011210 L0.024916,0.011324 L0.024921,0.011354 L0.024927,0.011392 L0.024939,0.011462 L0.024940,0.011485 L0.024922,0.011541 L0.024915,0.011563 L0.024961,0.011754 L0.024998,0.011875 L0.025034,0.011929 L0.025083,0.011966 L0.025139,0.012039 L0.025136,0.012259 L0.025134,0.012598 L0.025114,0.012755 L0.025087,0.012898 L0.025079,0.013009 L0.025067,0.013102 L0.025060,0.013237 L0.025036,0.013412 L0.025008,0.013504 L0.024959,0.013584 L0.024907,0.013628 L0.024830,0.013649 L0.024781,0.013668 L0.024771,0.013679 L0.024753,0.013817 L0.024753,0.013862 L0.025001,0.013893 L0.025102,0.013910 L0.025178,0.013913 L0.025271,0.013887 L0.025332,0.013852 L0.025379,0.013816 L0.025484,0.013775 L0.025546,0.013822 L0.025699,0.013943 L0.025766,0.014020 L0.025797,0.014059 L0.025947,0.014190 L0.025982,0.014242 L0.025989,0.014252 L0.025948,0.014288 L0.025890,0.014339 L0.025836,0.014410 L0.025742,0.014568 L0.025706,0.014629 L0.025670,0.014682 L0.025550,0.014861 L0.025522,0.014904 L0.025404,0.015098 L0.025227,0.015225 L0.025037,0.015357 L0.024835,0.015508 L0.024750,0.015568 L0.024700,0.015607 L0.024640,0.015650 L0.024545,0.015696 L0.024222,0.015816 L0.024074,0.015874 L0.023906,0.015927 L0.023713,0.015980 L0.023583,0.016011 L0.023370,0.016049 L0.023349,0.016032 L0.023341,0.016025 L0.023312,0.016002 L0.023303,0.015986 L0.023288,0.015957 L0.023240,0.015921 L0.023219,0.015904 L0.023104,0.016010 L0.022939,0.016151 L0.022784,0.016286 L0.022670,0.016379 L0.022667,0.016381 L0.022795,0.016561 L0.022907,0.016722 L0.022927,0.016758 L0.022933,0.016810 L0.022939,0.016826 L0.022981,0.016902 L0.022993,0.016923 L0.023020,0.016987 L0.023044,0.017009 L0.023216,0.017394 L0.023313,0.017619 L0.023322,0.017637 L0.023382,0.017605 L0.023542,0.017742 L0.023595,0.017801 L0.023783,0.017946 L0.023836,0.017986 L0.024114,0.018203 L0.024260,0.018309 L0.024363,0.018379 L0.024366,0.018385 L0.024383,0.018415 L0.024422,0.018447 L0.024434,0.018433 L0.024445,0.018420 L0.024555,0.018495 L0.024666,0.018578 L0.024793,0.018660 L0.024892,0.018744 L0.024964,0.018813 L0.025019,0.018865 L0.025182,0.019025 L0.024906,0.019318 L0.024752,0.019503 L0.024727,0.019488 L0.024583,0.019654 L0.024274,0.020002 L0.024227,0.020070 L0.024132,0.020168 L0.024111,0.020189 L0.024048,0.020177 L0.023847,0.020110 L0.023831,0.020101 L0.023777,0.020082 L0.023602,0.020283 L0.023405,0.020490 L0.023160,0.020763 L0.023167,0.020770 L0.022993,0.020946 L0.022728,0.021238 L0.022612,0.021356 L0.022532,0.021454 L0.022372,0.021655 L0.022231,0.021795 L0.022095,0.021939 L0.021998,0.022055 L0.022467,0.022254 L0.022872,0.022435 L0.023084,0.022554 L0.023306,0.022707 L0.023543,0.022912 L0.023674,0.023022 L0.023761,0.023078 L0.023864,0.023126 L0.023930,0.023158 L0.024003,0.023174 L0.024073,0.023181 L0.024161,0.023181 L0.024300,0.023198 L0.024473,0.023272 L0.024808,0.023426 L0.024961,0.023517 L0.025069,0.023557 L0.025248,0.023599 L0.025495,0.023616 L0.025632,0.023618 L0.025736,0.023619 L0.025836,0.023631 L0.025938,0.023656 L0.026070,0.023704 L0.026171,0.023752 L0.026265,0.023802 L0.026334,0.023827 L0.026456,0.023828 L0.026571,0.023803 L0.026659,0.023763 L0.026733,0.023711 L0.026774,0.023657 L0.026814,0.023582 L0.026825,0.023516 L0.026821,0.023454 L0.026818,0.023385 L0.026810,0.023305 L0.026854,0.023218 L0.026909,0.023166 L0.026974,0.023109 L0.027050,0.023060 L0.027133,0.023020 L0.027222,0.023007 L0.027323,0.023015 L0.027433,0.023049 L0.027547,0.023104 L0.027720,0.023214 L0.028067,0.023382 L0.028276,0.023472 L0.028533,0.023552 L0.028720,0.023594 L0.028813,0.023646 L0.028926,0.023698 L0.029120,0.023737 L0.029417,0.023775 L0.029741,0.023791 L0.030110,0.023812 L0.030416,0.023832 L0.030654,0.023891 L0.030782,0.023910 L0.030918,0.023882 L0.031210,0.023791 L0.031585,0.023631 L0.031801,0.023556 L0.031902,0.023540 L0.032030,0.023559 L0.032146,0.023608 L0.032353,0.023727 L0.032586,0.023885 L0.033169,0.024181 L0.033624,0.024398 L0.033791,0.024488 L0.033929,0.024590 L0.034079,0.024671 L0.034207,0.024717 L0.034302,0.024731 L0.034414,0.024708 L0.034497,0.024672 L0.034598,0.024631 L0.034671,0.024601 L0.034733,0.024558 L0.034762,0.024525 L0.034806,0.024512 L0.034899,0.024541 L0.035109,0.024714 L0.035334,0.024907 L0.035569,0.025065 L0.035763,0.025184 L0.035916,0.025254 L0.036070,0.025308 L0.036175,0.025351 L0.036232,0.025365 L0.036276,0.025362 L0.036329,0.025331 L0.036356,0.025307 L0.036435,0.025279 L0.036663,0.025243 L0.036829,0.025211 L0.036968,0.025152 L0.037100,0.025094 L0.037340,0.024998 L0.037546,0.024918 L0.038078,0.024723 L0.038447,0.024539 L0.038731,0.024318 L0.038858,0.024204 L0.038967,0.024866 L0.039075,0.025510 L0.039138,0.025722 L0.039180,0.025987 L0.039045,0.026058 L0.039155,0.026562 L0.039268,0.026656 L0.039448,0.026863 L0.039509,0.027068 L0.039563,0.027148 L0.039627,0.027358 L0.039662,0.027537 L0.039659,0.027639 L0.039705,0.027850 L0.039741,0.028086 L0.039762,0.028213 L0.039825,0.028424 L0.039870,0.028584 L0.039892,0.028979 L0.039881,0.029137 L0.039889,0.029180 L0.039941,0.029202 L0.039920,0.029325 L0.039839,0.029415 L0.039827,0.029585 L0.039873,0.030191 L0.039903,0.030456 L0.040039,0.030461 L0.040047,0.030726 L0.040341,0.031276 L0.040745,0.032123 L0.041399,0.033457 L0.042451,0.035592 L0.042770,0.036199 L0.042903,0.036469 L0.042986,0.036628 L0.043055,0.036764 L0.043115,0.036877 L0.043155,0.036946 L0.043237,0.037113 L0.043311,0.037263 L0.043434,0.037553 L0.043545,0.037807 L0.043666,0.038075 L0.043788,0.038369 L0.043993,0.038779 L0.044103,0.038962 L0.044148,0.039068 L0.043687,0.039402 L0.043551,0.039588 L0.043210,0.040361 L0.043156,0.040335 L0.043064,0.040292 L0.042318,0.039941 L0.041807,0.039720 L0.041395,0.039534 L0.040986,0.039352 L0.040591,0.039166 L0.040401,0.039090 L0.040176,0.038988 L0.039894,0.038856 L0.039202,0.038517 L0.038527,0.038191 L0.038278,0.038074 L0.037980,0.037931 L0.037742,0.037818 L0.036043,0.037039 L0.034616,0.036387 L0.034029,0.036140 L0.033607,0.035971 L0.033261,0.035830 L0.032656,0.035534 L0.032015,0.035221 L0.031500,0.034970 L0.030764,0.034622 L0.029813,0.034190 L0.028532,0.033571 L0.026179,0.032426 L0.023467,0.031201 L0.024957,0.027575 L0.023659,0.026821 L0.022244,0.025865 L0.020176,0.024273 L0.018580,0.023054 L0.017446,0.021982 L0.015318,0.020483 L0.006708,0.018034 L0.006555,0.017979 L0.006132,0.017845 L0.005930,0.017791 L0.005889,0.017777 L0.005154,0.017575 L0.004999,0.017521 L0.004500,0.017386 L0.004500,0.017379 L0.004486,0.017319 L0.004482,0.017314 L0.004551,0.017332 L0.004804,0.016410 L0.005211,0.014938 L0.005709,0.013118 L0.005952,0.012213 L0.006074,0.011792 L0.006165,0.011501 L0.006180,0.011488 L0.006200,0.011476 L0.006220,0.011414 L0.006215,0.011408 L0.006211,0.011392 L0.006247,0.011269 L0.006237,0.011267 L0.006308,0.010990 L0.006348,0.010840 L0.006471,0.010376 L0.006485,0.010314 L0.006547,0.010199 L0.006597,0.010143 L0.006616,0.010083 L0.006589,0.010063 L0.006564,0.010025 L0.006562,0.009960 L0.006572,0.009898 L0.006647,0.009619 L0.006661,0.009549 L0.006666,0.009521 L0.006698,0.009382 L0.006716,0.009337 L0.006738,0.009267 L0.006839,0.008898 L0.006851,0.008889 L0.006881,0.008881 L0.006887,0.008836 L0.006940,0.008556 L0.006942,0.008546 L0.006917,0.008537 L0.007014,0.008247 L0.007047,0.008138 L0.007120,0.007936 L0.007159,0.007831 L0.007192,0.007728 L0.007216,0.007687 L0.007246,0.007664 L0.007306,0.007647 L0.007337,0.007647 L0.007369,0.007669 L0.007425,0.007793 L0.007475,0.007897 L0.007479,0.007908 L0.007481,0.007922 L0.007548,0.007967 L0.007582,0.007937 L0.007636,0.007892 L0.007728,0.007802 L0.007718,0.007755 L0.007719,0.007577 L0.007716,0.007340 L0.007845,0.007331 L0.008043,0.007330 L0.008166,0.007335 L0.008255,0.007346 L0.008286,0.007365 L0.008317,0.007398 L0.008386,0.007416 L0.008472,0.007419 L0.008543,0.007428 L0.008750,0.007444 L0.008724,0.007648 L0.008655,0.007769 L0.008608,0.007864 Z">
    <title>Njësia 11</title>
  </path>
</svg>
