<?xml version="1.0" encoding="UTF-8"?>
<svg xmlns="http://www.w3.org/2000/svg" viewBox="0 0 0.098594 0.082349" width="800" height="800">
  <style>
    .boundary {
      fill: none;
      stroke: #222222;
      stroke-width: 1;
      vector-effect: non-scaling-stroke;
    }
  </style>
  <path class="boundary" d="M0.064920,0.043065 L0.063438,0.043909 L0.061587,0.044973 L0.060817,0.045397 L0.060668,0.045533 L0.060147,0.046127 L0.059516,0.046850 L0.058849,0.047572 L0.058473,0.047984 L0.058536,0.048194 L0.058548,0.048385 L0.058488,0.048663 L0.058553,0.048695 L0.058755,0.048660 L0.058891,0.048592 L0.059078,0.048501 L0.059403,0.048325 L0.059556,0.048146 L0.059732,0.047905 L0.059753,0.047811 L0.059603,0.047737 L0.059400,0.047638 L0.059448,0.047562 L0.060019,0.046916 L0.060462,0.046416 L0.060553,0.046295 L0.060602,0.046314 L0.060686,0.046239 L0.060766,0.046151 L0.060814,0.046086 L0.060884,0.046020 L0.060950,0.046002 L0.060988,0.045970 L0.061038,0.046013 L0.061143,0.046106 L0.061236,0.046057 L0.061357,0.046030 L0.061458,0.046059 L0.061613,0.045967 L0.061651,0.045870 L0.061821,0.045816 L0.061875,0.045893 L0.061851,0.045979 L0.061895,0.046065 L0.061942,0.046095 L0.062054,0.046034 L0.062159,0.045959 L0.062267,0.045902 L0.062458,0.045803 L0.062701,0.045778 L0.062951,0.045777 L0.063244,0.045787 L0.063569,0.045824 L0.063725,0.045885 L0.063778,0.045927 L0.063476,0.046166 L0.063681,0.046367 L0.063737,0.046414 L0.063771,0.046393 L0.063932,0.046490 L0.064036,0.046596 L0.064064,0.046698 L0.064156,0.046823 L0.064198,0.046901 L0.064266,0.047013 L0.064344,0.046943 L0.064417,0.046846 L0.064436,0.046786 L0.064492,0.046762 L0.064718,0.046762 L0.064886,0.046817 L0.064916,0.047021 L0.065091,0.046929 L0.065208,0.046905 L0.065544,0.046854 L0.065869,0.046850 L0.066224,0.046802 L0.066371,0.046730 L0.066462,0.046880 L0.066583,0.046856 L0.066795,0.046748 L0.066997,0.046712 L0.067210,0.046717 L0.067403,0.046712 L0.067639,0.046701 L0.067829,0.046726 L0.068055,0.046813 L0.068310,0.047361 L0.068490,0.047298 L0.068697,0.047231 L0.068845,0.047175 L0.068956,0.047168 L0.069081,0.047219 L0.069215,0.047303 L0.069501,0.047485 L0.069599,0.047543 L0.069723,0.047341 L0.069796,0.047325 L0.069893,0.047309 L0.069969,0.047288 L0.070022,0.047218 L0.070132,0.047254 L0.070373,0.047345 L0.070746,0.047560 L0.071081,0.047700 L0.071169,0.047796 L0.071355,0.047946 L0.071571,0.047751 L0.071833,0.047366 L0.072029,0.047130 L0.072089,0.046964 L0.072100,0.046718 L0.072210,0.046536 L0.072409,0.046512 L0.072723,0.046295 L0.073083,0.046169 L0.073764,0.046160 L0.074829,0.046146 L0.075072,0.046301 L0.075417,0.046545 L0.075601,0.046733 L0.075699,0.046890 L0.075860,0.047157 L0.075905,0.047405 L0.075883,0.047584 L0.075800,0.047858 L0.075781,0.047997 L0.075828,0.048185 L0.075900,0.048344 L0.076006,0.048583 L0.076200,0.048899 L0.076381,0.049108 L0.076465,0.049080 L0.076591,0.049003 L0.076709,0.048983 L0.076805,0.049000 L0.076980,0.049028 L0.077122,0.049029 L0.077244,0.049051 L0.077347,0.049111 L0.077473,0.049237 L0.077535,0.049312 L0.077595,0.049335 L0.077695,0.049295 L0.077828,0.049138 L0.077952,0.048925 L0.078008,0.048866 L0.078144,0.048816 L0.078421,0.048734 L0.078656,0.048694 L0.078809,0.048671 L0.078997,0.048553 L0.079313,0.048446 L0.079319,0.048308 L0.079370,0.047998 L0.079388,0.047830 L0.079352,0.047691 L0.079142,0.047380 L0.079059,0.047211 L0.078952,0.046949 L0.078925,0.046793 L0.078854,0.046593 L0.078795,0.046354 L0.080088,0.046438 L0.081549,0.046316 L0.083395,0.045966 L0.083470,0.045921 L0.083691,0.046980 L0.083804,0.047925 L0.084128,0.049682 L0.084379,0.050145 L0.084228,0.050460 L0.083781,0.051087 L0.083035,0.051925 L0.082602,0.051933 L0.081592,0.052386 L0.080715,0.052610 L0.081569,0.054213 L0.080860,0.054911 L0.080475,0.055064 L0.079856,0.055541 L0.077726,0.056733 L0.078029,0.057364 L0.076229,0.059695 L0.075374,0.062347 L0.075281,0.064009 L0.075332,0.064179 L0.075386,0.064427 L0.075548,0.064775 L0.075624,0.065482 L0.075871,0.066028 L0.075912,0.067291 L0.076172,0.067771 L0.076411,0.068042 L0.076715,0.069064 L0.076995,0.069602 L0.076764,0.069841 L0.076601,0.070009 L0.076546,0.070150 L0.076599,0.070327 L0.076766,0.070523 L0.076986,0.070762 L0.077022,0.071177 L0.077100,0.071365 L0.077224,0.071439 L0.077451,0.071465 L0.077640,0.071519 L0.077746,0.071622 L0.077785,0.071792 L0.077807,0.072001 L0.077791,0.072238 L0.077814,0.072494 L0.077797,0.072722 L0.077641,0.073056 L0.077541,0.073284 L0.077429,0.073438 L0.077290,0.073563 L0.077131,0.073698 L0.077399,0.074017 L0.076943,0.074461 L0.076588,0.074605 L0.076920,0.075733 L0.074816,0.076714 L0.073815,0.077224 L0.073880,0.077680 L0.073226,0.077590 L0.072729,0.077418 L0.072213,0.077246 L0.071777,0.077252 L0.071264,0.077278 L0.070909,0.077382 L0.070487,0.076891 L0.069540,0.075593 L0.069043,0.075361 L0.068192,0.075373 L0.067639,0.075420 L0.066981,0.075527 L0.066716,0.075726 L0.066506,0.075868 L0.066301,0.075986 L0.066141,0.076064 L0.065873,0.076156 L0.065556,0.076294 L0.065311,0.076380 L0.065015,0.076439 L0.064772,0.076450 L0.064561,0.076505 L0.064419,0.076616 L0.064306,0.076642 L0.064121,0.076716 L0.064015,0.076893 L0.063975,0.076995 L0.063888,0.077142 L0.063811,0.077184 L0.063721,0.077230 L0.063520,0.077288 L0.063355,0.077319 L0.063231,0.077338 L0.063050,0.077369 L0.062837,0.077406 L0.062596,0.077506 L0.062409,0.077639 L0.062142,0.077868 L0.061906,0.077736 L0.061725,0.077632 L0.061637,0.077576 L0.061551,0.077520 L0.061452,0.077461 L0.061245,0.077368 L0.061146,0.077320 L0.061134,0.077223 L0.061132,0.077158 L0.061140,0.077084 L0.061192,0.076978 L0.061248,0.076872 L0.061309,0.076736 L0.061324,0.076551 L0.061299,0.076373 L0.061260,0.076220 L0.061022,0.076125 L0.061001,0.076086 L0.060907,0.076015 L0.060342,0.075598 L0.059484,0.075013 L0.059654,0.074460 L0.059324,0.073832 L0.059367,0.073591 L0.059429,0.073257 L0.059342,0.072950 L0.058859,0.072574 L0.059015,0.071924 L0.058660,0.071409 L0.058365,0.071264 L0.058310,0.070656 L0.057625,0.070541 L0.056895,0.070343 L0.055785,0.069877 L0.054163,0.069016 L0.053903,0.068922 L0.052769,0.068509 L0.050740,0.067383 L0.049605,0.066414 L0.049194,0.066035 L0.048735,0.065640 L0.048519,0.065454 L0.048350,0.065308 L0.048158,0.065119 L0.048072,0.065026 L0.047919,0.064759 L0.047877,0.064561 L0.047768,0.064238 L0.047646,0.064015 L0.047497,0.063758 L0.047437,0.063654 L0.048359,0.063042 L0.048818,0.062628 L0.050104,0.061423 L0.050881,0.060742 L0.051917,0.059978 L0.052036,0.059895 L0.052392,0.059602 L0.052782,0.059391 L0.052992,0.059309 L0.053122,0.058953 L0.053238,0.058749 L0.053337,0.058543 L0.053501,0.058259 L0.053613,0.058150 L0.053812,0.058027 L0.054044,0.057815 L0.054168,0.057626 L0.054219,0.057390 L0.054223,0.057168 L0.054110,0.056696 L0.054092,0.056598 L0.054040,0.056269 L0.054052,0.056208 L0.054190,0.056172 L0.054517,0.056114 L0.055067,0.056013 L0.055637,0.055894 L0.055478,0.055067 L0.055358,0.054499 L0.055223,0.053717 L0.055078,0.052986 L0.055006,0.052649 L0.054850,0.051913 L0.054614,0.050704 L0.054478,0.050154 L0.054357,0.049614 L0.054327,0.049461 L0.054177,0.048709 L0.054056,0.048153 L0.053881,0.047231 L0.053688,0.046371 L0.053453,0.045191 L0.053238,0.044171 L0.053535,0.044024 L0.053688,0.043943 L0.053966,0.043724 L0.054145,0.043572 L0.054502,0.043170 L0.054943,0.042665 L0.055044,0.042554 L0.055123,0.042455 L0.055183,0.042635 L0.055406,0.043233 L0.055777,0.043053 L0.056950,0.042544 L0.057545,0.042291 L0.058120,0.042042 L0.058677,0.041795 L0.059096,0.041603 L0.059693,0.041253 L0.060297,0.040902 L0.060771,0.040625 L0.061181,0.040387 L0.061752,0.040062 L0.061938,0.039953 L0.062290,0.039748 L0.062725,0.039494 L0.063233,0.039194 L0.063993,0.038746 L0.064237,0.038602 L0.064774,0.039651 L0.064932,0.039951 L0.065043,0.040285 L0.065110,0.040733 L0.065272,0.041810 L0.065366,0.042359 L0.065408,0.042787 L0.064920,0.043065 Z">
    <title>Njësia 2</title>
  </path>
</svg>
